<svg xmlns="http://www.w3.org/2000/svg" fill="none" viewBox="0 0 320 322"><path fill="#2B2A29" fill-rule="evenodd" d="M156.32 252.541c-22.693-1.747-40.563-20.816-40.563-44.088 0-24.424 19.682-44.218 43.966-44.218 27.765 0 50.269-22.635 50.269-50.56 0-15.139-6.618-28.725-17.102-37.994a90.61 90.61 0 0 1 19.183 10.365c5.002 10.376 8.193 23.066 8.193 32.645 0 27.921-24.498 51.992-52.198 53.855-25.923 1.746-45.82 15.337-42.037 40.921 2.233 15.112 15.037 29.014 30.289 39.073v.001Zm12.229-.258c-16.147-10.338-29.823-23.917-32.067-36.868-3.12-18.011 9.076-28.798 40.299-34.326 27.34-4.84 53.162-26.516 52.778-61.615-.072-6.502-1.447-14.187-3.819-21.57a91.727 91.727 0 0 1 13.597 18.558c.12 2.117.188 4.181.21 6.154.384 35.099-20.414 56.262-46.993 64.331-29.393 8.923-45.75 9.101-44.956 26.197.56 12.034 17.814 25.544 37.798 35.877a90.23 90.23 0 0 1-16.851 3.264l.004-.002Zm28.088-7.409c-20.635-9.955-38.207-22.387-37.591-31.843.797-12.256 17.847-10.777 46.613-21.559 26.493-9.926 38.675-28.905 41.813-55.176a92.21 92.21 0 0 1 3.367 24.768c0 1.272-.025 2.54-.079 3.797-6.231 14.313-16.621 25.659-32.882 31.753-28.769 10.777-45.126 10.658-46.519 17.383-1.104 5.332 15.954 15.753 36.428 24.931a90.85 90.85 0 0 1-11.15 5.945v.001Zm19.723-12.02c-17.996-6.399-32.131-13.246-31.436-17.048 1.393-7.616 19.489-4.112 46.615-15.983 6.096-2.667 11.168-7.178 15.321-11.895a91.475 91.475 0 0 1-5.611 14.106c-25.497 12.843-39.868 10.648-40.592 14.252-.725 3.613 8.529 7.703 21.637 11.397a88.926 88.926 0 0 1-5.934 5.169v.002Zm10.394-9.722a91.762 91.762 0 0 0 8.59-10.935c-13.547 4.031-21.267 4.013-21.833 5.35-.783 1.848 4.611 3.78 13.245 5.584l-.002.001Zm-34.401-79.826-58.512-70.135a90.581 90.581 0 0 1 14.245-3.01l51.63 61.887a44.306 44.306 0 0 1-7.363 11.258Zm-9.895 8.223a43.55 43.55 0 0 1-12.46 5.151l-60.272-72.242a90.592 90.592 0 0 1 11.407-6.414l61.325 73.503v.002Zm-91.995-50.015a91.76 91.76 0 0 1 9.05-9.236l54.969 65.886a49.779 49.779 0 0 0-13.84 3.497l-50.18-60.147Zm-14.325 23.004a91.436 91.436 0 0 1 6.484-12.314l46.705 55.975a50.682 50.682 0 0 0-9.176 9.09l-44.013-52.751Zm-7.388 31.316a92.17 92.17 0 0 1 2.557-17.019l41.956 50.291a50.54 50.54 0 0 0-3.682 15.67l-40.83-48.944-.001.002Zm45.984 75.202a50.716 50.716 0 0 0 11.819 15.409c-29.025-11.411-50.804-37.364-56.489-68.95l44.67 53.541Zm88.859-114.437c.065-.967.097-1.942.097-2.924 0-22.808-17.167-41.58-39.289-44.05l39.192 46.972v.002Z" clip-rule="evenodd"/><path fill="#2B2A29" d="M25.445 126.116c-.746 3.232-2.11 5.449-4.087 6.65-1.978 1.199-4.552 1.435-7.722.703L.281 130.387l.955-4.141 13.325 3.073c2.012.464 3.632.383 4.86-.248 1.228-.63 2.059-1.887 2.494-3.771.414-1.798.214-3.271-.604-4.418-.818-1.146-2.233-1.953-4.245-2.417L3.74 115.39l.942-4.076 13.355 3.082c3.169.73 5.377 2.08 6.625 4.047 1.248 1.968 1.509 4.525.784 7.671l-.002.002Zm3.702-13.893-22.097-9.99 1.697-3.753 13.391 6.054.027-.059-3.674-9.073 2.05-4.534 4.555 11.28-1.487-.708 12.34-4.258-2.105 4.653-9.758 3.509-.027.059 6.786 3.068-1.698 3.752Zm7.643-16.47L26.05 89.58c-.61-.35-1.238-.692-1.884-1.025a24.965 24.965 0 0 0-1.918-.894l1.987-3.456 4.172 1.867-.33.572c-.843-.74-1.449-1.513-1.821-2.32-.37-.81-.523-1.626-.455-2.447.068-.824.32-1.615.757-2.378a7.49 7.49 0 0 1 .52-.803c.147-.195.322-.373.518-.538l3.125 1.836c-.36.275-.633.53-.82.764a7.633 7.633 0 0 0-.608.924c-.471.819-.696 1.608-.676 2.367.02.759.255 1.45.707 2.077.451.627 1.066 1.165 1.846 1.613l7.684 4.418-2.07 3.6.006-.002Zm10.485-16.098c-.84 1.181-1.861 2.02-3.06 2.514-1.202.494-2.51.616-3.92.367-1.414-.25-2.854-.898-4.322-1.94-1.467-1.046-2.548-2.19-3.236-3.435-.69-1.246-1.002-2.518-.928-3.812.072-1.295.528-2.536 1.368-3.717.815-1.146 1.813-1.953 2.994-2.42 1.181-.468 2.349-.508 3.501-.12l-.21.296-2.636-2.32 2.29-3.222c.518.447 1.047.897 1.588 1.35.542.453 1.088.876 1.644 1.271l10.178 7.238-2.369 3.33-2.81-1.96.228-.322c.727.948 1.056 2.058.987 3.33-.068 1.272-.498 2.464-1.287 3.574v-.002Zm-1.91-2.773c.752-1.057.986-2.17.701-3.345-.285-1.172-1.18-2.294-2.682-3.364-1.504-1.068-2.85-1.543-4.044-1.42-1.193.122-2.166.712-2.915 1.767-.752 1.056-.99 2.169-.712 3.334.275 1.167 1.165 2.285 2.668 3.353 1.503 1.07 2.854 1.55 4.048 1.444 1.196-.108 2.174-.697 2.938-1.77l-.002.001Zm10.318-8.407L43.64 56.992l2.843-2.981 12.044 11.483-2.843 2.981ZM41.215 55l-2.91-2.775 3.16-3.314 2.91 2.773L41.214 55Zm20.197 7.024-8.178-9.439a32.507 32.507 0 0 0-2.917-2.965l3.014-2.61 2.406 2.275-.298.26c-.364-1.227-.362-2.412.01-3.561.37-1.15 1.07-2.17 2.1-3.062 1.477-1.28 2.952-1.83 4.417-1.646 1.466.184 2.962 1.155 4.486 2.915l6.666 7.696-3.112 2.698-6.538-7.547c-.878-1.013-1.702-1.57-2.473-1.67-.771-.103-1.546.184-2.327.859-.962.834-1.469 1.794-1.514 2.882-.047 1.086.361 2.127 1.225 3.124l6.15 7.097-3.115 2.697-.002-.003Zm15.22-12.767-9.644-13.56 3.356-2.389 9.643 13.56-3.355 2.389Zm-11.645-15.98-2.33-3.275 3.733-2.654 2.33 3.276-3.733 2.654Zm24.317 7.95c-1.257.724-2.536 1.058-3.832 1.006-1.297-.054-2.536-.487-3.713-1.304-1.18-.816-2.218-2.007-3.117-3.57-.897-1.56-1.4-3.05-1.507-4.473-.107-1.42.143-2.705.75-3.852.606-1.149 1.54-2.084 2.796-2.805 1.218-.701 2.464-1.016 3.732-.948 1.267.069 2.345.52 3.23 1.354l-.314.18-1.426-3.208 3.428-1.97c.282.622.575 1.253.877 1.89.302.638.624 1.25.962 1.84l6.226 10.828-3.543 2.037-1.735-2.954.343-.198c.265 1.165.101 2.312-.494 3.44-.593 1.127-1.482 2.03-2.661 2.708h-.002Zm-.58-3.317c1.126-.645 1.802-1.56 2.034-2.746.233-1.185-.113-2.577-1.032-4.175-.92-1.6-1.947-2.593-3.082-2.98-1.134-.386-2.264-.257-3.388.389-1.123.645-1.803 1.557-2.039 2.731-.237 1.176.105 2.562 1.025 4.161.921 1.6 1.946 2.602 3.075 3.003 1.131.401 2.268.273 3.41-.383h-.002Zm12.714-3.69-4.58-11.618a33.282 33.282 0 0 0-1.768-3.765l3.71-1.462 1.514 2.945-.367.144c.065-1.277.461-2.395 1.192-3.355.73-.96 1.73-1.69 2.996-2.19 1.818-.718 3.39-.747 4.713-.087 1.322.66 2.412 2.072 3.264 4.238l3.735 9.473-3.832 1.51-3.661-9.287c-.491-1.246-1.085-2.044-1.779-2.399-.694-.352-1.521-.34-2.481.04-1.187.468-1.98 1.206-2.386 2.215-.405 1.01-.365 2.128.118 3.354l3.444 8.737-3.832 1.51v-.003Zm27.676-9.323-4.086-22.87 10.023-1.79c2.487-.445 4.496-.263 6.024.546 1.529.81 2.458 2.143 2.789 4.003.248 1.384.047 2.625-.606 3.724-.653 1.098-1.672 1.938-3.062 2.52l-.088-.486c1.706-.058 3.105.309 4.199 1.107 1.089.799 1.776 1.987 2.058 3.564.364 2.034-.057 3.731-1.264 5.096-1.206 1.365-3.066 2.271-5.572 2.72l-10.412 1.86-.003.006ZM132.568 21l5.903-1.056c1.407-.251 2.451-.712 3.135-1.38.683-.67.917-1.608.701-2.82-.221-1.234-.766-2.045-1.64-2.435-.874-.39-2.014-.46-3.418-.208l-5.904 1.053 1.223 6.844V21Zm-1.786-9.99 5.289-.945c1.492-.266 2.551-.74 3.177-1.42.626-.682.844-1.563.649-2.644-.194-1.08-.703-1.832-1.524-2.255-.822-.422-1.98-.5-3.473-.233l-5.286.944 1.17 6.552h-.002Zm28.556 10.905c-2.789.07-4.994-.642-6.614-2.14-1.619-1.496-2.464-3.583-2.532-6.264-.043-1.736.259-3.259.906-4.571.648-1.313 1.572-2.347 2.773-3.102 1.201-.756 2.615-1.155 4.238-1.194 1.603-.04 2.951.266 4.044.92 1.094.653 1.937 1.588 2.527 2.804.592 1.215.908 2.647.949 4.294l.027 1.086-12.121.307-.054-2.174 9.19-.232-.548.475c-.04-1.537-.392-2.703-1.061-3.5-.669-.796-1.617-1.179-2.847-1.148-1.361.034-2.398.545-3.11 1.528-.711.986-1.045 2.347-1.002 4.08l.011.427c.047 1.801.523 3.136 1.437 4 .911.867 2.181 1.28 3.806 1.24a8.986 8.986 0 0 0 2.642-.447 7.473 7.473 0 0 0 2.325-1.294l1.287 2.737c-.775.656-1.706 1.176-2.796 1.553-1.089.38-2.248.585-3.477.615Zm16.358.894c-1.439-.182-2.66-.687-3.662-1.512-1.001-.826-1.728-1.919-2.174-3.282-.445-1.363-.557-2.938-.329-4.726.229-1.785.727-3.278 1.5-4.475.772-1.198 1.746-2.07 2.924-2.618 1.178-.549 2.485-.73 3.924-.549 1.393.176 2.576.676 3.546 1.496.969.82 1.555 1.83 1.756 3.03l-.359-.045.8-3.42 3.924.498c-.151.667-.299 1.345-.441 2.037-.144.69-.259 1.372-.343 2.049l-1.576 12.389-4.053-.514.399-3.404.392.05c-.492 1.088-1.316 1.903-2.468 2.444-1.155.54-2.406.724-3.757.552h-.003Zm1.541-2.992c1.285.163 2.379-.157 3.278-.962.899-.806 1.465-2.122 1.697-3.955.232-1.83.013-3.242-.658-4.234-.671-.993-1.651-1.572-2.935-1.735-1.285-.164-2.377.152-3.274.947-.899.793-1.464 2.106-1.698 3.936-.232 1.831-.019 3.248.641 4.25.658 1.003 1.641 1.587 2.949 1.753Zm18.055 6.628c-1.965-.558-3.282-1.509-3.95-2.852-.669-1.343-.686-3.136-.051-5.375l2.773-9.762 3.963 1.126-2.764 9.731c-.336 1.184-.339 2.124-.014 2.822.327.697.987 1.186 1.98 1.469 1.12.318 2.14.203 3.062-.347.921-.549 1.563-1.459 1.922-2.725l2.566-9.034 3.962 1.126-4.548 16.007-3.866-1.098.928-3.266.444.126c-.789 1.009-1.737 1.694-2.843 2.052-1.108.36-2.294.36-3.562 0h-.002Zm19.593 6.705c-1.839-.726-3.039-1.755-3.6-3.085-.561-1.331-.464-2.958.293-4.879l2.816-7.142-2.972-1.173 1.136-2.88 2.973 1.17 1.559-3.954 4.218.53-1.945 4.935 4.137 1.63-1.136 2.881-4.138-1.63-2.719 6.897c-.419 1.063-.509 1.888-.269 2.48.239.59.715 1.025 1.431 1.309.388.153.734.252 1.032.3.3.047.602.072.91.076l-1.196 3.033a5.742 5.742 0 0 1-1.277-.13 7.772 7.772 0 0 1-1.253-.371v.003Zm1.539 8.552.637-3.339c1.019.275 1.906.446 2.661.513.757.066 1.446 0 2.065-.202.622-.201 1.233-.552 1.837-1.059l1.62-1.354-.823 1.392 1.239-18.32 3.9 1.998-1.284 13.929-.85-.436 10.582-9.167 3.697 1.894-14.752 12.177c-.991.825-1.928 1.45-2.811 1.874-.883.424-1.735.692-2.557.8a8.502 8.502 0 0 1-2.498-.04 17.72 17.72 0 0 1-2.661-.66h-.002Zm33.069 12.933c-1.412-1.223-2.557-2.526-3.435-3.913-.877-1.386-1.465-2.76-1.765-4.125l3.173-1.65c.22.886.518 1.733.896 2.54.376.806.852 1.58 1.428 2.327a14.664 14.664 0 0 0 2.032 2.13c1.31 1.137 2.445 1.741 3.4 1.813.957.072 1.735-.24 2.339-.938.533-.615.739-1.257.623-1.926-.119-.669-.599-1.557-1.441-2.665l-2.319-3.01c-1.322-1.726-2.045-3.327-2.165-4.798-.121-1.47.386-2.86 1.523-4.173.949-1.095 2.066-1.798 3.351-2.11 1.286-.309 2.647-.235 4.082.222 1.433.458 2.849 1.29 4.244 2.5 1.244 1.078 2.244 2.256 2.996 3.532.753 1.277 1.199 2.558 1.339 3.841l-3.067 1.527a9.712 9.712 0 0 0-1.187-3.36c-.595-1.024-1.415-1.991-2.462-2.896-1.179-1.021-2.293-1.588-3.344-1.7-1.052-.11-1.923.233-2.613 1.03-.532.614-.754 1.28-.664 1.997.09.718.54 1.6 1.347 2.649l2.314 2.965c1.372 1.771 2.131 3.379 2.273 4.825.144 1.446-.34 2.809-1.445 4.087-.907 1.047-1.984 1.72-3.232 2.02-1.248.298-2.577.222-3.986-.229-1.412-.453-2.823-1.29-4.233-2.512h-.002Zm13.499 13.017c-1.338-1.545-1.919-3.062-1.741-4.551.176-1.49 1.146-2.998 2.906-4.523l7.671-6.644 2.697 3.113-7.645 6.624c-.93.806-1.45 1.59-1.56 2.354-.109.762.175 1.534.851 2.314.762.88 1.678 1.342 2.749 1.389 1.072.046 2.106-.364 3.102-1.227l7.098-6.15 2.697 3.113-12.576 10.895-2.633-3.039 2.566-2.222.302.349c-1.214.411-2.381.463-3.503.158-1.124-.306-2.116-.959-2.979-1.955l-.002.002Zm3.138 14.013 16.505-10.582a32.121 32.121 0 0 0 1.712-1.176 32.222 32.222 0 0 0 1.642-1.288l2.152 3.358-2.746 2.188-.194-.306c1.158-.35 2.316-.264 3.472.26 1.159.522 2.117 1.375 2.876 2.56.795 1.237 1.197 2.507 1.206 3.805.011 1.296-.359 2.551-1.109 3.763-.75 1.212-1.883 2.304-3.4 3.275-1.518.973-2.987 1.548-4.41 1.731-1.422.182-2.722-.003-3.898-.555-1.174-.552-2.16-1.446-2.954-2.685-.747-1.165-1.119-2.375-1.114-3.63.004-1.255.392-2.34 1.164-3.251l.196.305-8.876 5.69-2.223-3.467-.001.005Zm12.894 1.674c.713 1.11 1.664 1.752 2.86 1.926 1.194.175 2.567-.237 4.121-1.233 1.554-.997 2.496-2.07 2.827-3.221.332-1.15.142-2.282-.569-3.391-.699-1.092-1.641-1.727-2.826-1.906-1.187-.18-2.555.228-4.109 1.224-1.554.996-2.501 2.073-2.841 3.231-.34 1.159-.16 2.282.537 3.374v-.004Zm-2.458 14.704 17.865-8.077a31.45 31.45 0 0 0 1.863-.916c.622-.329 1.227-.674 1.811-1.035l1.643 3.634-3.033 1.767-.151-.33c1.198-.179 2.33.073 3.398.76 1.07.685 1.896 1.669 2.475 2.95.606 1.342.82 2.655.642 3.941-.178 1.285-.727 2.472-1.644 3.564-.917 1.089-2.197 2.006-3.839 2.747-1.64.743-3.179 1.101-4.612 1.074-1.435-.027-2.694-.398-3.776-1.113-1.085-.716-1.928-1.745-2.534-3.086-.57-1.26-.763-2.512-.576-3.755.186-1.24.727-2.256 1.622-3.047l.15.33-9.608 4.345-1.697-3.753h.001Zm12.516 3.526c.543 1.201 1.391 1.975 2.548 2.32 1.156.345 2.575.137 4.256-.622 1.681-.761 2.769-1.685 3.264-2.778.494-1.092.471-2.24-.072-3.439-.534-1.181-1.374-1.945-2.521-2.296-1.148-.349-2.561-.144-4.242.615-1.682.76-2.775 1.689-3.28 2.785-.505 1.096-.491 2.236.043 3.415h.004Zm1.985 12.323 22.972-7.773 1.319 3.902-22.971 7.773-1.32-3.902Zm-4.542 9.498 2.963-1.665c.448.957.888 1.746 1.325 2.366.436.621.93 1.105 1.484 1.45.552.345 1.217.586 1.992.723l2.081.365-1.597.266 14.81-10.858.985 4.271-11.479 7.991-.214-.931 13.828 2.186.933 4.046-18.818-3.436c-1.27-.225-2.35-.54-3.244-.942-.894-.403-1.647-.883-2.26-1.441a8.49 8.49 0 0 1-1.579-1.935 17.354 17.354 0 0 1-1.21-2.461v.005ZM294.481 195.516c.746-3.231 2.107-5.448 4.087-6.647 1.98-1.2 4.553-1.435 7.721-.704l13.355 3.083-.954 4.141-13.325-3.075c-2.012-.464-3.632-.381-4.86.248-1.227.629-2.057 1.886-2.493 3.771-.415 1.798-.214 3.271.605 4.416.818 1.147 2.233 1.953 4.245 2.417l13.325 3.075-.941 4.076-13.355-3.082c-3.168-.73-5.377-2.08-6.624-4.048-1.248-1.967-1.509-4.524-.784-7.671h-.002Zm-3.715 13.89 22.099 9.99-1.697 3.753-13.391-6.053-.027.06 3.674 9.073-2.05 4.534-4.555-11.28 1.487.708-12.339 4.256 2.104-4.653 9.758-3.509.027-.059-6.786-3.068 1.698-3.752h-.002Zm-7.648 16.465 10.741 6.177a45.14 45.14 0 0 0 1.882 1.023c.646.335 1.284.632 1.919.896l-1.987 3.456-4.172-1.868.329-.57c.842.737 1.45 1.51 1.82 2.319.37.808.523 1.624.457 2.448a5.7 5.7 0 0 1-.757 2.377 7.48 7.48 0 0 1-.52.804 3.539 3.539 0 0 1-.518.537l-3.125-1.836c.36-.275.633-.53.82-.764a7.93 7.93 0 0 0 .608-.924c.471-.818.696-1.608.678-2.367a3.64 3.64 0 0 0-.707-2.076c-.45-.626-1.066-1.164-1.847-1.613l-7.683-4.419 2.067-3.6h-.005Zm-10.489 16.098c.84-1.182 1.861-2.02 3.061-2.514 1.201-.495 2.508-.617 3.92-.367 1.413.25 2.854.897 4.321 1.94 1.467 1.045 2.548 2.189 3.237 3.435.692 1.246 1.001 2.517.927 3.814-.072 1.295-.528 2.535-1.368 3.717-.815 1.145-1.813 1.952-2.994 2.418-1.181.468-2.348.507-3.501.119l.209-.295 2.636 2.32-2.291 3.222c-.518-.448-1.047-.897-1.588-1.35a25.401 25.401 0 0 0-1.644-1.27l-10.177-7.238 2.368-3.33 2.811 1.96-.229.322c-.726-.948-1.055-2.057-.987-3.328.07-1.274.498-2.464 1.287-3.573l.002-.002Zm1.91 2.773c-.752 1.055-.985 2.17-.701 3.344.286 1.173 1.179 2.295 2.683 3.365 1.503 1.07 2.85 1.542 4.044 1.42 1.192-.122 2.163-.712 2.914-1.769.752-1.056.989-2.167.713-3.334-.277-1.167-1.166-2.284-2.669-3.354-1.503-1.07-2.854-1.55-4.048-1.444-1.195.108-2.174.698-2.938 1.772h.002Zm-10.325 8.401 12.044 11.483-2.841 2.981-12.044-11.483 2.841-2.981Zm14.468 13.475 2.909 2.773-3.159 3.316-2.909-2.775 3.159-3.314Zm-20.203-7.027 8.179 9.439a33.086 33.086 0 0 0 2.916 2.965l-3.014 2.611-2.406-2.275.299-.259c.363 1.225.361 2.412-.011 3.561-.37 1.149-1.072 2.168-2.1 3.062-1.478 1.28-2.951 1.829-4.416 1.645-1.468-.183-2.962-1.154-4.487-2.915l-6.666-7.696 3.113-2.697 6.538 7.547c.878 1.012 1.701 1.57 2.473 1.67.771.103 1.546-.185 2.326-.859.962-.835 1.468-1.797 1.514-2.883.047-1.086-.361-2.127-1.224-3.123l-6.15-7.099 3.113-2.698.003.004Zm-15.223 12.762 9.644 13.56-3.356 2.386-9.643-13.56 3.357-2.386h-.002Zm11.645 15.978 2.33 3.277-3.733 2.654-2.33-3.277 3.733-2.654Zm-24.32-7.955c1.257-.723 2.533-1.057 3.832-1.005 1.296.054 2.535.487 3.715 1.304 1.179.816 2.217 2.006 3.116 3.569.897 1.561 1.401 3.052 1.507 4.474.108 1.42-.142 2.704-.75 3.852-.608 1.149-1.539 2.084-2.796 2.805-1.22.701-2.464 1.016-3.732.947-1.267-.068-2.344-.519-3.231-1.354l.315-.179 1.426 3.208-3.428 1.97c-.282-.622-.575-1.253-.877-1.89a26.588 26.588 0 0 0-.964-1.841l-6.225-10.827 3.542-2.037 1.737 2.954-.343.198c-.265-1.165-.099-2.312.494-3.44.594-1.127 1.482-2.03 2.662-2.708Zm.577 3.318c-1.124.645-1.802 1.561-2.034 2.746-.23 1.185.113 2.576 1.034 4.175.919 1.6 1.947 2.593 3.082 2.98 1.135.386 2.264.257 3.388-.389 1.126-.645 1.803-1.557 2.041-2.731.237-1.176-.104-2.563-1.025-4.161-.921-1.601-1.946-2.602-3.077-3.003-1.129-.401-2.266-.274-3.407.383h-.002Zm-12.717 3.681 4.582 11.618c.25.633.523 1.267.822 1.906.298.638.615 1.257.945 1.859l-3.709 1.462-1.516-2.945.369-.144c-.065 1.276-.461 2.395-1.191 3.355-.732.96-1.73 1.69-2.997 2.19-1.818.718-3.39.747-4.712.087-1.321-.66-2.409-2.072-3.263-4.239l-3.735-9.472 3.832-1.511 3.663 9.289c.491 1.247 1.084 2.045 1.778 2.397.694.353 1.52.34 2.482-.039 1.185-.468 1.979-1.207 2.386-2.215.406-1.009.365-2.128-.117-3.354l-3.445-8.737 3.831-1.511-.005.004Zm-27.678 9.312 4.086 22.868-10.023 1.791c-2.487.444-4.494.262-6.022-.547-1.529-.809-2.458-2.145-2.791-4.004-.248-1.385-.045-2.626.608-3.724.651-1.099 1.672-1.939 3.062-2.521l.088.487c-1.706.059-3.107-.309-4.199-1.108-1.089-.798-1.776-1.987-2.058-3.564-.364-2.033.059-3.731 1.265-5.096 1.207-1.365 3.065-2.271 5.573-2.719l10.411-1.859v-.004Zm-3.454 3.897-5.903 1.054c-1.406.252-2.449.712-3.134 1.381-.686.669-.918 1.609-.702 2.819.221 1.234.766 2.045 1.64 2.435.874.39 2.012.46 3.419.209l5.903-1.054-1.223-6.844Zm1.786 9.991-5.289.944c-1.492.266-2.551.741-3.177 1.42-.626.682-.843 1.563-.649 2.644.194 1.08.703 1.832 1.525 2.255.823.422 1.979.5 3.472.233l5.287-.944-1.171-6.552h.002ZM160.54 299.66c2.789-.07 4.993.642 6.613 2.14 1.621 1.496 2.464 3.583 2.532 6.265.043 1.735-.259 3.258-.906 4.57-.647 1.313-1.572 2.347-2.773 3.102-1.199.756-2.613 1.155-4.238 1.194-1.602.042-2.951-.266-4.044-.92-1.094-.653-1.935-1.588-2.527-2.804-.591-1.215-.908-2.647-.949-4.294l-.027-1.086 12.121-.307.054 2.174-9.19.232.548-.477c.04 1.538.392 2.705 1.061 3.499.669.797 1.617 1.18 2.847 1.149 1.361-.034 2.399-.544 3.109-1.528.71-.985 1.045-2.347 1.001-4.08l-.01-.426c-.045-1.802-.524-3.136-1.435-4.001-.912-.867-2.182-1.281-3.807-1.239a8.954 8.954 0 0 0-2.642.446 7.47 7.47 0 0 0-2.323 1.294l-1.289-2.736c.775-.657 1.706-1.176 2.796-1.554 1.09-.379 2.25-.584 3.479-.615l-.001.002Zm-16.357-.905c1.439.182 2.66.687 3.662 1.513 1.003.825 1.728 1.92 2.174 3.281.445 1.363.555 2.939.329 4.726-.227 1.785-.727 3.28-1.5 4.476-.772 1.197-1.746 2.069-2.924 2.618-1.176.548-2.485.73-3.924.548-1.393-.178-2.575-.676-3.546-1.498-.969-.82-1.555-1.83-1.756-3.03l.359.045-.8 3.42-3.922-.498c.151-.667.299-1.345.441-2.037.144-.69.259-1.372.343-2.048l1.574-12.39 4.053.515-.399 3.404-.392-.051c.492-1.088 1.316-1.902 2.468-2.443 1.155-.54 2.406-.725 3.759-.552l.001.001Zm-1.541 2.993c-1.287-.164-2.379.156-3.278.962-.899.803-1.465 2.121-1.699 3.952-.232 1.83-.013 3.242.658 4.235.671.992 1.649 1.571 2.935 1.735 1.285.164 2.377-.153 3.274-.946.899-.795 1.464-2.107 1.698-3.938.232-1.829.02-3.247-.64-4.249-.659-1.003-1.642-1.588-2.949-1.753l.001.002Zm-18.055-6.638c1.965.558 3.282 1.509 3.95 2.852.669 1.344.686 3.136.049 5.375l-2.773 9.762-3.961-1.125 2.764-9.732c.336-1.183.339-2.124.014-2.823-.327-.698-.987-1.187-1.98-1.469-1.12-.319-2.141-.203-3.06.345-.921.548-1.563 1.458-1.923 2.726l-2.566 9.034-3.961-1.126 4.546-16.007 3.866 1.099-.928 3.263-.444-.125c.789-1.009 1.737-1.694 2.843-2.052 1.106-.36 2.294-.36 3.562 0l.002.003Zm-19.591-6.71c1.839.724 3.039 1.753 3.6 3.084.561 1.33.464 2.957-.293 4.878l-2.816 7.142 2.972 1.171-1.136 2.882-2.973-1.172-1.559 3.954-4.218-.53 1.945-4.936-4.137-1.631 1.136-2.881 4.138 1.631 2.72-6.898c.419-1.062.509-1.888.268-2.478-.239-.589-.715-1.026-1.431-1.309a5.096 5.096 0 0 0-1.032-.302 6.248 6.248 0 0 0-.908-.075l1.195-3.034c.405-.007.831.038 1.277.131.448.094.865.216 1.253.371l-.001.002Zm-1.538-8.56-.636 3.34c-1.018-.276-1.906-.446-2.662-.513-.755-.067-1.444 0-2.064.201-.622.2-1.234.552-1.838 1.058l-1.62 1.354.824-1.392-1.24 18.322-3.901-1.998 1.284-13.929.85.435-10.582 9.167-3.695-1.893 14.752-12.176c.99-.825 1.927-1.449 2.81-1.873.885-.425 1.736-.691 2.557-.8a8.479 8.479 0 0 1 2.498.039c.843.137 1.73.356 2.661.66l.002-.002Zm-33.061-12.945c1.411 1.223 2.555 2.527 3.434 3.911.878 1.387 1.468 2.76 1.768 4.125l-3.174 1.653a14.061 14.061 0 0 0-.894-2.541 12.437 12.437 0 0 0-1.429-2.327 14.927 14.927 0 0 0-2.032-2.131c-1.313-1.136-2.445-1.74-3.4-1.81-.955-.072-1.736.24-2.34.938-.532.615-.739 1.255-.622 1.926.119.669.599 1.557 1.44 2.665l2.318 3.012c1.324 1.726 2.045 3.325 2.165 4.796.12 1.471-.386 2.861-1.523 4.173-.95 1.095-2.066 1.798-3.352 2.109-1.287.31-2.647.236-4.081-.221-1.434-.458-2.849-1.291-4.244-2.499-1.244-1.079-2.244-2.257-2.998-3.535-.753-1.277-1.2-2.557-1.338-3.84l3.068-1.526a9.688 9.688 0 0 0 1.187 3.359c.595 1.025 1.415 1.99 2.462 2.895 1.18 1.021 2.292 1.588 3.344 1.699 1.052.112 1.922-.232 2.613-1.028.532-.615.753-1.281.663-1.998-.09-.718-.539-1.601-1.346-2.649l-2.315-2.965c-1.372-1.771-2.13-3.379-2.273-4.825-.143-1.445.34-2.807 1.448-4.085.906-1.047 1.983-1.719 3.231-2.018 1.248-.3 2.577-.224 3.987.229 1.412.453 2.823 1.289 4.233 2.512v-.004Zm-13.494-13.024c1.338 1.545 1.917 3.062 1.741 4.551-.178 1.491-1.145 2.996-2.906 4.523l-7.67 6.644-2.698-3.113 7.646-6.622c.93-.806 1.449-1.59 1.559-2.354.108-.763-.175-1.536-.85-2.315-.763-.881-1.68-1.343-2.75-1.388-1.072-.045-2.106.363-3.102 1.227l-7.098 6.148-2.697-3.113 12.578-10.895 2.633 3.039-2.566 2.222-.302-.349c1.212-.411 2.38-.464 3.503-.158 1.122.306 2.114.957 2.977 1.953h.002Zm-3.132-14.019-16.506 10.583c-.571.366-1.143.757-1.712 1.176-.568.417-1.114.845-1.641 1.287l-2.15-3.357 2.743-2.19.196.305c-1.158.351-2.316.265-3.472-.258-1.158-.524-2.117-1.376-2.875-2.561-.793-1.237-1.196-2.507-1.207-3.805-.01-1.298.36-2.552 1.11-3.764.75-1.212 1.882-2.303 3.398-3.274 1.516-.973 2.985-1.548 4.41-1.732 1.423-.181 2.722.004 3.898.554 1.176.552 2.16 1.446 2.954 2.685.746 1.165 1.118 2.375 1.113 3.63-.003 1.255-.392 2.34-1.163 3.251l-.196-.305 8.877-5.692 2.223 3.467Zm-12.895-1.674c-.712-1.109-1.663-1.751-2.859-1.926-1.194-.174-2.568.238-4.121 1.234-1.554.996-2.496 2.07-2.827 3.22-.333 1.153-.142 2.282.568 3.392.7 1.091 1.642 1.726 2.827 1.906 1.185.18 2.553-.228 4.107-1.225 1.553-.996 2.501-2.073 2.841-3.231.34-1.158.162-2.282-.538-3.373l.002.003Zm2.467-14.707-17.865 8.077c-.62.279-1.242.585-1.864.916-.623.329-1.227.674-1.811 1.035l-1.642-3.632 3.034-1.769.149.329c-1.198.178-2.329-.074-3.399-.761-1.07-.685-1.893-1.669-2.472-2.951-.606-1.341-.82-2.654-.642-3.94.178-1.285.724-2.474 1.643-3.564.918-1.089 2.198-2.005 3.84-2.747 1.641-.743 3.179-1.101 4.614-1.074 1.435.027 2.693.398 3.776 1.113 1.082.716 1.928 1.745 2.533 3.086.57 1.261.763 2.514.576 3.755-.185 1.24-.727 2.258-1.622 3.048l-.151-.331 9.608-4.343 1.697 3.753h-.002Zm-12.515-3.526c-.543-1.201-1.392-1.975-2.548-2.32-1.156-.343-2.577-.137-4.256.622-1.682.761-2.77 1.687-3.266 2.778-.494 1.092-.471 2.239.072 3.44.534 1.18 1.374 1.946 2.521 2.295 1.147.349 2.56.144 4.242-.615 1.681-.761 2.775-1.689 3.28-2.784.505-1.095.49-2.235-.043-3.415l-.002-.001Zm-1.98-12.327L5.875 215.39l-1.32-3.902 22.973-7.774 1.32 3.902v.002Zm4.548-9.5-2.964 1.665c-.446-.956-.886-1.744-1.323-2.366-.437-.62-.932-1.104-1.486-1.449-.552-.346-1.217-.586-1.992-.723l-2.08-.365 1.595-.266-14.808 10.857-.986-4.271 11.48-7.991.216.932-13.828-2.187-.934-4.046 18.818 3.437c1.27.224 2.35.539 3.244.942.894.403 1.647.883 2.26 1.44a8.524 8.524 0 0 1 1.58 1.935c.44.734.843 1.554 1.21 2.46l-.002-.004Z"/><path fill="#2B2A29" fill-rule="evenodd" d="m308.6 149.383 5.701 5.7 5.698 5.699-5.698 5.698-5.701 5.701-5.698-5.701-5.699-5.698 5.699-5.699 5.698-5.7ZM11.796 149.383l5.7 5.7 5.699 5.699-5.699 5.698-5.7 5.701-5.699-5.701-5.699-5.698 5.699-5.699 5.699-5.7Z" clip-rule="evenodd"/></svg>