<svg xmlns="http://www.w3.org/2000/svg" fill="none" viewBox="0 0 546 217">
	<defs/>
	<path fill="#fff" d="M110.77 28.43C90.3 9.48 65.9 0 37.58 0H.01v2.93h17.1v.01h20.4c24.54 0 45.66 9.19 63.37 27.55 17.7 18.36 26.56 40.65 26.56 66.88 0 27.11-8.43 50.21-25.26 69.33-16.83 19.13-37.41 28.69-61.74 28.69H33.7v-67.67h16.75c16.36 0 29.82-5.04 40.36-15.11 9.76-9.28 14.63-20.06 14.63-32.33 0-12.75-5.38-23.72-16.16-32.92-10.79-9.21-23.72-13.81-38.83-13.81H0v164.77h23.55v18.03H33.7v-18.03h6.82c27.88 0 51.68-9.97 71.4-29.9 19.7-19.93 29.57-43.62 29.57-71.06 0-26.99-10.24-49.98-30.72-68.93zm-87.21 65v101.95h-9.5V36.16h6.77v-.01h29.63c12.27 0 22.74 4.33 31.39 12.99 8.64 8.65 12.98 19.03 12.98 31.15 0 12.43-4.33 23.01-12.98 31.73-8.65 8.73-19.12 13.1-31.39 13.1H33.71V93.43H23.56z"/>
	<path fill="#fff" d="M54.9 39.25h-2.23v.01h2.23v-.01zM204.6 69.08h4.09V38.67h-4.09v-1.54h17.23c2.46 0 4.56.24 6.31.71s3.35 1.24 4.8 2.3c2.07 1.48 3.69 3.44 4.86 5.89 1.17 2.45 1.76 5.08 1.76 7.91 0 2.85-.6 5.5-1.79 7.96-1.2 2.46-2.85 4.45-4.98 5.96-1.4.99-3.01 1.73-4.82 2.2-1.81.47-3.93.71-6.34.71h-17.02v-1.69h-.01zm12.55 0h4.29c1.94 0 3.34-.14 4.22-.43.88-.29 1.61-.79 2.2-1.52.76-.93 1.29-2.21 1.6-3.84.31-1.63.47-4.1.47-7.4v-2.37c0-3.7-.11-6.36-.32-7.96-.21-1.6-.57-2.88-1.07-3.84-.61-1.13-1.39-1.92-2.36-2.37-.97-.45-2.55-.68-4.74-.68h-4.29v30.41zM241.449 70.75v-1.67h2.07c.56 0 1.02-.19 1.39-.56.37-.37.75-1.04 1.14-2.02l11.54-30.06h2.02l12.63 32.63h2.98v1.67h-16.29v-1.67h4.09l-2.96-7.85h-10.23l-2.22 5.73c-.05.1-.09.26-.11.47-.02.21-.04.46-.04.75s.13.51.39.67c.26.16.63.24 1.1.24h3.01v1.67h-10.51zm8.94-11.17h9.12l-4.44-11.8-4.68 11.8zM276.83 70.75v-1.67h2.6c.67 0 1.14-.15 1.4-.44.26-.29.39-.87.39-1.73V40.44c0-.72-.14-1.2-.43-1.43-.29-.23-.88-.34-1.79-.34h-2.07v-1.54h13.61l14.17 19.35V41.17c0-1.03-.16-1.7-.47-2.02-.31-.32-.98-.48-2.01-.48h-2.17v-1.54h10.76v1.54h-1.97c-.84 0-1.42.17-1.74.52-.32.35-.48 1.01-.48 1.98v30.36h-1.39l-22-30.26v25.96c0 .59.16 1.04.49 1.36.33.32.8.48 1.43.48h3.01v1.67h-11.34v.01zM343.46 60.67v10.08h-1.67l-2.27-1.87c-.99.89-2.17 1.57-3.52 2.02-1.36.45-2.87.68-4.53.68-2.31 0-4.42-.45-6.34-1.34-1.92-.89-3.7-2.26-5.35-4.09-1.63-1.78-2.85-3.69-3.66-5.72s-1.21-4.2-1.21-6.5c0-2.27.41-4.42 1.23-6.43.82-2.01 2.05-3.92 3.7-5.72 1.65-1.8 3.45-3.15 5.4-4.04 1.95-.89 4.08-1.34 6.39-1.34 1.41 0 2.75.2 4.02.61 1.26.4 2.48 1.01 3.64 1.82l1.82-1.74h1.69l.2 9.29h-1.79c-1.11-2.98-2.42-5.13-3.94-6.44-1.52-1.31-3.43-1.97-5.73-1.97-2.59 0-4.35.85-5.28 2.55-.93 1.7-1.39 5.97-1.39 12.81 0 3.6.04 6.3.13 8.08.08 1.79.23 3.07.43 3.86.42 1.68 1.11 2.9 2.07 3.64.96.74 2.31 1.11 4.04 1.11 2.37 0 4.5-.87 6.38-2.61 1.88-1.74 3.09-3.99 3.65-6.73h1.89v-.01zM348.06 70.75v-1.67h4.09V38.67h-4.09v-1.49h16.67v1.49h-4.04v13.82h11.29V38.67h-4.04v-1.49h16.59v1.49h-4.07v30.41h4.07v1.67h-16.59v-1.67h4.04V54.41h-11.29v14.67h4.04v1.67h-16.67zM387.79 70.75v-1.67h4.09V38.67h-3.51v-1.54h28.04l.1 8.84h-1.69c-1.15-2.86-2.31-4.79-3.49-5.8-1.18-1-2.9-1.5-5.15-1.5h-5.81v13.82c.13.02.29.03.47.04.18.01.42.01.72.01 1.83 0 3.22-.48 4.17-1.45.94-.97 1.56-2.54 1.84-4.71h1.69v14.35h-1.69c-.19-2.32-.76-3.99-1.72-5-.96-1.01-2.46-1.52-4.5-1.52h-.98v14.88H406c2.78 0 4.95-.73 6.52-2.2 1.57-1.47 2.79-3.92 3.69-7.35h1.59l-.35 11.21h-29.66zM421.68 70.75v-1.67h2.6c.67 0 1.14-.15 1.4-.44.26-.29.39-.87.39-1.73V40.44c0-.72-.14-1.2-.43-1.43-.29-.23-.88-.34-1.79-.34h-2.07v-1.54h13.61l14.17 19.35V41.17c0-1.03-.16-1.7-.47-2.02-.31-.32-.98-.48-2.01-.48h-2.17v-1.54h10.76v1.54h-1.97c-.84 0-1.42.17-1.74.52-.32.35-.48 1.01-.48 1.98v30.36h-1.39l-22-30.26v25.96c0 .59.16 1.04.49 1.36.33.32.8.48 1.43.48h3.01v1.67h-11.34v.01zM459.189 69.08h4.09V38.67h-4.09v-1.49h16.8v1.49h-4.12v30.41h4.12v1.67h-16.8v-1.67zm13.19-16.75l12-12.1c.22-.24.37-.42.45-.56.08-.13.13-.28.13-.43 0-.15-.08-.29-.23-.4a.874.874 0 00-.56-.18h-3.46v-1.49h12.4v1.49h-2.07c-1.01 0-1.87.16-2.58.48-.71.32-1.61 1.03-2.7 2.12l-7.07 7.17 13.92 20.64h4.04v1.67h-17.96v-1.67h4.09l-10.41-15.51v-1.23h.01zM496.6 53.97c0-2.26.44-4.42 1.31-6.49.87-2.07 2.15-3.97 3.81-5.71 1.78-1.8 3.68-3.14 5.68-4.02 2-.88 4.19-1.31 6.56-1.31 2.39 0 4.58.44 6.59 1.31 2 .88 3.9 2.21 5.68 4.02 1.68 1.73 2.97 3.64 3.85 5.72a16.48 16.48 0 011.33 6.48c0 2.29-.44 4.48-1.33 6.57-.88 2.09-2.17 3.99-3.85 5.71-1.73 1.78-3.61 3.11-5.63 3.98-2.02.87-4.23 1.3-6.64 1.3-2.39 0-4.58-.43-6.59-1.3-2-.87-3.89-2.19-5.65-3.98-1.67-1.72-2.94-3.62-3.81-5.72-.88-2.1-1.31-4.28-1.31-6.56zm10.05 0c0 4.31.07 7.28.21 8.9.14 1.62.4 2.83.77 3.62.54 1.23 1.3 2.11 2.29 2.65s2.34.81 4.03.81c1.71 0 3.07-.27 4.06-.81.99-.54 1.76-1.42 2.29-2.65.39-.86.65-2.15.81-3.86.15-1.72.23-4.6.23-8.66 0-4.04-.08-6.92-.23-8.64-.15-1.72-.42-3.01-.81-3.86-.54-1.23-1.3-2.11-2.29-2.65s-2.35-.81-4.06-.81c-1.7 0-3.04.27-4.03.81-.99.54-1.76 1.42-2.29 2.65-.37.79-.63 2-.77 3.62-.14 1.63-.21 4.59-.21 8.88zM213.35 130.73c-.71.86-1.5 1.48-2.35 1.86-.85.38-1.87.58-3.05.58-1.21 0-2.14-.3-2.79-.91-.65-.61-.98-1.48-.98-2.6 0-1.52.81-2.74 2.44-3.65 1.63-.91 3.84-1.36 6.63-1.36v-3.41c0-.79-.17-1.31-.5-1.56-.33-.25-.97-.39-1.91-.39-.61 0-1.07.07-1.38.21-.31.14-.47.35-.47.62 0 .07.11.3.33.69.22.39.33.79.33 1.19 0 .68-.21 1.2-.62 1.56-.41.36-1.01.54-1.78.54-.68 0-1.2-.19-1.57-.56-.37-.37-.55-.92-.55-1.63 0-1.12.58-2 1.74-2.62 1.16-.62 2.8-.93 4.92-.93.94 0 1.79.07 2.55.2.76.13 1.39.33 1.88.59.55.28.93.63 1.15 1.04.22.41.33 1.15.33 2.23v7.28c0 .42.09.73.27.92.18.19.47.29.85.29.16 0 .34-.05.52-.16s.31-.16.38-.16c.09 0 .18.04.25.11s.11.16.11.26c0 .45-.34.93-1.03 1.44-.69.51-1.47.77-2.35.77-.79 0-1.47-.22-2.06-.65-.59-.43-1.03-1.03-1.29-1.79zm-.1-5.12h-.42c-1.45 0-2.47.21-3.06.62-.59.41-.88 1.12-.88 2.12 0 1.02.16 1.75.47 2.19.31.44.82.66 1.52.66.7 0 1.27-.23 1.71-.7.44-.47.66-1.09.66-1.86v-3.03zM220.929 131.75h2.16V119.8h-2.39v-1.12c1.27 0 2.5-.02 3.71-.06 1.21-.04 2.41-.1 3.6-.18v3.57c.69-1.24 1.49-2.15 2.4-2.72.91-.57 2.02-.85 3.33-.85 1.55 0 2.62.32 3.23.97.61.65.91 2.02.91 4.11v8.24h2.09v1.07h-8.79v-1.07h1.85v-9.95c0-.66-.12-1.13-.35-1.42-.23-.29-.61-.44-1.12-.44-.88 0-1.68.52-2.41 1.55-.73 1.03-1.09 2.21-1.09 3.53v6.73h1.81v1.07h-8.93v-1.08h-.01zM252.81 132.82v-2.23c-.54.89-1.19 1.56-1.96 2-.77.44-1.66.67-2.68.67-1.88 0-3.45-.71-4.72-2.14-1.27-1.43-1.91-3.18-1.91-5.28 0-2.17.63-3.96 1.88-5.37 1.25-1.41 2.84-2.12 4.75-2.12 1.01 0 1.9.23 2.67.68.77.45 1.43 1.12 1.97 2.01v-10.55h-2.78l.02-1.07a101.643 101.643 0 007.61-.44v22.76h1.95v1.07h-6.8v.01zm0-5.66v-2.69c0-1.55-.37-2.78-1.1-3.7-.73-.92-1.7-1.38-2.89-1.38-.67 0-1.13.18-1.39.53-.26.35-.39 1.05-.39 2.11v7.49c0 1.07.13 1.79.4 2.16.27.37.72.56 1.38.56 1.2 0 2.16-.46 2.89-1.38.73-.92 1.1-2.16 1.1-3.7zM277.22 131.15h4.09v-30.41h-4.09V99.2h17.4c4.73 0 8.25.7 10.56 2.11 2.31 1.41 3.46 3.57 3.46 6.48 0 3.05-1.19 5.33-3.57 6.86-2.38 1.53-5.96 2.29-10.72 2.29h-4.55v14.22h4.77v1.67h-17.35v-1.68zm12.58-30.41v14.85h4.72c1.9 0 3.16-.4 3.78-1.21.61-.81.92-2.97.92-6.49 0-3.18-.31-5.17-.92-5.96-.62-.79-1.95-1.19-4-1.19h-4.5zM305.71 132.82v-1.67h2.07c.56 0 1.02-.19 1.39-.56.37-.37.75-1.04 1.14-2.02l11.54-30.06h2.02l12.63 32.63h2.98v1.67h-16.29v-1.67h4.09l-2.96-7.85h-10.23l-2.22 5.73c-.05.1-.09.26-.11.47-.02.21-.04.46-.04.75s.13.51.39.67c.26.16.63.24 1.1.24h3.01v1.67h-10.51zm8.94-11.17h9.12l-4.44-11.8-4.68 11.8zM341.3 131.15h3.99v-30.41h-3.99V99.2h18.79c3.87 0 6.84.63 8.9 1.89 2.06 1.26 3.09 3.08 3.09 5.46 0 2.41-.97 4.32-2.9 5.73-1.94 1.41-4.69 2.21-8.26 2.37v.43c3.65.49 6.24 1.63 7.75 3.42 1.52 1.79 2.27 4.65 2.27 8.57 0 1.62.16 2.68.48 3.19.32.51.88.77 1.69.77.32 0 .67-.04 1.05-.11.38-.08.79-.19 1.23-.34l.53 1.39c-1.11.51-2.18.89-3.19 1.16-1.02.27-1.91.4-2.67.4-1.4 0-2.66-.21-3.8-.63-1.14-.42-2.04-1.01-2.72-1.77-1.31-1.46-2.04-4.19-2.17-8.18-.02-.54-.03-.94-.05-1.21-.1-2.32-.65-3.94-1.64-4.85-.99-.91-2.67-1.36-5.03-1.36h-.88v15.61h4.39v1.67h-16.87v-1.66h.01zm12.48-17.27h4.24c1.92 0 3.22-.4 3.9-1.2.68-.8 1.02-2.5 1.02-5.09 0-3.27-.28-5.22-.85-5.87-.56-.65-1.92-.97-4.08-.97h-4.24v13.13h.01zM384.259 132.82v-1.67h4.14v-30.41h-1.82c-2.21 0-3.94.68-5.22 2.05-1.28 1.37-2.4 3.79-3.37 7.27h-1.34l.4-10.86h31.34l.43 10.86h-1.34c-.93-3.38-2.04-5.78-3.33-7.2-1.3-1.41-3.01-2.12-5.15-2.12h-1.92v30.41h4.14v1.67h-16.96zM411.16 132.82v-1.67h2.6c.67 0 1.14-.15 1.4-.44.26-.29.39-.87.39-1.73v-26.47c0-.72-.14-1.2-.43-1.43-.29-.23-.88-.34-1.79-.34h-2.07V99.2h13.61l14.17 19.35v-15.31c0-1.03-.16-1.7-.47-2.02-.31-.32-.98-.48-2.01-.48h-2.17V99.2h10.76v1.54h-1.97c-.84 0-1.42.17-1.74.52-.32.35-.48 1.01-.48 1.98v30.36h-1.39l-22-30.26v25.96c0 .59.16 1.04.49 1.36.33.32.8.48 1.43.48h3.01v1.67h-11.34v.01zM448.34 132.82v-1.67h4.09v-30.41h-3.51V99.2h28.04l.1 8.84h-1.69c-1.15-2.86-2.31-4.79-3.49-5.8-1.18-1-2.9-1.5-5.15-1.5h-5.81v13.82c.13.02.29.03.47.04.18.01.42.01.72.01 1.83 0 3.22-.48 4.17-1.45.94-.97 1.56-2.54 1.84-4.71h1.69v14.35h-1.69c-.19-2.32-.76-3.99-1.72-5-.96-1.01-2.46-1.52-4.5-1.52h-.98v14.88h5.63c2.78 0 4.95-.73 6.52-2.2 1.57-1.47 2.79-3.92 3.69-7.35h1.59l-.35 11.21h-29.66zM482.44 131.15h3.99v-30.41h-3.99V99.2h18.79c3.87 0 6.84.63 8.9 1.89 2.06 1.26 3.09 3.08 3.09 5.46 0 2.41-.97 4.32-2.9 5.73-1.94 1.41-4.69 2.21-8.26 2.37v.43c3.65.49 6.24 1.63 7.75 3.42 1.52 1.79 2.27 4.65 2.27 8.57 0 1.62.16 2.68.48 3.19.32.51.88.77 1.69.77.32 0 .67-.04 1.05-.11.38-.08.79-.19 1.23-.34l.53 1.39c-1.11.51-2.18.89-3.19 1.16-1.02.27-1.91.4-2.67.4-1.4 0-2.66-.21-3.8-.63-1.14-.42-2.04-1.01-2.72-1.77-1.31-1.46-2.04-4.19-2.17-8.18-.02-.54-.03-.94-.05-1.21-.1-2.32-.65-3.94-1.64-4.85-.99-.91-2.67-1.36-5.03-1.36h-.88v15.61h4.39v1.67h-16.87v-1.66h.01zm12.47-17.27h4.24c1.92 0 3.22-.4 3.9-1.2.68-.8 1.02-2.5 1.02-5.09 0-3.27-.28-5.22-.85-5.87-.56-.65-1.92-.97-4.08-.97h-4.24v13.13h.01zM520.3 133.22v-9.88h1.97c.86 2.86 2.13 5.03 3.83 6.49 1.69 1.46 3.77 2.2 6.23 2.2 2.21 0 4.03-.59 5.48-1.77 1.45-1.18 2.17-2.68 2.17-4.5 0-.98-.17-1.78-.52-2.41-.35-.63-.93-1.22-1.76-1.76-.94-.62-2.8-1.25-5.58-1.89-1.03-.24-1.81-.42-2.35-.56-3.25-.82-5.61-2.04-7.08-3.64-1.47-1.6-2.21-3.75-2.21-6.44 0-3.15.98-5.7 2.94-7.64 1.96-1.94 4.53-2.92 7.69-2.92 1.3 0 2.5.18 3.62.54 1.12.36 2.18.91 3.17 1.63l1.84-1.49h1.62l.2 8.89h-1.69c-.66-2.61-1.75-4.6-3.28-5.96-1.53-1.36-3.44-2.05-5.73-2.05-1.9 0-3.46.46-4.69 1.39-1.22.93-1.83 2.1-1.83 3.51 0 2.12 2.25 3.68 6.74 4.67.61.13 1.07.24 1.39.3 4.19.98 7.14 2.36 8.83 4.15 1.69 1.79 2.54 4.34 2.54 7.64 0 3.4-1.08 6.23-3.25 8.47-2.16 2.25-4.89 3.37-8.17 3.37-1.67 0-3.13-.19-4.4-.57-1.26-.38-2.44-.98-3.54-1.81l-2.32 2h-1.86v.04zM316.189 191.11v-.76h1.58v-13.89h-1.58v-.7h7.66v.7h-2.13v13.89h2.25c1.26 0 2.25-.33 2.96-1 .71-.67 1.28-1.79 1.68-3.36h.74l-.17 5.12h-12.99zM329.529 191.11v-.76h.95c.25 0 .47-.08.63-.25.17-.17.34-.48.52-.92l5.27-13.72h.92l5.77 14.9h1.36v.76h-7.44v-.76h1.87l-1.35-3.59h-4.67l-1.01 2.62c-.02.05-.04.12-.05.21-.01.1-.02.21-.02.34 0 .13.06.23.18.31.12.08.29.11.5.11h1.37v.76h-4.8v-.01zm4.08-5.1h4.16l-2.03-5.39-2.13 5.39zM350.99 191.47l-6.17-15h-1.3v-.7h16.14v.7h-.68c-.23 0-.41.05-.55.16-.13.1-.27.31-.4.61l-1.51 3.36 2.55 5.93 3.09-8.52c.07-.18.12-.36.16-.52.04-.17.06-.3.06-.41 0-.22-.06-.37-.17-.46-.11-.09-.32-.13-.62-.13h-.95v-.7h4.49v.7h-.73c-.35 0-.62.1-.84.3-.21.2-.44.63-.67 1.28l-4.87 13.42h-.63l-2.77-6.62-3 6.62h-.63v-.02zm1.93-4.66l1.3-2.91-3.16-7.48h-2.41l4.27 10.39zm3.189-7.11l1.44-3.29h-2.839l1.399 3.29zM373.329 191.11v-.76h1.83v-13.89h-1.88v-.7h13.06l.14 4.46h-.8c-.38-1.38-.88-2.36-1.51-2.92s-1.55-.84-2.75-.84h-2.36l.01 6.31c.05.01.12.01.2.02.08.01.19.01.33.01.82 0 1.45-.22 1.88-.67.43-.45.71-1.16.84-2.15h.78v6.55h-.78c-.08-1.06-.35-1.82-.78-2.28-.44-.46-1.11-.69-2.03-.69h-.45v6.79h2.25v.76h-7.98zM387.449 191.11v-.76h1.89v-13.89h-1.89v-.7h7.75v.7h-1.89v13.89h1.89v.76h-7.75zM396.579 190.35h1.82v-13.89h-1.82v-.7h8.58c1.77 0 3.12.29 4.07.86.94.58 1.41 1.41 1.41 2.49 0 1.1-.44 1.97-1.33 2.62-.88.65-2.14 1.01-3.77 1.08v.2c1.67.22 2.85.74 3.54 1.56.69.82 1.04 2.12 1.04 3.92 0 .74.07 1.22.22 1.46.15.23.4.35.77.35.15 0 .31-.02.48-.05.17-.03.36-.09.56-.16l.24.63c-.51.23-.99.41-1.46.53-.47.12-.87.18-1.22.18-.64 0-1.22-.1-1.74-.29-.52-.19-.93-.46-1.24-.81-.6-.67-.93-1.91-.99-3.74-.01-.25-.02-.43-.02-.55-.05-1.06-.3-1.8-.75-2.21-.45-.42-1.22-.62-2.3-.62h-.4v7.13h2.01v.76h-7.7v-.75zm5.7-7.89h1.94c.88 0 1.47-.18 1.78-.55.31-.37.47-1.14.47-2.32 0-1.49-.13-2.39-.39-2.68-.26-.3-.88-.44-1.86-.44h-1.94v5.99zM413.189 191.11v-.76h1.13c.3 0 .53-.1.69-.29.16-.19.24-.47.24-.84v-12.76h-2.05v-.7h6.63l2.7 8.86 2.86-8.86h6.29v.7h-1.98v13.89h1.93v.76h-7.79v-.76h2.08v-13.69h-.05l-4.53 14.45h-.81l-4.46-14.6v12.64c0 .45.08.76.24.93.16.18.45.27.87.27h1.02v.76h-5.01zM310.089 183.87h-103.11v1.2h103.11v-1.2zM545.199 182.85h-107.72v1.71h107.72v-1.71z"/>
</svg>