<svg xmlns="http://www.w3.org/2000/svg" fill="none" viewBox="0 0 276 64"><path fill="#2E2829" d="M73.215 14.338h7.064c5.62 0 9.553 3.604 9.553 9.532 0 5.927-3.933 9.532-9.553 9.532h-7.064V14.338Zm6.904 14.979c3.05 0 5.057-2.003 5.057-5.127v-.56c0-3.124-2.007-5.127-5.057-5.127H77.71v10.733h2.409v.08ZM109.742 33.402h-4.656l-1.285-4.566h-6.663l-1.285 4.566h-4.656l5.62-19.064h7.225l5.7 19.064Zm-7.225-8.731-1.205-4.406-.883-3.364h-.08l-.883 3.364-1.204 4.406h4.255ZM112.15 14.338h7.306c4.415 0 7.225 2.483 7.225 6.328 0 2.883-1.606 4.886-4.175 5.687l4.977 7.049h-5.459l-3.933-6.569h-1.445v6.569h-4.496V14.338Zm7.065 8.81c1.846 0 2.809-.96 2.809-2.242v-.32c0-1.362-.963-2.243-2.809-2.243h-2.569v4.806h2.569ZM134.147 18.583h-5.379v-4.245h15.173v4.245h-5.379v14.899h-4.496V18.583h.081ZM145.627 23.87c0-6.088 4.094-9.852 9.472-9.852 4.336 0 8.189 2.563 8.751 7.61h-4.656c-.482-2.404-2.168-3.445-4.095-3.445-2.809 0-4.736 2.082-4.736 5.366v.561c0 3.284 1.846 5.367 4.736 5.367 1.927 0 3.693-.961 4.095-3.444h4.656c-.562 4.966-4.415 7.61-8.751 7.61-5.298.08-9.472-3.605-9.472-9.773ZM172.199 23.87c0-6.088 4.094-9.852 9.473-9.852 4.496 0 7.626 2.563 8.429 6.888h-4.656c-.401-1.922-2.007-2.883-3.853-2.883-2.81 0-4.657 2.162-4.657 5.526v.561c0 3.364 1.847 5.527 4.817 5.527 2.087 0 3.854-1.041 4.094-3.204h-4.094v-3.845h8.43v10.734h-3.533v-2.323c-1.204 1.682-3.131 2.643-5.619 2.643-4.897.08-8.831-3.604-8.831-9.772ZM193.714 14.338h7.305c4.416 0 7.225 2.483 7.225 6.328 0 2.883-1.605 4.886-4.174 5.687l4.977 7.049h-5.459l-3.934-6.569h-1.445v6.569h-4.495V14.338Zm7.064 8.81c1.847 0 2.81-.96 2.81-2.242v-.32c0-1.362-.963-2.243-2.81-2.243h-2.569v4.806h2.569ZM210.572 23.87c0-6.088 4.095-9.852 9.473-9.852 5.379 0 9.473 3.684 9.473 9.852s-4.094 9.852-9.473 9.852c-5.378 0-9.473-3.684-9.473-9.852Zm9.473 5.687c2.89 0 4.817-2.083 4.817-5.367v-.56c0-3.284-1.846-5.367-4.817-5.367-2.97 0-4.816 2.082-4.816 5.367v.56c0 3.284 1.846 5.367 4.816 5.367ZM232.328 25.552V14.338h4.496v10.974c0 3.043 1.284 4.245 3.612 4.245 2.328 0 3.613-1.121 3.613-4.245V14.338h4.496v11.214c0 5.206-2.81 8.17-8.109 8.17-5.298 0-8.108-2.884-8.108-8.17ZM252.237 14.338h7.306c4.415 0 7.385 2.563 7.385 6.648 0 4.085-2.97 6.648-7.385 6.648h-2.81v5.848h-4.496V14.338Zm7.145 9.292c1.847 0 2.81-1.042 2.81-2.484v-.32c0-1.522-.963-2.483-2.81-2.483h-2.729v5.287h2.729Z"/><path fill="#938C90" d="m82.527 48.14.401 1.762.402-1.682 1.846-7.369H86.3l-2.489 9.852h-1.926l-1.767-7.209-.32-1.842-.402 1.762-1.766 7.21h-1.847l-2.488-9.853h1.204l1.846 7.37.402 1.681.401-1.762 1.847-7.37h1.766l1.766 7.45ZM87.344 47.019c0-2.323 1.365-3.765 3.291-3.765 1.927 0 3.131 1.282 3.131 3.524v.561h-5.218c0 1.522.803 2.403 2.168 2.403 1.043 0 1.605-.56 1.766-1.201h1.204c-.321 1.281-1.365 2.162-2.97 2.162-2.007.08-3.372-1.361-3.372-3.684Zm5.298-.561c0-1.362-.722-2.243-2.007-2.243-1.204 0-2.007.801-2.087 2.243h4.094ZM97.138 49.261v1.362h-1.124V40.21h1.124v4.486c.562-.961 1.284-1.442 2.328-1.442 1.686 0 3.051 1.362 3.051 3.765s-1.365 3.764-3.051 3.764c-.963 0-1.766-.56-2.328-1.522Zm2.167.561c1.285 0 2.088-.88 2.088-2.563v-.48c0-1.603-.803-2.564-2.088-2.564-1.364 0-2.087.961-2.087 2.323v.961c0 1.362.723 2.323 2.087 2.323ZM108.618 40.771h2.89c2.81 0 4.977 1.682 4.977 4.886s-2.167 4.886-4.977 4.886h-2.89v-9.772Zm2.81 8.811c2.328 0 3.853-1.442 3.853-3.605v-.56c0-2.163-1.525-3.605-3.853-3.605h-1.606v7.69h1.606v.08ZM118.332 47.019c0-2.323 1.364-3.765 3.291-3.765 1.927 0 3.131 1.282 3.131 3.524v.561h-5.218c0 1.522.803 2.403 2.167 2.403 1.044 0 1.606-.56 1.766-1.201h1.205c-.321 1.281-1.365 2.162-2.971 2.162-2.007.08-3.371-1.361-3.371-3.684Zm5.298-.561c0-1.362-.723-2.243-2.007-2.243-1.204 0-2.007.801-2.087 2.243h4.094ZM126.119 43.414h1.204l1.605 4.886.482 1.683.482-1.683 1.605-4.886h1.205l-2.489 7.21h-1.686l-2.408-7.21ZM134.227 47.019c0-2.323 1.365-3.765 3.291-3.765 1.927 0 3.131 1.282 3.131 3.524v.561h-5.218c0 1.522.803 2.403 2.168 2.403 1.043 0 1.605-.56 1.766-1.201h1.204c-.321 1.281-1.365 2.162-2.97 2.162-2.007.08-3.372-1.361-3.372-3.684Zm5.298-.561c0-1.362-.722-2.243-2.007-2.243-1.204 0-2.007.801-2.087 2.243h4.094ZM142.977 40.21h1.124v9.452h.883v.961h-2.007V40.21ZM146.831 47.019c0-2.323 1.364-3.765 3.291-3.765 1.927 0 3.292 1.442 3.292 3.765 0 2.323-1.365 3.764-3.292 3.764-1.927 0-3.291-1.441-3.291-3.764Zm3.371 2.803c1.285 0 2.088-.881 2.088-2.563v-.48c0-1.603-.803-2.564-2.088-2.564-1.284 0-2.167.881-2.167 2.563v.48c0 1.683.803 2.564 2.167 2.564ZM155.822 43.414h1.124v1.362c.562-.961 1.284-1.522 2.408-1.522 1.686 0 3.051 1.362 3.051 3.765s-1.365 3.764-3.051 3.764c-1.043 0-1.846-.56-2.328-1.441v4.245h-1.124V43.414h-.08Zm3.291 6.408c1.285 0 2.088-.881 2.088-2.563v-.48c0-1.603-.803-2.564-2.088-2.564-1.364 0-2.087.961-2.087 2.323v.961c0 1.362.723 2.323 2.087 2.323ZM164.733 43.414h1.124v1.282c.482-.801 1.204-1.362 2.248-1.362 1.043 0 1.846.56 2.167 1.602.482-.88 1.204-1.602 2.409-1.602 1.364 0 2.328.881 2.328 2.643v4.726h-1.124v-4.645c0-1.122-.482-1.763-1.606-1.763s-1.846.641-1.846 2.163v4.245h-1.124v-4.645c0-1.122-.482-1.763-1.606-1.763s-1.846.641-1.846 2.163v4.245h-1.124v-7.289ZM177.337 47.019c0-2.323 1.365-3.765 3.291-3.765 1.927 0 3.131 1.282 3.131 3.524v.561h-5.218c0 1.522.803 2.403 2.168 2.403 1.043 0 1.605-.56 1.766-1.201h1.204c-.321 1.281-1.365 2.162-2.97 2.162-2.007.08-3.372-1.361-3.372-3.684Zm5.298-.561c0-1.362-.722-2.243-2.007-2.243-1.204 0-2.007.801-2.087 2.243h4.094ZM186.007 43.414h1.124v1.282c.482-.801 1.204-1.362 2.328-1.362 1.365 0 2.328.881 2.328 2.643v4.726h-1.124v-4.645c0-1.122-.482-1.763-1.605-1.763-1.124 0-1.847.641-1.847 2.163v4.245h-1.124v-7.289h-.08ZM194.918 48.78v-4.405h-1.204v-.96h1.204v-1.843l1.124-.16v1.922h1.686v.961h-1.686v4.406c0 .8.16.88.803.88h.883v.962h-.964c-1.364.08-1.846-.56-1.846-1.762ZM203.347 45.737c0-3.124 1.847-5.046 4.416-5.046 2.408 0 3.692 1.602 3.933 3.364h-1.204c-.241-1.362-1.204-2.323-2.729-2.323-1.927 0-3.212 1.442-3.212 3.685v.56c0 2.243 1.285 3.685 3.212 3.685 1.525 0 2.569-.961 2.729-2.323h1.204c-.241 1.762-1.605 3.364-3.933 3.364-2.569.08-4.416-1.842-4.416-4.966ZM213.623 47.019c0-2.323 1.365-3.765 3.291-3.765 1.927 0 3.292 1.442 3.292 3.765 0 2.323-1.365 3.764-3.292 3.764-1.926 0-3.291-1.441-3.291-3.764Zm3.372 2.803c1.284 0 2.087-.881 2.087-2.563v-.48c0-1.603-.803-2.564-2.087-2.564-1.285 0-2.168.881-2.168 2.563v.48c0 1.683.883 2.564 2.168 2.564ZM222.614 43.414h1.124v1.282c.482-.801 1.204-1.362 2.248-1.362 1.044 0 1.846.56 2.168 1.602.481-.88 1.284-1.602 2.408-1.602 1.365 0 2.328.881 2.328 2.643v4.726h-1.124v-4.645c0-1.122-.482-1.763-1.605-1.763-1.124 0-1.847.641-1.847 2.163v4.245h-1.124v-4.645c0-1.122-.481-1.763-1.605-1.763s-1.847.641-1.847 2.163v4.245h-1.124v-7.289ZM235.62 43.414h1.123v1.362c.562-.961 1.285-1.522 2.409-1.522 1.686 0 3.05 1.362 3.05 3.765s-1.364 3.764-3.05 3.764c-1.044 0-1.847-.56-2.328-1.441v4.245H235.7V43.414h-.08Zm3.291 6.408c1.284 0 2.087-.881 2.087-2.563v-.48c0-1.603-.803-2.564-2.087-2.564-1.365 0-2.087.961-2.087 2.323v.961c0 1.362.722 2.323 2.087 2.323ZM244.209 48.86c0-1.2 1.044-1.841 2.088-2.082l2.408-.64v-.24c0-1.202-.562-1.683-1.606-1.683-1.043 0-1.685.48-1.685 1.442h-1.205c.081-1.522 1.285-2.403 2.89-2.403 1.767 0 2.73 1.041 2.73 2.643v4.726h-1.124v-1.281c-.562.88-1.204 1.361-2.328 1.361-1.365.08-2.168-.8-2.168-1.842Zm2.489 1.042c1.044 0 2.007-.56 2.007-1.922v-1.041l-2.167.64c-.803.24-1.205.561-1.205 1.202.081.72.562 1.121 1.365 1.121ZM252.558 43.414h1.124v1.282c.482-.801 1.205-1.362 2.328-1.362 1.365 0 2.329.881 2.329 2.643v4.726h-1.124v-4.645c0-1.122-.482-1.763-1.606-1.763s-1.846.641-1.846 2.163v4.245h-1.124v-7.289h-.081ZM263.396 50.303h-.803l-2.408-6.889h1.204l1.606 4.806.481 1.682.482-1.682 1.606-4.806h1.204l-3.372 10.093h-1.124l1.124-3.204Z"/><path fill="url(#a)" d="M52.422 58.313H10.998a5.92 5.92 0 0 1-5.94-5.928V11.054a5.92 5.92 0 0 1 5.94-5.928h41.424a5.92 5.92 0 0 1 5.941 5.928v41.332c.08 3.284-2.65 5.927-5.94 5.927Z"/><path fill="#fff" d="M30.426 50.063H15.494V13.377l7.386 5.046c4.656 3.204 7.546 9.452 7.546 16.42v15.22Zm-11.72-3.204h8.509V34.843c0-5.847-2.409-11.214-6.182-13.777l-2.408-1.602V46.86h.08ZM48.007 50.063H32.995v-15.22c0-6.968 2.89-13.216 7.546-16.42l7.386-5.046v16.74h-3.212V19.385l-2.408 1.602c-3.773 2.563-6.181 7.93-6.181 13.777V46.78h8.51V36.205h-5.219v-3.204h8.43v17.062h.16Z"/><defs><radialGradient id="a" cx="0" cy="0" r="1" gradientTransform="matrix(84.3528 0 0 84.1646 64.686 4.72)" gradientUnits="userSpaceOnUse"><stop stop-color="#D7246E"/><stop offset="1" stop-color="#9F1C53"/></radialGradient></defs></svg>