<?xml version="1.0" encoding="UTF-8" standalone="no"?>
<!DOCTYPE svg PUBLIC "-//W3C//DTD SVG 1.1//EN" "http://www.w3.org/Graphics/SVG/1.1/DTD/svg11.dtd">
<svg xmlns="http://www.w3.org/2000/svg" version="1.1" viewBox="0.00 0.00 154.00 33.00">
<g stroke-width="2.00" fill="none" stroke-linecap="butt">
<path stroke="#fbc491" vector-effect="non-scaling-stroke" d="
  M 100.82 9.98
  L 100.69 9.52
  Q 100.54 9.01 100.02 8.99
  L 95.96 8.85
  A 0.43 0.43 0.0 0 0 95.51 9.28
  L 95.51 26.01
  A 0.25 0.25 0.0 0 0 95.76 26.26
  L 100.96 26.26
  Q 101.18 26.26 101.18 26.04
  L 101.19 15.23
  Q 101.20 13.13 103.27 12.75
  Q 104.11 12.60 104.93 12.55
  Q 107.50 12.39 107.50 14.95
  L 107.51 25.75
  Q 107.51 26.24 108.00 26.25
  L 112.76 26.26
  Q 113.03 26.26 113.03 25.99
  L 113.00 14.87
  Q 113.00 12.84 115.02 12.69
  Q 116.22 12.60 116.92 12.55
  Q 119.29 12.37 119.29 14.75
  L 119.28 25.78
  Q 119.28 26.28 119.78 26.28
  L 124.46 26.30
  A 0.39 0.38 -90.0 0 0 124.84 25.91
  Q 124.74 19.78 124.74 13.60
  C 124.75 8.75 119.86 7.76 116.03 9.05
  Q 114.21 9.67 112.65 10.52
  Q 112.18 10.78 111.80 10.39
  C 109.08 7.56 104.74 8.57 101.63 10.31
  Q 101.01 10.66 100.82 9.98"
/>
<path stroke="#fbc491" vector-effect="non-scaling-stroke" d="
  M 135.00 18.75
  L 145.68 18.75
  Q 146.24 18.75 146.27 18.19
  Q 146.77 7.98 136.71 8.53
  C 130.13 8.89 127.62 14.20 128.51 20.13
  C 129.68 27.93 139.81 27.23 144.97 25.24
  Q 145.86 24.89 145.53 24.00
  L 144.88 22.26
  A 0.62 0.62 0.0 0 0 144.09 21.89
  Q 140.94 23.05 136.99 22.75
  Q 135.09 22.60 134.31 20.86
  L 134.03 20.25
  Q 133.36 18.74 135.00 18.75"
/>
<path stroke="#fbc491" vector-effect="non-scaling-stroke" d="
  M 134.37 15.66
  L 140.99 15.54
  A 0.28 0.28 0.0 0 0 141.27 15.26
  L 141.27 15.08
  A 3.49 3.46 -1.0 0 0 137.72 11.68
  L 137.52 11.68
  A 3.49 3.46 -1.0 0 0 134.09 15.20
  L 134.09 15.38
  A 0.28 0.28 0.0 0 0 134.37 15.66"
/>
</g>
<path fill="#f68923" d="
  M 87.41 0.00
  L 154.00 0.00
  L 154.00 33.00
  L 87.37 33.00
  L 87.41 0.00
  Z
  M 100.82 9.98
  L 100.69 9.52
  Q 100.54 9.01 100.02 8.99
  L 95.96 8.85
  A 0.43 0.43 0.0 0 0 95.51 9.28
  L 95.51 26.01
  A 0.25 0.25 0.0 0 0 95.76 26.26
  L 100.96 26.26
  Q 101.18 26.26 101.18 26.04
  L 101.19 15.23
  Q 101.20 13.13 103.27 12.75
  Q 104.11 12.60 104.93 12.55
  Q 107.50 12.39 107.50 14.95
  L 107.51 25.75
  Q 107.51 26.24 108.00 26.25
  L 112.76 26.26
  Q 113.03 26.26 113.03 25.99
  L 113.00 14.87
  Q 113.00 12.84 115.02 12.69
  Q 116.22 12.60 116.92 12.55
  Q 119.29 12.37 119.29 14.75
  L 119.28 25.78
  Q 119.28 26.28 119.78 26.28
  L 124.46 26.30
  A 0.39 0.38 -90.0 0 0 124.84 25.91
  Q 124.74 19.78 124.74 13.60
  C 124.75 8.75 119.86 7.76 116.03 9.05
  Q 114.21 9.67 112.65 10.52
  Q 112.18 10.78 111.80 10.39
  C 109.08 7.56 104.74 8.57 101.63 10.31
  Q 101.01 10.66 100.82 9.98
  Z
  M 135.00 18.75
  L 145.68 18.75
  Q 146.24 18.75 146.27 18.19
  Q 146.77 7.98 136.71 8.53
  C 130.13 8.89 127.62 14.20 128.51 20.13
  C 129.68 27.93 139.81 27.23 144.97 25.24
  Q 145.86 24.89 145.53 24.00
  L 144.88 22.26
  A 0.62 0.62 0.0 0 0 144.09 21.89
  Q 140.94 23.05 136.99 22.75
  Q 135.09 22.60 134.31 20.86
  L 134.03 20.25
  Q 133.36 18.74 135.00 18.75
  Z"
/>
<path fill="#ffffff" d="
  M 0.00 26.22
  L 0.00 2.10
  L 18.00 2.05
  Q 18.24 2.05 18.25 2.30
  L 18.25 5.48
  Q 18.25 5.70 18.02 5.70
  L 6.00 5.72
  A 0.28 0.28 0.0 0 0 5.72 6.00
  L 5.72 11.54
  Q 5.72 11.86 6.04 11.86
  L 15.81 11.87
  Q 16.25 11.87 16.25 12.31
  L 16.24 14.89
  Q 16.24 15.27 15.86 15.27
  L 6.10 15.27
  Q 5.73 15.27 5.73 15.65
  L 5.72 22.16
  Q 5.72 22.60 6.16 22.60
  L 18.19 22.61
  Q 18.76 22.61 18.76 23.19
  L 18.74 25.80
  A 0.45 0.45 0.0 0 1 18.29 26.25
  L 0.00 26.22
  Z"
/>
<path fill="#ffffff" d="
  M 79.04 12.86
  C 74.81 11.75 70.66 12.62 70.81 17.73
  C 70.97 23.59 75.69 23.36 79.99 21.96
  A 0.46 0.45 71.0 0 1 80.56 22.24
  L 81.46 24.76
  A 0.44 0.43 69.8 0 1 81.21 25.31
  C 73.28 28.37 63.58 26.50 65.57 15.49
  C 66.89 8.20 74.37 7.64 80.20 9.39
  Q 80.69 9.54 80.54 10.03
  L 79.77 12.45
  A 0.61 0.61 0.0 0 1 79.04 12.86
  Z"
/>
<path fill="#ffffff" d="
  M 101.63 10.31
  C 104.74 8.57 109.08 7.56 111.80 10.39
  Q 112.18 10.78 112.65 10.52
  Q 114.21 9.67 116.03 9.05
  C 119.86 7.76 124.75 8.75 124.74 13.60
  Q 124.74 19.78 124.84 25.91
  A 0.39 0.38 -90.0 0 1 124.46 26.30
  L 119.78 26.28
  Q 119.28 26.28 119.28 25.78
  L 119.29 14.75
  Q 119.29 12.37 116.92 12.55
  Q 116.22 12.60 115.02 12.69
  Q 113.00 12.84 113.00 14.87
  L 113.03 25.99
  Q 113.03 26.26 112.76 26.26
  L 108.00 26.25
  Q 107.51 26.24 107.51 25.75
  L 107.50 14.95
  Q 107.50 12.39 104.93 12.55
  Q 104.11 12.60 103.27 12.75
  Q 101.20 13.13 101.19 15.23
  L 101.18 26.04
  Q 101.18 26.26 100.96 26.26
  L 95.76 26.26
  A 0.25 0.25 0.0 0 1 95.51 26.01
  L 95.51 9.28
  A 0.43 0.43 0.0 0 1 95.96 8.85
  L 100.02 8.99
  Q 100.54 9.01 100.69 9.52
  L 100.82 9.98
  Q 101.01 10.66 101.63 10.31
  Z"
/>
<path fill="#ffffff" d="
  M 135.00 18.75
  Q 133.36 18.74 134.03 20.25
  L 134.31 20.86
  Q 135.09 22.60 136.99 22.75
  Q 140.94 23.05 144.09 21.89
  A 0.62 0.62 0.0 0 1 144.88 22.26
  L 145.53 24.00
  Q 145.86 24.89 144.97 25.24
  C 139.81 27.23 129.68 27.93 128.51 20.13
  C 127.62 14.20 130.13 8.89 136.71 8.53
  Q 146.77 7.98 146.27 18.19
  Q 146.24 18.75 145.68 18.75
  L 135.00 18.75
  Z
  M 134.37 15.66
  L 140.99 15.54
  A 0.28 0.28 0.0 0 0 141.27 15.26
  L 141.27 15.08
  A 3.49 3.46 -1.0 0 0 137.72 11.68
  L 137.52 11.68
  A 3.49 3.46 -1.0 0 0 134.09 15.20
  L 134.09 15.38
  A 0.28 0.28 0.0 0 0 134.37 15.66
  Z"
/>
<path fill="#ffffff" d="
  M 30.44 21.42
  Q 31.09 24.22 31.82 21.44
  Q 33.50 15.04 35.75 9.22
  Q 35.83 9.01 36.05 9.01
  L 41.00 8.98
  A 0.15 0.15 0.0 0 1 41.15 9.18
  L 34.96 25.76
  Q 34.77 26.26 34.24 26.26
  L 27.79 26.25
  Q 27.29 26.25 27.11 25.78
  L 20.97 9.22
  A 0.21 0.20 79.2 0 1 21.16 8.94
  L 26.24 9.03
  Q 26.51 9.04 26.61 9.29
  Q 29.09 15.58 30.44 21.42
  Z"
/>
<path fill="#ffffff" d="
  M 54.71 24.69
  Q 52.08 26.81 48.05 26.60
  C 41.75 26.26 40.98 18.31 46.78 16.64
  Q 49.82 15.77 53.84 15.83
  Q 55.45 15.86 55.00 14.31
  Q 54.70 13.31 53.61 12.65
  A 2.26 2.23 61.1 0 0 52.46 12.31
  Q 49.03 12.22 46.02 13.11
  Q 45.56 13.25 45.42 12.79
  L 44.69 10.45
  Q 44.55 10.01 45.00 9.87
  C 49.91 8.38 59.91 6.68 60.21 14.47
  Q 60.35 18.27 60.07 22.26
  Q 60.03 22.81 60.57 22.86
  L 61.83 22.96
  Q 62.54 23.03 62.76 23.70
  Q 63.43 25.78 61.58 26.21
  C 59.84 26.62 56.17 27.36 55.39 24.90
  Q 55.20 24.29 54.71 24.69
  Z
  M 54.56 18.54
  L 50.55 18.82
  A 2.25 2.24 86.3 0 0 48.47 21.20
  Q 48.62 23.59 51.23 23.41
  Q 56.11 23.08 54.90 18.78
  A 0.33 0.33 0.0 0 0 54.56 18.54
  Z"
/>
<path fill="#f68923" d="
  M 134.37 15.66
  A 0.28 0.28 0.0 0 1 134.09 15.38
  L 134.09 15.20
  A 3.49 3.46 -1.0 0 1 137.52 11.68
  L 137.72 11.68
  A 3.49 3.46 -1.0 0 1 141.27 15.08
  L 141.27 15.26
  A 0.28 0.28 0.0 0 1 140.99 15.54
  L 134.37 15.66
  Z"
/>
</svg>
