<svg xmlns="http://www.w3.org/2000/svg" fill="none" viewBox="0 0 145 42"><path fill="#E70C62" d="M41.665 21c0 11.598-9.327 21-20.833 21C9.327 42 0 32.598 0 21S9.327 0 20.832 0c11.506 0 20.833 9.402 20.833 21Z"/><path fill="url(#a)" d="m33.98 17.49-4.048 4.918a26.601 26.601 0 0 1-11.23 8.022l-6.129 2.29.07-1.093 5.709-1.9a26.58 26.58 0 0 0 11.455-7.55l4.172-4.687Z"/><path fill="url(#b)" d="m7.48 17.343 6.482-1.734a26.392 26.392 0 0 1 13.155-.126l6.712 1.659-.679.82-6.132-1.742a26.392 26.392 0 0 0-13.077-.348l-6.46 1.47Z"/><path fill="url(#c)" fill-opacity=".5" d="M34.078 17.723a1.799 1.799 0 0 0-1.26-2.201c-.42-.113-3.42-.524-6.57-1.03-3.99-.64-8.783-.42-8.925.116-.142.531 4.7.478 8.492 1.749 2.929 1.258 5.343 2.373 6.08 2.637a1.781 1.781 0 0 0 2.183-1.27Z"/><path fill="#3D1144" d="M33.83 17.301c0 .77-.619 1.393-1.382 1.393a1.387 1.387 0 0 1-1.382-1.393c0-.77.619-1.393 1.382-1.393.763 0 1.382.624 1.382 1.393Z"/><path fill="url(#d)" d="m28.934 32.662-6.247-2.46a26.607 26.607 0 0 1-10.69-7.727L7.55 17.14l1.029-.259 3.928 5.057a26.627 26.627 0 0 0 10.35 8.064l6.076 2.659Z"/><path fill="url(#e)" fill-opacity=".5" d="M7.476 15.958a1.807 1.807 0 0 0-.303 2.523c.267.345 2.422 2.49 4.638 4.8 2.809 2.93 6.772 5.656 7.205 5.314.43-.34-3.473-3.23-5.748-6.54-1.591-2.78-2.857-5.133-3.289-5.79a1.773 1.773 0 0 0-2.503-.307Z"/><path fill="#3D1144" d="M9.94 17.301c0 .77-.62 1.393-1.383 1.393A1.387 1.387 0 0 1 7.176 17.3c0-.77.618-1.393 1.381-1.393.764 0 1.382.624 1.382 1.393Z"/><path fill="url(#f)" d="m20.299 7.563 3.678 5.653a26.955 26.955 0 0 1 4.27 12.542l.558 6.944-.988-.39-.294-6.415a26.968 26.968 0 0 0-3.8-12.618l-3.424-5.716Z"/><path fill="url(#g)" fill-opacity=".5" d="M28.475 33.284a1.793 1.793 0 0 0 1.63-1.94c-.037-.437-.668-3.422-1.26-6.58-.752-4.003-2.578-8.476-3.126-8.43-.544.046 1.142 4.622 1.238 8.649-.184 3.203-.409 5.87-.406 6.659.081.99.943 1.724 1.924 1.642Z"/><path fill="#3D1144" d="M29.717 31.569c0 .769-.62 1.393-1.382 1.393a1.387 1.387 0 0 1-1.382-1.393c0-.77.619-1.393 1.382-1.393.763 0 1.382.623 1.382 1.393Z"/><path fill="url(#h)" d="m12.58 32.778.414-6.747a26.961 26.961 0 0 1 4.032-12.623l3.68-5.897.559.909-3.576 5.315a26.948 26.948 0 0 0-4.454 12.399l-.655 6.644Z"/><path fill="url(#i)" fill-opacity=".5" d="M21.587 7.279a1.775 1.775 0 0 0-2.46.558c-.232.37-1.514 3.136-2.93 6.016-1.793 3.65-3.01 8.328-2.546 8.625.461.294 1.852-4.383 4.183-7.654 2.063-2.443 3.837-4.435 4.307-5.066a1.806 1.806 0 0 0-.554-2.48Z"/><path fill="#3D1144" d="M22.08 8.719c0 .769-.619 1.392-1.382 1.392a1.387 1.387 0 0 1-1.382-1.392c0-.77.619-1.393 1.382-1.393.763 0 1.382.623 1.382 1.393Z"/><path fill="url(#j)" fill-opacity=".5" d="M11.673 32.317a1.779 1.779 0 0 0 2.298 1.044c.407-.155 3.08-1.588 5.929-3.032 3.61-1.83 7.373-4.83 7.178-5.35-.193-.514-4.093 2.38-7.906 3.582-3.106.703-5.712 1.22-6.463 1.439a1.802 1.802 0 0 0-1.036 2.317Z"/><path fill="#3D1144" d="M14.697 31.742c0 .77-.619 1.393-1.382 1.393a1.387 1.387 0 0 1-1.381-1.393c0-.77.618-1.393 1.381-1.393s1.382.624 1.382 1.393Z"/><path fill="#fff" d="M52.465 34.149c-.553 0-1.033-.102-1.442-.304a2.258 2.258 0 0 1-.947-.846 2.353 2.353 0 0 1-.334-1.259h.947c0 .297.068.572.205.825.136.246.333.445.592.597.265.144.591.217.979.217.51 0 .904-.123 1.184-.37.28-.245.42-.553.42-.921 0-.304-.065-.546-.194-.727a1.42 1.42 0 0 0-.528-.456 4.104 4.104 0 0 0-.753-.304c-.28-.086-.574-.184-.883-.292-.58-.203-1.011-.452-1.29-.749-.28-.304-.42-.698-.42-1.182a1.921 1.921 0 0 1 1.097-1.812c.359-.18.782-.271 1.27-.271.48 0 .897.09 1.248.271.359.18.635.43.829.748.2.319.305.68.312 1.085h-.947c0-.21-.054-.416-.161-.618a1.247 1.247 0 0 0-.495-.51c-.216-.13-.488-.195-.818-.195-.41-.007-.746.098-1.012.314-.258.217-.387.517-.387.9 0 .326.09.576.269.75.186.173.444.318.775.433.33.109.71.235 1.14.38.359.13.682.282.969.456.287.173.51.397.667.672.165.275.248.626.248 1.052 0 .362-.094.706-.28 1.03-.187.32-.47.58-.85.782-.373.203-.843.304-1.41.304ZM58.342 34.019c-.488 0-.872-.12-1.152-.358-.28-.24-.42-.67-.42-1.291v-2.962h-.925v-.77h.926l.118-1.291h.786v1.291h1.57v.77h-1.57v2.962c0 .34.068.571.204.694.137.116.377.173.721.173h.56v.782h-.818ZM62.17 34.149c-.445 0-.814-.076-1.108-.228a1.54 1.54 0 0 1-.657-.608 1.643 1.643 0 0 1-.215-.824c0-.55.208-.973.624-1.27.416-.296.983-.444 1.7-.444h1.442v-.065c0-.47-.122-.825-.366-1.063-.244-.246-.57-.369-.979-.369-.351 0-.656.09-.915.271-.25.174-.408.43-.473.77h-.925c.035-.39.164-.72.387-.987.23-.267.513-.47.85-.607a2.702 2.702 0 0 1 1.076-.217c.746 0 1.306.202 1.679.607.38.398.57.93.57 1.595v3.309h-.807L64 33.053c-.15.304-.373.564-.667.781-.287.21-.674.315-1.162.315Zm.14-.77c.344 0 .638-.09.882-.272.251-.18.441-.416.57-.705.13-.29.194-.593.194-.911v-.01H62.59c-.531 0-.908.093-1.13.281a.855.855 0 0 0-.323.684c0 .282.1.51.301.683.208.166.499.25.872.25ZM66.216 34.019v-7.811h.904v4.697l2.185-2.267h1.108l-2.367 2.43 2.669 2.95h-1.152l-2.443-2.787v2.788h-.904ZM72.188 27.445a.632.632 0 0 1-.452-.174.642.642 0 0 1-.172-.456c0-.173.057-.318.172-.433a.632.632 0 0 1 .452-.174c.172 0 .32.058.441.174.122.115.183.26.183.433 0 .181-.06.333-.183.456a.618.618 0 0 1-.441.174Zm-.452 6.574v-5.381h.904v5.38h-.904ZM74.214 34.019v-5.381h.818l.054.965c.172-.34.42-.607.742-.802a2.078 2.078 0 0 1 1.098-.293c.631 0 1.133.195 1.506.586.38.383.57.976.57 1.779v3.146H78.1V30.97c0-1.12-.46-1.681-1.378-1.681-.459 0-.843.17-1.151.51-.301.332-.452.81-.452 1.432v2.788h-.904ZM82.481 32.326c-.3 0-.577-.04-.828-.119l-.538.51c.079.058.176.108.29.152.122.036.294.072.517.108.222.03.534.062.936.098.718.05 1.23.217 1.539.499.308.282.463.65.463 1.106 0 .311-.086.608-.258.89-.166.282-.424.513-.775.694-.345.18-.79.271-1.335.271-.48 0-.907-.065-1.28-.195-.373-.123-.664-.315-.872-.575-.208-.253-.312-.575-.312-.965 0-.203.054-.423.161-.662.108-.231.309-.452.603-.662a2.703 2.703 0 0 1-.409-.206 2.615 2.615 0 0 1-.301-.26v-.25l.914-.911c-.423-.362-.634-.839-.634-1.432 0-.354.082-.676.247-.965.165-.29.405-.518.721-.684.316-.173.7-.26 1.151-.26.309 0 .589.043.84.13h1.97v.683l-1.002.044c.209.304.313.654.313 1.052 0 .354-.087.676-.259.965-.165.29-.405.521-.72.695-.31.166-.69.25-1.142.25Zm0-.748c.38 0 .682-.098.904-.293.23-.203.345-.492.345-.868 0-.369-.115-.65-.345-.846-.222-.203-.523-.304-.904-.304-.387 0-.695.101-.925.304-.222.195-.334.477-.334.846 0 .376.112.665.334.868.23.195.538.293.925.293Zm-1.57 3.135c0 .361.15.629.451.803.302.18.678.27 1.13.27.445 0 .8-.097 1.066-.292a.915.915 0 0 0 .409-.781.806.806 0 0 0-.28-.608c-.187-.166-.531-.264-1.033-.292a13.639 13.639 0 0 1-1.023-.109c-.294.16-.487.329-.58.51-.094.188-.14.354-.14.499ZM91.44 34.149c-.517 0-.973-.094-1.367-.282a2.31 2.31 0 0 1-.915-.803c-.215-.347-.323-.756-.323-1.226 0-.513.147-.969.441-1.367.302-.405.736-.723 1.303-.954a2.98 2.98 0 0 1-.528-.76 1.952 1.952 0 0 1-.161-.792c0-.484.168-.882.505-1.193.345-.318.815-.477 1.41-.477.388 0 .725.076 1.012.228a1.548 1.548 0 0 1 .882 1.497h-.893c.007-.326-.093-.572-.301-.738-.201-.166-.434-.25-.7-.25-.323 0-.574.087-.753.26a.881.881 0 0 0-.27.662c0 .232.062.456.184.673.129.217.32.46.57.727l2.379 2.419c.208-.304.433-.669.677-1.096l.334-.585h.958l-.474.846a12.481 12.481 0 0 1-.904 1.432l1.625 1.649h-1.14l-1.001-1.02c-.38.412-.775.709-1.184.89-.409.173-.864.26-1.367.26Zm-1.7-2.343c0 .448.157.82.473 1.117.315.296.728.445 1.237.445.38 0 .725-.073 1.033-.217.316-.152.624-.398.926-.738l-2.282-2.332c-.473.188-.825.426-1.054.716-.223.289-.334.625-.334 1.009ZM102.341 34.149c-.552 0-1.033-.102-1.442-.304a2.257 2.257 0 0 1-.947-.846 2.353 2.353 0 0 1-.333-1.259h.947c0 .297.068.572.204.825.137.246.334.445.592.597.266.144.592.217.979.217.51 0 .904-.123 1.184-.37.28-.245.42-.553.42-.921 0-.304-.065-.546-.194-.727a1.421 1.421 0 0 0-.527-.456 4.089 4.089 0 0 0-.753-.304c-.28-.086-.574-.184-.883-.292-.581-.203-1.011-.452-1.291-.749-.28-.304-.42-.698-.42-1.182a1.92 1.92 0 0 1 1.098-1.812c.358-.18.782-.271 1.27-.271.48 0 .896.09 1.248.271.359.18.635.43.829.748.2.319.304.68.312 1.085h-.947a1.3 1.3 0 0 0-.162-.618 1.24 1.24 0 0 0-.495-.51c-.215-.13-.488-.195-.818-.195-.409-.007-.746.098-1.011.314-.259.217-.388.517-.388.9 0 .326.09.576.269.75.187.173.445.318.775.433.33.109.71.235 1.141.38.359.13.681.282.968.456.287.173.51.397.668.672.165.275.247.626.247 1.052 0 .362-.093.706-.28 1.03-.186.32-.47.58-.85.782-.373.203-.843.304-1.41.304ZM108.541 34.149c-.502 0-.954-.116-1.356-.347a2.544 2.544 0 0 1-.957-.977c-.23-.426-.345-.925-.345-1.497 0-.571.119-1.066.355-1.486.237-.427.556-.756.958-.987a2.728 2.728 0 0 1 1.367-.347c.502 0 .954.116 1.356.347.402.231.717.56.947.987.237.42.355.915.355 1.486 0 .572-.118 1.07-.355 1.497-.237.42-.56.745-.969.977a2.663 2.663 0 0 1-1.356.347Zm0-.781c.309 0 .596-.076.861-.228a1.69 1.69 0 0 0 .646-.684c.165-.303.247-.68.247-1.128 0-.448-.082-.824-.247-1.128a1.629 1.629 0 0 0-.635-.683 1.684 1.684 0 0 0-.85-.228c-.309 0-.596.076-.861.228-.265.152-.481.38-.646.683-.165.304-.247.68-.247 1.128 0 .449.082.825.247 1.128.165.304.377.532.635.684.266.152.549.228.85.228ZM112.478 34.019v-7.811h.904v7.81h-.904ZM116.811 34.149c-.631 0-1.133-.192-1.506-.575-.373-.39-.56-.987-.56-1.79v-3.146h.904v3.048c0 1.121.456 1.682 1.367 1.682.466 0 .85-.167 1.151-.5.309-.34.463-.82.463-1.442v-2.788h.904v5.38h-.818l-.065-.965c-.165.34-.412.608-.742.803a2.08 2.08 0 0 1-1.098.293ZM123.131 34.019c-.488 0-.872-.12-1.151-.358-.28-.24-.42-.67-.42-1.291v-2.962h-.926v-.77h.926l.118-1.291h.786v1.291h1.571v.77h-1.571v2.962c0 .34.068.571.204.694.137.116.377.173.721.173h.56v.782h-.818ZM125.732 27.445a.632.632 0 0 1-.452-.174.646.646 0 0 1-.172-.456c0-.173.058-.318.172-.433a.632.632 0 0 1 .452-.174.62.62 0 0 1 .442.174c.121.115.182.26.182.433 0 .181-.061.333-.182.456a.62.62 0 0 1-.442.174Zm-.452 6.574v-5.381h.904v5.38h-.904ZM130.19 34.149c-.502 0-.954-.116-1.356-.347a2.544 2.544 0 0 1-.957-.977c-.23-.426-.345-.925-.345-1.497 0-.571.119-1.066.355-1.486.237-.427.556-.756.958-.987a2.728 2.728 0 0 1 1.367-.347c.502 0 .954.116 1.356.347.402.231.717.56.947.987.237.42.355.915.355 1.486 0 .572-.118 1.07-.355 1.497-.237.42-.56.745-.969.977a2.669 2.669 0 0 1-1.356.347Zm0-.781c.309 0 .596-.076.861-.228a1.69 1.69 0 0 0 .646-.684c.165-.303.247-.68.247-1.128 0-.448-.082-.824-.247-1.128a1.629 1.629 0 0 0-.635-.683 1.684 1.684 0 0 0-.85-.228c-.309 0-.596.076-.861.228a1.69 1.69 0 0 0-.646.683c-.165.304-.247.68-.247 1.128 0 .449.082.825.247 1.128.165.304.377.532.635.684.266.152.549.228.85.228ZM134.127 34.019v-5.381h.818l.053.965c.173-.34.42-.607.743-.802a2.08 2.08 0 0 1 1.098-.293c.631 0 1.133.195 1.506.586.381.383.571.976.571 1.779v3.146h-.904V30.97c0-1.12-.459-1.681-1.378-1.681-.459 0-.843.17-1.151.51-.302.332-.452.81-.452 1.432v2.788h-.904ZM142.33 34.149c-.639 0-1.17-.163-1.593-.488-.423-.326-.671-.767-.742-1.324h.925c.057.282.205.528.441.738.244.202.571.303.98.303.38 0 .66-.079.839-.238a.776.776 0 0 0 .269-.586c0-.325-.118-.542-.355-.65-.23-.11-.556-.207-.979-.294a5.509 5.509 0 0 1-.861-.25 1.983 1.983 0 0 1-.721-.455c-.194-.202-.291-.466-.291-.792 0-.47.172-.853.517-1.15.351-.303.825-.455 1.42-.455.567 0 1.03.144 1.388.434.366.282.578.687.635 1.215h-.893a.913.913 0 0 0-.355-.64c-.194-.16-.456-.239-.786-.239-.322 0-.574.069-.753.206a.66.66 0 0 0-.258.542c0 .218.111.387.333.51.23.123.539.228.926.315.33.072.642.163.936.271.301.101.545.257.732.467.194.202.291.499.291.89.007.484-.176.885-.549 1.203-.366.311-.865.467-1.496.467Z"/><path fill="#E70C62" d="M51.023 17.497c.464.263.933.503 1.408.717.48.209.976.388 1.489.536.512.143 1.05.253 1.611.33.568.077 1.17.116 1.809.116.769 0 1.423-.05 1.963-.149.54-.104.98-.245 1.318-.42.343-.182.591-.396.744-.644.158-.247.237-.517.237-.808 0-.468-.193-.836-.58-1.105-.388-.275-.985-.413-1.792-.413-.355 0-.729.025-1.121.075-.393.043-.791.093-1.195.148-.398.055-.794.107-1.186.157a9.734 9.734 0 0 1-1.096.066 6.091 6.091 0 0 1-1.653-.223 4.404 4.404 0 0 1-1.4-.668 3.319 3.319 0 0 1-.965-1.114c-.24-.445-.36-.965-.36-1.558 0-.352.047-.701.14-1.048.098-.346.25-.676.458-.99.212-.318.485-.612.818-.882a4.81 4.81 0 0 1 1.202-.71 7.827 7.827 0 0 1 1.637-.461 11.682 11.682 0 0 1 2.119-.173c.572 0 1.148.033 1.726.099a16.351 16.351 0 0 1 3.273.684c.507.16.979.338 1.415.536l-1.137 2.112c-.36-.16-.747-.305-1.162-.437a12.822 12.822 0 0 0-1.3-.355 13.921 13.921 0 0 0-1.408-.231c-.48-.06-.97-.09-1.473-.09-.714 0-1.303.052-1.767.156-.458.104-.824.24-1.096.404-.273.16-.464.341-.573.544a1.27 1.27 0 0 0-.155.594c0 .385.171.701.515.949.344.242.867.363 1.57.363.285 0 .61-.02.975-.058.37-.044.758-.09 1.161-.14.41-.05.824-.094 1.244-.132.425-.044.837-.066 1.235-.066.753 0 1.419.085 1.997.255.583.17 1.072.416 1.464.735.393.313.69.695.892 1.146.202.445.303.946.303 1.5 0 .743-.172 1.406-.516 1.989-.338.577-.823 1.066-1.456 1.468-.627.396-1.385.698-2.274.907-.89.203-1.88.305-2.97.305-.72 0-1.424-.047-2.111-.14a15.785 15.785 0 0 1-1.98-.38 16.108 16.108 0 0 1-1.8-.602 13.661 13.661 0 0 1-1.58-.775l1.383-2.12ZM68.336 13.43h-2.332V11.6h2.332V8.573h2.422V11.6h2.331v1.83h-2.331v7.902h-2.422V13.43ZM74.783 18.264c0-.468.101-.894.303-1.279.202-.385.504-.715.908-.99.404-.28.905-.494 1.505-.643.606-.154 1.31-.23 2.111-.23.595 0 1.22.043 1.874.131.66.088 1.339.223 2.037.404a1.931 1.931 0 0 0-.278-.85 2.107 2.107 0 0 0-.663-.675 3.195 3.195 0 0 0-1.014-.446 5.235 5.235 0 0 0-1.342-.157c-.273 0-.573.017-.9.05a11.882 11.882 0 0 0-2.054.396 6.681 6.681 0 0 0-.949.354l-.736-2.004c.365-.132.755-.253 1.17-.363.42-.11.848-.203 1.284-.28.437-.082.873-.146 1.31-.19.436-.044.858-.066 1.268-.066 1.805 0 3.147.465 4.025 1.394.878.93 1.317 2.353 1.317 4.272v4.24h-2.422v-.916a7.752 7.752 0 0 1-1.791.767c-.35.1-.726.176-1.13.231-.398.06-.82.09-1.268.09-.752 0-1.415-.082-1.988-.247-.567-.165-1.041-.393-1.423-.684a2.954 2.954 0 0 1-.868-1.023 2.923 2.923 0 0 1-.286-1.287Zm2.553-.083c0 .16.04.313.123.462.081.143.212.272.392.387.18.11.41.201.688.273.283.066.624.099 1.022.099.426 0 .837-.039 1.236-.116.398-.077.769-.178 1.112-.305a5.65 5.65 0 0 0 .933-.437c.278-.165.51-.335.695-.511v-.43a13.945 13.945 0 0 0-2.143-.428 13.552 13.552 0 0 0-1.694-.115c-.453 0-.829.03-1.129.09-.3.06-.543.143-.728.248a.932.932 0 0 0-.393.354.87.87 0 0 0-.114.429ZM89.166 11.6h2.422v1.402a10.54 10.54 0 0 1 1.694-1.04 9.49 9.49 0 0 1 1.775-.668l.712 2.235c-.933.094-1.754.306-2.463.636a4.391 4.391 0 0 0-1.718 1.377v5.79h-2.421V11.6ZM96.833 16.507c0-.776.144-1.474.433-2.095a4.69 4.69 0 0 1 1.195-1.6 5.354 5.354 0 0 1 1.816-1.023 6.98 6.98 0 0 1 2.283-.363 8.672 8.672 0 0 1 2.013.247c.316.078.611.171.883.281.278.105.524.22.737.346V7.65h2.421v13.683h-2.421v-.916a4.815 4.815 0 0 1-.753.42c-.289.133-.6.248-.933.347a7.76 7.76 0 0 1-1.039.231c-.354.06-.706.09-1.055.09a6.758 6.758 0 0 1-2.258-.362 5.21 5.21 0 0 1-1.76-1.023 4.716 4.716 0 0 1-1.153-1.575 4.974 4.974 0 0 1-.41-2.037Zm2.544 0c0 .39.077.759.23 1.105.158.346.381.652.67.915.295.259.647.465 1.056.619a4.1 4.1 0 0 0 1.391.223c.327 0 .654-.03.981-.091a5.79 5.79 0 0 0 .941-.272 4.72 4.72 0 0 0 .851-.42c.267-.166.499-.35.696-.553v-3.374a4.388 4.388 0 0 0-.778-.503 5.23 5.23 0 0 0-1.693-.528 5.599 5.599 0 0 0-.843-.066c-.556 0-1.053.077-1.489.231a3.23 3.23 0 0 0-1.096.619 2.708 2.708 0 0 0-.68.932 2.84 2.84 0 0 0-.237 1.163ZM111.584 11.591h2.414v4.75c0 .452.049.864.147 1.238.098.368.265.684.499.948.24.264.557.47.949.619.399.143.892.214 1.481.214.279 0 .559-.03.843-.09.289-.06.565-.143.826-.248a4.4 4.4 0 0 0 .729-.387 3.12 3.12 0 0 0 .589-.487v-6.557h2.421v9.74h-2.421V20.5a6.73 6.73 0 0 1-1.792.767c-.6.154-1.17.23-1.71.23-.884 0-1.642-.107-2.275-.321-.627-.215-1.142-.525-1.546-.932a3.734 3.734 0 0 1-.875-1.51c-.186-.599-.279-1.28-.279-2.045v-5.097ZM125.943 18.346a7.508 7.508 0 0 0 2.16.874c.786.187 1.59.28 2.414.28.556 0 1.02-.038 1.391-.115.371-.077.668-.176.892-.297.223-.12.381-.258.474-.412a.9.9 0 0 0 .139-.47c0-.231-.101-.43-.302-.594-.197-.165-.524-.247-.982-.247-.213 0-.442.013-.688.04-.245.028-.504.058-.777.091-.267.028-.548.056-.843.083a9.313 9.313 0 0 1-.883.041c-.655 0-1.214-.071-1.677-.214-.459-.143-.832-.338-1.121-.586a2.188 2.188 0 0 1-.63-.874 3.032 3.032 0 0 1-.197-1.097c0-.495.115-.951.344-1.37a3.22 3.22 0 0 1 .982-1.08c.425-.307.938-.547 1.538-.717a7.445 7.445 0 0 1 2.021-.256c.387 0 .791.025 1.211.075.425.043.842.104 1.252.181.409.077.801.168 1.178.272.376.1.709.206.998.322l-.761 1.897a13.069 13.069 0 0 0-1.849-.545 8.582 8.582 0 0 0-1.89-.206c-.453 0-.837.036-1.154.107a2.56 2.56 0 0 0-.761.273c-.196.11-.341.239-.433.387a.85.85 0 0 0-.131.454c0 .115.022.22.065.313a.704.704 0 0 0 .229.248c.109.066.249.118.418.156.174.033.387.05.638.05.229 0 .472-.014.728-.041.256-.028.524-.055.802-.083.278-.033.564-.063.859-.09.3-.028.605-.042.916-.042.578 0 1.083.069 1.514.206.436.138.796.33 1.08.578.283.247.496.539.638.874.142.335.213.701.213 1.097 0 .511-.118.987-.352 1.427-.235.44-.584.822-1.047 1.146-.464.319-1.042.57-1.735.75-.687.182-1.483.273-2.389.273a11.79 11.79 0 0 1-1.612-.107 13.14 13.14 0 0 1-1.481-.273c-.469-.12-.911-.26-1.325-.42-.409-.16-.783-.33-1.121-.512l1.047-1.847ZM139.599 13.43h-2.332V11.6h2.332V8.573h2.421V11.6h2.332v1.83h-2.332v7.902h-2.421V13.43Z"/><defs><linearGradient id="a" x1="13.367" x2="20.615" y1="32.047" y2="37.199" gradientUnits="userSpaceOnUse"><stop offset=".578" stop-color="#3D1144"/><stop offset="1" stop-color="#E70C62" stop-opacity="0"/></linearGradient><linearGradient id="b" x1="32.791" x2="30.004" y1="17.233" y2="9.094" gradientUnits="userSpaceOnUse"><stop offset=".578" stop-color="#3D1144"/><stop offset="1" stop-color="#E70C62" stop-opacity="0"/></linearGradient><linearGradient id="c" x1="33.992" x2="23.143" y1="17.769" y2="14.689" gradientUnits="userSpaceOnUse"><stop offset=".234" stop-color="#3D1144"/><stop offset=".885" stop-color="#E70C62" stop-opacity="0"/></linearGradient><linearGradient id="d" x1="8.442" x2="5.846" y1="17.685" y2="25.888" gradientUnits="userSpaceOnUse"><stop offset=".578" stop-color="#3D1144"/><stop offset="1" stop-color="#E70C62" stop-opacity="0"/></linearGradient><linearGradient id="e" x1="7.573" x2="14.443" y1="15.974" y2="24.981" gradientUnits="userSpaceOnUse"><stop offset=".234" stop-color="#3D1144"/><stop offset=".885" stop-color="#E70C62" stop-opacity="0"/></linearGradient><linearGradient id="f" x1="28.391" x2="35.238" y1="31.738" y2="26.59" gradientUnits="userSpaceOnUse"><stop offset=".578" stop-color="#3D1144"/><stop offset="1" stop-color="#E70C62" stop-opacity="0"/></linearGradient><linearGradient id="g" x1="28.404" x2="27.646" y1="33.217" y2="21.881" gradientUnits="userSpaceOnUse"><stop offset=".234" stop-color="#3D1144"/><stop offset=".885" stop-color="#E70C62" stop-opacity="0"/></linearGradient><linearGradient id="h" x1="20.465" x2="11.923" y1="8.533" y2="8.587" gradientUnits="userSpaceOnUse"><stop offset=".578" stop-color="#3D1144"/><stop offset="1" stop-color="#E70C62" stop-opacity="0"/></linearGradient><linearGradient id="i" x1="21.604" x2="15.351" y1="7.375" y2="16.828" gradientUnits="userSpaceOnUse"><stop offset=".234" stop-color="#3D1144"/><stop offset=".885" stop-color="#E70C62" stop-opacity="0"/></linearGradient><linearGradient id="j" x1="11.717" x2="22.342" y1="32.229" y2="28.44" gradientUnits="userSpaceOnUse"><stop offset=".234" stop-color="#3D1144"/><stop offset=".885" stop-color="#E70C62" stop-opacity="0"/></linearGradient></defs></svg>