<svg width="159" height="77" viewBox="0 0 159 77" fill="none" xmlns="http://www.w3.org/2000/svg">
<path d="M1.42773 20.2053V55.6734H46.9029V44.3689H12.7322V30.9496H28.8343V19.6451H12.7322V12.6437H43.0328L51.4859 1.33926H15.5352L1.42773 20.2053Z" fill="url(#paint0_linear_176_682)"/>
<path d="M112.56 20.1283V55.6734H123.864V37.6817H132.846L141.299 26.3773H123.864V12.6437H146.731V55.6734H158.035V1.33926H126.61L112.56 20.1283Z" fill="url(#paint1_linear_176_682)"/>
<path d="M71.1513 1.33926L56.9776 20.294V28.9957L91.1483 37.7151V44.3689H68.2821V37.3548H56.9776V55.6734H102.453V28.933L68.2821 20.2136V12.6437H91.1483V19.7547H102.453V1.33926H71.1513Z" fill="url(#paint2_linear_176_682)"/>
<path d="M24.9156 62.3898L23.8046 63.8755V64.4452H31.4668V75.9561H33.5222V64.4452H41.1844V62.3898H24.9156Z" fill="url(#paint3_linear_176_682)"/>
<path d="M57.8222 62.3898L55.3809 65.6546V76.0855H72.7533V74.0301H57.4362V70.2653H66.0961V68.21H57.4362V64.4452H72.7533V62.3898H57.8222Z" fill="url(#paint4_linear_176_682)"/>
<path d="M89.3992 62.3898L86.95 65.6652V76.0385H104.286V72.534H102.23V73.9832H89.0053V64.4452H102.23V65.8943H104.286V62.3898H89.3992Z" fill="url(#paint5_linear_176_682)"/>
<path d="M119.978 62.3898L118.482 64.3897V76.0588H120.538V70.252H133.669V76.0588H135.724V62.3898H133.669V68.1966L120.538 68.1966V62.3898H119.978Z" fill="url(#paint6_linear_176_682)"/>
<path d="M0.526367 19.5493V55.0174H46.0015V43.7129H11.8308V30.2936H27.933V18.9891H11.8308V11.9877H42.1314L50.5845 0.683258H14.6338L0.526367 19.5493Z" fill="black"/>
<path d="M111.659 19.4723V55.0174H122.963V37.0257H131.944L140.397 25.7212H122.963V11.9877H145.829V55.0174H157.134V0.683258H125.708L111.659 19.4723Z" fill="black"/>
<path d="M70.25 0.683258L56.0762 19.638V28.3397L90.2469 37.0591V43.7129H67.3807V36.6988H56.0762V55.0174H101.551V28.277L67.3807 19.5576V11.9877H90.2469V19.0987H101.551V0.683258H70.25Z" fill="black"/>
<path d="M24.0142 61.7338L22.9033 63.2195V63.7892H30.5655V75.3H32.6208V63.7892H40.283V61.7338H24.0142Z" fill="black"/>
<path d="M56.9208 61.7338L54.4795 64.9986V75.4295H71.8519V73.3741H56.5349V69.6093H65.1947V67.554H56.5349V63.7892H71.8519V61.7338H56.9208Z" fill="black"/>
<path d="M88.4978 61.7338L86.0486 65.0092V75.3825H103.384V71.878H101.329V73.3272H88.1039V63.7892H101.329V65.2383H103.384V61.7338H88.4978Z" fill="black"/>
<path d="M119.076 61.7338L117.581 63.7337V75.4028H119.636V69.596H132.767V75.4028H134.823V61.7338H132.767V67.5406L119.636 67.5406V61.7338H119.076Z" fill="black"/>
<defs>
<linearGradient id="paint0_linear_176_682" x1="116.009" y1="76.0855" x2="116.009" y2="1.33926" gradientUnits="userSpaceOnUse">
<stop stop-color="#F5B3B5"/>
<stop offset="1" stop-color="#E0D2EC"/>
</linearGradient>
<linearGradient id="paint1_linear_176_682" x1="116.009" y1="76.0855" x2="116.009" y2="1.33926" gradientUnits="userSpaceOnUse">
<stop stop-color="#F5B3B5"/>
<stop offset="1" stop-color="#E0D2EC"/>
</linearGradient>
<linearGradient id="paint2_linear_176_682" x1="116.009" y1="76.0855" x2="116.009" y2="1.33926" gradientUnits="userSpaceOnUse">
<stop stop-color="#F5B3B5"/>
<stop offset="1" stop-color="#E0D2EC"/>
</linearGradient>
<linearGradient id="paint3_linear_176_682" x1="116.009" y1="76.0855" x2="116.009" y2="1.33926" gradientUnits="userSpaceOnUse">
<stop stop-color="#F5B3B5"/>
<stop offset="1" stop-color="#E0D2EC"/>
</linearGradient>
<linearGradient id="paint4_linear_176_682" x1="116.009" y1="76.0855" x2="116.009" y2="1.33926" gradientUnits="userSpaceOnUse">
<stop stop-color="#F5B3B5"/>
<stop offset="1" stop-color="#E0D2EC"/>
</linearGradient>
<linearGradient id="paint5_linear_176_682" x1="116.009" y1="76.0855" x2="116.009" y2="1.33926" gradientUnits="userSpaceOnUse">
<stop stop-color="#F5B3B5"/>
<stop offset="1" stop-color="#E0D2EC"/>
</linearGradient>
<linearGradient id="paint6_linear_176_682" x1="116.009" y1="76.0855" x2="116.009" y2="1.33926" gradientUnits="userSpaceOnUse">
<stop stop-color="#F5B3B5"/>
<stop offset="1" stop-color="#E0D2EC"/>
</linearGradient>
</defs>
</svg>
