<svg width="97" height="79" viewBox="0 0 97 79" fill="none" xmlns="http://www.w3.org/2000/svg">
	<path class="letter-1" d="M24.9788 29.7538C24.9788 30.5426 24.8261 31.2869 24.5208 31.9866C24.2282 32.6863 23.8211 33.297 23.2995 33.8186C22.7779 34.3402 22.1672 34.7537 21.4675 35.059C20.7677 35.3516 20.0235 35.4979 19.2347 35.4979H17.6699C16.8811 35.4979 16.1368 35.3516 15.4371 35.059C14.7374 34.7537 14.1267 34.3402 13.6051 33.8186C13.0835 33.297 12.67 32.6863 12.3647 31.9866C12.0721 31.2869 11.9258 30.5426 11.9258 29.7538V20.9373C11.9258 20.1486 12.0721 19.4043 12.3647 18.7046C12.67 18.0049 13.0835 17.3942 13.6051 16.8726C14.1267 16.351 14.7374 15.9439 15.4371 15.6512C16.1368 15.3459 16.8811 15.1932 17.6699 15.1932H19.2347C20.0235 15.1932 20.7677 15.3459 21.4675 15.6512C22.1672 15.9439 22.7779 16.351 23.2995 16.8726C23.8211 17.3942 24.2282 18.0049 24.5208 18.7046C24.8261 19.4043 24.9788 20.1486 24.9788 20.9373V21.7198L22.6315 22.1014V20.8038C22.6315 20.333 22.5425 19.8941 22.3644 19.487C22.1863 19.0672 21.9445 18.7046 21.6392 18.3992C21.3339 18.0939 20.9713 17.8522 20.5515 17.6741C20.1443 17.496 19.7054 17.4069 19.2347 17.4069H17.6699C17.1991 17.4069 16.7539 17.496 16.334 17.6741C15.9269 17.8522 15.5707 18.0939 15.2654 18.3992C14.96 18.7046 14.7183 19.0672 14.5402 19.487C14.3621 19.8941 14.273 20.333 14.273 20.8038V29.8874C14.273 30.3582 14.3621 30.8034 14.5402 31.2233C14.7183 31.6304 14.96 31.9866 15.2654 32.2919C15.5707 32.5973 15.9269 32.839 16.334 33.0171C16.7539 33.1952 17.1991 33.2843 17.6699 33.2843H19.2347C19.7054 33.2843 20.1443 33.1952 20.5515 33.0171C20.9713 32.839 21.3339 32.5973 21.6392 32.2919C21.9445 31.9866 22.1863 31.6304 22.3644 31.2233C22.5425 30.8034 22.6315 30.3582 22.6315 29.8874V28.5898L24.9788 28.9714V29.7538Z" fill="white"/>
	<path class="letter-2" d="M30.0741 35.1163V7.75073H32.4213V35.1163H30.0741Z" fill="white"/>
	<path class="letter-3" d="M50.5887 29.7538C50.5887 30.5426 50.436 31.2869 50.1307 31.9866C49.8381 32.6863 49.4309 33.297 48.9093 33.8186C48.3877 34.3402 47.7771 34.7537 47.0773 35.059C46.3776 35.3516 45.6334 35.4979 44.8446 35.4979H43.2797C42.491 35.4979 41.7467 35.3516 41.047 35.059C40.3473 34.7537 39.7366 34.3402 39.215 33.8186C38.6934 33.297 38.2799 32.6863 37.9746 31.9866C37.682 31.2869 37.5357 30.5426 37.5357 29.7538V20.9373C37.5357 20.1486 37.682 19.4043 37.9746 18.7046C38.2799 18.0049 38.6934 17.3942 39.215 16.8726C39.7366 16.351 40.3473 15.9439 41.047 15.6512C41.7467 15.3459 42.491 15.1932 43.2797 15.1932H44.8446C45.6334 15.1932 46.3776 15.3459 47.0773 15.6512C47.7771 15.9439 48.3877 16.351 48.9093 16.8726C49.4309 17.3942 49.8381 18.0049 50.1307 18.7046C50.436 19.4043 50.5887 20.1486 50.5887 20.9373V29.7538ZM48.2414 20.8038C48.2414 20.333 48.1524 19.8941 47.9742 19.487C47.7961 19.0672 47.5544 18.7046 47.2491 18.3992C46.9437 18.0939 46.5812 17.8522 46.1613 17.6741C45.7542 17.496 45.3153 17.4069 44.8446 17.4069H43.2797C42.809 17.4069 42.3637 17.496 41.9439 17.6741C41.5368 17.8522 41.1806 18.0939 40.8752 18.3992C40.5699 18.7046 40.3282 19.0672 40.1501 19.487C39.972 19.8941 39.8829 20.333 39.8829 20.8038V29.8874C39.8829 30.3582 39.972 30.8034 40.1501 31.2233C40.3282 31.6304 40.5699 31.9866 40.8752 32.2919C41.1806 32.5973 41.5368 32.839 41.9439 33.0171C42.3637 33.1952 42.809 33.2843 43.2797 33.2843H44.8446C45.3153 33.2843 45.7542 33.1952 46.1613 33.0171C46.5812 32.839 46.9437 32.5973 47.2491 32.2919C47.5544 31.9866 47.7961 31.6304 47.9742 31.2233C48.1524 30.8034 48.2414 30.3582 48.2414 29.8874V20.8038Z" fill="white"/>
	<path class="letter-4" d="M67.5538 35.1163L66.2561 33.1316C65.7218 33.8568 65.0539 34.4356 64.2523 34.8682C63.4509 35.288 62.573 35.4979 61.6188 35.4979H61.0273C60.2385 35.4979 59.4942 35.3516 58.7945 35.059C58.0948 34.7537 57.4841 34.3402 56.9625 33.8186C56.4409 33.297 56.0274 32.6863 55.7221 31.9866C55.4295 31.2869 55.2832 30.5426 55.2832 29.7538V15.5749H57.6304V29.8874C57.6304 30.3582 57.7195 30.8034 57.8976 31.2233C58.0757 31.6304 58.3174 31.9866 58.6228 32.2919C58.9281 32.5973 59.2843 32.839 59.6914 33.0171C60.1113 33.1952 60.5565 33.2843 61.0273 33.2843H62.5921C63.0628 33.2843 63.5017 33.1952 63.9089 33.0171C64.3287 32.839 64.6913 32.5973 64.9966 32.2919C65.3019 31.9866 65.5437 31.6304 65.7218 31.2233C65.8999 30.8034 65.9889 30.3582 65.9889 29.8874V15.5749H68.3362V35.1163H67.5538Z" fill="white"/>
	<path class="letter-5" d="M85.3013 35.1163L84.0036 33.1316C83.4693 33.8568 82.8014 34.4356 81.9999 34.8682C81.1984 35.288 80.3205 35.4979 79.3664 35.4979H78.7748C77.986 35.4979 77.2418 35.3516 76.542 35.059C75.8423 34.7537 75.2317 34.3402 74.71 33.8186C74.1884 33.297 73.775 32.6863 73.4696 31.9866C73.177 31.2869 73.0307 30.5426 73.0307 29.7538V20.9373C73.0307 20.1486 73.177 19.4043 73.4696 18.7046C73.775 18.0049 74.1884 17.3942 74.71 16.8726C75.2317 16.351 75.8423 15.9439 76.542 15.6512C77.2418 15.3459 77.986 15.1932 78.7748 15.1932H79.3664C80.2442 15.1932 81.0584 15.3714 81.809 15.7276C82.5597 16.0838 83.2021 16.58 83.7365 17.2161V7.75073H86.0837V35.1163H85.3013ZM83.7365 20.8038C83.7365 20.333 83.6474 19.8941 83.4693 19.487C83.2912 19.0672 83.0495 18.7046 82.7441 18.3992C82.4388 18.0939 82.0762 17.8522 81.6564 17.6741C81.2493 17.496 80.8104 17.4069 80.3396 17.4069H78.7748C78.3041 17.4069 77.8588 17.496 77.439 17.6741C77.0318 17.8522 76.6756 18.0939 76.3703 18.3992C76.065 18.7046 75.8232 19.0672 75.6451 19.487C75.467 19.8941 75.378 20.333 75.378 20.8038V29.8874C75.378 30.3582 75.467 30.8034 75.6451 31.2233C75.8232 31.6304 76.065 31.9866 76.3703 32.2919C76.6756 32.5973 77.0318 32.839 77.439 33.0171C77.8588 33.1952 78.3041 33.2843 78.7748 33.2843H80.3396C80.8104 33.2843 81.2493 33.1952 81.6564 33.0171C82.0762 32.839 82.4388 32.5973 82.7441 32.2919C83.0495 31.9866 83.2912 31.6304 83.4693 31.2233C83.6474 30.8034 83.7365 30.3582 83.7365 29.8874V20.8038Z" fill="white"/>
	<path class="line-1" d="M15.8504 52.9816C15.4302 52.9816 15.0362 53.0604 14.6685 53.218C14.3095 53.3756 13.9943 53.5901 13.7229 53.8615C13.4515 54.1329 13.237 54.4525 13.0794 54.8202C12.9218 55.1792 12.843 55.5688 12.843 55.989V56.7507L11.1488 56.4749V55.989C11.1488 55.3499 11.267 54.7501 11.5034 54.1898C11.7486 53.6295 12.0813 53.1392 12.5015 52.7189C12.9218 52.2987 13.4121 51.9703 13.9724 51.7339C14.5328 51.4888 15.1325 51.3662 15.7716 51.3662H16.5727C17.2119 51.3662 17.8116 51.48 18.372 51.7077C18.9411 51.9353 19.4357 52.2636 19.856 52.6926C20.2763 53.1217 20.6046 53.6382 20.841 54.2423C21.0861 54.8377 21.2087 55.5119 21.2087 56.2648C21.2087 57.009 21.0949 57.7576 20.8672 58.5106C20.6484 59.2635 20.355 60.0033 19.9873 60.73C19.6284 61.4567 19.2125 62.1615 18.7397 62.8444C18.2757 63.5274 17.7985 64.1709 17.3082 64.775C16.1612 66.1846 14.8611 67.5417 13.4077 68.8462H21.34V70.4616H10.7417V69.122C12.3789 67.7737 13.8411 66.3772 15.1281 64.9326C15.6797 64.311 16.2182 63.6499 16.7435 62.9495C17.2688 62.2491 17.7372 61.5311 18.1487 60.7957C18.5602 60.0515 18.8885 59.2985 19.1337 58.5368C19.3876 57.7664 19.5145 57.009 19.5145 56.2648C19.5145 55.7132 19.4314 55.2317 19.265 54.8202C19.0987 54.4087 18.8754 54.0672 18.5952 53.7958C18.3151 53.5244 17.9911 53.323 17.6234 53.1917C17.2644 53.0516 16.8879 52.9816 16.4939 52.9816H15.8504Z" fill="white"/>
	<path class="line-2" d="M33.0153 67.2046V70.4616H31.3211V67.2046H23.7565V66.4035L32.1222 51.6289H33.0153V65.5892H34.6306V67.2046H33.0153ZM31.3211 56.2648L26.1336 65.5892H31.3211V56.2648Z" fill="white"/>
	<path class="letter-6" d="M55.1837 66.1014C55.1837 66.7406 55.0612 67.3403 54.816 67.9006C54.5796 68.461 54.2513 68.9513 53.831 69.3715C53.4108 69.7918 52.9205 70.1245 52.3602 70.3697C51.7998 70.606 51.2001 70.7242 50.5609 70.7242H49.2214C48.5822 70.7242 47.9781 70.606 47.409 70.3697C46.8487 70.1245 46.3584 69.7918 45.9381 69.3715C45.5179 68.9513 45.1852 68.461 44.94 67.9006C44.7036 67.3403 44.5854 66.7406 44.5854 66.1014V55.989C44.5854 55.3499 44.7036 54.7501 44.94 54.1898C45.1852 53.6295 45.5179 53.1392 45.9381 52.7189C46.3584 52.2987 46.8487 51.9703 47.409 51.7339C47.9781 51.4888 48.5822 51.3662 49.2214 51.3662H50.5609C51.2001 51.3662 51.7998 51.4888 52.3602 51.7339C52.9205 51.9703 53.4108 52.2987 53.831 52.7189C54.2513 53.1392 54.5796 53.6295 54.816 54.1898C55.0612 54.7501 55.1837 55.3499 55.1837 55.989V56.7507L53.4896 57.0134V55.989C53.4896 55.5688 53.4108 55.1792 53.2532 54.8202C53.0956 54.4525 52.8811 54.1329 52.6097 53.8615C52.3383 53.5901 52.0187 53.3756 51.651 53.218C51.292 53.0604 50.9024 52.9816 50.4821 52.9816H49.3002C48.8799 52.9816 48.4859 53.0604 48.1182 53.218C47.7592 53.3756 47.4397 53.5901 47.1595 53.8615C46.8881 54.1329 46.6736 54.4525 46.516 54.8202C46.3584 55.1792 46.2796 55.5688 46.2796 55.989V66.1014C46.2796 66.5217 46.3584 66.9157 46.516 67.2834C46.6736 67.6424 46.8881 67.9619 47.1595 68.2421C47.4397 68.5135 47.7592 68.728 48.1182 68.8856C48.4859 69.0432 48.8799 69.122 49.3002 69.122H50.4821C50.9024 69.122 51.292 69.0432 51.651 68.8856C52.0187 68.728 52.3383 68.5135 52.6097 68.2421C52.8811 67.9619 53.0956 67.6424 53.2532 67.2834C53.4108 66.9157 53.4896 66.5217 53.4896 66.1014V65.0771L55.1837 65.3528V66.1014Z" fill="white"/>
	<path class="letter-7" d="M67.8177 70.4616L62.709 62.4242H60.3844V70.4616H58.6903V51.6289H64.6658C65.3049 51.6289 65.9046 51.7514 66.465 51.9966C67.0253 52.233 67.5156 52.5613 67.9359 52.9816C68.3561 53.4018 68.6845 53.8965 68.9209 54.4656C69.166 55.0259 69.2886 55.6257 69.2886 56.2648V57.7882C69.2886 58.4274 69.166 59.0315 68.9209 59.6006C68.6845 60.1609 68.3561 60.6512 67.9359 61.0715C67.5156 61.4917 67.0253 61.8245 66.465 62.0696C65.9046 62.306 65.3049 62.4242 64.6658 62.4242L69.7745 70.4616H67.8177ZM67.5944 56.2648C67.5944 55.8446 67.5156 55.4549 67.358 55.096C67.2004 54.7283 66.9859 54.4087 66.7145 54.1373C66.4431 53.8571 66.1235 53.6382 65.7558 53.4806C65.3968 53.323 65.0072 53.2442 64.587 53.2442H60.3844V60.8088H64.587C65.0072 60.8088 65.3968 60.73 65.7558 60.5724C66.1235 60.4148 66.4431 60.2003 66.7145 59.9289C66.9859 59.6488 67.2004 59.3292 67.358 58.9702C67.5156 58.6025 67.5944 58.2085 67.5944 57.7882V56.2648Z" fill="white"/>
	<path class="letter-8" d="M84.6148 70.4616V57.5519L84.4966 58.353L80.1233 70.4616H79.2303L74.8176 58.353L74.7125 57.5519V70.4616H73.0184V51.6289H73.8983L79.6111 67.0733L79.6637 67.7693L79.7162 67.0733L85.4159 51.6289H86.3089V70.4616H84.6148Z" fill="white"/>
	<path class="letter-9" d="M9.51514 42.5662H68.3225V44.2977H9.51514V42.5662Z" fill="#1BE117"/>
	<path class="letter-10" d="M71.8022 42.5662H88.4954V44.2977H71.8022V42.5662Z" fill="#1BE117"/>
</svg>
