<svg xmlns="http://www.w3.org/2000/svg" fill="none" viewBox="0 0 900 900"><path fill="#00dc82" d="M504.908 750h334.568a60.95 60.95 0 0 0 30.269-8.037 60.25 60.25 0 0 0 22.155-21.964 59.57 59.57 0 0 0 8.1-30.002 59.56 59.56 0 0 0-8.127-29.995L667.187 274.289a60.25 60.25 0 0 0-22.151-21.96 60.94 60.94 0 0 0-30.263-8.038 60.94 60.94 0 0 0-30.262 8.038 60.25 60.25 0 0 0-22.151 21.96l-57.452 98.69-112.327-192.986a60.3 60.3 0 0 0-22.161-21.957A61 61 0 0 0 340.151 150a61 61 0 0 0-30.268 8.036 60.3 60.3 0 0 0-22.162 21.957L8.126 660.002A59.57 59.57 0 0 0 0 689.997a59.57 59.57 0 0 0 8.1 30.002 60.25 60.25 0 0 0 22.155 21.964A60.94 60.94 0 0 0 60.524 750h210.014c83.21 0 144.574-36.225 186.798-106.899l102.513-175.956 54.908-94.166 164.79 282.855H559.849zm-237.794-94.263-146.563-.033 219.698-377.118L449.87 467.145l-73.396 126.03c-28.041 45.855-59.897 62.562-109.36 62.562"/></svg>