<svg xmlns="http://www.w3.org/2000/svg" version="1.1" xmlns:xlink="http://www.w3.org/1999/xlink" width="100" height="100"><svg width="100" height="100" viewBox="0 0 100 100" fill="none" xmlns="http://www.w3.org/2000/svg">
<rect width="100" height="100" fill="white"></rect>
<path d="M33.848 68.024C28.1733 68.024 23.1813 66.9787 18.872 64.888C14.6053 62.7973 11.2773 59.8747 8.888 56.12C6.54133 52.3653 5.368 47.992 5.368 43C5.368 38.008 6.54133 33.6347 8.888 29.88C11.2773 26.1253 14.6053 23.2027 18.872 21.112C23.1813 19.0213 28.1733 17.976 33.848 17.976C39.5653 17.976 44.5573 19.0213 48.824 21.112C53.0907 23.2027 56.4187 26.1253 58.808 29.88C61.1973 33.6347 62.392 38.008 62.392 43C62.392 47.992 61.1973 52.3653 58.808 56.12C56.4187 59.8747 53.0907 62.7973 48.824 64.888C44.5573 66.9787 39.5653 68.024 33.848 68.024ZM33.848 56.184C36.9627 56.184 39.6507 55.6507 41.912 54.584C44.1733 53.5173 45.9013 52.0027 47.096 50.04C48.3333 48.0773 48.952 45.7307 48.952 43C48.952 40.2693 48.3333 37.9227 47.096 35.96C45.9013 33.9973 44.1733 32.4827 41.912 31.416C39.6507 30.3493 36.9627 29.816 33.848 29.816C30.776 29.816 28.1093 30.3493 25.848 31.416C23.5867 32.4827 21.8373 33.9973 20.6 35.96C19.3627 37.9227 18.744 40.2693 18.744 43C18.744 45.7307 19.3627 48.0773 20.6 50.04C21.8373 52.0027 23.5867 53.5173 25.848 54.584C28.1093 55.6507 30.776 56.184 33.848 56.184Z" fill="#404040"></path>
<path d="M65.416 34C71.0907 34 76.0613 35.0027 80.328 37.008C84.6373 38.9707 87.9653 41.7653 90.312 45.392C92.7013 48.976 93.896 53.1787 93.896 58C93.896 62.8213 92.7013 67.0453 90.312 70.672C87.9653 74.256 84.6373 77.0507 80.328 79.056C76.0613 81.0187 71.0907 82 65.416 82H41.48V34H65.416ZM54.664 76.432L48.328 70.224H66.44C69.2987 70.224 71.7733 69.7333 73.864 68.752C75.9973 67.728 77.64 66.2987 78.792 64.464C79.944 62.6293 80.52 60.4747 80.52 58C80.52 55.4827 79.944 53.328 78.792 51.536C77.64 49.7013 75.9973 48.2933 73.864 47.312C71.7733 46.288 69.2987 45.776 66.44 45.776H48.328L54.664 39.568V76.432Z" fill="#C10007"></path>
</svg><style>@media (prefers-color-scheme: light) { :root { filter: none; } }
@media (prefers-color-scheme: dark) { :root { filter: none; } }
</style></svg>