<?xml version="1.0" encoding="UTF-8" standalone="no"?>
<!DOCTYPE svg PUBLIC "-//W3C//DTD SVG 1.1//EN" "http://www.w3.org/Graphics/SVG/1.1/DTD/svg11.dtd">
<svg xmlns="http://www.w3.org/2000/svg" version="1.1" viewBox="0.00 0.00 560.00 96.00">
<g stroke-width="2.00" fill="none" stroke-linecap="butt">
<path stroke="#b7abef" vector-effect="non-scaling-stroke" d="
  M 8.73 42.06
  C 16.43 43.38 18.39 51.96 12.39 56.66
  C 11.19 57.59 9.94 57.56 8.58 58.01
  Q 8.02 58.19 8.02 58.78
  Q 8.00 66.07 8.00 73.00
  C 7.99 78.56 11.49 81.99 16.82 82.00
  Q 56.51 82.03 96.09 81.97
  Q 100.26 81.96 102.66 78.22
  Q 104.13 75.91 104.05 71.52
  Q 103.93 64.89 104.02 58.97
  Q 104.03 58.30 103.40 58.07
  C 102.08 57.58 100.98 57.33 99.75 56.56
  Q 95.67 54.02 96.14 49.22
  C 96.49 45.65 99.39 42.56 102.99 42.14
  A 1.14 1.13 -3.2 0 0 103.99 41.03
  Q 104.04 34.40 104.00 26.93
  Q 103.97 21.36 99.94 19.19
  Q 97.88 18.08 95.88 18.07
  Q 59.41 17.95 16.24 18.05
  C 11.40 18.06 8.13 21.70 8.04 26.48
  Q 7.90 33.24 8.03 41.24
  Q 8.04 41.94 8.73 42.06"
/>
<path stroke="#8c8b8d" vector-effect="non-scaling-stroke" d="
  M 222.21 55.04
  A 0.33 0.33 0.0 0 1 221.63 54.83
  L 221.65 20.78
  A 0.33 0.33 0.0 0 0 221.32 20.45
  L 215.33 20.47
  A 0.33 0.33 0.0 0 0 215.00 20.80
  L 215.00 74.65
  A 0.33 0.33 0.0 0 0 215.33 74.98
  L 221.26 75.00
  A 0.33 0.33 0.0 0 0 221.59 74.67
  L 221.67 66.48
  A 0.33 0.33 0.0 0 1 221.75 66.27
  L 227.64 59.22
  A 0.33 0.33 0.0 0 1 228.18 59.27
  L 237.19 74.84
  A 0.33 0.33 0.0 0 0 237.48 75.01
  L 244.54 74.96
  A 0.33 0.33 0.0 0 0 244.83 74.47
  L 232.72 53.53
  A 0.33 0.33 0.0 0 1 232.75 53.15
  L 244.59 39.02
  A 0.33 0.33 0.0 0 0 244.34 38.48
  L 236.27 38.46
  A 0.33 0.33 0.0 0 0 236.02 38.58
  L 222.21 55.04"
/>
<path stroke="#8c8b8d" vector-effect="non-scaling-stroke" d="
  M 365.23 24.00
  A 0.31 0.31 0.0 0 0 364.93 24.23
  L 355.45 61.58
  A 0.31 0.31 0.0 0 1 354.85 61.58
  L 345.35 24.23
  A 0.31 0.31 0.0 0 0 345.05 24.00
  L 338.75 24.02
  A 0.31 0.31 0.0 0 0 338.45 24.41
  L 351.31 74.76
  A 0.31 0.31 0.0 0 0 351.61 74.99
  L 358.71 75.00
  A 0.31 0.31 0.0 0 0 359.01 74.77
  L 367.69 40.66
  A 0.31 0.31 0.0 0 1 368.29 40.66
  L 376.98 74.77
  A 0.31 0.31 0.0 0 0 377.28 75.00
  L 384.44 74.99
  A 0.31 0.31 0.0 0 0 384.74 74.76
  L 397.52 24.41
  A 0.31 0.31 0.0 0 0 397.22 24.03
  L 390.92 23.99
  A 0.31 0.31 0.0 0 0 390.62 24.23
  L 381.15 61.58
  A 0.31 0.31 0.0 0 1 380.55 61.58
  L 371.05 24.24
  A 0.31 0.31 0.0 0 0 370.75 24.01
  L 365.23 24.00"
/>
<path stroke="#8c8b8d" vector-effect="non-scaling-stroke" d="
  M 171.78 29.55
  A 3.65 3.65 0.0 0 0 168.13 25.90
  A 3.65 3.65 0.0 0 0 164.48 29.55
  A 3.65 3.65 0.0 0 0 168.13 33.20
  A 3.65 3.65 0.0 0 0 171.78 29.55"
/>
<path stroke="#8c8b8d" vector-effect="non-scaling-stroke" d="
  M 151.05 45.41
  A 0.40 0.40 0.0 0 1 151.45 45.01
  L 158.85 45.04
  A 0.40 0.40 0.0 0 0 159.25 44.64
  L 159.25 38.86
  A 0.40 0.40 0.0 0 0 158.85 38.46
  L 151.46 38.47
  A 0.40 0.40 0.0 0 1 151.06 38.07
  L 151.03 27.46
  A 0.40 0.40 0.0 0 0 150.63 27.06
  L 144.90 27.05
  A 0.40 0.40 0.0 0 0 144.50 27.45
  L 144.45 37.98
  A 0.40 0.40 0.0 0 1 144.06 38.38
  L 138.62 38.49
  A 0.40 0.40 0.0 0 0 138.23 38.90
  L 138.33 44.61
  A 0.40 0.40 0.0 0 0 138.73 45.00
  L 144.09 45.03
  A 0.40 0.40 0.0 0 1 144.49 45.43
  L 144.48 74.59
  A 0.40 0.40 0.0 0 0 144.88 74.99
  L 150.63 75.01
  A 0.40 0.40 0.0 0 0 151.03 74.61
  L 151.05 45.41"
/>
<path stroke="#8c8b8d" vector-effect="non-scaling-stroke" d="
  M 291.78 45.02
  A 0.45 0.45 0.0 0 1 292.23 45.47
  L 292.21 74.54
  A 0.45 0.45 0.0 0 0 292.66 74.99
  L 298.33 75.01
  A 0.45 0.45 0.0 0 0 298.78 74.56
  L 298.80 45.46
  A 0.45 0.45 0.0 0 1 299.25 45.01
  L 306.56 45.03
  A 0.45 0.45 0.0 0 0 307.01 44.58
  L 307.01 38.90
  A 0.45 0.45 0.0 0 0 306.56 38.45
  L 299.25 38.46
  A 0.45 0.45 0.0 0 1 298.80 38.01
  L 298.78 27.52
  A 0.45 0.45 0.0 0 0 298.33 27.07
  L 292.67 27.05
  A 0.45 0.45 0.0 0 0 292.22 27.50
  L 292.21 37.99
  A 0.45 0.45 0.0 0 1 291.76 38.44
  L 286.42 38.47
  A 0.45 0.45 0.0 0 0 285.98 38.92
  L 286.04 44.55
  A 0.45 0.45 0.0 0 0 286.49 44.99
  L 291.78 45.02"
/>
<path stroke="#8c8b8d" vector-effect="non-scaling-stroke" d="
  M 327.93 60.85
  C 330.58 61.67 333.20 64.54 330.70 67.09
  C 326.53 71.34 319.38 70.03 315.88 65.49
  Q 315.52 65.03 314.99 65.25
  L 310.45 67.16
  Q 309.88 67.39 310.11 67.96
  Q 311.01 70.17 312.84 71.57
  Q 320.18 77.18 328.72 75.11
  C 338.49 72.74 342.12 60.89 331.75 56.04
  C 327.61 54.11 323.35 53.04 319.24 51.21
  C 316.71 50.09 316.66 46.85 318.65 45.29
  Q 323.73 41.29 329.90 44.81
  Q 331.32 45.62 332.14 47.04
  Q 332.60 47.86 333.41 47.39
  L 337.52 45.00
  Q 338.26 44.57 337.79 43.85
  Q 333.90 38.04 326.14 37.34
  C 318.87 36.68 311.19 40.18 310.93 48.26
  C 310.79 52.54 313.52 55.77 317.33 57.20
  Q 322.68 59.21 327.93 60.85"
/>
<path stroke="#8c8b8d" vector-effect="non-scaling-stroke" d="
  M 187.25 47.74
  C 191.92 42.73 199.12 43.00 203.51 48.16
  Q 203.95 48.69 204.55 48.36
  L 209.58 45.64
  Q 210.06 45.39 209.73 44.95
  C 202.70 35.68 189.66 34.77 181.87 43.39
  C 175.00 51.00 175.26 63.23 182.57 70.64
  C 190.54 78.73 203.45 77.12 209.89 68.14
  Q 209.96 68.04 209.86 67.97
  Q 207.10 66.13 203.86 64.82
  Q 203.73 64.76 203.63 64.87
  Q 198.47 70.61 192.28 68.70
  C 183.23 65.91 180.84 54.62 187.25 47.74"
/>
<path stroke="#8c8b8d" vector-effect="non-scaling-stroke" d="
  M 254.03 59.21
  L 281.57 59.20
  A 0.91 0.90 -88.3 0 0 282.47 58.34
  Q 282.94 49.49 277.75 43.45
  C 270.88 35.44 258.05 35.43 251.10 43.42
  Q 244.13 51.44 247.01 62.41
  C 249.09 70.31 256.31 75.98 264.68 75.81
  Q 275.10 75.60 280.77 65.43
  Q 281.27 64.53 280.26 64.30
  L 275.11 63.14
  Q 274.25 62.94 273.78 63.69
  C 268.08 72.70 255.95 70.00 253.43 59.97
  Q 253.23 59.21 254.03 59.21"
/>
<path stroke="#8c8b8d" vector-effect="non-scaling-stroke" d="
  M 425.80 67.53
  C 411.21 58.08 426.31 34.40 440.17 48.44
  Q 440.34 48.61 440.55 48.50
  L 446.03 45.57
  Q 446.31 45.42 446.12 45.17
  Q 441.03 38.19 432.92 37.55
  C 421.34 36.65 413.09 45.78 413.21 56.99
  C 413.30 65.36 418.68 73.30 426.73 75.23
  Q 438.11 77.96 445.87 68.66
  A 0.68 0.68 0.0 0 0 445.67 67.62
  L 440.97 65.08
  A 1.23 1.23 0.0 0 0 439.51 65.29
  C 436.84 67.96 434.39 69.39 430.53 69.10
  Q 427.91 68.90 425.80 67.53"
/>
<path stroke="#8c8b8d" vector-effect="non-scaling-stroke" d="
  M 467.8806 75.9143
  A 19.26 18.29 88.6 0 0 485.6945 56.2131
  A 19.26 18.29 88.6 0 0 466.9394 37.4057
  A 19.26 18.29 88.6 0 0 449.1255 57.1069
  A 19.26 18.29 88.6 0 0 467.8806 75.9143"
/>
<path stroke="#8c8b8d" vector-effect="non-scaling-stroke" d="
  M 497.54 41.25
  L 497.67 39.22
  Q 497.72 38.46 496.97 38.47
  L 491.77 38.47
  Q 491.00 38.47 491.00 39.24
  L 491.00 74.25
  A 0.76 0.75 0.4 0 0 491.75 75.00
  L 496.95 75.00
  Q 497.63 75.00 497.63 74.33
  Q 497.64 64.51 497.66 54.68
  C 497.66 47.46 504.51 41.44 511.42 45.37
  Q 516.39 48.20 516.42 54.43
  Q 516.48 64.53 516.45 74.45
  Q 516.45 75.00 517.00 75.00
  L 522.48 75.00
  Q 523.02 75.00 523.02 74.46
  Q 523.01 64.51 523.03 54.44
  C 523.05 47.14 530.03 41.39 536.79 45.47
  Q 541.75 48.46 541.75 54.68
  Q 541.75 64.33 541.76 74.56
  Q 541.76 75.00 542.20 75.00
  L 548.02 75.00
  A 0.33 0.33 0.0 0 0 548.35 74.67
  Q 548.36 63.98 548.41 53.00
  Q 548.44 43.36 540.48 39.22
  Q 531.53 34.57 522.88 41.67
  C 522.40 42.07 521.94 43.14 521.43 43.65
  Q 521.01 44.09 520.64 43.60
  C 515.32 36.48 504.86 35.11 498.29 41.59
  Q 497.46 42.41 497.54 41.25"
/>
<path stroke="#8c8b8d" vector-effect="non-scaling-stroke" d="
  M 171.39 38.88
  A 0.42 0.42 0.0 0 0 170.97 38.46
  L 165.19 38.46
  A 0.42 0.42 0.0 0 0 164.77 38.88
  L 164.77 74.58
  A 0.42 0.42 0.0 0 0 165.19 75.00
  L 170.97 75.00
  A 0.42 0.42 0.0 0 0 171.39 74.58
  L 171.39 38.88"
/>
<path stroke="#8c8b8d" vector-effect="non-scaling-stroke" d="
  M 407.59 72.30
  A 3.64 3.64 0.0 0 0 403.95 68.66
  A 3.64 3.64 0.0 0 0 400.31 72.30
  A 3.64 3.64 0.0 0 0 403.95 75.94
  A 3.64 3.64 0.0 0 0 407.59 72.30"
/>
<path stroke="#b7abef" vector-effect="non-scaling-stroke" d="
  M 87.98 32.48
  A 3.73 3.73 0.0 0 0 84.25 28.75
  L 27.75 28.75
  A 3.73 3.73 0.0 0 0 24.02 32.48
  L 24.02 67.52
  A 3.73 3.73 0.0 0 0 27.75 71.25
  L 84.25 71.25
  A 3.73 3.73 0.0 0 0 87.98 67.52
  L 87.98 32.48"
/>
<path stroke="#b7abef" vector-effect="non-scaling-stroke" d="
  M 82.75 34.61
  A 0.61 0.61 0.0 0 0 82.14 34.00
  L 29.86 34.00
  A 0.61 0.61 0.0 0 0 29.25 34.61
  L 29.25 65.39
  A 0.61 0.61 0.0 0 0 29.86 66.00
  L 82.14 66.00
  A 0.61 0.61 0.0 0 0 82.75 65.39
  L 82.75 34.61"
/>
<path stroke="#8c8b8d" vector-effect="non-scaling-stroke" d="
  M 275.64 53.10
  C 273.54 45.29 265.45 40.45 258.20 45.58
  Q 254.20 48.41 253.21 53.38
  A 0.41 0.41 0.0 0 0 253.61 53.87
  L 275.05 53.88
  Q 275.85 53.88 275.64 53.10"
/>
<path stroke="#8c8b8d" vector-effect="non-scaling-stroke" d="
  M 467.4100 69.1400
  A 12.48 11.53 90.0 0 0 478.9400 56.6600
  A 12.48 11.53 90.0 0 0 467.4100 44.1800
  A 12.48 11.53 90.0 0 0 455.8800 56.6600
  A 12.48 11.53 90.0 0 0 467.4100 69.1400"
/>
</g>
<path fill="#f5f4f8" d="
  M 0.00 0.00
  L 560.00 0.00
  L 560.00 96.00
  L 0.00 96.00
  L 0.00 0.00
  Z
  M 8.73 42.06
  C 16.43 43.38 18.39 51.96 12.39 56.66
  C 11.19 57.59 9.94 57.56 8.58 58.01
  Q 8.02 58.19 8.02 58.78
  Q 8.00 66.07 8.00 73.00
  C 7.99 78.56 11.49 81.99 16.82 82.00
  Q 56.51 82.03 96.09 81.97
  Q 100.26 81.96 102.66 78.22
  Q 104.13 75.91 104.05 71.52
  Q 103.93 64.89 104.02 58.97
  Q 104.03 58.30 103.40 58.07
  C 102.08 57.58 100.98 57.33 99.75 56.56
  Q 95.67 54.02 96.14 49.22
  C 96.49 45.65 99.39 42.56 102.99 42.14
  A 1.14 1.13 -3.2 0 0 103.99 41.03
  Q 104.04 34.40 104.00 26.93
  Q 103.97 21.36 99.94 19.19
  Q 97.88 18.08 95.88 18.07
  Q 59.41 17.95 16.24 18.05
  C 11.40 18.06 8.13 21.70 8.04 26.48
  Q 7.90 33.24 8.03 41.24
  Q 8.04 41.94 8.73 42.06
  Z
  M 222.21 55.04
  A 0.33 0.33 0.0 0 1 221.63 54.83
  L 221.65 20.78
  A 0.33 0.33 0.0 0 0 221.32 20.45
  L 215.33 20.47
  A 0.33 0.33 0.0 0 0 215.00 20.80
  L 215.00 74.65
  A 0.33 0.33 0.0 0 0 215.33 74.98
  L 221.26 75.00
  A 0.33 0.33 0.0 0 0 221.59 74.67
  L 221.67 66.48
  A 0.33 0.33 0.0 0 1 221.75 66.27
  L 227.64 59.22
  A 0.33 0.33 0.0 0 1 228.18 59.27
  L 237.19 74.84
  A 0.33 0.33 0.0 0 0 237.48 75.01
  L 244.54 74.96
  A 0.33 0.33 0.0 0 0 244.83 74.47
  L 232.72 53.53
  A 0.33 0.33 0.0 0 1 232.75 53.15
  L 244.59 39.02
  A 0.33 0.33 0.0 0 0 244.34 38.48
  L 236.27 38.46
  A 0.33 0.33 0.0 0 0 236.02 38.58
  L 222.21 55.04
  Z
  M 365.23 24.00
  A 0.31 0.31 0.0 0 0 364.93 24.23
  L 355.45 61.58
  A 0.31 0.31 0.0 0 1 354.85 61.58
  L 345.35 24.23
  A 0.31 0.31 0.0 0 0 345.05 24.00
  L 338.75 24.02
  A 0.31 0.31 0.0 0 0 338.45 24.41
  L 351.31 74.76
  A 0.31 0.31 0.0 0 0 351.61 74.99
  L 358.71 75.00
  A 0.31 0.31 0.0 0 0 359.01 74.77
  L 367.69 40.66
  A 0.31 0.31 0.0 0 1 368.29 40.66
  L 376.98 74.77
  A 0.31 0.31 0.0 0 0 377.28 75.00
  L 384.44 74.99
  A 0.31 0.31 0.0 0 0 384.74 74.76
  L 397.52 24.41
  A 0.31 0.31 0.0 0 0 397.22 24.03
  L 390.92 23.99
  A 0.31 0.31 0.0 0 0 390.62 24.23
  L 381.15 61.58
  A 0.31 0.31 0.0 0 1 380.55 61.58
  L 371.05 24.24
  A 0.31 0.31 0.0 0 0 370.75 24.01
  L 365.23 24.00
  Z
  M 171.78 29.55
  A 3.65 3.65 0.0 0 0 168.13 25.90
  A 3.65 3.65 0.0 0 0 164.48 29.55
  A 3.65 3.65 0.0 0 0 168.13 33.20
  A 3.65 3.65 0.0 0 0 171.78 29.55
  Z
  M 151.05 45.41
  A 0.40 0.40 0.0 0 1 151.45 45.01
  L 158.85 45.04
  A 0.40 0.40 0.0 0 0 159.25 44.64
  L 159.25 38.86
  A 0.40 0.40 0.0 0 0 158.85 38.46
  L 151.46 38.47
  A 0.40 0.40 0.0 0 1 151.06 38.07
  L 151.03 27.46
  A 0.40 0.40 0.0 0 0 150.63 27.06
  L 144.90 27.05
  A 0.40 0.40 0.0 0 0 144.50 27.45
  L 144.45 37.98
  A 0.40 0.40 0.0 0 1 144.06 38.38
  L 138.62 38.49
  A 0.40 0.40 0.0 0 0 138.23 38.90
  L 138.33 44.61
  A 0.40 0.40 0.0 0 0 138.73 45.00
  L 144.09 45.03
  A 0.40 0.40 0.0 0 1 144.49 45.43
  L 144.48 74.59
  A 0.40 0.40 0.0 0 0 144.88 74.99
  L 150.63 75.01
  A 0.40 0.40 0.0 0 0 151.03 74.61
  L 151.05 45.41
  Z
  M 291.78 45.02
  A 0.45 0.45 0.0 0 1 292.23 45.47
  L 292.21 74.54
  A 0.45 0.45 0.0 0 0 292.66 74.99
  L 298.33 75.01
  A 0.45 0.45 0.0 0 0 298.78 74.56
  L 298.80 45.46
  A 0.45 0.45 0.0 0 1 299.25 45.01
  L 306.56 45.03
  A 0.45 0.45 0.0 0 0 307.01 44.58
  L 307.01 38.90
  A 0.45 0.45 0.0 0 0 306.56 38.45
  L 299.25 38.46
  A 0.45 0.45 0.0 0 1 298.80 38.01
  L 298.78 27.52
  A 0.45 0.45 0.0 0 0 298.33 27.07
  L 292.67 27.05
  A 0.45 0.45 0.0 0 0 292.22 27.50
  L 292.21 37.99
  A 0.45 0.45 0.0 0 1 291.76 38.44
  L 286.42 38.47
  A 0.45 0.45 0.0 0 0 285.98 38.92
  L 286.04 44.55
  A 0.45 0.45 0.0 0 0 286.49 44.99
  L 291.78 45.02
  Z
  M 327.93 60.85
  C 330.58 61.67 333.20 64.54 330.70 67.09
  C 326.53 71.34 319.38 70.03 315.88 65.49
  Q 315.52 65.03 314.99 65.25
  L 310.45 67.16
  Q 309.88 67.39 310.11 67.96
  Q 311.01 70.17 312.84 71.57
  Q 320.18 77.18 328.72 75.11
  C 338.49 72.74 342.12 60.89 331.75 56.04
  C 327.61 54.11 323.35 53.04 319.24 51.21
  C 316.71 50.09 316.66 46.85 318.65 45.29
  Q 323.73 41.29 329.90 44.81
  Q 331.32 45.62 332.14 47.04
  Q 332.60 47.86 333.41 47.39
  L 337.52 45.00
  Q 338.26 44.57 337.79 43.85
  Q 333.90 38.04 326.14 37.34
  C 318.87 36.68 311.19 40.18 310.93 48.26
  C 310.79 52.54 313.52 55.77 317.33 57.20
  Q 322.68 59.21 327.93 60.85
  Z
  M 187.25 47.74
  C 191.92 42.73 199.12 43.00 203.51 48.16
  Q 203.95 48.69 204.55 48.36
  L 209.58 45.64
  Q 210.06 45.39 209.73 44.95
  C 202.70 35.68 189.66 34.77 181.87 43.39
  C 175.00 51.00 175.26 63.23 182.57 70.64
  C 190.54 78.73 203.45 77.12 209.89 68.14
  Q 209.96 68.04 209.86 67.97
  Q 207.10 66.13 203.86 64.82
  Q 203.73 64.76 203.63 64.87
  Q 198.47 70.61 192.28 68.70
  C 183.23 65.91 180.84 54.62 187.25 47.74
  Z
  M 254.03 59.21
  L 281.57 59.20
  A 0.91 0.90 -88.3 0 0 282.47 58.34
  Q 282.94 49.49 277.75 43.45
  C 270.88 35.44 258.05 35.43 251.10 43.42
  Q 244.13 51.44 247.01 62.41
  C 249.09 70.31 256.31 75.98 264.68 75.81
  Q 275.10 75.60 280.77 65.43
  Q 281.27 64.53 280.26 64.30
  L 275.11 63.14
  Q 274.25 62.94 273.78 63.69
  C 268.08 72.70 255.95 70.00 253.43 59.97
  Q 253.23 59.21 254.03 59.21
  Z
  M 425.80 67.53
  C 411.21 58.08 426.31 34.40 440.17 48.44
  Q 440.34 48.61 440.55 48.50
  L 446.03 45.57
  Q 446.31 45.42 446.12 45.17
  Q 441.03 38.19 432.92 37.55
  C 421.34 36.65 413.09 45.78 413.21 56.99
  C 413.30 65.36 418.68 73.30 426.73 75.23
  Q 438.11 77.96 445.87 68.66
  A 0.68 0.68 0.0 0 0 445.67 67.62
  L 440.97 65.08
  A 1.23 1.23 0.0 0 0 439.51 65.29
  C 436.84 67.96 434.39 69.39 430.53 69.10
  Q 427.91 68.90 425.80 67.53
  Z
  M 467.8806 75.9143
  A 19.26 18.29 88.6 0 0 485.6945 56.2131
  A 19.26 18.29 88.6 0 0 466.9394 37.4057
  A 19.26 18.29 88.6 0 0 449.1255 57.1069
  A 19.26 18.29 88.6 0 0 467.8806 75.9143
  Z
  M 497.54 41.25
  L 497.67 39.22
  Q 497.72 38.46 496.97 38.47
  L 491.77 38.47
  Q 491.00 38.47 491.00 39.24
  L 491.00 74.25
  A 0.76 0.75 0.4 0 0 491.75 75.00
  L 496.95 75.00
  Q 497.63 75.00 497.63 74.33
  Q 497.64 64.51 497.66 54.68
  C 497.66 47.46 504.51 41.44 511.42 45.37
  Q 516.39 48.20 516.42 54.43
  Q 516.48 64.53 516.45 74.45
  Q 516.45 75.00 517.00 75.00
  L 522.48 75.00
  Q 523.02 75.00 523.02 74.46
  Q 523.01 64.51 523.03 54.44
  C 523.05 47.14 530.03 41.39 536.79 45.47
  Q 541.75 48.46 541.75 54.68
  Q 541.75 64.33 541.76 74.56
  Q 541.76 75.00 542.20 75.00
  L 548.02 75.00
  A 0.33 0.33 0.0 0 0 548.35 74.67
  Q 548.36 63.98 548.41 53.00
  Q 548.44 43.36 540.48 39.22
  Q 531.53 34.57 522.88 41.67
  C 522.40 42.07 521.94 43.14 521.43 43.65
  Q 521.01 44.09 520.64 43.60
  C 515.32 36.48 504.86 35.11 498.29 41.59
  Q 497.46 42.41 497.54 41.25
  Z
  M 171.39 38.88
  A 0.42 0.42 0.0 0 0 170.97 38.46
  L 165.19 38.46
  A 0.42 0.42 0.0 0 0 164.77 38.88
  L 164.77 74.58
  A 0.42 0.42 0.0 0 0 165.19 75.00
  L 170.97 75.00
  A 0.42 0.42 0.0 0 0 171.39 74.58
  L 171.39 38.88
  Z
  M 407.59 72.30
  A 3.64 3.64 0.0 0 0 403.95 68.66
  A 3.64 3.64 0.0 0 0 400.31 72.30
  A 3.64 3.64 0.0 0 0 403.95 75.94
  A 3.64 3.64 0.0 0 0 407.59 72.30
  Z"
/>
<path fill="#7861e5" d="
  M 12.39 56.66
  C 18.39 51.96 16.43 43.38 8.73 42.06
  Q 8.04 41.94 8.03 41.24
  Q 7.90 33.24 8.04 26.48
  C 8.13 21.70 11.40 18.06 16.24 18.05
  Q 59.41 17.95 95.88 18.07
  Q 97.88 18.08 99.94 19.19
  Q 103.97 21.36 104.00 26.93
  Q 104.04 34.40 103.99 41.03
  A 1.14 1.13 -3.2 0 1 102.99 42.14
  C 99.39 42.56 96.49 45.65 96.14 49.22
  Q 95.67 54.02 99.75 56.56
  C 100.98 57.33 102.08 57.58 103.40 58.07
  Q 104.03 58.30 104.02 58.97
  Q 103.93 64.89 104.05 71.52
  Q 104.13 75.91 102.66 78.22
  Q 100.26 81.96 96.09 81.97
  Q 56.51 82.03 16.82 82.00
  C 11.49 81.99 7.99 78.56 8.00 73.00
  Q 8.00 66.07 8.02 58.78
  Q 8.02 58.19 8.58 58.01
  C 9.94 57.56 11.19 57.59 12.39 56.66
  Z
  M 87.98 32.48
  A 3.73 3.73 0.0 0 0 84.25 28.75
  L 27.75 28.75
  A 3.73 3.73 0.0 0 0 24.02 32.48
  L 24.02 67.52
  A 3.73 3.73 0.0 0 0 27.75 71.25
  L 84.25 71.25
  A 3.73 3.73 0.0 0 0 87.98 67.52
  L 87.98 32.48
  Z"
/>
<path fill="#222222" d="
  M 222.21 55.04
  L 236.02 38.58
  A 0.33 0.33 0.0 0 1 236.27 38.46
  L 244.34 38.48
  A 0.33 0.33 0.0 0 1 244.59 39.02
  L 232.75 53.15
  A 0.33 0.33 0.0 0 0 232.72 53.53
  L 244.83 74.47
  A 0.33 0.33 0.0 0 1 244.54 74.96
  L 237.48 75.01
  A 0.33 0.33 0.0 0 1 237.19 74.84
  L 228.18 59.27
  A 0.33 0.33 0.0 0 0 227.64 59.22
  L 221.75 66.27
  A 0.33 0.33 0.0 0 0 221.67 66.48
  L 221.59 74.67
  A 0.33 0.33 0.0 0 1 221.26 75.00
  L 215.33 74.98
  A 0.33 0.33 0.0 0 1 215.00 74.65
  L 215.00 20.80
  A 0.33 0.33 0.0 0 1 215.33 20.47
  L 221.32 20.45
  A 0.33 0.33 0.0 0 1 221.65 20.78
  L 221.63 54.83
  A 0.33 0.33 0.0 0 0 222.21 55.04
  Z"
/>
<path fill="#222222" d="
  M 365.23 24.00
  L 370.75 24.01
  A 0.31 0.31 0.0 0 1 371.05 24.24
  L 380.55 61.58
  A 0.31 0.31 0.0 0 0 381.15 61.58
  L 390.62 24.23
  A 0.31 0.31 0.0 0 1 390.92 23.99
  L 397.22 24.03
  A 0.31 0.31 0.0 0 1 397.52 24.41
  L 384.74 74.76
  A 0.31 0.31 0.0 0 1 384.44 74.99
  L 377.28 75.00
  A 0.31 0.31 0.0 0 1 376.98 74.77
  L 368.29 40.66
  A 0.31 0.31 0.0 0 0 367.69 40.66
  L 359.01 74.77
  A 0.31 0.31 0.0 0 1 358.71 75.00
  L 351.61 74.99
  A 0.31 0.31 0.0 0 1 351.31 74.76
  L 338.45 24.41
  A 0.31 0.31 0.0 0 1 338.75 24.02
  L 345.05 24.00
  A 0.31 0.31 0.0 0 1 345.35 24.23
  L 354.85 61.58
  A 0.31 0.31 0.0 0 0 355.45 61.58
  L 364.93 24.23
  A 0.31 0.31 0.0 0 1 365.23 24.00
  Z"
/>
<circle fill="#222222" cx="168.13" cy="29.55" r="3.65"/>
<path fill="#222222" d="
  M 151.05 45.41
  L 151.03 74.61
  A 0.40 0.40 0.0 0 1 150.63 75.01
  L 144.88 74.99
  A 0.40 0.40 0.0 0 1 144.48 74.59
  L 144.49 45.43
  A 0.40 0.40 0.0 0 0 144.09 45.03
  L 138.73 45.00
  A 0.40 0.40 0.0 0 1 138.33 44.61
  L 138.23 38.90
  A 0.40 0.40 0.0 0 1 138.62 38.49
  L 144.06 38.38
  A 0.40 0.40 0.0 0 0 144.45 37.98
  L 144.50 27.45
  A 0.40 0.40 0.0 0 1 144.90 27.05
  L 150.63 27.06
  A 0.40 0.40 0.0 0 1 151.03 27.46
  L 151.06 38.07
  A 0.40 0.40 0.0 0 0 151.46 38.47
  L 158.85 38.46
  A 0.40 0.40 0.0 0 1 159.25 38.86
  L 159.25 44.64
  A 0.40 0.40 0.0 0 1 158.85 45.04
  L 151.45 45.01
  A 0.40 0.40 0.0 0 0 151.05 45.41
  Z"
/>
<path fill="#222222" d="
  M 291.78 45.02
  L 286.49 44.99
  A 0.45 0.45 0.0 0 1 286.04 44.55
  L 285.98 38.92
  A 0.45 0.45 0.0 0 1 286.42 38.47
  L 291.76 38.44
  A 0.45 0.45 0.0 0 0 292.21 37.99
  L 292.22 27.50
  A 0.45 0.45 0.0 0 1 292.67 27.05
  L 298.33 27.07
  A 0.45 0.45 0.0 0 1 298.78 27.52
  L 298.80 38.01
  A 0.45 0.45 0.0 0 0 299.25 38.46
  L 306.56 38.45
  A 0.45 0.45 0.0 0 1 307.01 38.90
  L 307.01 44.58
  A 0.45 0.45 0.0 0 1 306.56 45.03
  L 299.25 45.01
  A 0.45 0.45 0.0 0 0 298.80 45.46
  L 298.78 74.56
  A 0.45 0.45 0.0 0 1 298.33 75.01
  L 292.66 74.99
  A 0.45 0.45 0.0 0 1 292.21 74.54
  L 292.23 45.47
  A 0.45 0.45 0.0 0 0 291.78 45.02
  Z"
/>
<path fill="#f5f4f8" d="
  M 87.98 67.52
  A 3.73 3.73 0.0 0 1 84.25 71.25
  L 27.75 71.25
  A 3.73 3.73 0.0 0 1 24.02 67.52
  L 24.02 32.48
  A 3.73 3.73 0.0 0 1 27.75 28.75
  L 84.25 28.75
  A 3.73 3.73 0.0 0 1 87.98 32.48
  L 87.98 67.52
  Z
  M 82.75 34.61
  A 0.61 0.61 0.0 0 0 82.14 34.00
  L 29.86 34.00
  A 0.61 0.61 0.0 0 0 29.25 34.61
  L 29.25 65.39
  A 0.61 0.61 0.0 0 0 29.86 66.00
  L 82.14 66.00
  A 0.61 0.61 0.0 0 0 82.75 65.39
  L 82.75 34.61
  Z"
/>
<rect fill="#7861e5" x="29.25" y="34.00" width="53.50" height="32.00" rx="0.61"/>
<path fill="#222222" d="
  M 327.93 60.85
  Q 322.68 59.21 317.33 57.20
  C 313.52 55.77 310.79 52.54 310.93 48.26
  C 311.19 40.18 318.87 36.68 326.14 37.34
  Q 333.90 38.04 337.79 43.85
  Q 338.26 44.57 337.52 45.00
  L 333.41 47.39
  Q 332.60 47.86 332.14 47.04
  Q 331.32 45.62 329.90 44.81
  Q 323.73 41.29 318.65 45.29
  C 316.66 46.85 316.71 50.09 319.24 51.21
  C 323.35 53.04 327.61 54.11 331.75 56.04
  C 342.12 60.89 338.49 72.74 328.72 75.11
  Q 320.18 77.18 312.84 71.57
  Q 311.01 70.17 310.11 67.96
  Q 309.88 67.39 310.45 67.16
  L 314.99 65.25
  Q 315.52 65.03 315.88 65.49
  C 319.38 70.03 326.53 71.34 330.70 67.09
  C 333.20 64.54 330.58 61.67 327.93 60.85
  Z"
/>
<path fill="#222222" d="
  M 203.51 48.16
  C 199.12 43.00 191.92 42.73 187.25 47.74
  C 180.84 54.62 183.23 65.91 192.28 68.70
  Q 198.47 70.61 203.63 64.87
  Q 203.73 64.76 203.86 64.82
  Q 207.10 66.13 209.86 67.97
  Q 209.96 68.04 209.89 68.14
  C 203.45 77.12 190.54 78.73 182.57 70.64
  C 175.26 63.23 175.00 51.00 181.87 43.39
  C 189.66 34.77 202.70 35.68 209.73 44.95
  Q 210.06 45.39 209.58 45.64
  L 204.55 48.36
  Q 203.95 48.69 203.51 48.16
  Z"
/>
<path fill="#222222" d="
  M 253.43 59.97
  C 255.95 70.00 268.08 72.70 273.78 63.69
  Q 274.25 62.94 275.11 63.14
  L 280.26 64.30
  Q 281.27 64.53 280.77 65.43
  Q 275.10 75.60 264.68 75.81
  C 256.31 75.98 249.09 70.31 247.01 62.41
  Q 244.13 51.44 251.10 43.42
  C 258.05 35.43 270.88 35.44 277.75 43.45
  Q 282.94 49.49 282.47 58.34
  A 0.91 0.90 -88.3 0 1 281.57 59.20
  L 254.03 59.21
  Q 253.23 59.21 253.43 59.97
  Z
  M 275.64 53.10
  C 273.54 45.29 265.45 40.45 258.20 45.58
  Q 254.20 48.41 253.21 53.38
  A 0.41 0.41 0.0 0 0 253.61 53.87
  L 275.05 53.88
  Q 275.85 53.88 275.64 53.10
  Z"
/>
<path fill="#222222" d="
  M 430.53 69.10
  C 434.39 69.39 436.84 67.96 439.51 65.29
  A 1.23 1.23 0.0 0 1 440.97 65.08
  L 445.67 67.62
  A 0.68 0.68 0.0 0 1 445.87 68.66
  Q 438.11 77.96 426.73 75.23
  C 418.68 73.30 413.30 65.36 413.21 56.99
  C 413.09 45.78 421.34 36.65 432.92 37.55
  Q 441.03 38.19 446.12 45.17
  Q 446.31 45.42 446.03 45.57
  L 440.55 48.50
  Q 440.34 48.61 440.17 48.44
  C 426.31 34.40 411.21 58.08 425.80 67.53
  Q 427.91 68.90 430.53 69.10
  Z"
/>
<path fill="#222222" d="
  M 467.8806 75.9143
  A 19.26 18.29 88.6 0 1 449.1255 57.1069
  A 19.26 18.29 88.6 0 1 466.9394 37.4057
  A 19.26 18.29 88.6 0 1 485.6945 56.2131
  A 19.26 18.29 88.6 0 1 467.8806 75.9143
  Z
  M 467.4100 69.1400
  A 12.48 11.53 90.0 0 0 478.9400 56.6600
  A 12.48 11.53 90.0 0 0 467.4100 44.1800
  A 12.48 11.53 90.0 0 0 455.8800 56.6600
  A 12.48 11.53 90.0 0 0 467.4100 69.1400
  Z"
/>
<path fill="#222222" d="
  M 498.29 41.59
  C 504.86 35.11 515.32 36.48 520.64 43.60
  Q 521.01 44.09 521.43 43.65
  C 521.94 43.14 522.40 42.07 522.88 41.67
  Q 531.53 34.57 540.48 39.22
  Q 548.44 43.36 548.41 53.00
  Q 548.36 63.98 548.35 74.67
  A 0.33 0.33 0.0 0 1 548.02 75.00
  L 542.20 75.00
  Q 541.76 75.00 541.76 74.56
  Q 541.75 64.33 541.75 54.68
  Q 541.75 48.46 536.79 45.47
  C 530.03 41.39 523.05 47.14 523.03 54.44
  Q 523.01 64.51 523.02 74.46
  Q 523.02 75.00 522.48 75.00
  L 517.00 75.00
  Q 516.45 75.00 516.45 74.45
  Q 516.48 64.53 516.42 54.43
  Q 516.39 48.20 511.42 45.37
  C 504.51 41.44 497.66 47.46 497.66 54.68
  Q 497.64 64.51 497.63 74.33
  Q 497.63 75.00 496.95 75.00
  L 491.75 75.00
  A 0.76 0.75 0.4 0 1 491.00 74.25
  L 491.00 39.24
  Q 491.00 38.47 491.77 38.47
  L 496.97 38.47
  Q 497.72 38.46 497.67 39.22
  L 497.54 41.25
  Q 497.46 42.41 498.29 41.59
  Z"
/>
<rect fill="#222222" x="164.77" y="38.46" width="6.62" height="36.54" rx="0.42"/>
<path fill="#f5f4f8" d="
  M 258.20 45.58
  C 265.45 40.45 273.54 45.29 275.64 53.10
  Q 275.85 53.88 275.05 53.88
  L 253.61 53.87
  A 0.41 0.41 0.0 0 1 253.21 53.38
  Q 254.20 48.41 258.20 45.58
  Z"
/>
<ellipse fill="#f5f4f8" cx="0.00" cy="0.00" transform="translate(467.41,56.66) rotate(90.0)" rx="12.48" ry="11.53"/>
<circle fill="#222222" cx="403.95" cy="72.30" r="3.64"/>
</svg>
