<svg fill="none" height="48" viewBox="0 0 305 48" width="305" xmlns="http://www.w3.org/2000/svg"><path clip-rule="evenodd" d="m33.2289 5.89038h9.4809c2.5948 0 4.6964 2.10169 4.6964 4.69642v26.8237c0 2.5997-2.1016 4.7014-4.6964 4.7014h-26.8238c-1.9573 0-3.633-1.1935-4.3366-2.8957 1.0486-.1006 2.0028-.6347 2.6394-1.4906.9093-1.2103 1.9656-2.1219 3.1359-2.7378 4.4093-2.2985 7.153-6.8166 7.153-11.7908 0-7.3064-5.9359-13.25636-13.2397-13.28696.3279-2.27379 2.2832-4.01966 4.6481-4.01966h9.4804v3.49838c0 .68054.5568 1.23214 1.2321 1.23214h5.3981c.6805 0 1.2322-.5516 1.2322-1.23214zm-3.242 28.67592v2.921c0 .4084.3314.7398.7399.7398h10.9169c.4085 0 .7399-.3314.7399-.7398v-2.921c0-.4085-.3313-.7399-.7399-.7399h-10.9169c-.4084.0001-.7399.3314-.7399.7399z" fill="#9d7b6d" fill-rule="evenodd"/><path clip-rule="evenodd" d="m10.3434 36.1183c-1.11423-1.5058-2.55985-2.718-4.20104-3.6063-3.64378-1.9726-5.992784-6.0153-5.480909-10.5552.549559-4.8333 4.464659-8.7407 9.297939-9.2828 6.40691-.7152 11.81991 4.2839 11.81991 10.525 0 4.0956-2.3113 7.6341-5.7066 9.4033-1.5962.8357-2.9588 2.0629-4.0429 3.5084l-.0037.005c-.4185.5642-1.2624.5655-1.6827.0026zm.8429-7.9469c-2.74107 0-4.9725-2.2251-4.9725-4.9726 0-2.741 2.23153-4.9725 4.9725-4.9725 2.7476 0 4.9727 2.2315 4.9727 4.9725 0 2.7476-2.2251 4.9726-4.9727 4.9726z" fill="#ea0c0c" fill-rule="evenodd"/><path d="m54.6 20.9785c-.16 0-.304-.056-.432-.168-.112-.128-.168-.272-.168-.432v-15.57602c0-.176.056-.32.168-.432.112-.128.256-.192.432-.192h6.792c2.08 0 3.712.472 4.896 1.416s1.776 2.328 1.776 4.152c0 1.82402-.592 3.19202-1.776 4.10402-1.184.896-2.816 1.344-4.896 1.344h-2.736v5.184c0 .16-.056.304-.168.432-.112.112-.256.168-.432.168zm6.672-9.216c.656 0 1.168-.168 1.536-.504.384-.352.576-.864.576-1.53602 0-.624-.176-1.128-.528-1.512-.336-.384-.864-.576-1.584-.576h-2.688v4.12802z" fill="#ea0c0c"/><path d="m78.4491 21.2185c-2.272 0-4.064-.552-5.376-1.656s-2.008-2.728-2.088-4.872c-.016-.448-.024-1.136-.024-2.064s.008-1.624.024-2.088c.064-2.11202.76-3.73602 2.088-4.87202 1.344-1.152 3.136-1.728 5.376-1.728 2.224 0 4 .576 5.328 1.728 1.344 1.136 2.048 2.76 2.112 4.87202.032.928.048 1.624.048 2.088 0 .48-.016 1.168-.048 2.064-.08 2.144-.776 3.768-2.088 4.872-1.296 1.104-3.08 1.656-5.352 1.656zm0-3.6c.832 0 1.496-.248 1.992-.744.496-.512.76-1.288.792-2.328.032-.928.048-1.592.048-1.992s-.016-1.048-.048-1.944c-.032-1.04002-.296-1.80802-.792-2.30402-.496-.512-1.16-.768-1.992-.768-.848 0-1.52.256-2.016.768-.496.496-.76 1.264-.792 2.30402-.016.448-.024 1.096-.024 1.944 0 .864.008 1.528.024 1.992.032 1.04.296 1.816.792 2.328.496.496 1.168.744 2.016.744z" fill="#ea0c0c"/><g fill="#2d2d2d"><path d="m91.3363 21.0505c-.16 0-.304-.056-.432-.168-.112-.128-.168-.272-.168-.432v-15.60002c0-.176.056-.32.168-.432.128-.112.272-.168.432-.168h3.36c.176 0 .32.056.432.168s.168.256.168.432v12.43202h7.1997c.176 0 .32.064.432.192.128.112.192.256.192.432v2.544c0 .176-.064.32-.192.432-.112.112-.256.168-.432.168z"/><path d="m105.391 21.0505c-.128 0-.248-.048-.36-.144-.096-.112-.144-.232-.144-.36 0-.096.008-.168.024-.216l5.592-15.38402c.16-.464.48-.696.96-.696h3.744c.48 0 .8.232.96.696l5.592 15.38402c.016.048.024.12.024.216 0 .128-.056.248-.168.36-.096.096-.208.144-.336.144h-3.12c-.384 0-.656-.176-.816-.528l-.864-2.328h-6.288l-.864 2.328c-.16.352-.432.528-.816.528zm5.808-6.456h4.272l-2.136-6.12002z"/><path d="m125.4 21.0505c-.16 0-.304-.056-.432-.168-.112-.128-.168-.272-.168-.432v-15.57602c0-.176.056-.32.168-.432.112-.128.256-.192.432-.192h2.712c.368 0 .64.152.816.456l5.664 8.95202v-8.78402c0-.176.056-.32.168-.432.112-.128.256-.192.432-.192h3.048c.176 0 .32.064.432.192.112.112.168.256.168.432v15.55202c0 .176-.056.328-.168.456-.112.112-.256.168-.432.168h-2.712c-.368 0-.64-.152-.816-.456l-5.64-8.592v8.448c0 .176-.064.32-.192.432-.112.112-.256.168-.432.168z"/><path d="m143.897 21.0505c-.16 0-.304-.056-.432-.168-.112-.128-.168-.272-.168-.432v-15.57602c0-.176.056-.32.168-.432.112-.128.256-.192.432-.192h6.312c2.368 0 4.208.568 5.52 1.704 1.312 1.12 2 2.736 2.064 4.84802.016.464.024 1.08.024 1.848s-.008 1.376-.024 1.824c-.16 4.384-2.648 6.576-7.464 6.576zm6.312-3.6c1.008 0 1.752-.24 2.232-.72s.736-1.248.768-2.304c.032-.464.048-1.064.048-1.8s-.016-1.328-.048-1.776c-.032-1.02402-.312-1.77602-.84-2.25602-.512-.496-1.272-.744-2.28-.744h-2.28v9.60002z"/><path d="m161.699 21.0505c-.16 0-.304-.056-.432-.168-.112-.128-.168-.272-.168-.432v-1.8c0-.48.2-.88.6-1.2l2.232-2.184c1.52-1.152 2.664-2.048 3.432-2.688.784-.64 1.376-1.216 1.776-1.728.416-.528.624-1.02402.624-1.48802 0-1.184-.592-1.776-1.776-1.776-.624 0-1.104.192-1.44.576-.336.368-.56.832-.672 1.392-.096.368-.368.55202-.816.55202h-3.168c-.144 0-.272-.048-.384-.14402-.096-.112-.144-.232-.144-.36.032-1.056.32-2.008.864-2.856.56-.864 1.336-1.544 2.328-2.04.992-.512 2.136-.768 3.432-.768 1.344 0 2.504.216 3.48.648s1.712 1.04 2.208 1.824c.512.784.768 1.696.768 2.736 0 1.15202-.36 2.19202-1.08 3.12002-.704.928-1.784 1.936-3.24 3.024l-1.992 1.992h6.072c.176 0 .32.056.432.168s.168.256.168.432v2.568c0 .16-.056.304-.168.432-.112.112-.256.168-.432.168z"/><path d="m186.284 21.0505c-.16 0-.304-.056-.432-.168-.112-.128-.168-.272-.168-.432v-2.64h-7.44c-.16 0-.304-.056-.432-.168-.112-.128-.168-.272-.168-.432v-2.424c0-.24.088-.48.264-.72l6.96-9.40802c.224-.272.52-.408.888-.408h3.648c.176 0 .32.056.432.168.128.112.192.256.192.432v9.24002h2.112c.192 0 .344.064.456.192.112.112.168.248.168.408v2.52c0 .16-.056.304-.168.432-.112.112-.256.168-.432.168h-2.136v2.64c0 .176-.064.32-.192.432-.112.112-.256.168-.432.168zm-4.368-6.792h3.864v-5.40002z"/><path d="m196.426 21.0505c-.176 0-.328-.056-.456-.168-.112-.112-.168-.256-.168-.432v-3.168c0-.176.056-.32.168-.432.128-.128.28-.192.456-.192h3.168c.176 0 .32.064.432.192.112.112.168.256.168.432v3.168c0 .16-.056.304-.168.432-.112.112-.256.168-.432.168z"/><path d="m211.073 21.2905c-2.288 0-4.088-.552-5.4-1.656-1.296-1.104-1.984-2.72-2.064-4.848-.016-.432-.024-1.136-.024-2.112 0-.992.008-1.712.024-2.16.08-2.08002.776-3.68002 2.088-4.80002 1.328-1.136 3.12-1.704 5.376-1.704 1.424 0 2.696.232 3.816.696 1.136.464 2.032 1.136 2.688 2.016s1 1.92 1.032 3.12c0 .144-.056.26402-.168.36002-.096.096-.216.144-.36.144h-3.408c-.224 0-.392-.04-.504-.12-.096-.096-.184-.26402-.264-.50402-.224-.784-.568-1.328-1.032-1.632-.448-.32-1.048-.48-1.8-.48-1.808 0-2.744 1.008-2.808 3.02402-.016.432-.024 1.096-.024 1.992s.008 1.576.024 2.04c.064 2.016 1 3.024 2.808 3.024.736 0 1.336-.16 1.8-.48.48-.32.824-.864 1.032-1.632.064-.24.152-.4.264-.48.112-.096.28-.144.504-.144h3.408c.144 0 .264.048.36.144.112.096.168.216.168.36-.032 1.2-.376 2.24-1.032 3.12s-1.552 1.552-2.688 2.016c-1.12.464-2.392.696-3.816.696z"/><path d="m229.218 21.2905c-2.272 0-4.064-.552-5.376-1.656s-2.008-2.728-2.088-4.872c-.016-.448-.024-1.136-.024-2.064s.008-1.624.024-2.088c.064-2.11202.76-3.73602 2.088-4.87202 1.344-1.152 3.136-1.728 5.376-1.728 2.224 0 4 .576 5.328 1.728 1.344 1.136 2.048 2.76 2.112 4.87202.032.928.048 1.624.048 2.088 0 .48-.016 1.168-.048 2.064-.08 2.144-.776 3.768-2.088 4.872-1.296 1.104-3.08 1.656-5.352 1.656zm0-3.6c.832 0 1.496-.248 1.992-.744.496-.512.76-1.288.792-2.328.032-.928.048-1.592.048-1.992s-.016-1.048-.048-1.944c-.032-1.04002-.296-1.80802-.792-2.30402-.496-.512-1.16-.768-1.992-.768-.848 0-1.52.256-2.016.768-.496.496-.76 1.264-.792 2.30402-.016.448-.024 1.096-.024 1.944 0 .864.008 1.528.024 1.992.032 1.04.296 1.816.792 2.328.496.496 1.168.744 2.016.744z"/><path d="m241.238 21.0505c-.176 0-.328-.056-.456-.168-.112-.112-.168-.256-.168-.432v-15.57602c0-.176.056-.32.168-.432.128-.128.28-.192.456-.192h2.712c.4 0 .688.176.864.528l4.128 7.39202 4.152-7.39202c.176-.352.464-.528.864-.528h2.712c.176 0 .32.064.432.192.128.112.192.256.192.432v15.57602c0 .176-.064.32-.192.432-.112.112-.256.168-.432.168h-3.048c-.16 0-.304-.056-.432-.168-.112-.128-.168-.272-.168-.432v-8.736l-2.592 4.752c-.208.368-.488.552-.84.552h-1.296c-.32 0-.6-.184-.84-.552l-2.568-4.752v8.736c0 .176-.064.32-.192.432-.112.112-.256.168-.432.168z"/><path d="m261.929 21.0505c-.176 0-.328-.056-.456-.168-.112-.112-.168-.256-.168-.432v-3.168c0-.176.056-.32.168-.432.128-.128.28-.192.456-.192h3.168c.176 0 .32.064.432.192.112.112.168.256.168.432v3.168c0 .16-.056.304-.168.432-.112.112-.256.168-.432.168z"/><path d="m276.603 21.2905c-2.272 0-4.056-.552-5.352-1.656-1.28-1.104-1.92-2.76-1.92-4.968v-9.79202c0-.176.056-.32.168-.432.112-.128.256-.192.432-.192h3.288c.176 0 .32.064.432.192.128.112.192.256.192.432v9.74402c0 .992.232 1.736.696 2.232.48.496 1.16.744 2.04.744s1.552-.248 2.016-.744c.48-.512.72-1.256.72-2.232v-9.74402c0-.176.056-.32.168-.432.128-.128.28-.192.456-.192h3.264c.176 0 .32.064.432.192.128.112.192.256.192.432v9.79202c0 2.208-.64 3.864-1.92 4.968s-3.048 1.656-5.304 1.656z"/><path d="m286.802 21.0505c-.128 0-.248-.048-.36-.144-.096-.112-.144-.232-.144-.36 0-.096.008-.168.024-.216l5.592-15.38402c.16-.464.48-.696.96-.696h3.744c.48 0 .8.232.96.696l5.592 15.38402c.016.048.024.12.024.216 0 .128-.056.248-.168.36-.096.096-.208.144-.336.144h-3.12c-.384 0-.656-.176-.816-.528l-.864-2.328h-6.288l-.864 2.328c-.16.352-.432.528-.816.528zm5.808-6.456h4.272l-2.136-6.12002z"/><path d="m55.568 40c-.1067 0-.1973-.032-.272-.096-.064-.0747-.096-.1653-.096-.272v-7.584c0-.1067.032-.192.096-.256.0747-.0747.1653-.112.272-.112h.672c.1173 0 .208.032.272.096s.096.1547.096.272v6.704h2.976v-6.704c0-.1067.032-.192.096-.256.0747-.0747.1653-.112.272-.112h.64c.1067 0 .192.0373.256.112.0747.064.112.1493.112.256v6.704h2.976v-6.704c0-.1067.032-.192.096-.256.0747-.0747.1653-.112.272-.112h.672c.1173 0 .208.032.272.096s.096.1547.096.272v7.584c0 .1067-.0373.1973-.112.272-.064.064-.1493.096-.256.096zm21.0625 0c-.1067 0-.1973-.032-.272-.096-.064-.0747-.096-.1653-.096-.272v-7.584c0-.1067.032-.192.096-.256.0747-.0747.1653-.112.272-.112h3.312c.96 0 1.696.2027 2.208.608.5227.3947.784.9333.784 1.616 0 .4587-.0853.816-.256 1.072s-.4373.4747-.8.656c.384.16.6827.4267.896.8.224.3733.336.7787.336 1.216 0 .7573-.2667 1.3387-.8 1.744s-1.2853.608-2.256.608zm3.2-4.768c.5227 0 .9387-.112 1.248-.336.3093-.2347.464-.56.464-.976 0-.736-.5707-1.104-1.712-1.104h-2.16v2.416zm.096 3.632c.5333 0 .9547-.1013 1.264-.304.32-.2133.48-.5227.48-.928 0-.4267-.144-.7413-.432-.944s-.7253-.304-1.312-.304h-2.256v2.48zm20.7815-7.184c.085 0 .165.032.24.096s.112.1387.112.224v7.632c0 .1067-.037.1973-.112.272-.064.064-.149.096-.256.096h-.704c-.1067 0-.1973-.032-.272-.096-.064-.0747-.096-.1653-.096-.272v-5.856l-4.48 5.984c-.1173.16-.256.24-.416.24h-.688c-.0853 0-.1653-.032-.24-.096-.064-.0747-.096-.1547-.096-.24v-7.616c0-.1067.032-.192.096-.256.0747-.0747.1653-.112.272-.112h.704c.1067 0 .192.0373.256.112.0747.064.112.1493.112.256v5.856l4.48-5.984c.1173-.16.256-.24.416-.24zm10.715 10.08c-.107 0-.198-.032-.272-.096-.064-.064-.096-.1547-.096-.272v-2.272c0-.1067.032-.192.096-.256.074-.0747.165-.112.272-.112h.08c.448 0 .784-.3733 1.008-1.12.234-.7467.352-1.9253.352-3.536v-2.048c0-.1067.032-.192.096-.256.074-.0747.165-.112.272-.112h5.056c.117 0 .208.032.272.096s.096.1547.096.272v6.688h.752c.117 0 .208.032.272.096s.096.1547.096.272v2.288c0 .1173-.032.208-.096.272s-.155.096-.272.096h-.704c-.107 0-.192-.0373-.256-.112-.064-.064-.096-.1493-.096-.256v-1.392h-5.856v1.392c0 .1067-.038.192-.112.256-.064.0747-.15.112-.256.112zm5.792-3.024v-5.824h-2.944v1.344c0 2.176-.31 3.6747-.928 4.496zm19.631.8c.042.0747.064.144.064.208 0 .1707-.102.256-.304.256h-.912c-.16 0-.304-.08-.432-.24l-2.352-3.36h-1.52v3.232c0 .1067-.038.1973-.112.272-.064.064-.15.096-.256.096h-.688c-.107 0-.198-.032-.272-.096-.064-.0747-.096-.1653-.096-.272v-7.584c0-.1067.032-.192.096-.256.074-.0747.165-.112.272-.112h.688c.117 0 .208.032.272.096s.096.1547.096.272v3.088h1.488l2.192-3.216c.106-.16.245-.24.416-.24h.784c.096 0 .176.0267.24.08.064.0427.096.1013.096.176 0 .0213-.011.0533-.032.096-.022.032-.038.064-.048.096l-2.4 3.536zm12.455.624c-.523 0-1.008-.1067-1.456-.32-.437-.2133-.789-.5013-1.056-.864-.256-.3733-.384-.784-.384-1.232 0-.704.288-1.28.864-1.728s1.36-.7467 2.352-.896l2.4-.336v-.464c0-1.0987-.635-1.648-1.904-1.648-.491 0-.885.1013-1.184.304-.299.192-.517.4213-.656.688-.043.1067-.091.1813-.144.224-.043.032-.107.048-.192.048h-.624c-.096 0-.181-.032-.256-.096-.064-.0747-.096-.16-.096-.256 0-.2453.112-.528.336-.848.235-.3307.592-.6133 1.072-.848.48-.2453 1.067-.368 1.76-.368 1.195 0 2.048.2773 2.56.832.523.5547.784 1.248.784 2.08v5.2c0 .1067-.037.1973-.112.272-.064.064-.149.096-.256.096h-.704c-.107 0-.192-.032-.256-.096-.064-.0747-.096-.1653-.096-.272v-.704c-.235.352-.576.6453-1.024.88s-1.024.352-1.728.352zm.32-1.168c.704 0 1.28-.2293 1.728-.688s.672-1.1253.672-2v-.448l-1.872.272c-.768.1067-1.349.288-1.744.544s-.592.576-.592.96c0 .4373.176.7733.528 1.008.363.2347.789.352 1.28.352zm26.614 2.768c-.106 0-.197-.032-.272-.096-.064-.064-.096-.1547-.096-.272v-2.272c0-.1067.032-.192.096-.256.075-.0747.166-.112.272-.112h.08c.448 0 .784-.3733 1.008-1.12.235-.7467.352-1.9253.352-3.536v-2.048c0-.1067.032-.192.096-.256.075-.0747.166-.112.272-.112h5.056c.118 0 .208.032.272.096s.096.1547.096.272v6.688h.752c.118 0 .208.032.272.096s.096.1547.096.272v2.288c0 .1173-.032.208-.096.272s-.154.096-.272.096h-.704c-.106 0-.192-.0373-.256-.112-.064-.064-.096-.1493-.096-.256v-1.392h-5.856v1.392c0 .1067-.037.192-.112.256-.064.0747-.149.112-.256.112zm5.792-3.024v-5.824h-2.944v1.344c0 2.176-.309 3.6747-.928 4.496zm16.127 1.424c-1.173 0-2.08-.3307-2.72-.992-.629-.6613-.965-1.5413-1.008-2.64l-.016-.688.016-.688c.043-1.0987.384-1.9787 1.024-2.64.651-.6613 1.552-.992 2.704-.992s2.048.3307 2.688.992c.651.6613.997 1.5413 1.04 2.64.021.2347.032.464.032.688s-.011.4533-.032.688c-.043 1.0987-.384 1.9787-1.024 2.64-.629.6613-1.531.992-2.704.992zm0-1.2c.683 0 1.221-.2133 1.616-.64.405-.4373.624-1.0613.656-1.872.011-.1067.016-.3093.016-.608s-.005-.5013-.016-.608c-.032-.8107-.251-1.4293-.656-1.856-.395-.4373-.933-.656-1.616-.656s-1.227.2187-1.632.656c-.395.4267-.608 1.0453-.64 1.856l-.016.608.016.608c.032.8107.245 1.4347.64 1.872.405.4267.949.64 1.632.64zm17.608 1.2c-1.141 0-2.032-.32-2.672-.96-.64-.6507-.976-1.5573-1.008-2.72l-.016-.64.016-.64c.032-1.1627.368-2.064 1.008-2.704.64-.6507 1.531-.976 2.672-.976.768 0 1.414.1387 1.936.416.534.2667.928.6027 1.184 1.008.267.4053.411.8107.432 1.216.011.096-.026.1813-.112.256-.074.0747-.16.112-.256.112h-.704c-.106 0-.186-.0213-.24-.064-.053-.0533-.106-.144-.16-.272-.192-.5227-.458-.8907-.8-1.104-.33-.224-.752-.336-1.264-.336-.672 0-1.205.208-1.6.624-.394.416-.608 1.0507-.64 1.904l-.016.56.016.56c.032.8533.246 1.488.64 1.904.395.416.928.624 1.6.624.523 0 .95-.1067 1.28-.32.331-.224.592-.5973.784-1.12.054-.128.107-.2133.16-.256.054-.0533.134-.08.24-.08h.704c.096 0 .182.0373.256.112.086.0747.123.16.112.256-.021.3947-.165.7947-.432 1.2-.256.4053-.65.7467-1.184 1.024-.522.2773-1.168.416-1.936.416zm16.513-.16c-.106 0-.197-.032-.272-.096-.064-.0747-.096-.1653-.096-.272v-6.72h-2.8c-.106 0-.197-.032-.272-.096-.064-.064-.096-.1493-.096-.256v-.512c0-.1067.032-.192.096-.256.075-.0747.166-.112.272-.112h7.024c.107 0 .192.0373.256.112.064.064.096.1493.096.256v.512c0 .1067-.032.192-.096.256s-.149.096-.256.096h-2.8v6.72c0 .1067-.037.1973-.112.272-.064.064-.149.096-.256.096zm16.432.16c-.523 0-1.008-.1067-1.456-.32-.437-.2133-.789-.5013-1.056-.864-.256-.3733-.384-.784-.384-1.232 0-.704.288-1.28.864-1.728s1.36-.7467 2.352-.896l2.4-.336v-.464c0-1.0987-.635-1.648-1.904-1.648-.491 0-.885.1013-1.184.304-.299.192-.517.4213-.656.688-.043.1067-.091.1813-.144.224-.043.032-.107.048-.192.048h-.624c-.096 0-.181-.032-.256-.096-.064-.0747-.096-.16-.096-.256 0-.2453.112-.528.336-.848.235-.3307.592-.6133 1.072-.848.48-.2453 1.067-.368 1.76-.368 1.195 0 2.048.2773 2.56.832.523.5547.784 1.248.784 2.08v5.2c0 .1067-.037.1973-.112.272-.064.064-.149.096-.256.096h-.704c-.107 0-.192-.032-.256-.096-.064-.0747-.096-.1653-.096-.272v-.704c-.235.352-.576.6453-1.024.88s-1.024.352-1.728.352zm.32-1.168c.704 0 1.28-.2293 1.728-.688s.672-1.1253.672-2v-.448l-1.872.272c-.768.1067-1.349.288-1.744.544s-.592.576-.592.96c0 .4373.176.7733.528 1.008.363.2347.789.352 1.28.352zm15.041 1.008c-.107 0-.197-.032-.272-.096-.064-.0747-.096-.1653-.096-.272v-7.584c0-.1067.032-.192.096-.256.075-.0747.165-.112.272-.112h3.312c.96 0 1.696.2027 2.208.608.523.3947.784.9333.784 1.616 0 .4587-.085.816-.256 1.072s-.437.4747-.8.656c.384.16.683.4267.896.8.224.3733.336.7787.336 1.216 0 .7573-.267 1.3387-.8 1.744s-1.285.608-2.256.608zm3.2-4.768c.523 0 .939-.112 1.248-.336.309-.2347.464-.56.464-.976 0-.736-.571-1.104-1.712-1.104h-2.16v2.416zm.096 3.632c.533 0 .955-.1013 1.264-.304.32-.2133.48-.5227.48-.928 0-.4267-.144-.7413-.432-.944s-.725-.304-1.312-.304h-2.256v2.48zm20.653.672c.043.0747.065.144.065.208 0 .1707-.102.256-.304.256h-.912c-.16 0-.304-.08-.432-.24l-2.352-3.36h-1.52v3.232c0 .1067-.038.1973-.112.272-.064.064-.15.096-.256.096h-.688c-.107 0-.198-.032-.272-.096-.064-.0747-.096-.1653-.096-.272v-7.584c0-.1067.032-.192.096-.256.074-.0747.165-.112.272-.112h.688c.117 0 .208.032.272.096s.096.1547.096.272v3.088h1.487l2.193-3.216c.106-.16.245-.24.416-.24h.784c.096 0 .176.0267.24.08.064.0427.096.1013.096.176 0 .0213-.011.0533-.032.096-.022.032-.038.064-.048.096l-2.4 3.536zm12.456.624c-.523 0-1.008-.1067-1.456-.32-.438-.2133-.79-.5013-1.056-.864-.256-.3733-.384-.784-.384-1.232 0-.704.288-1.28.864-1.728s1.36-.7467 2.352-.896l2.4-.336v-.464c0-1.0987-.635-1.648-1.904-1.648-.491 0-.886.1013-1.184.304-.299.192-.518.4213-.656.688-.043.1067-.091.1813-.144.224-.043.032-.107.048-.192.048h-.624c-.096 0-.182-.032-.256-.096-.064-.0747-.096-.16-.096-.256 0-.2453.112-.528.336-.848.234-.3307.592-.6133 1.072-.848.48-.2453 1.066-.368 1.76-.368 1.194 0 2.048.2773 2.56.832.522.5547.784 1.248.784 2.08v5.2c0 .1067-.038.1973-.112.272-.064.064-.15.096-.256.096h-.704c-.107 0-.192-.032-.256-.096-.064-.0747-.096-.1653-.096-.272v-.704c-.235.352-.576.6453-1.024.88s-1.024.352-1.728.352zm.32-1.168c.704 0 1.28-.2293 1.728-.688s.672-1.1253.672-2v-.448l-1.872.272c-.768.1067-1.35.288-1.744.544-.395.256-.592.576-.592.96 0 .4373.176.7733.528 1.008.362.2347.789.352 1.28.352z" fill-opacity=".6"/></g></svg>