<svg xmlns="http://www.w3.org/2000/svg" fill="none" viewBox="0 0 92 40"><clipPath id="a"><path d="M0 0h91.85v40H0z"/></clipPath><g clip-path="url(#a)"><path fill="#ffcb00" fill-rule="evenodd" d="M82.943 21.296c-.18-.482-.421-.723-.541-.904-.181-.24-.422-1.024 0-1.566.3-.3 1.082-.24 1.744.301l.361-.722c1.023-2.048 2.286-4.036 2.467-4.578.782-2.108-.541-.964.421-2.53.782-1.446 3.37-.904 4.452.964.12 1.626-2.887 4.819-4.993 8.192-1.986 3.192-4.452 7.469-4.031 9.637.24 1.145 1.263 1.566 2.286 1.566.963 0 2.226-.783 2.166-1.746-.06-.964-.482-1.326-.602-1.627-.12-.24-.36-1.024.12-1.566.482-.482 2.227.18 2.527 1.928.301.963.12 1.987-.42 2.89-.602 1.085-1.806 1.808-2.949 2.17-1.263.421-2.767.36-4.211-.422-1.143-.603-1.745-1.928-1.865-3.072-.12-1.747.722-3.434.902-4.699-3.37 2.29-5.956 2.53-6.738.302-.602-1.687-.12-4.157.48-5.903-.3.06-.6.18-.841.421-.542.542-1.625 4.036-5.054 4.759-2.046.482-3.85-.542-4.452-1.928-.722-1.626-.662-3.011-.602-4.758.12-1.627.602-3.072.963-3.976.18-.361.36-.783.661-1.325.542-1.024 1.805-2.65 2.347-3.072 2.948-2.168 7.16.18 5.535 2.47-.602-.12-1.985-2.59-4.813 2.71-1.444 2.831-1.745 4.819-1.384 6.325.542 2.47 2.707 3.012 4.512-1.928-2.286-1.505-1.624-6.023.843-6.505 1.323-.241 1.744.602 1.985 1.747.18.843.06 1.747.06 3.192.421 0 .782-.06 1.083-.18 1.384-3.313 3.79-6.867 4.994-9.879.782-2.168-.481-.964.481-2.53.843-1.506 3.49-1.084 4.573.723.06 1.747-2.828 5.602-5.114 9.457-2.226 3.674-3.85 7.65-2.527 9.517 1.444 1.084 3.49-1.144 5.174-3.855zm-.541-16.083a.97.97 0 0 0-.542.18c-.18.061-.3.242-.361.362-.24.422-.361.301-.3.362.18.3.42.662-.121 2.048-.662 1.626-1.564 3.373-2.587 5.12-.843 1.626-1.745 3.192-2.407 4.758l-.12.241-.24.12c-.121.06-.302.121-.422.121.24-.06.421-.12.602-.18l.24-.121.12-.241c.663-1.506 1.565-3.192 2.407-4.758.963-1.747 1.926-3.494 2.527-5.12.542-1.386.301-1.747.12-2.049 0-.06.06.06.301-.36.12-.182.241-.302.361-.362.18-.06.301-.06.421-.12zm-32.91 8.012c.42-.482 1.082-1.446 1.143-2.47 0-.362 0-.663-.12-.904-.121-.18-.302-.361-.482-.482-.24-.12-.482-.18-.782-.18-.06 0-.18 0-.241.06.3-.06.541 0 .782.12.24.12.421.362.542.603.12.3.18.662.06 1.144-.12.482-.24.844-.481 1.205-.181.301-.422.602-.662.843l-.301.301.06.12zm-4.152 7.047c.24-.361.3-.723.3-1.084v-.06c-.06.18-.12.421-.24.722-.24.542-.481.904-.782 1.205-.24.24-.542.422-.842.482.36-.06.722-.18 1.022-.542l.06-.06c.181-.181.301-.422.482-.663zm-3.67-6.204c-.06 0-.12 0-.18.06l-.301 1.385c-.18.904-.241 1.868-.18 2.65.06.784.18 1.567.42 2.17.24.602.482.963.843 1.264.36.241.722.361 1.203.301.12 0 .24 0 .36-.06h-.12c-.42 0-.842-.06-1.203-.301-.36-.241-.662-.663-.842-1.265-.24-.602-.361-1.385-.421-2.168 0-.844.06-1.747.18-2.65zm-1.324.723-.12.06c-.24.12-.421.18-.662.301-.18.06-.421.12-.662.18l-.541.121.722-.18c.24-.06.481-.121.662-.181.06 0 .12-.06.24-.06zm-1.985-6.566a.97.97 0 0 0-.542.18c-.48.242-.962.603-1.263.964 0 .06.06.12.06.12.421.302.662.543.361 3.193l-.18 1.265c-.12.844-.241 1.747-.241 2.47 0 .301 0 .542.06.783 0 .24.06.482.12.783l.06.301-.06.06.361.784c.241.481.482.963.843 1.204.06.06.12.06.12.12v-.18c-.3-.241-.541-.663-.722-1.144l-.36-.784.06-.06-.06-.301c-.061-.301-.121-.542-.121-.783-.06-.241-.06-.542-.06-.783 0-.723.12-1.626.24-2.47l.18-1.265c.302-2.65 0-2.89-.36-3.192l-.12-.12c.3-.422.721-.784 1.263-.964.12-.12.24-.181.36-.181zm.3 5.722c.121-.06.181-.12.302-.12l.842-.964c.3-.361.602-.783.902-1.385.301-.482.542-1.145.782-1.868l.18-.482-.36-.24c-.12-.12-.3-.241-.361-.362-.361-.482-.481-1.084-.481-1.807 0-.663.24-1.385.541-1.927.12-.181.301-.362.481-.482s.361-.181.482-.241h-.12c-.181.06-.362.12-.542.3-.18.121-.361.302-.481.543-.361.542-.542 1.205-.542 1.928 0 .662.12 1.325.482 1.807l.36.361.422.301-.18.482c-.302.723-.542 1.325-.843 1.867-.301.543-.602 1.024-.903 1.386zm4.573-4.819c.06 0 .12-.06.24-.06l.482-.843c-.06 0-.12 0-.24.06zm2.587-1.807v-.3c-.06.12-.12.18-.18.3-.24.302-.602.482-.963.663-.18.12-.36.12-.602.18.301-.06.542-.12.783-.24.36-.06.661-.301.962-.603zm-11.07 14.156c-.481.602-1.083 1.144-1.745 1.265.602-.06 1.083-.422 1.565-.904.12-.12.18-.24.18-.361zm-2.707-10.541h.3c.241.06.482.18.662.36.24.242.421.603.482.965l.18.18.361.181c.18.06.24 0 .3 0h-.12c-.12 0-.24-.12-.36-.18l-.181-.181a1.836 1.836 0 0 0-.481-.964c-.18-.18-.421-.361-.662-.361-.12-.06-.3-.06-.481 0zm-.361-2.65c-.18 0-.361.06-.602.18-.722.301-1.444 1.024-1.985 2.168-.662 1.386-.843 2.35-.963 3.133-.24 1.204-.361 1.807-1.504 2.228l-.482.181.662-.241c1.143-.422 1.264-1.024 1.504-2.229.12-.722.361-1.746.963-3.132.542-1.144 1.264-1.867 1.985-2.168.18-.06.301-.06.422-.12zm-7.701 3.975c-.241 0-.542.18-.843.602-.18.241-.36.602-.421.964-.18.662-.12 1.445.06 2.108s.542 1.265 1.023 1.687c.24.18.481.3.722.361l.542.12-.06.543c0 .662-.06 1.265-.181 1.807a11.35 11.35 0 0 1-.963 3.433c-.421.783-.902 1.205-1.444 1.385.602-.06 1.204-.542 1.625-1.385.42-.783.782-1.988.962-3.433.06-.542.12-1.145.18-1.807v-.542l-.42-.181c-.301-.06-.542-.18-.722-.362-.482-.361-.843-.963-1.023-1.686-.18-.663-.24-1.446-.12-2.108.12-.362.24-.723.48-.964.181-.301.422-.482.603-.542zm-2.949-2.65c-.42.06-.842.18-1.263.421-.481.301-.963.663-1.384 1.205-.18.24-.481.843-.722 1.506-.24.662-.481 1.325-.602 1.867-.06.361-.12.723-.18 1.024 0 .18 0 .301-.06.482-.06.542-.12 1.265-.06 2.108 0 .602.12 1.325.24 1.988.12.361.18.783.301 1.144.361 1.506.662 3.072 1.565 4.036a4.315 4.315 0 0 0 2.346 1.325c.421.06.842.12 1.263 0-.36.06-.722.06-1.022 0-.963-.18-1.805-.783-2.347-1.325-.902-.964-1.263-2.59-1.564-4.036-.12-.361-.18-.783-.301-1.144-.12-.663-.18-1.386-.24-1.988 0-.843 0-1.566.06-2.168 0-.181.06-.302.06-.482.06-.302.06-.663.12-1.024.12-.542.3-1.205.602-1.868.24-.662.541-1.265.722-1.505.42-.543.902-.964 1.383-1.205.361-.18.722-.301 1.083-.362zm6.799 6.926.12 1.145c.06 1.144.18 2.289.422 3.313.24.964.541 1.807.962 2.289.301.361.903.783 1.564 1.084.482.24.963.301 1.384.24h.12c-.36.061-.782-.06-1.263-.24a5.472 5.472 0 0 1-1.564-1.084c-.421-.482-.722-1.325-.963-2.229-.24-1.024-.36-2.168-.421-3.313l-.12-1.265zm44.763-2.77h-.06c-.482.06-.903.421-1.144.843-.24.361-.36.783-.481 1.265a2.94 2.94 0 0 0 0 1.445c.12.723.481 1.386 1.083 1.747l.421.301-.18.482c-.722 1.868-1.444 3.072-2.226 3.675-.301.24-.602.421-.903.482.361-.06.722-.241 1.143-.543.722-.602 1.504-1.746 2.226-3.674l.18-.482-.42-.301c-.602-.361-.903-1.024-1.023-1.747-.12-.482-.06-.964 0-1.445.06-.482.24-.904.481-1.265.12-.362.482-.663.903-.783zm-1.143-2.59c.48-.06.962.06 1.323.3.06.06.12.06.18.121v-.18c-.42-.241-.902-.422-1.504-.241zm-1.745-1.265c-.542.12-1.083.3-1.564.662-.241.18-.662.663-1.084 1.205-.42.542-.842 1.144-1.082 1.626-.181.362-.301.663-.422.904l-.18.361c-.18.482-.421 1.145-.662 1.928-.12.542-.24 1.204-.3 1.867v.24c-.06 1.567-.06 2.832.6 4.217.242.603.783 1.085 1.505 1.386.602.24 1.384.361 2.226.18-.722.12-1.444 0-1.985-.18-.662-.301-1.204-.783-1.504-1.386-.662-1.385-.602-2.65-.602-4.216v-.241c.06-.663.18-1.265.3-1.867.181-.783.422-1.446.662-1.928.06-.18.12-.301.181-.361.12-.241.24-.542.421-.904.24-.482.662-1.084 1.083-1.626.421-.542.842-1.024 1.083-1.205.361-.421.842-.602 1.324-.662zm5.956 9.155-.36 1.085c-.302.963-.603 2.108-.663 3.192-.06.843 0 1.626.18 2.289.06.18.121.361.241.482.241.361.602.542 1.023.602.361.06.722 0 1.143-.06-.36.06-.661.06-.902 0a1.625 1.625 0 0 1-1.023-.602c-.12-.121-.18-.302-.24-.482-.241-.663-.301-1.446-.181-2.29.12-1.083.36-2.228.662-3.192l.36-1.084zm-21.96-8.734c.06 0 .06-.06.06-.06-.3-.06-.602-.301-.842-.663-.421-.542-.662-1.325-.782-1.987-.241-2.41 1.925-4.82 4.692-6.205a11.93 11.93 0 0 1 2.467-.843c-.902.18-1.805.482-2.647.904-2.768 1.325-4.934 3.794-4.693 6.204.06.662.361 1.385.782 1.988.18.421.542.662.963.662zm5.896-7.409c.662-.12 1.324-.06 1.925.06.782.241 1.384.663 1.926 1.205.48.603.842 1.265 1.022 2.108.361 1.687-.06 3.795-1.684 5.783-1.143 1.385-2.347 1.988-3.85 2.71-.302.121-.602.302-.903.422l-.963.482v.06l1.203-.602c.301-.18.602-.301.903-.422 1.504-.722 2.707-1.325 3.85-2.71 1.625-1.988 2.046-4.096 1.685-5.783A5.302 5.302 0 0 0 63.69 4.13a3.423 3.423 0 0 0-1.925-1.205c-.722-.12-1.444-.18-2.166 0zM57.493 9.31c-.06 0-.12 0-.18.06-.361.12-.782.302-1.143.603 0 .24-.06.542-.12.903-.06.663-.121 1.446-.301 2.109l-.06.3c-.542 2.651-1.084 5.603 0 7.65 0-.12.06-.24.06-.36-.903-2.049-.362-4.88.12-7.41l.06-.301c.12-.723.18-1.446.24-2.108.06-.362.06-.723.121-.964.481-.18.842-.422 1.203-.482zm2.166 6.566c.12 0 .301-.06.481-.06s.361 0 .542.06l.722.18-.3.723c-.362.904-.723 1.868-.964 2.892-.3 1.024-.48 2.108-.661 3.132v.783l.18.06v-.963c.12-1.025.361-2.109.602-3.133.3-1.024.601-1.988.962-2.891l.301-.723-.782-.18c-.18-.06-.36-.06-.541-.06-.12.06-.301.12-.542.18zm-18.05 7.77c-.781.18-1.503.301-2.225.482-3.37.843-6.258 2.108-8.243 3.674-2.346 1.868-3.61 4.036-3.97 6.024-.121.783-.121 1.566 0 2.229a3.89 3.89 0 0 0 .721 1.686 3.24 3.24 0 0 0 2.106 1.205c.361.06.602.06.842 0-.18 0-.36 0-.601-.06-.903-.181-1.625-.603-2.106-1.205a3.89 3.89 0 0 1-.722-1.687c-.12-.662-.12-1.445 0-2.228.36-1.988 1.624-4.217 3.97-6.024 2.046-1.566 4.934-2.831 8.243-3.674.602-.12 1.264-.241 1.986-.422zm2.227.422c.421-.06.842-.181 1.263-.241 4.031-.663 8.544-.602 13.297.361h.3c.602.06.723.18.662.964 0 .24-.06.602-.06.843v.241c-.06.603 0 2.108.602 3.916.36 1.144.962 2.349 1.865 3.553.602.783 1.324 1.506 2.106 2.169a21.345 21.345 0 0 0 2.827 1.927 9.76 9.76 0 0 0 4.573 1.326c.842.06 1.685-.06 2.527-.241a7.727 7.727 0 0 1-2.347.18c-1.564-.06-3.068-.482-4.572-1.325a17.51 17.51 0 0 1-2.768-1.927c-.782-.663-1.564-1.386-2.166-2.169-.902-1.205-1.504-2.41-1.865-3.554-.601-1.807-.661-3.313-.601-3.915v-.241c0-.24.06-.602.06-.843.12-.783-.06-.904-.662-1.024h-.24a35.614 35.614 0 0 0-13.297-.362c-.542.181-1.023.241-1.504.362zM9.422 7.2c.24-.06.48-.06.722-.06.782 0 1.564.18 2.166.542.661.361 1.143.964 1.504 1.686.601 1.326.661 3.133-.241 5.24-.782 1.748-1.925 2.832-3.37 4.157-.3.241-.54.482-.781.723l-.903.843v.18l1.023-.963c.24-.24.541-.482.782-.723 1.444-1.325 2.647-2.41 3.37-4.156.902-2.108.902-3.915.24-5.24-.361-.723-.842-1.326-1.504-1.687s-1.384-.602-2.166-.602c-.18-.06-.542 0-.842.06zm-1.324 6.626c-.3.06-.602.18-.902.301-.422.24-.783.602-1.144 1.024 0 .24.06.542.12.843.121.663.181 1.446.181 2.169v.542c-.06 2.891-.06 6.204 1.986 7.71h.12v-.12c-1.925-1.567-1.865-4.76-1.865-7.59v-.542c0-.723-.12-1.506-.18-2.169-.06-.361-.121-.662-.121-.903.361-.422.722-.783 1.143-1.024.24-.06.421-.181.662-.241zm4.332 5.24.902-.12-.12.843c-.3 1.867-.541 3.855-.602 5.783-.06 1.927.06 3.855.602 5.722.18.663.421 1.325.662 1.928.24.602.481 1.144.782 1.626.481.843 1.324 1.807 2.407 2.53.842.542 1.805.963 2.767.963h.361-.18c-.963 0-1.926-.421-2.768-.963-1.023-.723-1.925-1.687-2.407-2.53-.3-.482-.541-1.024-.782-1.626a18.113 18.113 0 0 1-.661-1.928c-.542-1.807-.662-3.735-.602-5.662.06-1.928.3-3.915.602-5.783l.12-.843-.842.06h-.241zM9.903 5.514c-.782.181-1.625.422-2.407.783a13.966 13.966 0 0 0-3.43 2.23C1.842 10.513.397 12.983.939 14.73v.06c.18.482.482.964.963 1.326.361.3.842.482 1.324.3-.422.061-.783-.12-1.143-.36a3.922 3.922 0 0 1-.963-1.326v-.06c-.602-1.807.902-4.277 3.128-6.204 1.023-.904 2.166-1.687 3.37-2.229.842-.301 1.564-.602 2.286-.723zM22.838 37.68c.18-.06.301-.18.422-.241.36-.301.601-.723.842-1.145a5.42 5.42 0 0 0 .481-2.168 4.46 4.46 0 0 0-.541-2.168c-.662-1.145-1.083-1.205-1.926-1.326.12-.602.482-1.084.963-1.445.18-.12.421-.241.602-.301h-.06c-.241.06-.542.18-.783.361-.42.301-.782.843-.902 1.446.842.12 1.263.18 1.865 1.325.361.662.542 1.445.542 2.168 0 .783-.181 1.506-.482 2.169-.24.482-.601.963-1.023 1.325zm25.45-23.552s-.24.24-.541.482c.12 0 .18-.06.3-.12.241-.181.422-.362.422-.362l.18-.361-.24-.302c-.12-.18-.301-.361-.362-.542a3.181 3.181 0 0 1-.601-1.506c-.06-.481 0-.903.18-1.264.24-.482.662-.784 1.143-.964.06 0 .12-.06.18-.06-.12 0-.24.06-.36.12-.481.18-.903.482-1.143.964-.361.723-.301 1.867.782 3.313l.24.3zm.361.12.3.422c.302.422.542 1.024.663 1.566.12.603.12 1.205 0 1.627-.12.361-.542.783-1.023.963-.06 0-.06 0-.12.06.12 0 .24-.06.36-.06.422-.18.903-.602.963-.963.12-.422.12-1.024 0-1.627-.12-.542-.36-1.144-.662-1.566l-.3-.422zm-1.023 4.518c-.12-.06-.24-.12-.36-.24 0 .06.06.18.12.3.12.181.24.302.36.362.181.12.422.18.602.18h.481c.06 0 .181 0 .241-.06a.834.834 0 0 1-.541 0c-.24 0-.421-.06-.602-.18-.06-.06-.18-.181-.3-.362zm35.558 1.386c.12.18.36.421.481.843l.12.3-.18.302-.12.18c-.602.965-1.264 1.868-1.926 2.59l.18-.12-.18 1.446c-.06.482-.24 1.024-.42 1.566-.302.904-.603 1.928-.482 2.952.06.482.18 1.084.481 1.566.24.422.602.783 1.023.964.602.3 1.263.482 1.865.602.481.06 1.023 0 1.444-.12-.421.06-.842.12-1.263.06-.602-.06-1.204-.241-1.866-.542a2.783 2.783 0 0 1-1.022-1.024c-.301-.482-.482-1.024-.482-1.566-.06-1.024.24-2.048.481-2.952.181-.542.301-1.084.422-1.566l.18-1.446-.18.12c.662-.722 1.323-1.626 1.925-2.59l.12-.18.18-.241-.12-.301c-.18-.422-.36-.663-.48-.843-.061-.06-.061-.06-.061-.121-.06-.12-.12-.301-.12-.542 0-.06 0-.12.06-.18-.12 0-.18-.061-.18-.061-.06.06-.121.18-.121.24 0 .242.06.423.12.483s.12.12.12.18zm4.392 7.047h-.18c-.061.06-.061.12-.061.24 0 .242.06.423.12.543 0 0 .06.06.06.12.241.302.542.784.602 1.747v.06c0 .663-.421 1.266-.962 1.687-.361.301-.783.482-1.264.603.481-.121 1.023-.302 1.444-.603.542-.421.963-1.024.963-1.686v-.06c-.06-.964-.421-1.446-.602-1.747-.06-.06-.06-.121-.06-.121-.06-.12-.12-.301-.12-.542.06-.12.06-.18.06-.241zm1.384-16.143c-.181 0-.301.06-.482.18-.12.06-.24.181-.3.302-.241.422-.302.301-.302.361.181.302.422.663-.06 2.048-.12.301-.481.904-.902 1.747-.482.843-1.023 1.867-1.564 2.891l-.18.362-.181.361-.301.542.12.12.361-.662.18-.361.181-.362c.542-1.024 1.143-2.108 1.564-2.89.482-.784.783-1.447.903-1.748.481-1.385.24-1.746.06-2.048 0 0 .06.06.3-.361.061-.12.181-.241.302-.361.12 0 .18-.06.3-.121zm-41.394 2.831s-.782.663-1.203.843c.601.783 1.143.723 1.865.362.541.723.782 1.988.601 2.59-.18.542-1.564 1.265-1.383-.482.12-.783-.361-1.506-.903-.602-.36.602-.3 1.807.12 2.65.301.542.843.843 1.505.904 1.985.12 2.888-1.386 2.647-3.313-.12-.844-.903-1.988-1.264-2.711.241-.301 1.505-1.626 1.565-3.192.24-4.518-7.4-2.35-3.55 2.951zm1.143-1.024c-.962-.964-.842-2.048-.3-2.53.661-.602 1.443-.24 1.263.904-.18.723-.542 1.204-.963 1.626zm4.753-1.807c.482 0 .662-.06.662-.361.12-1.024-.481-.783-.3-1.747.3-1.566 2.406-3.554 3.308-4.277 4.874-3.554 8.905 2.108 4.874 7.108-1.264 1.566-2.708 2.048-4.513 3.012.361-1.687 1.384-3.855 1.264-5.723-1.264-.662-2.287-.24-3.31.603-.12.602-.18 2.168-.42 3.313-.602 3.072-1.384 6.565.36 8.914.241.06.542.181.783.241 0-2.53 1.805-6.023 4.151-5.481-.782 1.867-1.324 4.096-1.624 6.204v.241c-2.588-.482-5.235-.903-7.822-.843-8.122.06-16.124 1.867-20.396 5.24-5.836 4.578-5.475 11.445-.902 12.288 1.444.301 2.226-.361 2.888-2.53-4.092.422-3.911-4.578 1.444-8.433 4.873-3.554 14.138-5.963 24.066-3.794.36.12.48-.06.42.3 0 .242-.06.844-.06 1.085-.06 1.024.12 4.638 2.588 7.89 1.323 1.687 3.188 3.193 5.114 4.277 3.128 1.747 6.558 1.868 9.927.422 3.97-1.747 3.67-4.879 2.106-7.047C75 27.68 65.495 24.97 60.802 23.705c.12-.481.18-.903.301-1.385.421-1.747 1.986-4.759 2.046-6.084-.18-.361-.602-.964-1.083-1.325.902-.602 1.564-.964 2.587-2.229 1.263-1.385 2.106-3.554 2.106-6.144-1.083-11.806-16.485-5.3-15.824 1.386.301 1.265 1.204 3.132 2.527 3.132zm-7.761 9.638c.662-.964.481-2.109.12-2.771-.662-1.024-1.745-.422-1.083.421.18.241.301.362-.12 1.326-.421.963-.963 1.325-1.444 1.325-.421 0-.782-.362-.842-.783-.18-1.687.722-3.795.782-4.156.12-.362.18-.784.24-1.085-2.045-2.228-1.744-1.506-3.61-.602-.36.18-.782.301-1.143.422.06 0 .06 0 .12-.06.302-.121.602-.302.903-.483l.06-.06c1.745-1.265 2.527-3.554 2.888-3.915.361-.361.722-.361 1.204-.542.601-.18 1.323-.362 1.805-.783.902-.844 1.022-2.35.06-2.47-1.083 0-.301.12-.662.602-.421.482-1.083.663-1.685.723-.06.06-.12.06-.12.12.12-1.324.24-2.107.06-2.89-.3-1.326-1.143-1.988-2.346-1.085-1.565 1.145-1.865 4.518-.18 5.662-.542 1.446-1.084 2.41-1.625 3.012.12-.602.24-.964.24-.964.241-1.385.542-2.89 0-3.794-1.383-.603-2.887.542-3.489 1.505.3 1.567.963-.3.481 3.374-.12 1.144-.42 2.65-.36 3.794 0 .603.06 1.085.18 1.687-.903 1.265-2.106 3.975-3.55 4.096a.97.97 0 0 1-.541-.18c-1.144-1.025-1.685-2.711-1.745-4.278-.12-1.867.3-3.674.842-5.06.662-1.746 1.564-1.083 1.685 0 .24.242.601.543.962.603 1.143.301 1.264-.783 1.204-1.747-.18-4.337-4.453-5.481-6.558-1.204-1.504 3.252-.662 4.517-2.166 5.06-.421-1.567-1.625-5.663-3.73-2.952-1.444 1.807-.542 5.602 1.744 6.144-.18 4.036-1.384 6.204-2.406 6.084-1.504-.241-3.189-3.615-2.287-8.674 1.083-6.084 3.49-4.82 4.092-4.94.3-1.024-.12-1.264-.12-1.264-.723-1.326-3.911-1.506-5.837 1.023-.42.603-1.203 2.47-1.444 3.675-.12.662-.18 1.144-.24 1.566-.12 1.024-.18 2.65.18 4.337.481 1.807.782 4.096 1.986 5.481 1.083 1.145 3.43 2.35 5.234 1.084 3.008-2.048 2.768-7.71 3.068-8.432.12-.302.301-.663.542-.784.18 2.29.541 4.76 1.564 5.964.722.783 2.407 1.747 3.55 1.506 2.767-.603 2.828-4.337 4.272-5.783.48 1.084 1.263 1.988 2.165 1.747.12-.663-.12-2.229-.12-3.735v-.783c.662-.421 1.264-.843 1.925-1.265-.36 1.928-.3 3.795.241 5.18.542 1.446 1.504 1.988 2.647 1.988.722-.06 1.565-.482 2.407-1.987zm14.74 4.698c2.828.542 13.176 3.674 14.14 6.445.902 2.71-1.625 4.397-5.235 4.156-4.813-.3-9.506-3.373-9.025-9.396.06-.181.12-.904.12-1.205zm.301-.723c1.745.362 6.378 1.687 9.867 3.313 2.347 1.084 4.272 2.35 4.753 3.614.18.542.24 1.024.24 1.506-.06.783-.36 1.446-.841 1.928-.482.542-1.144.903-1.926 1.204-.24.06-.481.18-.782.18.361-.06.662-.12.963-.24a4.693 4.693 0 0 0 1.925-1.144 3.305 3.305 0 0 0 .842-1.928c.06-.482-.06-.964-.18-1.506-.421-1.265-2.347-2.53-4.753-3.614-3.55-1.626-8.122-2.951-9.867-3.313l-.722-.12v.06zM3.405 17.14c.782-.3.782-.36.602-1.144-1.865-.843.962-4.818 1.925-5.903 3.91-4.578 9.386-1.506 6.859 4.397-.843 1.928-2.226 3.012-4.031 4.699-.06-1.807.481-4.277-.18-5.903-1.445-.12-2.467.662-3.37 1.747 0 .602.3 2.048.3 3.252 0 3.253-.24 7.228 2.468 8.915.36 0 .661 0 1.022-.06-.541-2.59.662-6.927 3.37-7.349-.542 3.795-1.083 7.951 0 11.746.36 1.325.902 2.65 1.504 3.674.902 1.687 3.309 3.855 5.715 3.855 1.986 0 4.513-.903 5.415-2.65.903-1.867 1.143-3.855.662-6.325-.842-3.373-4.633-1.747-4.633 1.085 1.083.18 1.384 0 2.046 1.084 1.203 2.048.06 5.481-2.527 5.481s-5.896-3.313-5.716-12.589c0-1.927.783-5.662.422-6.987-.301-.301-.843-.723-1.505-.904.722-.843 1.324-1.566 2.046-3.072.842-1.867.902-4.096.18-6.264C11.769-.328-1.588 9.67.157 14.97c.421 1.205 1.685 2.71 3.25 2.169z" clip-rule="evenodd"/></g></svg>