<svg xmlns="http://www.w3.org/2000/svg" fill="none" viewBox="0 0 322 125"><g fill="#fff" clip-path="url(#a)"><path d="M73.108 118.831v-2.84c.677.776 1.333 1.348 1.948 1.696.615.347 1.29.51 1.988.51.738 0 1.332-.163 1.762-.51.43-.348.656-.818.656-1.41 0-.49-.143-.919-.43-1.287-.287-.368-.984-.899-2.09-1.593-1.702-1.104-2.768-1.941-3.198-2.554-.43-.592-.656-1.307-.656-2.145 0-1.164.41-2.124 1.25-2.88.82-.756 1.906-1.124 3.198-1.124.574 0 1.147.082 1.721.245.574.164 1.128.429 1.702.777v2.431c-.656-.532-1.271-.92-1.825-1.165a4.166 4.166 0 0 0-1.68-.368c-.677 0-1.23.164-1.66.491-.431.327-.636.756-.636 1.287 0 .756.881 1.675 2.665 2.778l.328.184c1.434.899 2.398 1.695 2.828 2.369.451.675.677 1.533.677 2.534 0 1.144-.41 2.083-1.25 2.839-.841.756-1.907 1.124-3.198 1.124-.82 0-1.537-.123-2.193-.348-.656-.224-1.292-.531-1.907-1.041ZM89.199 119.688a3.935 3.935 0 0 1-1.004.389 5.113 5.113 0 0 1-1.148.122c-1.128 0-1.906-.265-2.357-.797-.451-.531-.677-1.491-.677-2.9v-4.699h-1.701v-.184l3.484-3.84h.226v2.308h3.115v1.716h-3.115v4.556c0 .817.102 1.348.307 1.593.205.245.595.368 1.148.368.308 0 .594-.041.882-.123.286-.082.573-.204.84-.368v1.859ZM99.546 118.953a8.138 8.138 0 0 1-2.05.96 7.081 7.081 0 0 1-2.172.327c-1.578 0-2.829-.49-3.772-1.45-.942-.961-1.414-2.268-1.414-3.882 0-1.491.451-2.676 1.353-3.616.902-.939 2.07-1.389 3.525-1.389 1.435 0 2.583.47 3.423 1.41.84.94 1.271 2.206 1.271 3.799v.286h-7.46c.06.94.368 1.676.922 2.207.553.531 1.311.796 2.254.796.636 0 1.292-.122 1.968-.347.676-.225 1.394-.592 2.132-1.062v1.961h.02Zm-7.297-4.964h5.268c-.062-.715-.328-1.307-.779-1.736-.45-.429-1.025-.654-1.722-.654-.758 0-1.373.204-1.844.613-.472.388-.78.98-.923 1.777ZM101.622 125v-14.913h2.008v.552c.369-.266.779-.45 1.189-.593.41-.122.881-.183 1.373-.183 1.435 0 2.603.469 3.505 1.43.902.96 1.353 2.206 1.353 3.717 0 1.533-.451 2.779-1.353 3.718-.902.96-2.07 1.451-3.505 1.451a4.91 4.91 0 0 1-1.393-.184c-.41-.123-.8-.307-1.169-.572v5.536h-2.008V125Zm2.008-12.747v5.556c.328.245.656.409.984.511a3.64 3.64 0 0 0 1.066.163c1.004 0 1.804-.306 2.398-.939.574-.613.881-1.471.881-2.554 0-1.083-.287-1.92-.881-2.533-.574-.613-1.373-.919-2.398-.919-.39 0-.738.061-1.066.163-.328.102-.676.327-.984.552ZM118.486 107.166c0-.307.102-.572.328-.797.225-.204.471-.327.799-.327.328 0 .574.102.8.327.204.225.327.49.327.797 0 .306-.102.572-.327.796-.226.225-.492.307-.82.307-.328 0-.574-.102-.8-.327a1.06 1.06 0 0 1-.307-.776Zm.123 12.849v-9.928h1.988v9.928h-1.988ZM123.202 120.015v-9.928h1.988v1.205c.492-.47.984-.817 1.476-1.042a3.799 3.799 0 0 1 1.598-.326c1.087 0 1.927.306 2.542.939.615.634.922 1.471.922 2.574v6.578h-1.988v-6.067c0-.797-.164-1.389-.512-1.777-.349-.388-.861-.572-1.599-.572-.513 0-.963.102-1.332.286-.369.184-.759.51-1.128.98v7.15h-1.967ZM139.704 119.688a3.948 3.948 0 0 1-1.005.389 5.102 5.102 0 0 1-1.147.122c-1.128 0-1.907-.265-2.358-.797-.45-.531-.676-1.491-.676-2.9v-4.699h-1.701v-.184l3.484-3.84h.226v2.308h3.115v1.716h-3.115v4.556c0 .817.102 1.348.307 1.593.205.245.595.368 1.148.368.307 0 .594-.041.881-.123.287-.082.574-.204.841-.368v1.859ZM140.667 115.031c0-1.43.512-2.656 1.537-3.657s2.275-1.511 3.751-1.511c.696 0 1.373.122 2.008.388.636.265 1.21.633 1.701 1.123a5.477 5.477 0 0 1 1.169 1.696c.266.613.389 1.266.389 1.961 0 .674-.143 1.348-.41 1.981a5.27 5.27 0 0 1-1.148 1.696 5.476 5.476 0 0 1-1.701 1.124 5.478 5.478 0 0 1-2.008.367c-1.476 0-2.726-.51-3.751-1.511s-1.537-2.207-1.537-3.657Zm2.09 0c0 .919.308 1.716.943 2.37.615.653 1.373.98 2.255.98.881 0 1.619-.327 2.254-.98.636-.654.943-1.451.943-2.35 0-.919-.307-1.695-.943-2.349-.615-.654-1.373-.98-2.254-.98-.882 0-1.64.326-2.255.98-.635.633-.943 1.43-.943 2.329ZM164.196 119.688a3.955 3.955 0 0 1-1.004.389 5.117 5.117 0 0 1-1.148.122c-1.128 0-1.906-.265-2.357-.797-.451-.531-.677-1.491-.677-2.9v-4.699h-1.701v-.184l3.484-3.84h.226v2.308h3.115v1.716h-3.115v4.556c0 .817.102 1.348.307 1.593.205.245.595.368 1.148.368.308 0 .595-.041.882-.123.286-.082.573-.204.84-.368v1.859ZM165.834 120.016V104.98h1.989v6.313c.492-.47.983-.817 1.475-1.042a3.792 3.792 0 0 1 1.599-.327c1.086 0 1.947.307 2.562.94.615.633.943 1.471.943 2.574v6.578h-2.009v-6.068c0-.817-.164-1.409-.492-1.777-.328-.388-.86-.572-1.578-.572-.533 0-.984.102-1.373.307-.39.204-.779.531-1.127.96v7.15h-1.989ZM185.595 118.953a8.132 8.132 0 0 1-2.05.96 7.17 7.17 0 0 1-2.172.327c-1.579 0-2.829-.49-3.772-1.45-.943-.961-1.414-2.268-1.414-3.882 0-1.491.451-2.676 1.353-3.616.902-.919 2.07-1.389 3.525-1.389 1.435 0 2.583.47 3.423 1.41.84.94 1.25 2.206 1.25 3.799v.286h-7.46c.061.94.369 1.676.922 2.207.553.531 1.312.796 2.255.796.635 0 1.291-.122 1.967-.347.677-.225 1.394-.592 2.132-1.062v1.961h.041Zm-7.297-4.964h5.268c-.062-.715-.328-1.307-.779-1.736-.451-.429-1.025-.654-1.722-.654-.758 0-1.373.204-1.844.613-.472.388-.779.98-.923 1.777ZM195.68 120.016h-2.05v-8.213h-1.312v-1.716h1.312v-.898c0-.858.041-1.492.103-1.88.061-.388.205-.715.369-1.001.286-.47.676-.837 1.188-1.082a3.848 3.848 0 0 1 1.701-.389c.185 0 .41.021.656.062.246.041.554.102.923.184v1.736a6.864 6.864 0 0 0-.718-.123c-.205-.02-.389-.04-.533-.04-.594 0-1.024.163-1.291.49-.246.327-.369.919-.369 1.736v1.205h1.332v1.716h-1.332v8.213h.021ZM205.512 118.789c-.491.47-.983.818-1.475 1.042a3.792 3.792 0 0 1-1.599.327c-1.086 0-1.947-.306-2.562-.94-.615-.633-.943-1.47-.943-2.553v-6.578h2.009v6.088c0 .796.164 1.389.512 1.777.349.388.861.572 1.599.572.512 0 .963-.102 1.332-.286.39-.204.759-.531 1.127-.981v-7.15h1.989v9.929h-1.989v-1.247ZM215.516 119.688a3.948 3.948 0 0 1-1.005.389 5.102 5.102 0 0 1-1.147.122c-1.128 0-1.907-.265-2.358-.797-.45-.531-.676-1.491-.676-2.9v-4.699h-1.701v-.184l3.484-3.84h.226v2.308h3.115v1.716h-3.115v4.556c0 .817.102 1.348.307 1.593.205.245.595.368 1.148.368.307 0 .594-.041.881-.123.287-.082.574-.204.841-.368v1.859ZM223.635 118.789c-.492.47-.984.818-1.476 1.042a3.792 3.792 0 0 1-1.599.327c-1.086 0-1.947-.306-2.562-.94-.615-.633-.943-1.47-.943-2.553v-6.578h2.009v6.088c0 .796.164 1.389.512 1.777.349.388.861.572 1.599.572.512 0 .963-.102 1.332-.286.39-.204.759-.531 1.128-.981v-7.15h1.988v9.929h-1.988v-1.247ZM228.166 120.015v-9.928h1.988v2.165c.554-.858 1.046-1.47 1.496-1.818.451-.347.923-.51 1.435-.51.349 0 .718.081 1.087.245.368.163.758.408 1.188.735l-1.086 1.757c-.328-.286-.635-.49-.922-.613a2.336 2.336 0 0 0-.923-.184c-.533 0-1.004.225-1.414.674-.41.45-.697 1.083-.861 1.88v5.597h-1.988ZM245.156 118.953a8.132 8.132 0 0 1-2.05.96 7.17 7.17 0 0 1-2.172.327c-1.579 0-2.829-.49-3.772-1.45-.943-.961-1.414-2.268-1.414-3.882 0-1.491.451-2.676 1.353-3.616.902-.919 2.07-1.389 3.525-1.389 1.435 0 2.583.47 3.423 1.41.84.94 1.25 2.206 1.25 3.799v.286h-7.46c.061.94.369 1.676.922 2.207.553.531 1.312.796 2.255.796.635 0 1.291-.122 1.967-.347.677-.225 1.394-.592 2.132-1.062v1.961h.041Zm-7.297-4.964h5.268c-.062-.715-.328-1.307-.779-1.736-.451-.429-1.025-.654-1.722-.654-.758 0-1.373.204-1.844.613-.472.388-.779.98-.923 1.777ZM78.072 78.73h2.111v15.158H85.8v1.838h-7.727V78.73ZM87.276 78.73h2.111v10.949c0 1.614.246 2.778.758 3.473.513.694 1.312 1.062 2.44 1.062 1.127 0 1.926-.347 2.439-1.062.512-.715.758-1.86.758-3.473v-10.95h2.009v10.766c0 2.206-.43 3.84-1.292 4.903-.86 1.062-2.172 1.593-3.976 1.593-1.783 0-3.115-.53-3.976-1.593-.861-1.063-1.292-2.697-1.292-4.903V78.729h.02ZM100.453 78.73h2.46l3.443 6.414 3.587-6.415h2.255l-4.673 8.029 5.001 8.968h-2.419l-3.874-7.191-4.037 7.19h-2.235l5.084-8.845-4.592-8.15ZM114.738 78.73h2.111v10.949c0 1.614.246 2.778.759 3.473.512.694 1.312 1.062 2.439 1.062s1.927-.347 2.439-1.062c.512-.715.758-1.86.758-3.473v-10.95h2.009v10.766c0 2.206-.43 3.84-1.291 4.903-.861 1.062-2.173 1.593-3.977 1.593-1.783 0-3.115-.53-3.976-1.593-.861-1.063-1.291-2.697-1.291-4.903V78.729h.02ZM129.089 78.73h2.89c2.275 0 3.874.347 4.797 1.041.922.695 1.393 1.839 1.393 3.412 0 1.103-.287 2.002-.881 2.696-.594.695-1.455 1.144-2.562 1.349.553.06 1.004.245 1.312.572.307.326.635.94.963 1.879l2.132 6.047h-2.255l-1.845-5.414c-.328-.98-.656-1.593-1.004-1.859-.348-.265-.881-.388-1.66-.388h-1.189v7.681h-2.091V78.729Zm2.091 1.756v5.822h.922c1.456 0 2.46-.245 3.034-.715.574-.47.861-1.266.861-2.39 0-.98-.267-1.675-.82-2.104-.554-.429-1.537-.613-2.952-.613h-1.045ZM139.07 78.73h2.439l3.874 7.885 3.792-7.886h2.234l-4.98 9.847v7.15h-2.132v-7.191l-5.227-9.806ZM173.218 95.338l3.034 3.534h-2.46l-2.5-2.942c-.123 0-.246.02-.39.02h-.553c-1.906 0-3.403-.776-4.469-2.287-1.065-1.512-1.619-3.677-1.619-6.435 0-2.799.554-4.944 1.64-6.476 1.086-1.532 2.644-2.288 4.632-2.288 2.009 0 3.546.756 4.632 2.288 1.087 1.532 1.64 3.677 1.64 6.476 0 2.125-.307 3.86-.902 5.21-.594 1.347-1.475 2.308-2.685 2.9Zm-2.685-15.096c-1.312 0-2.316.592-2.992 1.777-.677 1.185-1.025 2.921-1.025 5.209s.348 4.024 1.025 5.21c.676 1.184 1.68 1.776 2.992 1.776s2.316-.592 2.993-1.797c.676-1.206 1.024-2.922 1.024-5.21 0-2.267-.348-4.003-1.024-5.188-.677-1.185-1.681-1.778-2.993-1.778ZM179.818 78.73h2.111v10.949c0 1.614.246 2.778.759 3.473.512.694 1.312 1.062 2.439 1.062s1.927-.347 2.439-1.062c.512-.715.758-1.86.758-3.473v-10.95h2.009v10.766c0 2.206-.43 3.84-1.291 4.903-.861 1.062-2.173 1.593-3.977 1.593-1.783 0-3.115-.53-3.976-1.593-.861-1.063-1.291-2.697-1.291-4.903V78.729h.02ZM197.506 78.73h2.398l5.493 17.017h-2.275l-1.292-4.474h-6.497l-1.373 4.474h-2.132l5.678-17.017Zm1.127 2.145-2.726 8.6h5.329l-2.603-8.6ZM207.405 78.73h2.111v15.158h5.616v1.838h-7.727V78.73ZM217.078 78.73h2.111v17.017h-2.111V78.73ZM221.591 78.73h9.941v1.798h-3.895v15.198h-2.131V80.529h-3.895V78.73h-.02ZM231.589 78.73h2.439l3.874 7.885 3.792-7.885h2.214l-4.981 9.847v7.15h-2.132v-7.191l-5.206-9.806ZM222.326.163c.184-.081.43-.122.737-.143.287-.02.574-.02.841-.02.41 0 .697 0 .861.02.164.02.41.123.697.307.327.184.614.408.84.674.225.266.328.531.328.838 0 .143-.041.224-.144.245-.102.02-.41.061-.922.143-.41.04-1.045.184-1.886.45-.84.265-1.66.53-2.439.837-3.218 1.307-6.313 3.084-9.264 5.311-.636.49-1.23.96-1.804 1.43-.553.47-.84.715-.84.756 0 .04.492-.02 1.455-.164.963-.143 2.562-.429 4.776-.837 1.619-.307 2.91-.531 3.935-.674a39.916 39.916 0 0 1 2.87-.327c1.414-.102 2.582-.061 3.484.163.902.225 1.619.634 2.132 1.226.532.552.778 1.164.778 1.818 0 .654-.246 1.47-.737 2.431-.103.184-.246.429-.431.756a6.834 6.834 0 0 1-.553.92c-.205.305-.41.591-.615.857-.205.286-.369.49-.472.654a5.495 5.495 0 0 0-.307.327c-.123.143-.246.306-.369.45a34.167 34.167 0 0 1-4.079 4.146c-1.394 1.185-2.746 2.124-4.017 2.799-.82.408-1.763.776-2.829 1.123a25.84 25.84 0 0 1-2.951.736 8.19 8.19 0 0 1-1.763.06 16.915 16.915 0 0 1-1.988-.224 46.88 46.88 0 0 1-1.947-.388 7.292 7.292 0 0 1-1.599-.552 2.36 2.36 0 0 1-1.004-.837c-.267-.368-.308-.613-.103-.736.103-.081.308-.102.595-.081.287.02.512.061.697.143.328.184.799.327 1.373.388.574.082 1.353.082 2.336 0 1.271-.04 2.44-.184 3.505-.43a15.384 15.384 0 0 0 3.095-1.061c.984-.47 1.968-1.083 2.952-1.818a38.023 38.023 0 0 0 3.136-2.738 46.1 46.1 0 0 0 3.341-3.575c.922-1.123 1.578-2.104 1.988-2.962.102-.265.205-.51.307-.756.103-.245.164-.429.205-.53l.062-.328-.615-.102c-.451-.082-1.148-.082-2.111 0a34.35 34.35 0 0 0-2.726.327c-.451.082-1.169.204-2.152.388l-2.952.552a80.497 80.497 0 0 1-3.566.694c-.964.164-1.763.286-2.419.368-.656.082-1.168.102-1.537.102s-.676-.04-.902-.102c-.41-.123-.84-.409-1.271-.858-.43-.47-.635-.878-.635-1.267 0-.449.451-1.123 1.353-2.022.779-.817 1.762-1.695 2.91-2.594a39.84 39.84 0 0 1 3.546-2.493c1.619-.96 3.136-1.777 4.55-2.41a21.715 21.715 0 0 1 4.264-1.41Zm-78.871 16.69 1.066-.327a18.786 18.786 0 0 0 2.582-1.123c.779-.409 1.169-.695 1.128-.838-.082-.102-.369-.122-.861-.02a5.621 5.621 0 0 0-1.435.47c-.307.143-.676.388-1.148.694-.471.307-.799.613-.984.858l-.348.286Zm24.309 1.94c.143.307.164.512.061.614-.102.102-.492.265-1.127.45-.307.08-.615.163-.963.285-.328.102-.718.225-1.128.327-.225.082-.635.204-1.229.429-.595.204-1.333.429-2.194.695-.86.265-1.803.53-2.808.817a48.684 48.684 0 0 1-3.095.756c-.225.081-.45.142-.676.204-.225.061-.451.122-.676.204-1.271.368-2.542.735-3.792 1.062a20.21 20.21 0 0 1-3.853.613 10.16 10.16 0 0 1-2.604-.102 5.22 5.22 0 0 1-2.336-1c-.759-.593-1.25-1.37-1.517-2.289-.266-.94-.307-1.838-.102-2.737a6.737 6.737 0 0 1 1.086-2.554 12.164 12.164 0 0 1 1.886-2.104c.41-.327.84-.654 1.291-.92.451-.265.943-.49 1.455-.632.533-.143 1.045-.225 1.578-.205a3.4 3.4 0 0 1 1.517.43c.533.306.922.755 1.209 1.368.287.613.267 1.185-.02 1.716-.144.306-.369.531-.656.735a19.04 19.04 0 0 1-.861.511c-1.906.96-3.853 1.614-5.841 1.961-.328.082-.554.164-.677.286-.102.184-.164.348-.164.51a4.192 4.192 0 0 0-.102.9c0 .327.082.633.225.919.267.45.656.756 1.148.899a5.716 5.716 0 0 0 1.537.225 21.607 21.607 0 0 0 3.792-.47c1.25-.286 2.501-.593 3.731-.92a24.17 24.17 0 0 1 1.004-.245c.369-.102.738-.184 1.066-.245.41-.102.82-.225 1.229-.327.267-.081.513-.143.738-.204.226-.061.39-.102.513-.143 1.394-.368 2.685-.735 3.894-1.062 1.209-.327 2.296-.634 3.239-.858.942-.245 1.68-.43 2.254-.552.554-.122.902-.204 1.005-.204.184 0 .368.082.553.245.184.163.328.368.41.613Zm-53.004-2.9 1.23-.735c.758-.45 1.537-.92 2.377-1.43.841-.511 1.62-.98 2.357-1.43.738-.45 1.333-.838 1.804-1.144.471-.307.697-.49.697-.531 0-.041-.758-.02-2.296.06l-1.127.062-1.004.9-1.845 1.838a28.176 28.176 0 0 0-1.681 1.797l-.512.613Zm7.297-7.048 1.803-.06 1.804-.062.738-.674c.369-.368.676-.736.922-1.083s.41-.633.472-.858c.041-.143.041-.225 0-.225s-.246.041-.615.102c-.267.082-.615.205-1.066.389-.451.183-.902.408-1.373.674-.472.265-.923.53-1.374.817-.45.286-.799.531-1.065.756l-.246.224Zm19.307 10.01c.103.307.103.51 0 .633-.123.123-.492.287-1.127.47-.594.184-1.353.409-2.275.654-.922.245-1.804.49-2.665.756-.082 0-.123 0-.164.02-.041.02-.102.02-.164.02a263.453 263.453 0 0 1-5.39 1.512c-1.804.49-3.587.96-5.391 1.45-.963.266-1.947.511-2.951.757-.984.245-1.968.45-2.952.633a21.75 21.75 0 0 1-2.275.327 7.743 7.743 0 0 1-2.275-.102c-1.086-.266-1.968-.736-2.664-1.43-.697-.695-1.087-1.492-1.148-2.37-.082-1.164.205-2.472.82-3.943.614-1.47 1.537-2.92 2.787-4.33.185-.225.451-.532.82-.9.348-.367.676-.714.984-1l1.066-1.124h-1.066c-.636 0-1.107-.04-1.394-.143-.307-.081-.553-.286-.779-.572-.143-.224-.225-.388-.246-.51-.061-.103.021-.205.226-.266.184-.082.512-.123.984-.163.471-.041 1.127-.082 1.988-.123l2.521-.102.676-.552c.963-.858 2.07-1.634 3.321-2.349 1.229-.715 2.316-1.185 3.258-1.45a4.97 4.97 0 0 1 .984-.205c.246-.02.513.02.82.143.861.266 1.394.756 1.599 1.492.205.735 0 1.47-.594 2.206l-.226.327.84.061c1.046.04 1.763.368 2.132 1.021.082.184.082.327 0 .43-.082.102-.266.142-.574.102-.143-.062-.389-.103-.697-.103-.328 0-.861.041-1.598.103l-1.907.122-.901.736c-.308.245-.738.572-1.312.96-.574.388-1.21.817-1.886 1.266-.676.45-1.353.879-2.05 1.308-.696.429-1.311.817-1.885 1.143-.144.082-.39.205-.697.389-.328.184-.636.367-.984.551-.533.307-1.086.633-1.681 1.042-.594.388-1.168.838-1.68 1.308a6.404 6.404 0 0 0-1.292 1.613 3.996 3.996 0 0 0-.512 1.961c0 .552.041.94.143 1.144.103.205.349.43.759.634.225.081.43.122.594.163.164.04.472.061.922.061 1.394-.04 2.727-.224 4.018-.592 1.291-.347 2.582-.736 3.894-1.144a126.037 126.037 0 0 1 5.842-1.736c1.947-.532 3.914-1.042 5.903-1.573a67.539 67.539 0 0 1 4.55-1.185 3.81 3.81 0 0 0 .963-.225c.349-.102.677-.163.984-.163.41 0 .758.286 1.004.837Zm-28.961-.45c.143.307.164.511.02.634-.123.123-.512.286-1.148.47a26.08 26.08 0 0 1-1.803.531c-.595.143-1.189.327-1.804.51-1.312.369-2.623.757-3.956 1.124-1.332.368-2.644.756-3.956 1.124-.266.082-.573.143-.963.225a6.546 6.546 0 0 1-1.537.06c-.513-.04-1.004-.101-1.496-.163-.267-.04-.513-.06-.738-.081a2.666 2.666 0 0 1-.677-.143l-.676-.164a.657.657 0 0 1-.287-.061.905.905 0 0 1-.287-.061c-.102.102-.225.245-.369.388a3.333 3.333 0 0 1-.471.45c-.328.367-.615.633-.84.775-.226.143-.513.327-.841.511-1.804.9-3.074.797-3.812-.286a1.709 1.709 0 0 1-.226-.837c0-.184.02-.327.062-.43.04-.101.184-.244.45-.47.493-.449 1.148-.837 1.968-1.184a10.96 10.96 0 0 1 2.521-.674l.554-.061.328-.674c.184-.41.348-.818.471-1.206s.185-.633.144-.756c-.041-.102-.226-.163-.554-.143a7.63 7.63 0 0 0-1.27.205c-.513.102-1.066.245-1.681.429-.615.163-1.25.367-1.886.592a39.482 39.482 0 0 1-2.951 1.083c-.595.204-1.025.306-1.21.306-.533 0-.984-.204-1.394-.633-.41-.43-.614-.899-.614-1.43 0-.531.225-1.144.697-1.88a12.86 12.86 0 0 1 1.762-2.144 18.773 18.773 0 0 1 2.378-1.982c.881-.613 1.721-1.062 2.5-1.369.144-.04.328-.081.513-.102.184-.04.328-.061.45-.061.37 0 .718.163 1.046.47.328.327.43.633.369.919 0 .184-.144.286-.451.286-.307.04-.697.184-1.189.429a12.26 12.26 0 0 0-1.517.899c-.532.347-1.045.756-1.578 1.185-.533.429-.963.858-1.352 1.266-.144.184-.329.409-.513.634-.184.245-.369.47-.533.674-.164.204-.307.388-.39.551-.102.164-.122.245-.081.245 0 .041.205 0 .594-.143.39-.122.861-.286 1.373-.47a76.076 76.076 0 0 1 3.28-.98c.943-.266 1.701-.409 2.357-.45.635-.04 1.168 0 1.599.143.43.123.799.368 1.086.695.717.756.881 1.696.512 2.86-.04.102-.082.204-.102.286-.041.082-.062.123-.062.163l-.102.327c.533.082 1.025.123 1.496.164.472.04.963.102 1.496.163h.39c.102 0 .287-.04.512-.122l1.66-.43a20.426 20.426 0 0 0 1.599-.428c1.189-.327 2.378-.654 3.505-.98a87.604 87.604 0 0 1 3.505-.92 9.371 9.371 0 0 0 1.086-.286c.349-.102.718-.204 1.087-.286.143-.041.307-.082.471-.102a1.99 1.99 0 0 1 .471-.062c.41.041.738.327 1.005.879Zm-58.62-4.636c-1.189-.184-2.48-.082-3.813.326-1.352.409-2.685 1.083-3.976 2.023-.184.143-.43.347-.738.592-.307.245-.594.49-.86.756-.288.266-.513.49-.697.674l-.287.286c.04.082.656-.081 1.885-.45a204.29 204.29 0 0 0 4.694-1.51 50.927 50.927 0 0 1 2.972-1.002c.963-.286 1.62-.51 1.906-.613.328-.081.636-.143.861-.224.246-.082.369-.123.369-.164 0-.04-.082-.082-.246-.143-.164-.061-.39-.122-.635-.204-.267-.082-.533-.143-.78-.225-.286-.082-.512-.122-.655-.122Zm-3.485-3.085a9.746 9.746 0 0 1 4.08.429 9.233 9.233 0 0 1 3.443 2.043l.676.613.779-.164c.492-.102.84-.143 1.066-.082.225.062.492.225.779.532.676.715.82 1.368.45 1.96-.143.307-.47.634-.963 1.002a8.312 8.312 0 0 0-.553.613c-.185.224-.328.388-.39.51-.184.327-.328.51-.45.51-.083 0-.226.103-.431.307-.205.205-.43.45-.676.756-.246.307-.513.613-.78.96a9.898 9.898 0 0 0-.696.9c-.308.449-.554.898-.779 1.347-.226.45-.349.817-.39 1.124l-.061.388h.553c.144 0 .349-.02.595-.061.246-.041.471-.082.697-.123.143-.04.533-.122 1.127-.286.594-.143 1.312-.327 2.152-.53.84-.205 1.742-.43 2.726-.675.964-.245 1.906-.47 2.788-.695.881-.224 1.66-.429 2.357-.592a56.067 56.067 0 0 0 1.496-.368l.922-.245c.308-.102.554-.163.697-.204 1.394-.368 2.685-.735 3.936-1.062 1.23-.327 2.316-.634 3.238-.858.922-.245 1.66-.43 2.214-.552.553-.123.901-.204 1.004-.204.184 0 .369.081.553.245.205.163.328.347.41.572.144.306.164.51.062.633-.103.123-.492.286-1.127.47-.595.184-1.353.409-2.276.674-.922.266-1.803.51-2.664.736-.308.081-1.004.265-2.132.592-1.127.327-2.336.654-3.648 1.042-3.566 1-6.436 1.797-8.65 2.37-2.213.572-3.689.919-4.427 1.041-.594.082-1.107.102-1.517.062-.41-.041-.758-.123-1.066-.286-.307-.143-.594-.389-.86-.695a4.383 4.383 0 0 1-.636-.92c-.123-.306-.184-.714-.225-1.225-.041-.531-.02-.96.061-1.287.144-.551.43-1.205.861-1.961.43-.756.922-1.45 1.496-2.124.37-.45.554-.695.554-.736-.041 0-.185.04-.451.143-.267.102-.574.225-.963.368-.37.122-.902.286-1.579.53-.676.246-1.311.45-1.906.655-1.353.45-2.5.837-3.484 1.144-.964.326-1.804.572-2.48.756a35.01 35.01 0 0 1-1.722.428c-.471.103-.86.143-1.21.143-.45.041-.758.041-.901.02a1.7 1.7 0 0 1-.554-.203 4.566 4.566 0 0 1-.471-.307 1.564 1.564 0 0 1-.369-.367c-.635-.818-.86-1.594-.697-2.288.164-.716.82-1.635 1.947-2.8a16.537 16.537 0 0 1 4.161-3.206c1.517-.858 2.972-1.349 4.304-1.512ZM21.788.164c.225-.082.39-.103.512-.082.103.02.328.081.615.204.533.184.963.47 1.312.838.348.367.492.715.43 1-.04.082-.225.47-.553 1.185-.328.715-.738 1.532-1.189 2.472-.45.94-.84 1.716-1.148 2.35a42.226 42.226 0 0 0-.84 1.736 74.577 74.577 0 0 0-.677 1.491c-.204.47-.43 1.001-.635 1.593-.246.532-.45 1.083-.635 1.635-.185.53-.349 1.021-.513 1.45-.143.43-.246.776-.307 1.062-.062.286-.041.409.04.409.042 0 .35-.286.964-.858a72.6 72.6 0 0 0 2.132-2.145 290.51 290.51 0 0 1 2.562-2.513c.84-.817 1.455-1.389 1.824-1.736a60.613 60.613 0 0 1 2.5-2.104c.923-.736 1.866-1.45 2.83-2.186a86.565 86.565 0 0 1 2.91-2.104 56.48 56.48 0 0 1 2.746-1.798c.554-.327.964-.53 1.23-.592.266-.061.574 0 .963.143.902.408 1.353.96 1.353 1.675 0 .45-.287 1.185-.86 2.247-.575 1.042-1.559 2.574-2.952 4.596a126.022 126.022 0 0 0-2.521 3.882c-.82 1.328-1.66 2.717-2.521 4.167-3.075 5.23-4.735 8.948-5.002 11.195-.04.143-.061.286-.082.429-.02.122-.061.204-.143.245-.225.306-.656.347-1.291.163-.636-.184-.964-.592-.964-1.225a4.404 4.404 0 0 1 0-1.042c.041-.388.103-.715.164-.98.226-.94.554-1.921.984-2.963.43-1.042 1.087-2.451 1.988-4.188a92.833 92.833 0 0 1 1.763-3.432c.656-1.205 1.312-2.41 1.968-3.574A83.252 83.252 0 0 1 32.65 9.54a79.05 79.05 0 0 1 1.599-2.513c.307-.49.574-.899.84-1.287.266-.388.43-.633.512-.694l.226-.286-.287.102c-.123.082-.348.245-.697.49-.348.245-.758.51-1.23.817a21.07 21.07 0 0 0-1.393.96c-.472.327-.861.613-1.148.838-.677.49-1.292.96-1.845 1.43-.553.47-1.148.96-1.763 1.512a48.426 48.426 0 0 0-1.947 1.797c-.676.654-1.455 1.43-2.357 2.33l-2.48 2.47c-.594.593-1.086 1.043-1.435 1.308-.369.245-.656.409-.86.49-.206.082-.431.103-.636.103-.267 0-.553-.082-.86-.245-.329-.164-.575-.348-.718-.531-.144-.184-.205-.573-.205-1.185.02-.593.123-1.247.307-2.002.082-.307.226-.797.43-1.492.206-.694.431-1.41.677-2.145.246-.755.471-1.43.676-2.063.205-.633.37-1.062.472-1.287.082-.143.143-.327.225-.51.082-.184.144-.368.226-.552.082-.184.143-.388.225-.613l-.369.368c-.246.225-.533.51-.86.858-.349.327-.697.674-1.046 1.021-.348.368-.656.674-.881.94a305.148 305.148 0 0 0-6.006 6.823 148.953 148.953 0 0 0-5.288 6.598l-1.394 1.818c-.328.43-.594.756-.758.98-.164.226-.287.369-.348.45a.784.784 0 0 1-.226.164c-.41.184-.86.184-1.312 0-.492-.184-.717-.47-.717-.838 0-.408.41-1.266 1.23-2.574.82-1.307 1.824-2.737 2.972-4.31.717-.94 1.435-1.86 2.193-2.799.758-.94 1.62-1.94 2.582-3.023.984-1.083 2.091-2.288 3.341-3.636 1.25-1.349 2.747-2.901 4.469-4.699a228.48 228.48 0 0 0 2.418-2.43c.595-.614 1.066-1.083 1.394-1.43a7.56 7.56 0 0 1 .758-.675c.185-.102.308-.184.43-.225ZM288.018 21.715c-.041.041.061.041.307.02.246-.02.554-.04.922-.081.369-.04.779-.082 1.21-.143a8.69 8.69 0 0 0 1.086-.204c1.681-.307 3.239-.797 4.694-1.491 1.435-.695 2.644-1.492 3.628-2.37.369-.368.738-.777 1.066-1.206.327-.428.512-.714.512-.857 0-.103-.226-.164-.697-.143a6.92 6.92 0 0 0-1.496.245c-.718.184-1.537.49-2.48.899-.943.408-1.906.898-2.911 1.45a55.27 55.27 0 0 0-3.054 1.838 34.085 34.085 0 0 0-2.787 2.043Zm33.86-2.962c.143.307.164.51.061.654-.123.122-.491.286-1.127.47l-.676.163c-.861.307-1.722.552-2.603.756-.882.204-1.743.45-2.603.756-.964.306-1.948.592-2.911.858-.963.286-1.947.531-2.91.756-1.907.45-3.833.817-5.78 1.123a56.69 56.69 0 0 1-5.903.613c-.964.04-1.948.061-2.952.082-.984.02-1.968 0-2.951-.02-.82-.041-1.681-.123-2.583-.287a7.726 7.726 0 0 1-2.48-.837l-.615-.327-.553.45c-.185.142-.513.49-.964 1-.451.531-.943 1.104-1.455 1.737-1.127 1.41-2.07 2.615-2.869 3.575-.8.96-1.456 1.757-1.989 2.37a28.383 28.383 0 0 1-1.27 1.388c-.308.307-.533.532-.677.634-.492.327-.963.265-1.455-.225-.266-.225-.41-.429-.43-.613-.021-.184.061-.429.246-.735.225-.45.799-1.226 1.721-2.35a82.155 82.155 0 0 1 3.177-3.636c.308-.326.697-.776 1.189-1.348.492-.552.943-1.103 1.353-1.614 1.189-1.45 2.48-2.921 3.812-4.392a161.6 161.6 0 0 1 3.853-4.065 81.39 81.39 0 0 1 3.218-3.085c.943-.817 1.62-1.287 2.03-1.389.041 0 .082 0 .102-.02.041-.02.082-.02.103-.02h.061s.102.04.328.101c.184.082.348.205.512.389.144.184.226.347.226.51 0 .082-.759.92-2.296 2.513-1.127 1.083-1.762 1.716-1.906 1.9-.143.184-.061.184.287 0 .328-.184.758-.409 1.23-.634.492-.245.963-.49 1.455-.735.492-.245.943-.45 1.373-.654.431-.183.779-.326 1.046-.388a18.772 18.772 0 0 1 1.762-.45 5.051 5.051 0 0 1 1.374-.06c.492 0 .86.06 1.147.204.287.122.574.347.861.633 1.128 1.226.779 2.737-1.004 4.535-1.271 1.267-2.911 2.247-4.878 2.962-1.271.49-2.296.776-3.095.9a2.752 2.752 0 0 1-.513.101l-.778.102c-.308.041-.492.062-.554.062-.082 0-.082.02 0 .061.123.082.308.102.595.061.286-.04.471-.082.594-.102h.553c.185 0 .369-.02.554-.061.41-.041.82-.061 1.229-.061.41 0 .82-.02 1.23-.062.82-.04 1.64-.081 2.48-.143.82-.061 1.661-.143 2.521-.245.267 0 .533-.02.82-.082.287-.06.554-.122.82-.204.144 0 .267-.02.328-.061a1.72 1.72 0 0 1 .451-.061c.144 0 .307-.041.451-.103a5.27 5.27 0 0 1 .512-.081c.144-.02.328-.062.513-.143.328-.082.676-.143 1.004-.225.328-.082.676-.163 1.004-.286a45.84 45.84 0 0 1 1.968-.531 45.985 45.985 0 0 0 1.968-.531l3.71-1.001a14.576 14.576 0 0 0 1.496-.368 36.28 36.28 0 0 0 1.496-.429c.369-.082.738-.163 1.066-.245a8.99 8.99 0 0 1 1.004-.245c.144-.041.308-.082.451-.123a1.96 1.96 0 0 1 .513-.061c.184 0 .369.082.553.245.164.245.287.45.369.674Zm-57.677-1.9 1.066-.327a18.893 18.893 0 0 0 2.582-1.123c.779-.409 1.168-.695 1.127-.838-.082-.102-.368-.122-.86-.02a5.621 5.621 0 0 0-1.435.47c-.308.143-.677.388-1.148.694-.471.307-.799.613-.984.858l-.348.286Zm24.309 1.941c.143.306.164.51.061.613-.102.102-.492.265-1.127.45-.308.081-.615.163-.964.285-.327.102-.717.225-1.127.327-.225.082-.635.204-1.23.43-.594.203-1.332.428-2.193.694-.861.265-1.803.53-2.808.817a48.684 48.684 0 0 1-3.095.756c-.225.081-.451.143-.676.204a8.496 8.496 0 0 0-.677.204c-1.27.368-2.541.736-3.791 1.063a20.212 20.212 0 0 1-3.854.612c-.861.082-1.721.041-2.603-.102a5.22 5.22 0 0 1-2.336-1c-.759-.593-1.251-1.37-1.517-2.289-.267-.94-.308-1.838-.103-2.737a6.754 6.754 0 0 1 1.087-2.554 12.191 12.191 0 0 1 1.885-2.104c.41-.327.841-.653 1.292-.919.451-.266.943-.49 1.455-.633.533-.143 1.045-.225 1.578-.205.533.02 1.025.164 1.517.43.533.306.922.755 1.209 1.368.287.613.267 1.185-.02 1.716-.144.306-.369.531-.656.736-.287.183-.574.347-.861.51-1.906.96-3.853 1.614-5.842 1.961-.327.082-.553.164-.676.286-.102.184-.164.348-.164.511a3.988 3.988 0 0 0-.102.98c0 .327.082.634.225.92.267.45.656.756 1.148.899a5.71 5.71 0 0 0 1.537.224 21.617 21.617 0 0 0 3.792-.47c1.25-.286 2.501-.592 3.73-.919.308-.081.636-.163 1.005-.245.369-.102.738-.184 1.065-.245.41-.102.82-.225 1.23-.327.267-.082.513-.143.738-.204.226-.061.39-.102.513-.143 1.393-.368 2.685-.735 3.894-1.062 1.209-.327 2.296-.634 3.238-.858a56.268 56.268 0 0 1 2.255-.552c.553-.123.902-.204 1.004-.204.185 0 .369.081.554.245.205.061.348.286.41.531Zm-52.984-2.9 1.23-.736c.758-.45 1.537-.92 2.378-1.43.84-.51 1.619-.98 2.357-1.43.738-.45 1.332-.838 1.803-1.144.472-.306.697-.49.697-.531 0-.041-.758-.02-2.295.061l-1.128.061-1.004.9-1.845 1.838a28.444 28.444 0 0 0-1.68 1.797l-.513.613Zm7.297-7.048 1.804-.062 1.803-.061.738-.674a8.39 8.39 0 0 0 .923-1.083c.245-.347.409-.633.471-.858.041-.143.041-.225 0-.225s-.246.041-.615.103c-.266.081-.615.204-1.066.388a12.09 12.09 0 0 0-1.373.674 30.64 30.64 0 0 0-1.373.817 9.88 9.88 0 0 0-1.066.756l-.246.225Zm19.308 10.01c.102.306.102.51 0 .633-.123.122-.492.286-1.128.47-.594.183-1.352.408-2.275.653a70.27 70.27 0 0 0-2.664.756c-.082 0-.123 0-.164.02a.4.4 0 0 1-.164.02 265.343 265.343 0 0 1-5.391 1.512c-1.804.49-3.587.96-5.39 1.45-.964.267-1.948.512-2.952.757-.984.245-1.968.45-2.951.633-.759.143-1.517.266-2.276.327a7.745 7.745 0 0 1-2.275-.102c-1.086-.266-1.967-.736-2.664-1.43-.697-.695-1.086-1.491-1.148-2.37-.082-1.164.205-2.472.82-3.942.615-1.471 1.537-2.922 2.787-4.331.185-.225.451-.531.82-.9.349-.367.677-.714.984-1l1.066-1.124H236.1c-.635 0-1.107-.04-1.394-.143-.307-.081-.553-.286-.779-.572-.143-.224-.225-.388-.245-.51-.021-.123.061-.225.245-.307.185-.081.513-.122.984-.163.472-.041 1.128-.082 1.988-.123l2.522-.102.676-.551c.963-.858 2.07-1.635 3.32-2.35 1.23-.715 2.316-1.185 3.259-1.45a4.97 4.97 0 0 1 .984-.204c.246-.02.513.02.82.143.861.265 1.394.755 1.599 1.49.205.736 0 1.472-.595 2.207l-.225.327.799.102c1.046.041 1.763.368 2.132 1.022.082.183.082.326 0 .428-.082.103-.267.143-.554.103-.143-.062-.389-.102-.696-.102-.328 0-.861.04-1.599.102l-1.906.102-.902.735c-.308.266-.738.593-1.312.98-.574.389-1.209.818-1.886 1.267-.676.45-1.352.879-2.049 1.308-.697.429-1.312.817-1.886 1.144-.143.081-.389.204-.697.388-.328.184-.635.367-.984.551-.533.307-1.086.634-1.68 1.042-.595.388-1.169.838-1.681 1.308a6.4 6.4 0 0 0-1.291 1.613 3.997 3.997 0 0 0-.513 1.962c0 .551.041.94.144 1.143.102.205.348.43.758.634.226.082.43.122.594.163.164.041.472.062.923.062 1.394-.041 2.726-.225 4.017-.593 1.291-.347 2.583-.735 3.894-1.144a126.772 126.772 0 0 1 5.842-1.736c1.947-.531 3.915-1.042 5.903-1.573a67.539 67.539 0 0 1 4.55-1.185c.308-.082.636-.163.984-.286.348-.102.676-.164.984-.164.389.062.717.348.984.9Z"/><path d="M181.867 25.72a.871.871 0 0 1 .389-.021c.103.02.144.163.164.45-.061.265-.205.449-.43.551a49.688 49.688 0 0 1-4.694 1.45 40.632 40.632 0 0 1-4.55.9c-1.456.183-2.829.285-4.1.285-1.27 0-2.398-.143-3.34-.47-1.066-.326-1.784-.837-2.153-1.532-.389-.674-.471-1.491-.225-2.41.123-.49.369-.92.738-1.328a7.71 7.71 0 0 1 1.353-1.165 21.732 21.732 0 0 1 1.762-1.164 32.092 32.092 0 0 0 1.968-1.287 17.69 17.69 0 0 1-1.763-.163c-.594-.082-1.107-.164-1.558-.225a16.612 16.612 0 0 1-1.516-.306c-1.046.367-1.845.674-2.439.898-.595.225-1.087.43-1.497.613-.409.164-.799.307-1.127.43-.348.122-.758.244-1.271.387-.164 0-.266 0-.348-.02-.082-.02-.123-.143-.144-.388.021-.102.144-.204.328-.266.185-.061.41-.163.615-.265.8-.245 1.64-.552 2.501-.92a54.841 54.841 0 0 0 2.439-1.164c-.205-.204-.287-.51-.287-.96.164-.695 1.066-1.593 2.644-2.635.799-.511 1.496-.858 2.091-1.042.594-.184 1.106-.266 1.537-.245.594.143.861.51.799 1.082-.225.879-1.086 1.757-2.582 2.595.82 0 1.496.04 2.008.081.513.041.923.082 1.23.123 1.045.245 1.496.776 1.373 1.573-.205.858-1.291 1.818-3.238 2.9-.963.552-1.701 1.043-2.255 1.472-.533.429-.86.878-.963 1.327-.164.675-.082 1.226.266 1.655.349.43.779.756 1.333.96 1.209.368 2.5.552 3.874.552 1.373 0 2.726-.102 4.058-.327a30.565 30.565 0 0 0 3.812-.899 34.025 34.025 0 0 0 3.198-1.083Z"/></g><defs><clipPath id="a"><path fill="#fff" d="M0 0h322v125H0z"/></clipPath></defs></svg>