<svg width="335" height="69" viewBox="0 0 335 69" fill="none" xmlns="http://www.w3.org/2000/svg">
<g clip-path="url(#clip0_4590_4021)">
<path d="M153.386 20.9717L153.292 19.8957L153.165 18.9427L153.007 18.0827L152.786 17.2827L152.534 16.5457L152.249 15.8697L151.934 15.2237L151.586 14.6397L151.175 14.0867L150.733 13.5947L150.259 13.1347L149.754 12.7037L149.186 12.3037L148.585 11.9657L147.922 11.6587L147.227 11.3817L146.469 11.1357L145.648 10.9207L144.764 10.7677L143.784 10.6447L142.679 10.5517L141.352 10.4907H139.11L136.835 10.5207L135.509 10.5827L134.403 10.6747L133.424 10.7977L132.54 10.9517L131.719 11.1667L130.961 11.4127L130.266 11.6897L129.602 11.9967L129.002 12.3347L128.434 12.7347L127.928 13.1647L127.454 13.6257L127.012 14.1177L126.602 14.6707L126.254 15.2547L125.938 15.8997L125.654 16.5767L125.401 17.3137L125.18 18.1137L125.022 18.9737L124.896 19.9267L124.801 21.0027L124.738 22.2927L124.706 24.5067L124.738 26.7197L124.801 28.0097L124.896 29.0867L125.022 30.0397L125.18 30.8997L125.401 31.6997L125.654 32.4367L125.938 33.1127L126.254 33.7587L126.602 34.3427L127.012 34.8957L127.454 35.3877L127.928 35.8477L128.434 36.2787L129.002 36.6787L129.602 37.0167L130.266 37.3237L130.961 37.6007L131.719 37.8467L132.54 38.0617L133.424 38.2157L134.403 38.3387L135.509 38.4307L136.835 38.4917L139.11 38.5217L141.384 38.4917L142.71 38.4307L143.816 38.3387L144.795 38.2157L145.68 38.0617L146.501 37.8467L147.259 37.6007L147.954 37.3237L148.617 37.0167L149.217 36.6787L149.786 36.2787L150.291 35.8487L150.765 35.3877L151.207 34.8957L151.618 34.3427L151.965 33.7587L152.281 33.1127L152.565 32.4367L152.818 31.6987L153.039 30.8997L153.197 30.0397L153.323 29.0867L153.418 28.0107L153.481 26.7197L153.513 24.5067L153.481 22.2937L153.386 20.9717ZM143.089 25.7057V26.4127L143.058 26.9967L143.026 27.5187L142.995 28.0107L142.932 28.4407L142.868 28.8407L142.774 29.2097L142.679 29.5477L142.584 29.8857L142.458 30.1927L142.331 30.4697L142.205 30.7157L142.047 30.9617L141.889 31.1767L141.731 31.3607L141.542 31.5457L141.352 31.6987L141.131 31.8217L140.91 31.9447L140.657 32.0367L140.373 32.0987L140.057 32.1597L139.678 32.1907H138.415L138.036 32.1607L137.72 32.0987L137.436 32.0367L137.183 31.9447L136.962 31.8217L136.741 31.6987L136.551 31.5457L136.362 31.3607L136.204 31.1767L136.046 30.9617L135.888 30.7157L135.762 30.4697L135.635 30.1927L135.509 29.8857L135.414 29.5477L135.319 29.2097L135.256 28.8397L135.193 28.4407L135.13 28.0107L135.098 27.5187L135.067 26.9967L135.035 26.4127V22.5397L135.067 21.9557L135.098 21.4327L135.13 20.9407L135.193 20.5107L135.256 20.1107L135.319 19.7427L135.414 19.4047L135.509 19.0657L135.635 18.7587L135.762 18.4817L135.888 18.2367L136.046 17.9907L136.204 17.7757L136.362 17.5907L136.551 17.4067L136.741 17.2527L136.962 17.1297L137.183 17.0067L137.436 16.9147L137.72 16.8527L138.036 16.7917L138.415 16.7617H139.678L140.057 16.7917L140.373 16.8527L140.657 16.9147L140.91 17.0067L141.131 17.1297L141.352 17.2527L141.542 17.4067L141.731 17.5907L141.889 17.7747L142.047 17.9907L142.205 18.2357L142.331 18.4817L142.458 18.7587L142.584 19.0657L142.679 19.4037L142.774 19.7427L142.868 20.1117L142.932 20.5117L142.995 20.9417L143.026 21.4327L143.058 21.9557L143.089 22.5397V25.7057ZM31.718 0.869656H-0.5V8.52366H10.492V37.7537H20.82V8.52366H31.718V0.869656ZM54.523 25.1517C55.944 24.0147 56.639 22.2017 56.607 19.7417C56.607 16.6687 55.565 14.3637 53.48 12.7957C51.396 11.2287 47.89 10.4597 42.994 10.4597C39.456 10.4597 36.582 10.9207 34.402 11.8117C32.223 12.7347 30.644 14.2097 29.664 16.2687C28.685 18.3287 28.18 21.1257 28.18 24.5987C28.18 27.7027 28.654 30.2847 29.633 32.3137C30.613 34.3737 32.191 35.8797 34.371 36.8937C36.551 37.9077 39.488 38.3997 43.151 38.3997C44.668 38.3997 46.152 38.3387 47.668 38.1847C49.185 38.0307 50.638 37.8157 52.028 37.4777C53.3677 37.1823 54.6703 36.7389 55.912 36.1557L54.965 30.2857C52.849 30.5007 50.827 30.6537 48.9 30.7457C47.3535 30.8232 45.8054 30.8643 44.257 30.8687C42.741 30.8687 41.604 30.6537 40.783 30.2237C39.961 29.7937 39.393 29.0557 39.077 28.0417C38.9681 27.6581 38.8836 27.2679 38.824 26.8737H46.974C50.574 26.8427 53.101 26.2897 54.523 25.1517ZM44.13 21.9857H38.634C38.697 20.8487 38.792 19.9267 38.981 19.2507C39.234 18.2977 39.708 17.6517 40.371 17.3137C41.034 17.0067 42.014 16.8537 43.309 16.8837C44.667 16.8837 45.614 17.0677 46.151 17.4067C46.688 17.7757 47.004 18.4517 47.036 19.4967C47.036 20.4187 46.846 21.0637 46.499 21.4327C46.183 21.8017 45.394 21.9857 44.13 21.9857ZM80.265 10.4597C78.244 10.4597 76.191 10.9207 74.075 11.8427C72.4151 12.588 70.855 13.538 69.431 14.6707C69.526 14.2097 69.621 13.7177 69.684 13.1647C69.905 11.7817 70 10.3367 70 8.83066V0.347656H60.019V37.7547H69.999V20.0177C71.105 19.5877 72.084 19.2497 72.874 19.0647C73.916 18.8197 74.896 18.6967 75.812 18.6967C76.696 18.6967 77.296 18.8497 77.644 19.1877C77.991 19.4957 78.18 20.1097 78.18 20.9397V37.7837H88.162V17.8677C88.162 12.9187 85.54 10.4597 80.265 10.4597ZM112.925 10.4597C110.998 10.4597 109.008 10.8897 106.987 11.7197C105.092 12.5197 103.26 13.6567 101.459 15.1627L100.575 11.1977H92.678V37.7537H102.66V20.0197C103.765 19.5897 104.744 19.2517 105.534 19.0667C106.576 18.8217 107.555 18.6987 108.471 18.6987C109.356 18.6987 109.956 18.8517 110.303 19.1897C110.651 19.5277 110.84 20.1117 110.84 20.9417V37.7857H120.821V17.8677C120.853 12.9187 118.2 10.4597 112.925 10.4597ZM191.858 11.1977H183.298C181.15 11.1977 179.887 12.2117 179.571 14.2407L177.171 24.0767C176.979 24.706 176.862 25.3558 176.823 26.0127C176.76 26.6577 176.697 27.3347 176.634 28.0107H176.128C176.093 27.3434 176.04 26.6771 175.97 26.0127C175.908 25.3564 175.781 24.7079 175.591 24.0767L173.128 14.2407C172.97 13.1957 172.591 12.4267 171.959 11.9347C171.327 11.4437 170.474 11.1977 169.464 11.1977H161.062C158.788 11.1977 157.651 12.3037 157.587 14.5177L156.924 37.7537H165.926L166.463 18.2667H167.126L170.474 31.1457C170.664 32.0987 171.075 32.8357 171.706 33.3587C172.338 33.8817 173.191 34.1267 174.202 34.1267H178.592C179.603 34.1267 180.456 33.8817 181.087 33.3587C181.719 32.8367 182.13 32.0987 182.319 31.1457L185.541 18.2357H186.267L186.994 37.7237H195.964L195.238 14.4867C195.206 12.3037 194.069 11.1967 191.858 11.1967V11.1977ZM221.738 11.4127C220.033 10.7667 217.948 10.4597 215.516 10.4597C214.158 10.4597 212.578 10.5217 210.746 10.6437C208.921 10.7606 207.099 10.9246 205.282 11.1357C203.694 11.2977 202.114 11.5235 200.544 11.8127L201.429 18.0527C203.703 17.8977 205.882 17.8057 207.967 17.7447C209.725 17.6885 211.483 17.6575 213.242 17.6517C214.632 17.6517 215.579 17.8977 216.116 18.3587C216.653 18.8507 216.937 19.6187 216.969 20.7257V21.4327H207.809C205.124 21.4327 203.008 22.0167 201.46 23.2157C199.913 24.4147 199.123 26.0737 199.123 28.2257V30.8997C199.123 32.5597 199.533 33.9737 200.355 35.0797C201.176 36.1867 202.281 37.0167 203.671 37.5997C205.061 38.1847 206.577 38.4607 208.22 38.4607C210.02 38.4607 211.599 38.1847 212.926 37.6007C214.284 37.0167 215.421 36.3097 216.4 35.4487C217 34.8957 217.537 34.3117 218.011 33.7587L218.959 37.7537H226.918V20.8187C226.918 18.1757 226.476 16.1167 225.592 14.6107C224.739 13.1047 223.444 12.0577 221.738 11.4127ZM216.937 29.8237C216.116 30.3467 215.295 30.7457 214.474 31.0837C213.463 31.4837 212.484 31.6687 211.568 31.6687C210.652 31.6687 209.957 31.4837 209.515 31.1147C209.041 30.7467 208.82 30.2237 208.82 29.5477V28.5327C208.82 27.8877 209.009 27.3957 209.388 26.9967C209.767 26.5967 210.399 26.4127 211.22 26.3817H216.937V29.8237ZM249.881 21.9857L243.185 20.3877C241.89 20.0187 241.037 19.7727 240.564 19.5887C240.09 19.4047 239.837 19.0657 239.837 18.5127C239.837 18.0827 239.963 17.8057 240.185 17.6217C240.437 17.4677 240.879 17.3757 241.543 17.3137C242.206 17.2837 243.185 17.2527 244.512 17.2527C246.186 17.2527 247.955 17.2527 249.755 17.2827C251.555 17.3137 253.356 17.3137 255.156 17.3137L255.82 11.5357C254.682 11.2897 253.324 11.1057 251.745 10.9517C250.166 10.7977 248.555 10.6747 246.944 10.5827C245.419 10.4889 243.892 10.4376 242.364 10.4287C239.332 10.4287 236.931 10.7057 235.131 11.2897C233.362 11.8737 232.099 12.7037 231.309 13.8407C230.519 14.9777 230.14 16.3917 230.14 18.1437C230.14 19.5277 230.33 20.7567 230.677 21.8327C231.056 22.9087 231.72 23.8307 232.73 24.5987C233.741 25.3987 235.162 26.0127 237.026 26.5347L243.438 28.1947C244.828 28.5647 245.807 28.8407 246.344 29.0247C246.881 29.2097 247.165 29.5777 247.165 30.1317C247.165 30.5617 247.007 30.8687 246.691 31.0847C246.375 31.2997 245.775 31.4227 244.859 31.4847C243.943 31.5447 242.585 31.5757 240.785 31.5757H236.994C235.699 31.5757 234.562 31.5757 233.52 31.5457C232.478 31.5147 231.688 31.5147 231.119 31.5147L230.519 37.3247C233.362 37.7847 236.015 38.0617 238.416 38.1847C240.816 38.2767 242.648 38.3387 243.912 38.3387C246.944 38.3387 249.408 38.0927 251.334 37.6007C253.229 37.1087 254.619 36.2477 255.472 35.0187C256.325 33.7887 256.767 32.0687 256.767 29.8547C256.767 27.5497 256.199 25.7977 255.061 24.6607C254.019 23.4607 252.25 22.6007 249.881 21.9857ZM272.844 4.03566H262.863V11.2287L258.188 11.4737V17.2527H262.895L262.926 31.0847C262.926 33.3897 263.653 35.2027 265.137 36.4947C266.622 37.7847 268.643 38.4307 271.202 38.4307C271.96 38.4307 272.876 38.3997 273.95 38.3077C275.008 38.2218 276.062 38.0883 277.108 37.9077C278.151 37.7237 279.035 37.5077 279.762 37.2007L278.656 30.8387H275.466C274.518 30.8387 273.824 30.6537 273.444 30.3157C273.034 29.9467 272.844 29.3937 272.844 28.5947V17.2217H279.92V11.1977H272.844V4.03566ZM307.905 25.1517C309.326 24.0147 310.021 22.2017 309.989 19.7417C309.989 16.6687 308.947 14.3637 306.862 12.7957C304.778 11.2287 301.272 10.4597 296.376 10.4597C292.838 10.4597 289.964 10.9207 287.784 11.8117C285.605 12.7347 284.026 14.2097 283.047 16.2687C282.067 18.3287 281.562 21.1257 281.562 24.5987C281.562 27.7027 282.036 30.2847 283.015 32.3137C283.994 34.3737 285.573 35.8797 287.753 36.8937C289.964 37.8767 292.87 38.3997 296.534 38.3997C298.05 38.3997 299.534 38.3387 301.051 38.1847C302.567 38.0307 304.02 37.8157 305.409 37.4777C306.749 37.1825 308.052 36.7391 309.294 36.1557L308.347 30.2857C306.231 30.5007 304.209 30.6537 302.282 30.7457C300.736 30.8233 299.187 30.8643 297.639 30.8687C296.123 30.8687 294.986 30.6537 294.165 30.2237C293.344 29.7937 292.775 29.0557 292.459 28.0417C292.35 27.6581 292.266 27.268 292.207 26.8737H300.356C303.956 26.8427 306.483 26.2897 307.905 25.1517ZM297.544 21.9857H292.049C292.112 20.8487 292.206 19.9267 292.396 19.2507C292.649 18.2977 293.122 17.6517 293.786 17.3137C294.449 17.0067 295.428 16.8537 296.723 16.8837C298.081 16.8837 299.029 17.0677 299.566 17.4067C300.103 17.7757 300.419 18.4517 300.45 19.4967C300.45 20.4187 300.261 21.0637 299.913 21.4327C299.566 21.8017 298.776 21.9857 297.544 21.9857ZM332.952 10.4597C331.152 10.4597 329.288 10.8897 327.393 11.7197C325.593 12.5197 323.824 13.6567 322.118 15.1937L321.234 11.2277H313.432V37.7847H323.413V20.5107C324.72 20.1931 326.037 19.9163 327.362 19.6807C328.562 19.4807 329.777 19.378 330.994 19.3737H333.616L334.5 10.4597H332.952Z" fill="#FC481E"/>
<path d="M330.432 53.9082C331.317 53.9082 332.055 54.0281 332.645 54.2678C333.249 54.4935 333.706 54.8883 334.015 55.4524C334.338 56.0024 334.5 56.7639 334.5 57.737V64.6329H332.013L331.57 62.3695L331.38 62.0522V57.7158C331.366 57.2222 331.24 56.8626 331.001 56.637C330.776 56.4114 330.347 56.2985 329.715 56.2985C329.167 56.2985 328.492 56.3197 327.691 56.362C326.89 56.3902 326.068 56.4325 325.225 56.4889L324.93 54.4159C325.436 54.3172 326.019 54.2326 326.68 54.1621C327.34 54.0915 328.001 54.0351 328.661 53.9928C329.322 53.9364 329.912 53.9082 330.432 53.9082ZM333.214 58.2023L333.193 59.958L328.577 59.9792C328.197 59.9792 327.923 60.0709 327.755 60.2542C327.586 60.4375 327.502 60.6843 327.502 60.9946V61.5022C327.502 61.8548 327.6 62.1298 327.797 62.3272C328.008 62.5105 328.324 62.6022 328.745 62.6022C329.111 62.6022 329.504 62.5246 329.926 62.3695C330.361 62.2144 330.79 61.9958 331.212 61.7138C331.633 61.4317 332.006 61.1003 332.329 60.7196V62.0734C332.216 62.2849 332.034 62.5528 331.781 62.8772C331.542 63.1874 331.233 63.4977 330.853 63.8079C330.474 64.1041 330.024 64.3579 329.504 64.5695C328.998 64.781 328.422 64.8868 327.776 64.8868C327.143 64.8868 326.574 64.7739 326.068 64.5483C325.562 64.3227 325.162 63.9913 324.867 63.5541C324.572 63.1169 324.424 62.574 324.424 61.9253V60.8465C324.424 60.0145 324.705 59.3658 325.267 58.9004C325.829 58.435 326.602 58.2023 327.586 58.2023H333.214Z" fill="white"/>
<path d="M322.876 54.185C322.623 54.9747 322.405 55.6446 322.223 56.1946C322.04 56.7446 321.857 57.2029 321.675 57.5695C321.506 57.9221 321.316 58.2041 321.106 58.4157C320.895 58.6272 320.628 58.7894 320.305 58.9022C319.995 59.015 319.609 59.0996 319.145 59.156V59.2407C319.623 59.3112 320.024 59.4028 320.347 59.5156C320.684 59.6144 320.972 59.7765 321.211 60.0022C321.45 60.2137 321.668 60.5099 321.864 60.8906C322.061 61.2714 322.265 61.7649 322.476 62.3713C322.687 62.9777 322.932 63.7322 323.214 64.6347H319.967C319.714 63.845 319.497 63.1893 319.314 62.6675C319.145 62.1457 318.984 61.7226 318.829 61.3983C318.674 61.0739 318.506 60.8342 318.323 60.6791C318.155 60.524 317.951 60.4252 317.712 60.3829C317.487 60.3265 317.206 60.2983 316.869 60.2983L316.827 58.1618C317.248 58.1618 317.592 58.1054 317.859 57.9926C318.126 57.8798 318.351 57.6824 318.534 57.4003C318.731 57.1042 318.913 56.7023 319.082 56.1946C319.265 55.6728 319.475 55.003 319.714 54.185H322.876ZM316.152 54.185V56.8715C316.152 57.2523 316.11 57.6471 316.026 58.0561C315.955 58.4509 315.85 58.8176 315.709 59.156C315.836 59.4804 315.941 59.8329 316.026 60.2137C316.11 60.5804 316.152 60.9118 316.152 61.2079V64.6347H313.032V54.185H316.152ZM317.649 58.1618V60.2983H315.372V58.1618H317.649Z" fill="white"/>
<path d="M310.328 54.1857V64.6354H307.209V54.1857H310.328ZM309.464 49.5743C310.068 49.5743 310.371 49.8916 310.371 50.5262V51.6473C310.371 52.2819 310.068 52.5992 309.464 52.5992H308.094C307.476 52.5992 307.167 52.2819 307.167 51.6473V50.5262C307.167 49.8916 307.476 49.5743 308.094 49.5743H309.464Z" fill="white"/>
<path d="M297.439 54.185V64.6347H294.361V54.185H297.439ZM301.613 58.0561V60.1926H297.313V58.0561H301.613ZM304.501 54.185V64.6347H301.423V54.185H304.501Z" fill="white"/>
<path d="M292.584 54.185L289.569 59.283L292.816 64.6347H289.633L286.576 59.283L289.422 54.185H292.584ZM284.679 54.185L287.525 59.283L284.447 64.6347H281.264L284.51 59.283L281.517 54.185H284.679ZM288.705 58.2676V60.2137H285.417V58.2676H288.705Z" fill="white"/>
<path d="M275.517 53.9082C277.287 53.9082 278.552 54.2114 279.311 54.8178C280.07 55.4101 280.456 56.2985 280.47 57.4831C280.484 58.4421 280.245 59.1613 279.754 59.6408C279.262 60.1061 278.412 60.3388 277.203 60.3388H271.364V58.5831H276.339C276.803 58.5831 277.105 58.4844 277.245 58.2869C277.386 58.0754 277.449 57.7863 277.435 57.4197C277.435 56.9261 277.294 56.5876 277.013 56.4043C276.746 56.2069 276.283 56.1082 275.622 56.1082C275.046 56.1082 274.596 56.1857 274.273 56.3408C273.964 56.496 273.746 56.7921 273.62 57.2293C273.493 57.6664 273.43 58.301 273.43 59.1331C273.43 60.0074 273.507 60.6843 273.662 61.1638C273.816 61.6292 274.076 61.9535 274.442 62.1368C274.821 62.3202 275.334 62.4118 275.98 62.4118C276.472 62.4118 277.07 62.3977 277.772 62.3695C278.489 62.3272 279.206 62.2638 279.922 62.1791L280.196 64.1041C279.803 64.3015 279.346 64.4566 278.826 64.5695C278.306 64.6823 277.772 64.7598 277.224 64.8021C276.676 64.8586 276.142 64.8868 275.622 64.8868C274.315 64.8868 273.254 64.6964 272.439 64.3156C271.638 63.9208 271.055 63.3214 270.69 62.5176C270.338 61.7138 270.163 60.6843 270.163 59.4292C270.163 58.0613 270.345 56.9754 270.711 56.1716C271.076 55.3678 271.652 54.7896 272.439 54.437C273.226 54.0845 274.252 53.9082 275.517 53.9082Z" fill="white"/>
<path d="M265.552 54.185V64.6347H262.432V54.185H265.552ZM269.009 54.185V56.5965H258.954V54.185H269.009Z" fill="white"/>
<path d="M248.729 53.9082C249.614 53.9082 250.352 54.0281 250.942 54.2678C251.547 54.4935 252.003 54.8883 252.312 55.4524C252.636 56.0024 252.797 56.7639 252.797 57.737V64.6329H250.31L249.867 62.3695L249.678 62.0522V57.7158C249.664 57.2222 249.537 56.8626 249.298 56.637C249.073 56.4114 248.645 56.2985 248.012 56.2985C247.464 56.2985 246.79 56.3197 245.989 56.362C245.188 56.3902 244.366 56.4325 243.522 56.4889L243.227 54.4159C243.733 54.3172 244.316 54.2326 244.977 54.1621C245.637 54.0915 246.298 54.0351 246.958 53.9928C247.619 53.9364 248.209 53.9082 248.729 53.9082ZM251.511 58.2023L251.49 59.958L246.874 59.9792C246.495 59.9792 246.221 60.0709 246.052 60.2542C245.883 60.4375 245.799 60.6843 245.799 60.9946V61.5022C245.799 61.8548 245.897 62.1298 246.094 62.3272C246.305 62.5105 246.621 62.6022 247.043 62.6022C247.408 62.6022 247.802 62.5246 248.223 62.3695C248.659 62.2144 249.087 61.9958 249.509 61.7138C249.931 61.4317 250.303 61.1003 250.626 60.7196V62.0734C250.514 62.2849 250.331 62.5528 250.078 62.8772C249.839 63.1874 249.53 63.4977 249.151 63.8079C248.771 64.1041 248.321 64.3579 247.802 64.5695C247.296 64.781 246.719 64.8868 246.073 64.8868C245.441 64.8868 244.872 64.7739 244.366 64.5483C243.86 64.3227 243.459 63.9913 243.164 63.5541C242.869 63.1169 242.721 62.574 242.721 61.9253V60.8465C242.721 60.0145 243.002 59.3658 243.565 58.9004C244.127 58.435 244.9 58.2023 245.883 58.2023H251.511Z" fill="white"/>
<path d="M236.161 54.0776C237.299 54.0776 238.199 54.1552 238.859 54.3103C239.52 54.4654 239.998 54.7475 240.293 55.1564C240.588 55.5513 240.735 56.1154 240.735 56.8487C240.735 57.5961 240.56 58.1602 240.208 58.5409C239.857 58.9217 239.274 59.1473 238.459 59.2179V59.3025C239.442 59.3589 240.131 59.6268 240.525 60.1063C240.932 60.5717 241.136 61.2204 241.136 62.0524C241.136 62.7716 240.981 63.3357 240.672 63.7446C240.377 64.1395 239.906 64.4145 239.26 64.5696C238.627 64.7248 237.791 64.8023 236.751 64.8023C235.922 64.8023 235.192 64.7953 234.559 64.7812C233.927 64.7812 233.337 64.7671 232.788 64.7389C232.254 64.7247 231.706 64.7036 231.144 64.6754L231.418 62.6658C231.727 62.6799 232.311 62.694 233.168 62.7081C234.039 62.7081 235.065 62.7081 236.245 62.7081C236.681 62.7081 237.032 62.6729 237.299 62.6024C237.566 62.5319 237.756 62.4049 237.869 62.2216C237.981 62.0242 238.037 61.7562 238.037 61.4178C238.037 60.9101 237.897 60.5717 237.616 60.4024C237.349 60.2191 236.871 60.1274 236.182 60.1274H231.397V58.3929H236.182C236.604 58.3929 236.934 58.3647 237.173 58.3083C237.412 58.2377 237.58 58.1179 237.679 57.9487C237.777 57.7794 237.826 57.5467 237.826 57.2506C237.826 56.9545 237.77 56.7288 237.658 56.5737C237.545 56.4186 237.356 56.3128 237.089 56.2564C236.836 56.1859 236.477 56.1506 236.014 56.1506C235.311 56.1365 234.686 56.1295 234.138 56.1295C233.589 56.1295 233.098 56.1295 232.662 56.1295C232.226 56.1295 231.812 56.1506 231.418 56.1929L231.144 54.2045C231.65 54.1622 232.142 54.134 232.62 54.1199C233.112 54.1058 233.639 54.0988 234.201 54.0988C234.763 54.0847 235.416 54.0776 236.161 54.0776ZM234.074 54.2045V64.6754H231.144V54.2045H234.074Z" fill="white"/>
<path d="M223.623 53.9082C224.93 53.9082 225.977 54.0915 226.764 54.4582C227.551 54.8108 228.113 55.3889 228.45 56.1928C228.801 56.9966 228.977 58.0754 228.977 59.4292C228.977 60.7548 228.801 61.8195 228.45 62.6234C228.113 63.4272 227.551 64.0054 226.764 64.3579C225.977 64.7105 224.93 64.8868 223.623 64.8868C222.316 64.8868 221.269 64.7105 220.482 64.3579C219.695 64.0054 219.126 63.4272 218.775 62.6234C218.423 61.8195 218.248 60.7548 218.248 59.4292C218.248 58.0754 218.423 56.9966 218.775 56.1928C219.126 55.3889 219.695 54.8108 220.482 54.4582C221.269 54.0915 222.316 53.9082 223.623 53.9082ZM223.623 56.1928C223.089 56.1928 222.667 56.2844 222.358 56.4678C222.049 56.6511 221.831 56.9754 221.705 57.4408C221.578 57.9062 221.515 58.569 221.515 59.4292C221.515 60.2753 221.578 60.9311 221.705 61.3965C221.831 61.8618 222.049 62.1862 222.358 62.3695C222.667 62.5387 223.089 62.6234 223.623 62.6234C224.157 62.6234 224.578 62.5387 224.888 62.3695C225.197 62.1862 225.408 61.8618 225.52 61.3965C225.646 60.9311 225.71 60.2753 225.71 59.4292C225.71 58.569 225.646 57.9062 225.52 57.4408C225.408 56.9754 225.197 56.6511 224.888 56.4678C224.578 56.2844 224.157 56.1928 223.623 56.1928Z" fill="white"/>
<path d="M213.615 54.185V64.6347H210.495V54.185H213.615ZM217.072 54.185V56.5965H207.017V54.185H217.072Z" fill="white"/>
<path d="M206.44 54.185L202.709 64.7617C202.512 65.4245 202.259 65.9956 201.95 66.4751C201.655 66.9545 201.318 67.3565 200.938 67.6808C200.559 68.0193 200.13 68.2943 199.652 68.5058C199.062 68.8019 198.416 68.9641 197.713 68.9923C197.011 69.0205 196.294 68.9712 195.563 68.8442L195.816 66.8135C196.42 66.8276 196.954 66.7994 197.418 66.7289C197.882 66.6725 198.282 66.5456 198.62 66.3482C198.887 66.1789 199.133 65.9321 199.357 65.6078C199.582 65.2975 199.765 64.9591 199.905 64.5924L200.475 63.2386C200.615 62.9143 200.742 62.5335 200.854 62.0963C200.966 61.6592 201.065 61.2784 201.149 60.9541L203.109 54.185H206.44ZM198.177 54.185L200.158 60.9541C200.215 61.222 200.271 61.49 200.327 61.7579C200.383 62.0258 200.432 62.2938 200.475 62.5617H201.044L200.053 64.6347H199.294C199.041 64.6347 198.823 64.5642 198.641 64.4232C198.472 64.2822 198.346 64.0989 198.261 63.8732L194.846 54.185H198.177Z" fill="white"/>
<path d="M192.949 49L193.455 51.3903C192.991 51.6583 192.541 51.8486 192.106 51.9615C191.684 52.0743 191.27 52.1518 190.862 52.1941C190.455 52.2223 190.047 52.2576 189.64 52.2999C189.246 52.3281 188.839 52.3986 188.417 52.5114C187.925 52.6525 187.525 52.8358 187.215 53.0614C186.906 53.2871 186.667 53.5409 186.499 53.8229C186.344 54.0909 186.225 54.38 186.14 54.6902C186.014 54.9582 185.93 55.2261 185.887 55.4941C185.845 55.7479 185.803 55.9947 185.761 56.2344H185.824C186.007 55.9947 186.204 55.7761 186.414 55.5787C186.625 55.3671 186.871 55.1838 187.152 55.0287C187.447 54.8736 187.792 54.7537 188.185 54.6691C188.593 54.5845 189.063 54.5422 189.597 54.5422C190.694 54.5422 191.565 54.7114 192.211 55.0498C192.858 55.3883 193.321 55.9242 193.602 56.6575C193.884 57.3767 194.024 58.3286 194.024 59.5132C194.024 60.6837 193.869 61.6708 193.56 62.4746C193.251 63.2643 192.717 63.8637 191.958 64.2727C191.213 64.6816 190.181 64.8861 188.86 64.8861C187.834 64.8861 186.984 64.7733 186.309 64.5476C185.649 64.322 185.122 64.0118 184.728 63.6169C184.349 63.222 184.068 62.7426 183.885 62.1785C183.716 61.6144 183.604 60.9939 183.548 60.317C183.505 59.6401 183.484 58.9209 183.484 58.1594C183.484 57.1158 183.534 56.171 183.632 55.3248C183.73 54.4646 183.913 53.7031 184.18 53.0403C184.447 52.3775 184.833 51.8134 185.339 51.348C185.859 50.8826 186.534 50.5089 187.363 50.2269C187.855 50.0718 188.333 49.9589 188.796 49.8884C189.26 49.8179 189.717 49.7615 190.167 49.7192C190.63 49.6769 191.087 49.6064 191.537 49.5077C192 49.409 192.471 49.2397 192.949 49ZM188.817 56.5729C188.213 56.5729 187.756 56.6716 187.447 56.869C187.152 57.0664 186.948 57.3767 186.836 57.7998C186.738 58.2087 186.688 58.7728 186.688 59.492C186.688 60.3099 186.752 60.9516 186.878 61.417C187.005 61.8682 187.215 62.1855 187.511 62.3689C187.806 62.5381 188.213 62.6227 188.733 62.6227C189.239 62.6227 189.64 62.5381 189.935 62.3689C190.23 62.1855 190.441 61.8682 190.567 61.417C190.694 60.9657 190.757 60.324 190.757 59.492C190.757 58.7164 190.701 58.1171 190.588 57.694C190.476 57.2709 190.279 56.9818 189.998 56.8267C189.717 56.6575 189.323 56.5729 188.817 56.5729Z" fill="white"/>
<path d="M176.153 53.9082C177.46 53.9082 178.507 54.0915 179.294 54.4582C180.081 54.8108 180.643 55.3889 180.981 56.1928C181.332 56.9966 181.508 58.0754 181.508 59.4292C181.508 60.7548 181.332 61.8195 180.981 62.6234C180.643 63.4272 180.081 64.0054 179.294 64.3579C178.507 64.7105 177.46 64.8868 176.153 64.8868C174.846 64.8868 173.8 64.7105 173.013 64.3579C172.226 64.0054 171.656 63.4272 171.305 62.6234C170.954 61.8195 170.778 60.7548 170.778 59.4292C170.778 58.0754 170.954 56.9966 171.305 56.1928C171.656 55.3889 172.226 54.8108 173.013 54.4582C173.8 54.0915 174.846 53.9082 176.153 53.9082ZM176.153 56.1928C175.619 56.1928 175.198 56.2844 174.889 56.4678C174.579 56.6511 174.362 56.9754 174.235 57.4408C174.109 57.9062 174.045 58.569 174.045 59.4292C174.045 60.2753 174.109 60.9311 174.235 61.3965C174.362 61.8618 174.579 62.1862 174.889 62.3695C175.198 62.5387 175.619 62.6234 176.153 62.6234C176.687 62.6234 177.109 62.5387 177.418 62.3695C177.727 62.1862 177.938 61.8618 178.051 61.3965C178.177 60.9311 178.24 60.2753 178.24 59.4292C178.24 58.569 178.177 57.9062 178.051 57.4408C177.938 56.9754 177.727 56.6511 177.418 56.4678C177.109 56.2844 176.687 56.1928 176.153 56.1928Z" fill="white"/>
<path d="M168.614 54.185V64.6347H165.558V54.185H168.614ZM161.658 54.185V64.6347H158.623V54.185H161.658ZM165.768 54.185L165.747 56.3638H161.532V54.185H165.768Z" fill="white"/>
<path d="M147.47 53.9082C148.356 53.9082 149.093 54.0281 149.684 54.2678C150.288 54.4935 150.745 54.8883 151.054 55.4524C151.377 56.0024 151.539 56.7639 151.539 57.737V64.6329H149.051L148.609 62.3695L148.419 62.0522V57.7158C148.405 57.2222 148.278 56.8626 148.04 56.637C147.815 56.4114 147.386 56.2985 146.754 56.2985C146.206 56.2985 145.531 56.3197 144.73 56.362C143.929 56.3902 143.107 56.4325 142.264 56.4889L141.969 54.4159C142.475 54.3172 143.058 54.2326 143.718 54.1621C144.379 54.0915 145.039 54.0351 145.7 53.9928C146.36 53.9364 146.95 53.9082 147.47 53.9082ZM150.253 58.2023L150.232 59.958L145.615 59.9792C145.236 59.9792 144.962 60.0709 144.793 60.2542C144.625 60.4375 144.54 60.6843 144.54 60.9946V61.5022C144.54 61.8548 144.639 62.1298 144.835 62.3272C145.046 62.5105 145.362 62.6022 145.784 62.6022C146.149 62.6022 146.543 62.5246 146.964 62.3695C147.4 62.2144 147.829 61.9958 148.25 61.7138C148.672 61.4317 149.044 61.1003 149.368 60.7196V62.0734C149.255 62.2849 149.072 62.5528 148.819 62.8772C148.581 63.1874 148.271 63.4977 147.892 63.8079C147.513 64.1041 147.063 64.3579 146.543 64.5695C146.037 64.781 145.461 64.8868 144.814 64.8868C144.182 64.8868 143.613 64.7739 143.107 64.5483C142.601 64.3227 142.201 63.9913 141.905 63.5541C141.61 63.1169 141.463 62.574 141.463 61.9253V60.8465C141.463 60.0145 141.744 59.3658 142.306 58.9004C142.868 58.435 143.641 58.2023 144.625 58.2023H150.253Z" fill="white"/>
<path d="M136.832 54.185V64.6347H133.713V54.185H136.832ZM140.289 54.185V56.5965H130.235V54.185H140.289Z" fill="white"/>
<path d="M120.01 53.9082C120.895 53.9082 121.633 54.0281 122.223 54.2678C122.827 54.4935 123.284 54.8883 123.593 55.4524C123.916 56.0024 124.078 56.7639 124.078 57.737V64.6329H121.591L121.148 62.3695L120.958 62.0522V57.7158C120.944 57.2222 120.818 56.8626 120.579 56.637C120.354 56.4114 119.925 56.2985 119.293 56.2985C118.745 56.2985 118.07 56.3197 117.269 56.362C116.468 56.3902 115.646 56.4325 114.803 56.4889L114.508 54.4159C115.014 54.3172 115.597 54.2326 116.258 54.1621C116.918 54.0915 117.579 54.0351 118.239 53.9928C118.9 53.9364 119.49 53.9082 120.01 53.9082ZM122.792 58.2023L122.771 59.958L118.155 59.9792C117.775 59.9792 117.501 60.0709 117.333 60.2542C117.164 60.4375 117.08 60.6843 117.08 60.9946V61.5022C117.08 61.8548 117.178 62.1298 117.375 62.3272C117.586 62.5105 117.902 62.6022 118.323 62.6022C118.689 62.6022 119.082 62.5246 119.504 62.3695C119.939 62.2144 120.368 61.9958 120.79 61.7138C121.211 61.4317 121.584 61.1003 121.907 60.7196V62.0734C121.794 62.2849 121.612 62.5528 121.359 62.8772C121.12 63.1874 120.811 63.4977 120.431 63.8079C120.052 64.1041 119.602 64.3579 119.082 64.5695C118.576 64.781 118 64.8868 117.354 64.8868C116.721 64.8868 116.152 64.7739 115.646 64.5483C115.14 64.3227 114.74 63.9913 114.445 63.5541C114.15 63.1169 114.002 62.574 114.002 61.9253V60.8465C114.002 60.0145 114.283 59.3658 114.845 58.9004C115.407 58.435 116.18 58.2023 117.164 58.2023H122.792Z" fill="white"/>
<path d="M112.454 54.185C112.201 54.9747 111.984 55.6446 111.801 56.1946C111.618 56.7446 111.435 57.2029 111.253 57.5695C111.084 57.9221 110.894 58.2041 110.684 58.4157C110.473 58.6272 110.206 58.7894 109.883 58.9022C109.573 59.015 109.187 59.0996 108.723 59.156V59.2407C109.201 59.3112 109.602 59.4028 109.925 59.5156C110.262 59.6144 110.55 59.7765 110.789 60.0022C111.028 60.2137 111.246 60.5099 111.442 60.8906C111.639 61.2714 111.843 61.7649 112.054 62.3713C112.265 62.9777 112.51 63.7322 112.792 64.6347H109.545C109.292 63.845 109.075 63.1893 108.892 62.6675C108.723 62.1457 108.562 61.7226 108.407 61.3983C108.252 61.0739 108.084 60.8342 107.901 60.6791C107.733 60.524 107.529 60.4252 107.29 60.3829C107.065 60.3265 106.784 60.2983 106.447 60.2983L106.405 58.1618C106.826 58.1618 107.17 58.1054 107.437 57.9926C107.704 57.8798 107.929 57.6824 108.112 57.4003C108.309 57.1042 108.491 56.7023 108.66 56.1946C108.843 55.6728 109.054 55.003 109.292 54.185H112.454ZM105.73 54.185V56.8715C105.73 57.2523 105.688 57.6471 105.604 58.0561C105.533 58.4509 105.428 58.8176 105.287 59.156C105.414 59.4804 105.519 59.8329 105.604 60.2137C105.688 60.5804 105.73 60.9118 105.73 61.2079V64.6347H102.61V54.185H105.73ZM107.227 58.1618V60.2983H104.95V58.1618H107.227Z" fill="white"/>
<path d="M99.9064 54.1857V64.6354H96.7867V54.1857H99.9064ZM99.0422 49.5743C99.6464 49.5743 99.9486 49.8916 99.9486 50.5262V51.6473C99.9486 52.2819 99.6464 52.5992 99.0422 52.5992H97.672C97.0537 52.5992 96.7445 52.2819 96.7445 51.6473V50.5262C96.7445 49.8916 97.0537 49.5743 97.672 49.5743H99.0422Z" fill="white"/>
<path d="M87.0171 54.185V64.6347H83.9395V54.185H87.0171ZM91.1908 58.0561V60.1926H86.8906V58.0561H91.1908ZM94.0786 54.185V64.6347H91.001V54.185H94.0786Z" fill="white"/>
<path d="M76.4181 53.9082C77.725 53.9082 78.7719 54.0915 79.5589 54.4582C80.3458 54.8108 80.9079 55.3889 81.2452 56.1928C81.5965 56.9966 81.7722 58.0754 81.7722 59.4292C81.7722 60.7548 81.5965 61.8195 81.2452 62.6234C80.9079 63.4272 80.3458 64.0054 79.5589 64.3579C78.7719 64.7105 77.725 64.8868 76.4181 64.8868C75.1112 64.8868 74.0642 64.7105 73.2773 64.3579C72.4903 64.0054 71.9212 63.4272 71.5698 62.6234C71.2185 61.8195 71.0429 60.7548 71.0429 59.4292C71.0429 58.0754 71.2185 56.9966 71.5698 56.1928C71.9212 55.3889 72.4903 54.8108 73.2773 54.4582C74.0642 54.0915 75.1112 53.9082 76.4181 53.9082ZM76.4181 56.1928C75.8841 56.1928 75.4625 56.2844 75.1533 56.4678C74.8442 56.6511 74.6263 56.9754 74.4999 57.4408C74.3734 57.9062 74.3101 58.569 74.3101 59.4292C74.3101 60.2753 74.3734 60.9311 74.4999 61.3965C74.6263 61.8618 74.8442 62.1862 75.1533 62.3695C75.4625 62.5387 75.8841 62.6234 76.4181 62.6234C76.9521 62.6234 77.3737 62.5387 77.6828 62.3695C77.992 62.1862 78.2028 61.8618 78.3152 61.3965C78.4417 60.9311 78.5049 60.2753 78.5049 59.4292C78.5049 58.569 78.4417 57.9062 78.3152 57.4408C78.2028 56.9754 77.992 56.6511 77.6828 56.4678C77.3737 56.2844 76.9521 56.1928 76.4181 56.1928Z" fill="white"/>
<path d="M65.6346 53.9289C66.9556 53.9289 67.8971 54.4083 68.4593 55.3673C69.0214 56.3262 69.3024 57.7012 69.3024 59.4922C69.3024 60.8883 69.1549 61.9812 68.8598 62.7709C68.5647 63.5607 68.122 64.1177 67.5318 64.442C66.9556 64.7523 66.2319 64.9074 65.3606 64.9074C64.6299 64.9074 63.9202 64.8016 63.2316 64.5901C62.5571 64.3786 61.9668 64.026 61.4609 63.5325L61.6507 62.1363C62.1284 62.2774 62.5571 62.4043 62.9365 62.5171C63.3159 62.6158 63.7516 62.6652 64.2434 62.6652C64.6931 62.6652 65.0514 62.5876 65.3184 62.4325C65.5854 62.2774 65.7752 61.9742 65.8876 61.5229C66.0141 61.0575 66.0773 60.3877 66.0773 59.5133C66.0773 58.6531 66.0211 57.9974 65.9087 57.5461C65.7962 57.0807 65.6136 56.7634 65.3606 56.5942C65.1217 56.4109 64.7985 56.3192 64.391 56.3192C63.9272 56.3192 63.5056 56.4109 63.1262 56.5942C62.7468 56.7634 62.3182 57.0102 61.8404 57.3345L61.4399 55.8961C61.7209 55.5154 62.0793 55.1769 62.5149 54.8808C62.9646 54.5846 63.4564 54.3519 63.9904 54.1827C64.5245 54.0135 65.0725 53.9289 65.6346 53.9289ZM61.3134 54.1827L61.6296 56.0865L61.9036 56.4038V63.194L61.7982 63.4478C61.8404 63.8709 61.8685 64.3081 61.8825 64.7593C61.9106 65.2247 61.9177 65.683 61.9036 66.1343V68.6515H58.805V54.1827H61.3134Z" fill="white"/>
<path d="M53.627 54.185V64.6347H50.5073V54.185H53.627ZM57.084 54.185V56.5965H47.0292V54.185H57.084Z" fill="white"/>
<path d="M45.8817 54.185C45.6288 54.9747 45.411 55.6446 45.2283 56.1946C45.0456 56.7446 44.8629 57.2029 44.6802 57.5695C44.5116 57.9221 44.3219 58.2041 44.1111 58.4157C43.9003 58.6272 43.6333 58.7894 43.3101 58.9022C43.0009 59.015 42.6144 59.0996 42.1507 59.156V59.2407C42.6285 59.3112 43.029 59.4028 43.3522 59.5156C43.6895 59.6144 43.9776 59.7765 44.2165 60.0022C44.4554 60.2137 44.6732 60.5099 44.8699 60.8906C45.0667 61.2714 45.2704 61.7649 45.4812 62.3713C45.692 62.9777 45.9379 63.7322 46.219 64.6347H42.9728C42.7198 63.845 42.502 63.1893 42.3193 62.6675C42.1507 62.1457 41.9891 61.7226 41.8345 61.3983C41.6799 61.0739 41.5113 60.8342 41.3286 60.6791C41.16 60.524 40.9562 60.4252 40.7173 60.3829C40.4925 60.3265 40.2114 60.2983 39.8741 60.2983L39.832 58.1618C40.2536 58.1618 40.5979 58.1054 40.8649 57.9926C41.1319 57.8798 41.3567 57.6824 41.5394 57.4003C41.7361 57.1042 41.9188 56.7023 42.0875 56.1946C42.2701 55.6728 42.4809 55.003 42.7198 54.185H45.8817ZM39.1574 54.185V56.8715C39.1574 57.2523 39.1153 57.6471 39.031 58.0561C38.9607 58.4509 38.8553 58.8176 38.7148 59.156C38.8413 59.4804 38.9466 59.8329 39.031 60.2137C39.1153 60.5804 39.1574 60.9118 39.1574 61.2079V64.6347H36.0377V54.185H39.1574ZM40.6541 58.1618V60.2983H38.3775V58.1618H40.6541Z" fill="white"/>
<path d="M29.0088 53.9082C30.7795 53.9082 32.0442 54.2114 32.8031 54.8178C33.5619 55.4101 33.9484 56.2985 33.9624 57.4831C33.9765 58.4421 33.7376 59.1613 33.2457 59.6408C32.7539 60.1061 31.9037 60.3388 30.6952 60.3388H24.8562V58.5831H29.8309C30.2946 58.5831 30.5968 58.4844 30.7373 58.2869C30.8778 58.0754 30.9411 57.7863 30.927 57.4197C30.927 56.9261 30.7865 56.5876 30.5054 56.4043C30.2384 56.2069 29.7747 56.1082 29.1142 56.1082C28.538 56.1082 28.0884 56.1857 27.7651 56.3408C27.456 56.496 27.2382 56.7921 27.1117 57.2293C26.9852 57.6664 26.922 58.301 26.922 59.1331C26.922 60.0074 26.9993 60.6843 27.1538 61.1638C27.3084 61.6292 27.5684 61.9535 27.9338 62.1368C28.3132 62.3202 28.8261 62.4118 29.4726 62.4118C29.9644 62.4118 30.5617 62.3977 31.2643 62.3695C31.981 62.3272 32.6977 62.2638 33.4144 62.1791L33.6884 64.1041C33.2949 64.3015 32.8382 64.4566 32.3183 64.5695C31.7983 64.6823 31.2643 64.7598 30.7162 64.8021C30.1682 64.8586 29.6342 64.8868 29.1142 64.8868C27.8073 64.8868 26.7463 64.6964 25.9312 64.3156C25.1302 63.9208 24.547 63.3214 24.1817 62.5176C23.8303 61.7138 23.6547 60.6843 23.6547 59.4292C23.6547 58.0613 23.8374 56.9754 24.2027 56.1716C24.5681 55.3678 25.1443 54.7896 25.9312 54.437C26.7182 54.0845 27.7441 53.9082 29.0088 53.9082Z" fill="white"/>
<path d="M21.2137 54.185V56.3427H16.9978C16.6465 56.3427 16.3865 56.4273 16.2179 56.5965C16.0493 56.7516 15.9439 57.0055 15.9017 57.358C15.8315 57.9362 15.7542 58.5214 15.6698 59.1137C15.5996 59.6919 15.5223 60.249 15.438 60.7848C15.3537 61.3066 15.2553 61.7579 15.1429 62.1387C14.9883 62.8861 14.7002 63.4643 14.2786 63.8732C13.8711 64.2681 13.3722 64.529 12.782 64.6559C12.2058 64.7969 11.5734 64.8251 10.8849 64.7405L10.5687 62.4348C10.8919 62.3643 11.1729 62.2938 11.4118 62.2233C11.6507 62.1528 11.8404 62.047 11.981 61.906C12.1356 61.7649 12.255 61.5605 12.3393 61.2925C12.4236 61.0528 12.5009 60.7707 12.5712 60.4464C12.6415 60.1079 12.7047 59.7413 12.7609 59.3464C12.8171 58.9516 12.8663 58.5355 12.9085 58.0984C12.9506 57.6612 12.9928 57.224 13.0349 56.7869C13.1193 55.9266 13.3792 55.2779 13.8149 54.8408C14.2646 54.4036 14.9321 54.185 15.8174 54.185H21.2137ZM21.4877 54.185V64.6347H18.3891V54.185H21.4877Z" fill="white"/>
<path d="M2.59865 49.975C3.37156 49.975 4.15851 49.9821 4.95953 49.9962C5.76054 49.9962 6.5475 50.0103 7.3204 50.0385C8.10736 50.0667 8.83811 50.1161 9.51264 50.1866L9.36509 52.5346H3.77909C3.42777 52.5346 3.16076 52.6262 2.97808 52.8096C2.80944 52.9929 2.72513 53.2608 2.72513 53.6134V61.0593C2.72513 61.4119 2.80944 61.6798 2.97808 61.8632C3.16076 62.0465 3.42777 62.1382 3.77909 62.1382H9.36509L9.51264 64.4862C8.83811 64.5426 8.10736 64.5919 7.3204 64.6342C6.5475 64.6624 5.76054 64.6765 4.95953 64.6765C4.15851 64.6907 3.37156 64.6977 2.59865 64.6977C1.67116 64.6977 0.919337 64.4298 0.34317 63.8939C-0.218943 63.3439 -0.5 62.6317 -0.5 61.7574V52.9153C-0.5 52.0269 -0.218943 51.3147 0.34317 50.7789C0.919337 50.243 1.67116 49.975 2.59865 49.975ZM-0.141653 55.8979H8.56408V58.1825H-0.141653V55.8979Z" fill="white"/>
</g>
<defs>
<clipPath id="clip0_4590_4021">
<rect width="335" height="69" fill="white"/>
</clipPath>
</defs>
</svg>
