<svg xmlns="http://www.w3.org/2000/svg" id="Layer_1" x="0" y="0" version="1.1" viewBox="0 0 170.2 69.9" xml:space="preserve">
  <defs/>
  <path d="M12.3 45.5c4.9 0 10.2 2.7 11.1 9h-5.9c-.8-2.4-2.6-3.5-5.2-3.5-3.5 0-5.9 2.7-5.9 6.6 0 3.5 2.3 6.5 5.9 6.5 2.6 0 4.6-1.3 5.3-3.8h5.9c-.9 6.7-6.2 9.3-11.2 9.3-6 0-12.1-4-12.1-12 .1-8 6.1-12.1 12.1-12.1zM26.7 57.7c0-16.3 24.2-16.3 24.2 0s-24.2 16.3-24.2 0zm18.1 0c0-8.5-11.8-8.5-11.8 0-.1 8.5 11.8 8.5 11.8 0zM76.3 45.7h2.2v23.7h-6.2V58.9l-5 5.3h-.7l-5-5.3v10.5h-6.2V45.7h2.2L66.8 56l9.5-10.3zM84.5 69.4V45.8h10.4c11.3 0 11.3 17.6 0 17.6h-4.4v6h-6zm10.3-18.2h-4.3v6.7h4.3c3.4.1 3.6-6.7 0-6.7zM120.5 66.5h-9.3l-1.4 3h-5.9v-.9l10.6-23h2.6l10.7 23v.9h-5.9l-1.4-3zm-4.7-11.4l-2.6 6.2h5.3l-2.7-6.2zM142.4 62.4c0-1.7-2-1.9-4.3-2.1-5.1-.4-8.5-2.1-8.6-7.3-.2-10.2 18.1-10.2 18 0h-5.7c0-3.1-6.3-2.9-6.5-.1-.1 1.8 1.6 2.2 3.7 2.4 4.7.5 9.3 1.1 9.3 7 0 9.9-19.2 10.2-19.1-.2h5.8c.1 3.1 7.4 3 7.4.3zM164.3 62.4c0-1.7-2-1.9-4.3-2.1-5.1-.4-8.5-2.1-8.6-7.3-.2-10.2 18.1-10.2 18 0h-5.7c0-3.1-6.3-2.9-6.5-.1-.1 1.8 1.6 2.2 3.7 2.4 4.7.5 9.3 1.1 9.3 7 0 9.9-19.2 10.2-19.1-.2h5.8c0 3.1 7.4 3 7.4.3z" fill="#fff"/>
  <g>
    <path d="M23.8 32.3H10.5l-2 4.3H0v-1.3l15.2-33h3.7l15.3 33v1.3h-8.5l-1.9-4.3zM17.1 16l-3.8 8.9H21L17.1 16zM67.3 35.3v1.3h-9.7l-5.8-10h-4.5v10h-8.7V2.8h14.8c13.3 0 15.7 16.1 7.2 21.9l6.7 10.6zM53.5 10.4h-6.2v8.4h6.2c4.7 0 4.9-8.3 0-8.4zM69.2 10.4V2.7h25.1v7.7H86v26.1h-8.6V10.4h-8.2z" fill="#ff2641"/>
  </g>
  <path d="M139.3 24.6l-8.3 4.9c-.1.1-.1.2-.1.4h-.3c-2.1 0-3.8 1.7-3.8 3.7-.1 0-.2 0-.3.1l-4.9 8.3c-.2.3.1.6.4.4l8.3-4.9s0-.1.1-.1h.2c2.1 0 3.8-1.7 3.8-3.8v-.2c.1.1.3.1.4-.1l4.9-8.3c.1-.2-.2-.5-.4-.4zm-8.7 11.3c-1.3 0-2.3-1-2.3-2.3s1-2.3 2.3-2.3c1.3 0 2.3 1 2.3 2.3s-1 2.3-2.3 2.3z" fill="#fff"/>
  <g>
    <path d="M146.3 21.7l.3-.3.4-.4.2-.2 1.4-1.4.6-.6.1-.1.1-.1v-.1l-.1-.1-.1-.1-.1-.1c-.1-.1-.1-.1-.1-.2-.1-.1-.1-.1-.2 0l-.7.6-.5.5-.5.5c-.3.2-.5.5-.8.8l-.2.2-.6.7-.4.4.2-.6.2-.5c0-.1.1-.2.1-.5 0-.1.1-.3.2-.7.1-.3.2-.6.3-.7l.4-1 .3-.8c.1-.2.1-.4.2-.5v-.2c0-.1-.1-.2-.2-.3l-.6-.6-.1-.1-.1-.1c-.1-.1-.2-.1-.4 0-.2.2-.5.4-.8.8-.1.1-.5.5-1.3 1.2l-.5.5c-.1.1-.4.3-.7.7l-.8.8-.3.3-.3.3-.1.1v.1s0 .1.1.2l.4.3.3.3.3.3.2.1.1.1s.1 0 .1-.1l.2-.3.4-.4.5-.5c.4-.4.7-.8 1.1-1.2l.6-.6.4-.4.6-.7-.2.6-.3.9c-.5 1.3-.8 2.1-.9 2.4s-.3.8-.6 1.4c0 .1-.1.2-.1.3 0 .1-.1.1-.1.2v.2s0 .1.1.1l.2.2.1.1c.1.1.2.1.3 0l.4-.4c.5-.6.8-.9.8-.8l.5-.5zM154.8 35.7v-4l-7.6 2zM130.6 16.3l2-7.8h-4zM138.4 14.1l2.3-2.8-1.6-.8zM152.4 26.1l-.7-1.7-2.8 2.3zM106.4 35.7l7.6-2-7.6-2zM111.8 18.3l6.8 4.1-4-7zM122.1 10.5l-1.6.8 2.3 2.8zM108.8 26.1l3.5.6-2.8-2.3z" fill="#fff"/>
  </g>
  <path d="M102.9 36.3c-.1-.9-.1-1.9-.1-2.8 0-15.3 12.5-27.8 27.8-27.8s27.8 12.5 27.8 27.8c0 .9 0 1.9-.1 2.8h5.6c.1-.9.1-1.9.1-2.8C164 15.1 149 0 130.5 0S97 15 97 33.5c0 .9.1 1.9.1 2.8h5.8z" fill="#fff"/>
</svg>
