<svg xmlns="http://www.w3.org/2000/svg" fill="none" viewBox="0 0 619 233"><path fill="#0B4EBF" d="M239.779 65.056h-24.081v-20.79h71.198v20.79h-24.082v124.739h-23.035V65.056ZM298.048 44.266h34.133c11.867 0 20.522 2.772 25.967 8.316 5.444 5.406 8.167 13.79 8.167 25.156v8.94c0 15.107-5.026 24.67-15.078 28.69v.415c5.585 1.664 9.493 5.059 11.727 10.188 2.373 5.128 3.56 11.988 3.56 20.582v25.571c0 4.158.14 7.554.419 10.187.279 2.495.977 4.99 2.094 7.484h-23.454c-.837-2.356-1.396-4.573-1.675-6.652-.279-2.079-.419-5.821-.419-11.227v-26.611c0-6.653-1.116-11.296-3.35-13.929-2.094-2.633-5.794-3.95-11.099-3.95h-7.957v62.369h-23.035V44.266Zm31.411 62.37c4.607 0 8.027-1.178 10.261-3.534 2.373-2.357 3.56-6.307 3.56-11.85V80.024c0-5.267-.977-9.078-2.932-11.435-1.815-2.356-4.746-3.534-8.795-3.534h-10.47v41.58h8.376ZM400.306 44.266h31.201l23.872 145.529h-23.034l-4.188-28.897v.415h-26.176l-4.188 28.482h-21.36l23.873-145.529Zm25.128 97.297L415.173 69.63h-.418l-10.052 71.933h20.731ZM498.604 191.874c-11.029 0-19.475-3.118-25.338-9.355-5.724-6.237-8.586-15.038-8.586-26.403v-78.17c0-11.365 2.862-20.166 8.586-26.403 5.863-6.237 14.309-9.356 25.338-9.356 11.028 0 19.405 3.119 25.128 9.356 5.864 6.237 8.795 15.038 8.795 26.403V93.33h-21.778V76.49c0-9.008-3.839-13.513-11.517-13.513-7.678 0-11.517 4.505-11.517 13.514v81.288c0 8.87 3.839 13.306 11.517 13.306 7.678 0 11.517-4.436 11.517-13.306v-22.245h21.778v20.582c0 11.365-2.931 20.166-8.795 26.403-5.723 6.237-14.1 9.355-25.128 9.355ZM546.309 44.266h62.822v20.79h-39.787v38.461h31.62v20.79h-31.62v44.699h39.787v20.789h-62.822V44.266Z"/><path fill="#0B4EBF" fill-rule="evenodd" d="M149.648 122.782c-13.39-5.297-25.021-14.578-25.021-14.578 9.064 10.911 16.089 16.11 22.523 19.215.86-1.556 1.693-3.102 2.498-4.637Zm8.122-17.857c-25.531-7.827-57.482-34.202-61.571-50.554 1.088 4.642 2.132 9.198 3.156 13.67v.001c7.647 33.395 14.225 62.12 30.515 87.182a528.684 528.684 0 0 1-8.892 12.667c-12.085-21.295-19.634-50.06-26.456-113.866-5.916 63.722-14.556 92.355-26.61 113.551-.46-.638-.92-1.278-1.38-1.922a524.088 524.088 0 0 1-7.172-10.266c16.368-25.1 22.958-53.878 30.622-87.346 1.025-4.473 2.068-9.029 3.156-13.671-4.1 16.394-36.204 42.863-61.767 50.614-2.675-7.187-3.966-13.034-3.966-17.356 0-36.637 30.066-66.337 67.154-66.337 37.088 0 67.154 29.7 67.154 66.337 0 4.31-1.284 10.136-3.943 17.296ZM42.014 127.502c6.481-3.095 13.55-8.289 22.696-19.298 0 0-11.736 9.365-25.202 14.65a236.712 236.712 0 0 0 2.506 4.648ZM179.25 87.629c0 35.549-50.134 100.101-73.256 127.983-6.93 8.356-11.434 13.419-11.434 13.419s-4.504-5.063-11.434-13.419C60.003 187.73 9.87 123.178 9.87 87.629c0-46.204 37.917-83.66 84.69-83.66 46.773 0 84.69 37.456 84.69 83.66Z" clip-rule="evenodd"/></svg>