<svg xmlns="http://www.w3.org/2000/svg" fill="none" viewBox="0 0 131 56"><g fill-rule="evenodd" clip-path="url(#a)" clip-rule="evenodd"><path fill="#4c4d50" d="m33.096 55.565-9.301-17.16h-9.027l.07 17.16H.091V.082h26.803c1.286 0 2.594.25 3.928.751 1.331.5 2.617 1.169 3.858 2.002a23.584 23.584 0 0 1 3.445 2.825 21.168 21.168 0 0 1 2.687 3.216c.92 1.383 1.62 2.993 2.101 4.827.483 1.835.724 3.587.724 5.255 0 2.765-.62 5.339-1.86 7.722-1.24 2.383-2.963 4.386-5.168 6.005l12.54 22.88H33.098Zm83.511 0V27.036l-11.438 19.592a1.063 1.063 0 0 1-.69.572 2.96 2.96 0 0 1-.825.143c-.276 0-.575-.047-.896-.143a1.064 1.064 0 0 1-.69-.572L90.631 27.036v28.529H76.643V.082h13.092c.458 0 .85.215 1.17.644l12.68 21.95L116.331.725c.322-.43.689-.644 1.103-.644h13.16v55.483h-13.987Zm-63.323 0V.082h14.402v55.483H53.284ZM22.692 12.45h-8.337v11.94h8.337a6.053 6.053 0 0 0 4.272-1.74 6.265 6.265 0 0 0 1.31-1.883c.32-.712.482-1.493.482-2.346 0-.852-.163-1.634-.482-2.345a6.24 6.24 0 0 0-1.31-1.883 6.043 6.043 0 0 0-4.272-1.743Z"/><path fill="#F5F6F6" d="M124.507 42.68v3.432h-.979v-4.547h.224c.756 0 1.512.099 2.212.408 1.641.724 2.465 2.268 2.465 4.083 0 2.747-2.002 4.553-4.593 4.553-2.565-.001-4.545-1.864-4.545-4.565 0-1.883.783-3.421 2.55-4.076l.3-.113v1.123l-.136.06c-1.257.562-1.711 1.646-1.698 3.016.021 2.119 1.534 3.465 3.529 3.465 2.019-.002 3.565-1.295 3.565-3.463.001-1.885-1.153-3.156-2.894-3.377Zm.579-5.827v2.31h3.222v1.104h-8.896v-3.601c0-1.755 1.106-3.174 2.855-3.174 1.355-.002 2.34.889 2.667 2.175l2.973-2.54h.401v1.046l-3.222 2.68Zm-4.683 2.324h3.704v-2.511c0-1.152-.689-2.095-1.852-2.095-1.161-.002-1.852.944-1.852 2.096v2.51Zm8.038-11.35c0 2.762-1.941 4.654-4.581 4.654-2.622-.001-4.581-1.91-4.581-4.653 0-2.76 1.937-4.677 4.581-4.677 2.653-.002 4.581 1.903 4.581 4.676Zm-1.014 0c0-2.14-1.535-3.573-3.567-3.573-2.03-.001-3.553 1.422-3.553 3.562 0 2.146 1.516 3.562 3.553 3.562 2.022-.002 3.566-1.413 3.567-3.551Zm-2.239-6.038h-5.776v-1.092h5.764c1.434 0 2.225-.986 2.225-2.433.001-1.446-.8-2.41-2.226-2.41l-5.763-.002v-1.078h5.776c2.01 0 3.229 1.45 3.229 3.49 0 2.039-1.208 3.526-3.229 3.525Zm.26-10.03h2.86v1.09H119.4v-.232c0-1.132-.005-2.263 0-3.393.008-1.838 1.231-3.275 3.035-3.275 1.808-.002 3.013 1.442 3.013 3.276v2.534Zm-5.045 0h4.03V9.223c0-1.227-.796-2.183-2.009-2.183-1.228-.002-2.021.936-2.021 2.185v2.534Z"/></g><defs><clipPath id="a"><path fill="#fff" d="M0 0h131v56H0z"/></clipPath></defs></svg>
