<svg xmlns="http://www.w3.org/2000/svg" fill="none" viewBox="0 0 132 48">
	<defs />
	<path fill="#000" fill-rule="evenodd" d="M74.905 4.682c-2.96.4-4.86.774-7.607 1.493-1.07.28-8.843 2.826-9.713 3.181-.18.074-1.014.382-1.85.683-2.042.736-3.586 1.471-3.956 1.883l-.304.339.562-.102c.31-.057 1.473-.41 2.586-.787 3.466-1.17 6.384-2.124 7.73-2.524 1.266-.376 3.952-.904 4.059-.798.082.081-2.5 2.55-3.45 3.298-.46.362-1.178.854-1.594 1.092l-.757.433-4.492-.171c-14.528-.556-20.47-.687-23.51-.518-6.346.354-10.593 1.834-13.76 4.794-1.262 1.18-2.21 2.373-2.72 3.424-.307.631-.393 1.078-.443 2.291-.035.83-.004 1.779.068 2.11.115.53.188.609.602.65l.472.045.064-1.628c.056-1.428.126-1.775.571-2.816.368-.858.727-1.403 1.302-1.973.736-.73.86-.794 1.705-.881.642-.067 1.198-.255 1.884-.64.8-.447 2.08-1.358 2.42-1.72.224-.24 1.219-.904 1.75-1.169.679-.338 2.274-.707 4.107-.948 3.227-.427 17.628-.271 28.527.307 6.396.34 16.819-.025 17.408-.61.098-.096-1.544-.147-4.727-.147-2.682 0-5.396-.043-6.032-.097l-1.156-.097 2.084-2.266a199.152 199.152 0 012.44-2.623c.34-.34.521-.367 4.108-.591 4.062-.255 11.256-.208 14.098.093 4.043.426 6.957 1.05 7.7 1.646.262.21.296.321.17.555-.321.594-.74.792-2.165 1.026-.795.131-2.198.375-3.119.542-.92.167-2.58.455-3.69.64-1.347.226-2.015.4-2.015.529 0 .228-.083.226 1.521.038 3.711-.434 10.028-.81 14.528-.864 4.659-.055 4.911-.044 5.933.27.587.18 1.273.42 1.524.531 1.432.635 4.123 1.394 5.762 1.625l1.228.173.418.98c.382.897.418 1.146.422 2.95.004 1.358-.068 2.215-.232 2.761-.13.435-.216.973-.19 1.195.042.363.09.32.469-.434.567-1.125.769-2.453.651-4.286-.203-3.16-1.198-5.272-2.892-6.137l-.601-.306.487-.432c.268-.237.487-.483.487-.546 0-.064-.298-.302-.662-.53-.578-.361-.817-.415-1.864-.416-1.559-.001-3.739-.245-4.7-.526-.419-.122-1.892-.492-3.275-.822-1.383-.33-3.129-.78-3.88-1-2.454-.717-3.466-.965-5.477-1.34-5.423-1.011-14.694-1.417-19.014-.832zm11.098.913c4.129.308 8.54 1.148 14.462 2.754 4.93 1.337 6.797 1.707 9.443 1.875 1.644.104 1.781.134 1.446.32-.312.174-.654.173-2.206-.002-2.432-.275-8.411-.227-10.65.087-.913.128-1.93.232-2.258.232h-.596l.394-.667c.517-.873.497-1.158-.1-1.495-1.058-.597-6.153-1.436-10.592-1.745-3.278-.228-9.216-.198-12.267.063-3.538.302-3.271.327-3.271-.3 0-.52.009-.528.647-.528.355 0 1.194-.073 1.863-.162 3.931-.524 9.92-.713 13.685-.432zm11.19 7.524c-.208.069-.756.238-1.216.377-1.9.575-3.96 2.264-5.838 4.789l-.869 1.168-.792-.003c-.436-.001-1.58-.07-2.543-.151-5.457-.464-8.827-.599-14.91-.595-5.878.003-13.274.283-13.504.511-.245.243.41.268 3.8.145 6.199-.224 17.04.08 22.408.63 4.25.436 5.105.943 5.724 3.399.29 1.15.612 1.791.897 1.791.06 0 .145-.627.19-1.394.218-3.773 2.882-7.1 6.738-8.417.925-.316 1.332-.36 3.263-.36 1.922 0 2.344.045 3.271.357 2.141.72 4.183 2.551 5.438 4.878.858 1.59 1.117 1.575.634-.037-.614-2.05-2.254-4.185-4.139-5.392-1.417-.907-1.808-1.083-3.274-1.472-1.122-.298-1.742-.368-3.147-.36-.962.007-1.92.068-2.13.136zM27.74 15.536c-1.195.372-3.113 1.666-4.275 2.885-1.75 1.835-2.343 3.185-2.343 5.331 0 1.45.076 1.73.473 1.73.224 0 .288-.11.288-.493 0-.675.535-2.534.93-3.23.617-1.088 1.186-1.812 2.023-2.57 1.072-.97 1.95-1.452 3.539-1.943 1.155-.357 1.435-.386 3.057-.316 3.028.13 4.83.99 6.631 3.167.964 1.165 2.077 3.252 2.077 3.895 0 .286.078.435.228.435.276 0 .276.021.005-1.246-.709-3.313-3.192-6.317-6.096-7.375-.778-.283-1.276-.336-3.494-.37-1.422-.023-2.792.022-3.043.1zm86.496 1.35c-.165.307-.215 3.288-.062 3.685.055.142.272.238.537.238h.445l-.043-1.98c-.04-1.893-.057-1.985-.382-2.104-.261-.096-.377-.058-.495.161zM43.559 19.19c.035.104.345 1.104.69 2.223.958 3.111 1.08 3.467 1.191 3.467.057 0 .267-.458.467-1.018.467-1.307 1.178-2.732 1.579-3.165.298-.322.427-.339 2.52-.339 2.228 0 3.218.172 3.218.558 0 .468-2.193 2.352-3.078 2.644-.094.031-.12.137-.06.235.31.495 3.977-2.151 4.595-3.314.118-.223.175-.508.126-.634-.205-.53-2.215-.845-5.388-.845-2.433 0-2.544.013-2.855.34-.37.391-.758 1.238-1.016 2.22l-.178.675-.257-.51c-.141-.281-.257-.591-.257-.69 0-.363-.943-2.035-1.148-2.035-.116 0-.183.084-.149.188zm-25.74 1.572c-.338.512-.475 3.257-.206 4.147.165.543.219.588.66.545.361-.035.504-.139.584-.424.168-.603.15-4.06-.023-4.38-.223-.414-.702-.361-1.015.112zm34.949 5.728c-.293.126-.583.307-.644.402-.154.239-.146 1.118.012 1.214.07.043.482-.055.914-.217.433-.163.947-.296 1.144-.296.554 0 1.16.552 1.16 1.055 0 .773-.713 1.206-1.987 1.206h-.751v1.356h1.072c.935 0 1.12.047 1.445.37.205.204.373.546.373.76 0 .215-.168.558-.373.761-.298.296-.529.37-1.146.37-.425 0-1.017-.101-1.316-.225-.3-.124-.605-.188-.68-.142-.155.095-.174.587-.042 1.076.139.512 1.367.86 2.657.752 1.207-.1 1.743-.342 2.4-1.082.42-.474.478-.648.478-1.419 0-1.004-.338-1.575-1.127-1.903l-.468-.195.43-.194c.512-.231 1.013-1.135 1.013-1.824-.001-.638-.472-1.398-1.102-1.778-.62-.375-2.636-.402-3.462-.047zm8.258-.132c-.102.064-.29.42-.42.789-.128.37-.296.808-.373.973-.076.166-.36.946-.63 1.734-.27.787-.72 2.094-1 2.903-.709 2.046-.701 2.097.289 2.04l.798-.045.299-.942.298-.942h3.104l.363.942.362.942.886.046.885.046-.079-.498c-.043-.274-.217-.871-.385-1.327-.168-.456-.757-2.114-1.308-3.684-.55-1.57-1.087-2.908-1.191-2.974-.245-.154-1.655-.156-1.898-.003zm6.31-.022c-.147.04-.303.22-.347.401-.045.18-.062 2.058-.038 4.172l.042 3.843h1.674l.04-3.429.042-3.429H71.78l.041 3.43.04 3.428H73.537l.037-3.994c.021-2.35-.023-4.087-.109-4.22-.12-.186-.648-.23-3.004-.251-1.572-.014-2.978.008-3.124.049zm7.828.081c-.236.233-.244 2.762-.012 3.674.105.412.339.811.607 1.035.516.43 1.842.735 2.888.663l.746-.051V33.1c0 .86.067 1.43.183 1.545.1.1.51.18.913.18h.73v-4.204c0-4.605.045-4.387-.915-4.387-.797 0-.91.283-.91 2.272v1.798h-.92c-.775 0-.98-.059-1.294-.37-.347-.344-.373-.478-.373-1.879 0-1.337-.034-1.526-.295-1.665-.397-.21-1.124-.197-1.349.025zm10.224-.065c-.25.165-.495.68-.896 1.888-.199.597-.774 2.273-1.278 3.723-.504 1.45-.86 2.693-.792 2.76.068.068.458.102.866.076l.742-.047.303-.942.302-.942H87.713l.372.942.372.942.87.046c.656.034.868-.006.868-.162 0-.23-.403-1.527-.62-1.994a10.66 10.66 0 01-.353-.98c-.678-2.168-1.8-5.075-2.022-5.237-.278-.204-1.539-.254-1.813-.073zm7.394.198c-1.494.672-2.154 1.794-2.25 3.831-.036.746.01 1.635.103 1.974.256.942.998 1.848 1.815 2.219.973.441 2.74.455 3.603.028.532-.264.615-.375.657-.883.078-.948-.037-1.08-.626-.719-1.112.68-2.507.547-3.139-.3-.417-.559-.61-1.788-.457-2.908.135-.984.615-1.68 1.32-1.91.601-.196 1.694-.072 2.11.24.158.118.41.217.562.22.233.004.267-.103.228-.707-.043-.656-.095-.74-.655-1.053-.812-.454-2.298-.469-3.271-.032zm4.54-.148c-.082.05-.126.389-.1.754l.048.663 1.18.044 1.178.044V34.843l.799-.046.799-.046.041-3.429.041-3.429h1.031c.6 0 1.108-.076 1.214-.18.248-.246.233-1.167-.021-1.263-.293-.112-6.034-.157-6.21-.049zm7.515-.04c-.15.094-.184 1.049-.152 4.256l.04 4.134h1.502l1.76-2.594 1.759-2.594.076 2.594.076 2.594h1.673l.041-4.134c.044-4.487.065-4.375-.813-4.38-.587-.002-.722.149-2.491 2.787-.778 1.16-1.509 2.21-1.624 2.33-.178.189-.209-.162-.209-2.357 0-2.832.024-2.764-.964-2.76-.265.002-.568.057-.674.124zm-17.596 5.112c-.028.028-.533.032-1.121.007l-1.07-.045.557-1.687.556-1.688.566 1.68c.31.925.541 1.704.512 1.733zM62.39 29.627c.213.663.433 1.358.49 1.545.1.33.074.339-1.03.339h-1.134l.55-1.654c.301-.91.59-1.605.642-1.545.052.06.269.651.482 1.315zm15.178 7.229c0 .12.15.358.333.527.622.574 1.948.301 2.144-.442.065-.245.008-.306-.285-.306-.201 0-.366.066-.366.146 0 .08-.143.221-.319.314-.26.139-.379.113-.656-.145-.39-.364-.85-.415-.85-.095zM21.006 39.08c-.2 1.273-.712 2.53-1.032 2.53-.171 0-.221.224-.221.989v.989l.494-.047c.455-.044.495-.09.495-.575v-.528l1.33-.043 1.332-.044v.609c0 .576.025.609.457.609h.456v-.98c0-.874-.032-.98-.3-.98-.278 0-.302-.124-.342-1.77l-.043-1.772-1.227-.043-1.227-.043-.172 1.1zm4.756-.81c-.617.373-.777.592-.978 1.335-.613 2.274 1.95 3.826 3.562 2.158.56-.579.718-1.93.316-2.699-.516-.988-1.937-1.378-2.9-.794zm4.625.064c-.951.63-1.307 1.92-.838 3.032.31.737 1.332 1.195 2.362 1.06.757-.1.774-.113.774-.61 0-.572.002-.571-.514-.338-1.289.581-2.399-1.217-1.377-2.23.342-.339.488-.379 1.142-.317.733.07.749.063.749-.342 0-.48-.221-.597-1.131-.597-.422 0-.83.12-1.167.342zm2.708-.246c-.058.057-.106.263-.106.457 0 .31.073.351.609.351h.608v3.467h1.065v-3.467h.619c.585 0 .616-.022.57-.414l-.048-.415-1.605-.042c-.883-.024-1.653.005-1.712.063zm4.655.092c-.08.104-.44 1.003-.8 1.997-.36.995-.687 1.894-.727 1.998-.049.129.103.188.485.188.482 0 .578-.061.716-.452.147-.418.215-.453.89-.453.676 0 .743.035.89.453.136.385.238.452.686.452h.526l-.275-.867c-.436-1.376-.86-2.512-1.13-3.027-.19-.367-.349-.477-.682-.477-.239 0-.5.085-.579.188zm3.252-.088c-.056.056-.101 1.039-.101 2.186v2.085h1.208c1.039 0 1.263-.048 1.592-.34.622-.55.66-1.078.118-1.616-.254-.25-.399-.456-.324-.456.076 0 .251-.172.39-.383.547-.825-.39-1.576-1.965-1.576-.45 0-.862.045-.918.1zm3.963-.006c-.06.059-.109 1.045-.109 2.192v2.085h1.065v-1.856l.63.928.628.928h1.129c1.121 0 1.13-.003 1.29-.46.155-.44.194-.457.937-.414.685.04.785.089.863.422.073.31.193.385.674.424.506.042.573.012.5-.226-.048-.15-.39-1.122-.76-2.158-.665-1.858-.681-1.884-1.172-1.932-.273-.027-.564.017-.645.097-.081.08-.472 1.044-.87 2.141l-.72 1.995-.443-.635c-.244-.35-.603-.833-.798-1.074l-.354-.438.697-.907c.383-.5.697-.975.697-1.057 0-.082-.194-.15-.43-.15-.454 0-.768.279-1.404 1.243l-.372.563-.077-.865c-.07-.79-.109-.869-.462-.91-.212-.024-.435.004-.494.064zm9.882.006c-.056.056-.101 1.039-.101 2.186v2.085h1.065v-3.467h1.673v3.467h1.065v-4.371h-1.8c-.99 0-1.846.045-1.902.1zm5.408.222c-.669.425-.946 1.006-.94 1.969.007.91.187 1.305.821 1.798.35.271.629.344 1.283.335.776-.011.878-.056 1.418-.63.535-.569.58-.685.579-1.49-.003-1.046-.212-1.503-.897-1.96a2.126 2.126 0 00-2.264-.022zm5.711-.238c-.063.065-.114 1.055-.114 2.202v2.085h1.073c.646 0 1.244-.088 1.505-.222.77-.394.878-1.48.19-1.905-.28-.174-.28-.186-.007-.458.417-.413.366-1.122-.103-1.426-.41-.266-2.348-.476-2.544-.276zm4.757.195c-.74.393-1.098.937-1.181 1.793-.141 1.45.728 2.388 2.186 2.359.93-.019 1.123-.135 1.123-.675 0-.392-.046-.453-.266-.361-1.272.53-2.236-.252-1.943-1.575.14-.634.73-.967 1.545-.876.642.071.664.06.664-.344 0-.241-.102-.456-.24-.509-.468-.177-1.369-.088-1.888.188zm2.838-.179c-.056.056-.102 1.039-.102 2.186v2.085h1.37c1.359 0 1.369-.003 1.369-.377 0-.352-.05-.377-.76-.377h-.761v-.527c0-.525.003-.528.684-.528.63 0 .685-.03.685-.377 0-.346-.056-.376-.685-.376-.659 0-.684-.017-.684-.453 0-.435.025-.452.684-.452.66 0 .685-.017.685-.452v-.452h-1.192c-.655 0-1.237.045-1.293.1zm3.354-.006c-.06.059-.108 1.045-.108 2.192v2.085h.522c.493 0 .578-.083 1.484-1.452l.96-1.451.044 1.451.043 1.452h.911l-.043-2.148-.042-2.148-.488-.047c-.464-.044-.533.022-1.4 1.357l-.913 1.403-.044-1.356c-.044-1.327-.054-1.358-.431-1.401-.213-.025-.435.003-.495.063zm6.13.06c0 .085.273.736.608 1.447.335.71.609 1.38.609 1.485 0 .311-.417.564-.754.458-.267-.084-.311-.033-.311.365 0 .48.123.545.895.476.482-.043.824-.463 1.484-1.823 1.204-2.478 1.222-2.562.566-2.562-.39 0-.687.383-.962 1.243-.1.311-.23.566-.291.566-.06 0-.2-.255-.309-.566-.337-.956-.587-1.243-1.083-1.243-.249 0-.453.07-.453.154zm4.107 2.031v2.205l.495-.047.494-.047v-.943c0-.518.004-.942.01-.942.005 0 .303.441.663.98.62.926.688.98 1.247.98.325 0 .59-.05.59-.113-.001-.062-.344-.55-.761-1.082-.418-.533-.76-1.008-.76-1.055 0-.048.309-.475.685-.95.377-.475.685-.933.685-1.017 0-.085-.236-.154-.523-.154-.476 0-.58.087-1.162.98-.352.538-.647.98-.657.98-.01 0-.017-.424-.017-.942v-.943l-.494-.047-.495-.047v2.204zm4.058-2.085c-.056.056-.102 1.039-.102 2.186v2.085h1.065v-.754c0-.733.012-.753.447-.753.714 0 1.193-.253 1.464-.772.366-.701.1-1.519-.604-1.85-.51-.239-2.073-.337-2.27-.142zm4.255.314a6.55 6.55 0 00-.373.942 32.83 32.83 0 01-.625 1.734 35.635 35.635 0 00-.468 1.243c0 .02.265.038.59.038.533 0 .598-.043.68-.452.087-.431.127-.453.864-.453.721 0 .783.03.932.453.134.383.238.452.676.452.285 0 .518-.03.518-.066 0-.205-1.403-3.937-1.543-4.104-.092-.11-.363-.201-.602-.201-.32 0-.49.109-.65.414zm3.359-.32c-.06.059-.109 1.045-.109 2.192v2.085l.57-.009c.553-.008.602-.056 1.52-1.47l.948-1.46.002 1.47.003 1.469h.921l-.042-2.148c-.042-2.121-.046-2.148-.397-2.198-.463-.065-.719.181-1.629 1.561l-.755 1.144-.076-1.327c-.073-1.286-.088-1.33-.462-1.372-.212-.025-.435.003-.494.063zm4.868 0c-.059.059-.108 1.045-.108 2.192v2.085h1.065v-1.658h1.674v1.658h1.073l-.042-2.148-.043-2.148h-.456c-.449 0-.457.014-.502.867l-.046.867H104.664l-.046-.867c-.042-.802-.074-.87-.431-.911-.213-.025-.435.003-.495.063zm4.716 0c-.059.059-.108 1.045-.108 2.192v2.085h1.294c1.278 0 1.293-.005 1.293-.377 0-.352-.051-.377-.761-.377h-.761v-.527c0-.525.004-.528.685-.528.629 0 .685-.03.685-.377 0-.346-.056-.376-.685-.376-.659 0-.685-.017-.685-.453 0-.443.016-.452.771-.452.751 0 .77-.01.723-.414-.047-.407-.069-.416-1.196-.458-.632-.024-1.196.004-1.255.063zm-65.864.757c.271.071.34.182.305.487-.036.305-.142.406-.465.443-.387.044-.418.008-.418-.49 0-.568.025-.587.578-.44zm24.952 0c.27.071.34.182.304.487-.038.324-.135.404-.54.442-.456.044-.495.013-.495-.389 0-.63.105-.707.731-.54zm-44.853 1.41v1.356h-1.355l.217-.61c.12-.335.262-.945.317-1.356.088-.657.143-.747.46-.747.354 0 .361.03.361 1.357zm4.784-1.156c.182.132.302.463.351.968.066.677.028.814-.317 1.156-.509.504-.783.49-1.349-.071-.406-.402-.454-.536-.382-1.067.046-.334.202-.738.347-.897.307-.336.95-.378 1.35-.089zm34.688.09c.366.4.374 1.571.014 1.966-.597.653-1.322.495-1.685-.367-.22-.52-.112-1.249.247-1.678.26-.31 1.111-.264 1.424.079zm31.03.048c.23.364-.05.778-.569.84-.378.044-.403.01-.403-.576 0-.585.025-.62.403-.575.222.026.478.166.57.311zm-54.46.98c.095.302.054.34-.377.34-.398 0-.465-.047-.38-.265.057-.145.143-.459.192-.698l.088-.435.186.36c.103.197.234.511.292.698zm12.255.301c.001.021-.208.038-.465.038-.5 0-.504-.04-.105-1.055.142-.363.156-.351.358.302.115.373.21.695.212.715zm45.55-.376c.093.38.065.414-.346.414-.443 0-.446-.005-.29-.565.272-.99.361-.968.636.15zm-53.449.653c.288.343-.005.73-.596.788-.457.045-.48.022-.48-.49 0-.491.038-.537.438-.537.241 0 .528.108.638.239zm24.865.289c0 .413-.048.456-.57.499-.563.046-.57.04-.57-.5 0-.538.007-.545.57-.498.522.043.57.085.57.499z" clip-rule="evenodd" />
	<path fill="#25A2D1" d="M22.83 30.604l-.072.268a.4.4 0 00.387.503h.751a.4.4 0 00.388-.497l-.068-.274c-.12-.419-.236-.864-.347-1.335a80.27 80.27 0 00-.327-1.336.033.033 0 00-.064.001c-.1.437-.206.886-.315 1.348-.102.462-.214.903-.334 1.322zm-2.486 4.236a.4.4 0 01-.381-.52l2.368-7.568a.4.4 0 01.382-.28h1.684a.4.4 0 01.382.28l2.368 7.569a.4.4 0 01-.382.52h-1.148a.4.4 0 01-.388-.3l-.358-1.39a.4.4 0 00-.387-.3h-1.935a.4.4 0 00-.387.3l-.36 1.39a.4.4 0 01-.386.3h-1.072zM28.688 34.84a.4.4 0 01-.4-.4v-7.569a.4.4 0 01.4-.4h2.463c.436 0 .838.034 1.206.103.377.06.702.17.976.333.282.163.5.377.654.642.163.266.244.6.244 1.002a2.2 2.2 0 01-.295 1.091 1.9 1.9 0 01-.347.436 1.177 1.177 0 01-.426.274.035.035 0 00.003.066c.204.052.392.131.565.238a1.759 1.759 0 01.795.975c.077.214.116.462.116.745 0 .428-.086.796-.257 1.104a2.13 2.13 0 01-.693.77c-.29.197-.633.346-1.027.45a5.456 5.456 0 01-1.27.14h-2.707zm1.487-5.419c0 .221.18.4.4.4h.486c.462 0 .796-.09 1-.27.215-.179.322-.418.322-.718 0-.325-.107-.556-.321-.693-.214-.137-.543-.206-.988-.206h-.499a.4.4 0 00-.4.4v1.087zm0 3.556c0 .221.18.4.4.4h.665c1.036 0 1.554-.377 1.554-1.13 0-.367-.129-.628-.386-.783-.256-.162-.646-.243-1.168-.243h-.665a.4.4 0 00-.4.4v1.356zM37.79 34.84a.4.4 0 01-.4-.4v-5.977a.4.4 0 00-.4-.4h-1.497a.4.4 0 01-.4-.4v-.792a.4.4 0 01.4-.4h5.695a.4.4 0 01.4.4v.792a.4.4 0 01-.4.4h-1.497a.4.4 0 00-.4.4v5.977a.4.4 0 01-.4.4h-1.1zM45.996 34.994a3.987 3.987 0 01-1.553-.295 3.45 3.45 0 01-1.194-.873 4.063 4.063 0 01-.783-1.373c-.18-.54-.27-1.151-.27-1.836 0-.684.09-1.292.27-1.823.188-.539.449-.988.783-1.347a3.243 3.243 0 011.194-.835c.47-.197.988-.295 1.553-.295.564 0 1.078.098 1.54.295.47.189.873.467 1.207.835.334.368.59.821.77 1.36.188.53.282 1.134.282 1.81 0 .685-.094 1.297-.282 1.836a3.9 3.9 0 01-.77 1.373 3.418 3.418 0 01-1.207.873 3.893 3.893 0 01-1.54.295zm0-1.63c.573 0 1.027-.244 1.36-.731.334-.497.501-1.169.501-2.016 0-.838-.167-1.493-.5-1.964-.334-.47-.788-.706-1.361-.706-.574 0-1.027.236-1.36.706-.335.47-.502 1.126-.502 1.964 0 .847.167 1.52.501 2.015.334.488.787.732 1.36.732z" />
</svg>
