<svg xmlns="http://www.w3.org/2000/svg" fill="none" viewBox="0 0 104 64"><path fill="#181818" d="M96.075 35c.746 0 1.46.066 2.14.199a8.834 8.834 0 0 1 2.064.672l-.448 1.467c-.713-.331-1.36-.563-1.94-.696a7.58 7.58 0 0 0-1.742-.2c-1.011 0-1.824.233-2.438.697-.613.448-.92 1.087-.92 1.916 0 .73.232 1.31.697 1.741.464.415 1.185.78 2.164 1.095l1.667.547c1.277.431 2.205 1.02 2.786 1.766.597.73.895 1.568.895 2.513 0 .68-.132 1.293-.398 1.84-.249.531-.605.987-1.07 1.369a5.47 5.47 0 0 1-1.666.87c-.647.2-1.36.3-2.14.3-.796 0-1.592-.076-2.388-.225a10.34 10.34 0 0 1-2.363-.771l.473-1.468a9.998 9.998 0 0 0 2.04.772c.68.149 1.393.223 2.139.223 1.012 0 1.85-.224 2.513-.671.68-.448 1.02-1.136 1.02-2.065 0-.332-.05-.639-.15-.92a1.969 1.969 0 0 0-.473-.821c-.232-.25-.547-.481-.945-.697-.398-.232-.904-.448-1.517-.647l-1.617-.522c-1.045-.332-1.89-.813-2.538-1.443-.646-.647-.97-1.5-.97-2.562 0-1.31.44-2.347 1.319-3.11.879-.78 2.147-1.169 3.806-1.169ZM78.678 35.2h4.826c.812 0 1.525.115 2.14.347.63.216 1.152.523 1.566.92.415.399.73.88.946 1.444.215.547.323 1.152.323 1.816 0 .597-.091 1.144-.274 1.642-.182.48-.43.903-.746 1.268a4.258 4.258 0 0 1-1.045.92 6.11 6.11 0 0 1-1.243.598l4.253 6.716h-2.04l-3.88-6.393h-3.16v6.393h-1.666V35.2Zm1.666 7.835h2.389c.547 0 1.053-.058 1.517-.174.481-.133.896-.331 1.244-.597.348-.265.622-.597.82-.995.2-.414.3-.904.3-1.468 0-1.094-.316-1.89-.946-2.388-.614-.514-1.526-.77-2.736-.77h-2.588v6.392ZM66.563 44.95h5.672l-1.244-3.358c-.215-.58-.456-1.235-.721-1.965-.249-.746-.514-1.559-.796-2.438h-.05a35.292 35.292 0 0 1-.796 2.314c-.116.348-.24.696-.373 1.045-.116.331-.249.68-.398 1.044l-1.294 3.359Zm2.09-9.75h1.666l6.07 15.671H74.5l-1.717-4.477h-6.716l-1.717 4.477h-1.866l6.17-15.672ZM57.308 49.627c.813 0 1.485-.074 2.015-.224a8.968 8.968 0 0 0 1.543-.572l.423 1.443a7.53 7.53 0 0 1-1.816.597c-.647.15-1.443.224-2.389.224a8.09 8.09 0 0 1-2.91-.522 6.785 6.785 0 0 1-2.363-1.543c-.664-.68-1.194-1.517-1.592-2.512-.382-.995-.572-2.148-.572-3.458 0-1.277.182-2.413.547-3.408.381-1.012.904-1.858 1.567-2.538a6.577 6.577 0 0 1 2.388-1.567c.912-.365 1.907-.547 2.985-.547.979 0 1.791.083 2.438.249.647.149 1.244.365 1.791.647l-.423 1.393a8.435 8.435 0 0 0-1.691-.622c-.53-.133-1.145-.2-1.841-.2-.78 0-1.526.125-2.239.374a4.91 4.91 0 0 0-1.84 1.17c-.532.53-.963 1.218-1.294 2.064-.316.829-.473 1.832-.473 3.01 0 1.21.157 2.23.473 3.06.331.829.763 1.5 1.293 2.015a5.05 5.05 0 0 0 1.841 1.12c.697.231 1.41.347 2.14.347ZM33.134 44.95h5.672l-1.244-3.358c-.215-.58-.456-1.235-.721-1.965-.249-.746-.514-1.559-.796-2.438h-.05a35.51 35.51 0 0 1-.796 2.314c-.116.348-.24.696-.373 1.045-.116.331-.249.68-.398 1.044l-1.294 3.359Zm2.09-9.75h1.667l6.07 15.671H41.07l-1.717-4.477h-6.716L30.92 50.87h-1.865L35.224 35.2ZM22.952 35c.746 0 1.46.066 2.14.199a8.83 8.83 0 0 1 2.064.672l-.448 1.467c-.713-.331-1.36-.563-1.94-.696a7.582 7.582 0 0 0-1.742-.2c-1.011 0-1.824.233-2.438.697-.613.448-.92 1.087-.92 1.916 0 .73.232 1.31.697 1.741.464.415 1.185.78 2.164 1.095l1.666.547c1.277.431 2.206 1.02 2.787 1.766.597.73.895 1.568.895 2.513 0 .68-.132 1.293-.398 1.84a3.89 3.89 0 0 1-1.07 1.369 5.469 5.469 0 0 1-1.666.87c-.647.2-1.36.3-2.14.3-.796 0-1.592-.076-2.388-.225a10.34 10.34 0 0 1-2.363-.771l.473-1.468a9.997 9.997 0 0 0 2.04.772c.68.149 1.393.223 2.139.223 1.012 0 1.85-.224 2.512-.671.68-.448 1.02-1.136 1.02-2.065 0-.332-.05-.639-.149-.92a1.969 1.969 0 0 0-.473-.821c-.232-.25-.547-.481-.945-.697-.398-.232-.904-.448-1.517-.647l-1.617-.522c-1.045-.332-1.89-.813-2.538-1.443-.646-.647-.97-1.5-.97-2.562 0-1.31.44-2.347 1.319-3.11.879-.78 2.147-1.169 3.806-1.169ZM3 35.2h1.791v9.378c0 1.824.332 3.126.995 3.905.68.763 1.75 1.145 3.21 1.145.712 0 1.326-.117 1.84-.349a3.164 3.164 0 0 0 1.244-.97c.332-.414.572-.912.721-1.492.166-.58.25-1.228.25-1.94v-9.678h1.79v9.602c0 2.157-.514 3.749-1.542 4.777-1.012 1.011-2.446 1.517-4.304 1.517-1.874 0-3.342-.505-4.403-1.517C3.531 48.55 3 46.916 3 44.678v-9.479ZM40.748 12.128c5.452-.538 13.306.687 18.488 2.434 2.354.793 11.904 5.172 12.919 7.217 5.872.03 10.981 1.55 16.317 3.878 2.005.875 3.961 1.766 5.84 2.898 1.665 1.002 3.242 2.16 4.808 3.307 1.183.866 2.403 1.664 3.504 2.637-.317-.028-5.172-3.257-6.036-3.722-4.582-2.47-9.683-4.463-14.82-5.322-2.892-.483-5.94-.808-8.87-.783-5.122.045-10.215.847-15.331 1.092-8.401.402-26.518.668-33.26-4.636a55.284 55.284 0 0 0 5.936 1.414c8.52 1.393 17.624.722 26.19.074 3.348-.253 6.72-.59 10.076-.678-2.043-1.4-4.29-2.394-6.573-3.322-2.075-.843-4.218-1.418-6.39-1.947-9.844-2.396-19.525-1.73-29.153 1.385-3.274 1.059-6.361 2.549-9.558 3.797-1.456.568-2.916 1.15-4.395 1.656-1.355.463-2.74.83-4.058 1.397-1.621.697-2.816 1.676-3.495 3.35-.47 1.16-.176 2.522-.455 3.735l-.12.044-.047-.038c-.546-.464-.819-1.46-.874-2.15-.128-1.625.559-3.357 1.595-4.584 2.056-2.437 5.556-3.172 8.355-4.373 4.058-1.741 8.017-3.682 12.162-5.219 5.564-2.063 11.352-3.08 17.245-3.54Z"/></svg>