<svg xmlns="http://www.w3.org/2000/svg" xml:space="preserve" fill-rule="evenodd" clip-rule="evenodd" image-rendering="optimizeQuality" shape-rendering="geometricPrecision" text-rendering="geometricPrecision" viewBox="0 0 3543 1181"><defs><clipPath id="id0"><path d="M161 450h298v299H161V450z"/></clipPath></defs><g id="Слой_x0020_1"><path fill="#1071b8" d="M401 625c-47-56-61-145-61-225-18 63-2 130 26 207-2-4-4-7-6-10-31-62-38-118-37-183-4 11-6 22-7 35-2-21-3-42-3-63-20 71-3 132 28 219-25-55-35-105-41-168-2 20-2 39 0 59-6-29-7-59-7-94-7 20-10 43-9 67 0-3 0-5-1-8-2 31 2 64 10 97-9-25-15-49-19-77v-4l-1 2c-2-16-4-32-6-50-3 32-3 62 2 91 1 18 3 36 8 54-7-15-13-31-17-48v-1 1c-6-20-10-43-12-70-3 37 1 71 11 104 0 16 2 32 7 48-18-35-29-75-30-133-16 70 8 134 45 201-26-24-59-94-61-145-6 61 5 119 60 169 5 5-50 10-56 8 0 0 14 28 15 34 1 10-41 37-53 43 3 2 7 10 9 12 7-8 16-16 22-22 7-7 10-10 30-25 16-12 31-20 37-23 40-19 32-13 60-26 11-5 24-11 47-37l7-3c10-4 33-13 57-26 17-8 33-19 46-26 6-4 13-3 18-5 4-2 7-3 8-4 7-8 37-11 48-13 3 0-41-1-46-4-16-12-27-5-36 11-7 13-25 24-45 31-7 2-15 3-22 4-10 1-18 1-25-4z"/><path d="M775 507v71h-1c-5-15-12-27-19-37-13-17-28-25-46-25-17 0-29 11-36 32-6 17-9 42-9 73 0 36 5 62 15 78 9 13 22 20 40 20 12 0 22-3 32-8 9-5 17-11 24-19v3c-10 23-19 38-28 45-11 9-27 13-48 13-30 0-53-13-68-39-13-22-20-50-20-82 0-33 7-61 20-83 16-28 41-42 74-42 6 0 14 2 25 5s20 4 25 4c3 0 6-1 9-2s6-4 9-7h2zm47 214c0 7 1 12 3 16 2 5 5 8 11 11v1h-63v-2c3-2 7-5 12-11s9-13 11-20l75-209h4l67 202c4 11 8 19 11 25s6 10 10 14v1h-87v-1c4-2 8-4 9-5 3-2 4-5 4-8v-5c-1-2-1-5-2-7l-36-124c-9 24-16 45-20 64-6 22-9 42-9 58zm322-92c0 33-8 61-23 85-17 26-40 39-68 39-29 0-52-13-68-39-15-23-22-52-22-85 0-37 7-66 22-88 16-22 39-34 68-34s51 11 67 33 24 51 24 89zm-61 0c0-37-2-64-6-81-4-21-12-32-24-32-9 0-15 5-20 14-4 9-7 21-8 36s-1 36-1 63c0 33 2 60 6 80 5 24 13 36 23 36 9 0 16-6 21-16 4-10 6-22 7-39 1-16 2-37 2-61zm95 91V541c0-7-1-12-5-17-3-5-7-9-12-11v-1h145v49h-2c-3-9-10-18-21-26-13-10-26-14-39-14-4 0-7 1-10 2-2 2-4 4-4 6v81h43c14 0 27 6 37 20 10 13 16 29 16 47 0 20-6 37-16 51s-23 21-37 21h-112v-1c5-3 8-6 12-10 3-6 5-11 5-18zm52-98v112c0 2 1 3 3 5 1 1 4 1 6 1 14 0 23-5 28-15 4-8 6-23 6-45 0-20-3-35-8-44-5-10-11-14-20-14h-15zm332 118-41-141-12 40c-7 26-12 45-15 57-4 20-6 34-6 44h74zm-121 0h16c5-9 12-25 20-49 9-23 17-46 24-67l40-117h4l77 233h18v72h-2c-5-20-10-35-17-44-7-13-17-19-28-19h-105c-11 0-21 6-29 18-6 11-12 26-17 45h-1v-72zm363-233v71h-2c-5-15-11-27-18-37-13-17-28-25-47-25-16 0-28 11-36 32-6 17-9 42-9 73 0 36 5 62 16 78 9 13 22 20 40 20 11 0 22-3 31-8 10-5 18-11 25-19v3c-10 23-20 38-29 45-10 9-26 13-48 13-29 0-52-13-68-39-13-22-19-50-19-82 0-33 6-61 19-83 17-28 42-42 75-42 5 0 14 2 25 5s19 4 25 4c3 0 6-1 9-2s6-4 9-7h2zm33 34c0-7-2-12-6-17-3-5-7-9-12-11v-1h87v1c-5 2-9 6-12 10-4 5-6 11-6 18v69h20c19 0 34 5 46 16 14 12 21 29 21 50 0 23-4 41-13 53-10 13-25 20-45 20h-98v-1c5-3 9-6 12-10 4-6 6-11 6-18V541zm51 194c0 3 3 5 7 5 11 0 19-5 24-15 4-10 6-25 6-45 0-24-2-39-6-47-4-7-12-11-23-11h-8v113zm288 14h-77v-1c6-3 9-6 9-11 0-1 0-3-1-4-1-2-1-3-2-4l-42-89-4 3v77c0 7 2 12 5 17 4 5 8 8 12 11v1h-86v-1c4-3 8-6 11-10 4-6 6-11 6-18V541c0-7-2-12-5-17-4-5-8-9-12-11v-1h86v1c-4 2-8 6-11 10-4 5-6 11-6 18v80c12-19 23-37 31-53 7-13 11-23 15-31 2-7 3-10 3-12 0-6-2-10-7-12v-1h54c-7 4-14 10-22 18-11 13-24 32-39 57l65 135c2 5 4 9 7 13 2 3 6 8 10 13v1zm26-29V541c0-7-2-12-5-17-4-5-8-9-13-11v-1h87v1c-5 2-8 6-12 10-3 5-5 11-5 18v143l4-12 51-128 1-4c0-6-2-12-5-16-4-5-8-9-13-11v-1h87v1c-5 2-8 6-12 10-3 5-5 11-5 18v179c0 7 1 12 5 17 3 5 7 8 12 11v1h-87v-1c5-3 9-6 12-10 4-6 6-11 6-18V577l-5 11-51 129v3c0 7 1 12 5 17 3 5 7 8 12 11v1h-87v-1c5-3 9-6 12-10 4-6 6-11 6-18zm212 0V541c0-7-2-12-6-17-3-5-7-9-12-11v-1h87v1c-5 2-9 6-12 10-3 5-5 11-5 18v143l4-12 51-128 1-4c0-6-2-12-6-16-3-5-7-9-12-11v-1h87v1c-5 2-9 6-12 10-4 5-5 11-5 18v179c0 7 1 12 5 17 3 5 7 8 12 11v1h-87v-1c5-3 9-6 12-10 4-6 6-11 6-18V577l-5 11-51 129v3c0 7 1 12 5 17 3 5 7 8 12 11v1h-87v-1c5-3 9-6 12-10 4-6 6-11 6-18zm80-226c10 0 16-7 20-20 4-14 11-21 19-21s13 2 17 6c4 3 5 8 5 14 0 9-7 17-21 23-11 4-25 6-40 6-18 0-32-2-43-6-12-6-18-13-18-23 0-6 2-10 6-14 3-4 9-6 16-6 8 0 13 7 17 21 3 13 10 20 22 20zm-1082 47v179c0 7 2 12 5 17 4 5 8 8 12 11v1h-86v-1c4-3 8-6 11-10 4-6 6-11 6-18V541c0-7-2-12-5-17s-8-9-12-11v-1h86v1c-4 2-8 6-11 10-4 5-6 11-6 18zM2899 749h-76v-1c6-3 9-6 9-11 0-1-1-3-2-4 0-2-1-3-1-4l-43-89-3 3v77c0 7 1 12 5 17 3 5 7 8 12 11v1h-87v-1c5-3 9-6 12-10 4-6 6-11 6-18V541c0-7-2-12-5-17-4-5-8-9-13-11v-1h87v1c-5 2-8 6-12 10-3 5-5 11-5 18v80c12-19 22-37 31-53 6-13 11-23 14-31 3-7 4-10 4-12 0-6-2-10-7-12v-1h54c-8 4-15 10-22 18-11 13-24 32-39 57l65 135c2 5 4 9 7 13 2 3 5 8 9 13v1zm26-29V541c0-7-1-12-5-17-3-5-7-9-12-11v-1h98c19 0 34 7 44 20 10 11 14 25 14 42 0 19-6 35-18 46-15 14-38 21-69 21v79c0 7 2 12 5 17 4 5 8 8 13 11v1h-87v-1c5-3 8-6 12-10 3-6 5-11 5-18zm52-194v103h8c8 0 14-3 19-9 6-9 10-24 10-46 0-16-2-28-6-37-5-11-13-16-24-16-5 0-7 1-7 5zm263 223h-85v-1c4-2 7-4 9-7 3-3 4-6 4-9 0-5-1-10-3-16l-12-39h-48c-4 13-6 23-6 32 0 8 2 15 4 22 3 6 7 12 12 17v1h-62v-1c13-6 27-32 42-81l49-160h6l67 205c3 7 6 14 10 20 4 7 9 12 13 16v1zm-132-82h43l-20-73-23 73zm161 53V541c0-7-2-12-5-17-4-5-8-9-12-11v-1h86v1c-4 2-8 6-11 10-4 5-6 11-6 18v143l4-12 51-128 1-4c0-6-2-12-5-16-4-5-8-9-12-11v-1h86v1c-4 2-8 6-11 10-4 5-6 11-6 18v179c0 7 2 12 5 17s8 8 12 11v1h-86v-1c4-3 8-6 11-10 4-6 6-11 6-18V577l-5 11-51 129v3c0 7 2 12 5 17 4 5 8 8 12 11v1h-86v-1c4-3 8-6 11-10 4-6 6-11 6-18zm80-226c10 0 17-7 21-20 4-14 10-21 19-21 7 0 13 2 16 6 4 3 6 8 6 14 0 9-7 17-21 23-12 4-25 6-41 6-18 0-32-2-43-6-12-6-18-13-18-23 0-6 2-10 6-14s9-6 16-6c8 0 14 7 17 21 3 13 11 20 22 20z" class="#000"/><path fill="#206eb5" d="M161 450h298v299H161z"/><g clip-path="url(#id0)"><g id="_2320806266384"><path id="1" fill="#88ced7" d="M401 625c-47-56-61-145-61-225-18 64-1 135 29 214-38-69-47-129-46-200-19 55 0 139 27 209-32-62-43-116-50-186-6 65 7 130 37 198-30-59-47-106-54-174-5 62 17 130 40 186-28-42-49-97-49-170-14 61 7 131 40 189-23-21-53-96-54-141-6 53 5 119 52 161 5 5-35 32-41 31 0 0 5 1 6 6 0 1 0 2-1 3l196-104-2-5c-14 6-29 11-44 12-10 1-18 1-25-4z"/><path fill="#fefefe" d="M382 628c-54-65-69-150-69-242-21 74-2 137 32 229-44-80-53-131-52-213-22 63-1 143 31 224-37-72-49-116-57-197-8 74 6 133 42 211-36-68-54-105-61-184-6 72 18 133 45 198-33-49-56-95-57-179-16 70 8 134 45 201-26-24-59-94-61-145-6 61 5 119 60 169 5 5-50 10-56 8 0 0 14 28 15 34 1 10-41 37-53 43 3 2 7 10 9 12 7-8 16-16 22-22 7-7 10-10 30-25 16-12 31-20 37-23 40-19 32-13 60-26 11-5 24-11 48-38 1 0 32-11 63-28 17-8 33-19 46-26 6-4 13-3 18-5 4-2 7-3 8-4 7-8 37-11 48-13 3 0-41-1-46-4-16-12-27-5-36 11-10 20-49 36-81 39-12 1-21 1-30-5z"/></g></g><path fill="none" d="M161 450h298v299H161z"/></g></svg>