<svg xmlns="http://www.w3.org/2000/svg" viewBox="0 0 184 50"><path d="m7.6 17.7 8.1-8.5v-.1.1c.3-.3.2-.4-.2-.4H14c-.2 0-.5.1-.7.4L1.7 21.4v-12c0-.2-.1-.3-.2-.5-.1-.1-.3-.1-.5-.1H.6c-.2 0-.3 0-.4.2-.1.1-.2.2-.2.4v20.2c0 .4.2.7.6.7H1c.5 0 .7-.2.7-.7v-5.7l4.8-5 9.2 10.9c.1.1.2.3.3.3.1.1.2.1.3.1h1.3c.4 0 .4-.2.1-.6L7.6 17.7zm35.3-8.9h-.6c-.2 0-.3 0-.4.1-.1.1-.1.2-.1.4v9.2H27.6V9.3c0-.2 0-.3-.1-.4-.1-.1-.2-.1-.4-.1h-.6c-.2 0-.3 0-.4.1-.1.1-.2.2-.2.4v20.4c0 .3.2.5.5.5h.6c.4 0 .6-.2.6-.5v-9.6h14.2v9.6c0 .3.2.5.5.5h.6c.4 0 .6-.2.6-.5V9.3c0-.2-.1-.3-.2-.4-.1-.1-.2-.1-.4-.1zm28 13V9.3c0-.2-.1-.3-.2-.4-.1-.1-.2-.1-.4-.1h-.6c-.2 0-.3 0-.4.1-.1.1-.1.2-.1.4v12.4c0 1-.2 2-.5 2.9-.3.9-.8 1.7-1.5 2.3-.6.7-1.4 1.2-2.3 1.6-.9.4-1.9.6-2.9.6s-2-.2-2.9-.6c-.9-.4-1.6-.9-2.3-1.6-.6-.7-1.1-1.4-1.5-2.3-.4-.9-.5-1.8-.5-2.9V9.3c0-.2-.1-.3-.2-.4-.1-.1-.2-.1-.4-.1h-.6c-.2 0-.3.1-.4.2-.1.1-.1.2-.1.4v12.5c0 .8.1 1.6.3 2.3.2.8.5 1.5.9 2.1.4.7.8 1.2 1.4 1.8.5.5 1.1 1 1.8 1.4.7.4 1.4.7 2.1.9.8.2 1.5.3 2.4.3 1.2 0 2.4-.2 3.4-.7 1.1-.4 2-1 2.8-1.8.8-.8 1.4-1.7 1.9-2.8.5-1.1.7-2.3.8-3.6zm24.4-9.9c-1-1-2.1-1.7-3.4-2.3-.4-.2-.8-.3-1.3-.4l4.7-5.5L93.6 0h-8.2l-1.8 3.7L88 8.8h-7c-.3 0-.5.2-.5.5l.1 1.1h7c1.2 0 2.4.2 3.5.7 1.1.5 2.1 1.1 2.9 1.9.8.8 1.5 1.8 2 2.9.5 1.1.7 2.3.7 3.6 0 .8-.1 1.6-.3 2.4-.2.8-.5 1.5-.9 2.2-.4.7-.9 1.3-1.4 1.9-.6.6-1.2 1-1.8 1.5-.7.4-1.4.7-2.2.9-.8.2-1.6.3-2.5.3h-7.1l-.1 1.2c0 .1 0 .2.1.2 0 .1.1.1.2.1s.1.1.2.1h6.8c1 0 2-.1 2.9-.4.9-.3 1.8-.6 2.6-1.1.8-.5 1.5-1 2.2-1.7.7-.6 1.2-1.4 1.7-2.2.5-.8.8-1.6 1.1-2.6.3-.9.4-1.9.4-2.9 0-1.5-.3-2.9-.8-4.2-.7-1.2-1.5-2.3-2.5-3.3zm-1-8.7h-1.8l.9-1.9.9 1.9zM92.7.8l-1 2.1L90.2.8h2.5zM91 3.2h-3.2L89.4 1 91 3.2zM88.7.8l-1.5 2.1-1-2.1h2.5zm-3.1.5.9 1.9h-1.8l.9-1.9zM84.9 4h1.9l1.6 4.1L84.9 4zm2.8 0h3.6l-1.8 4.6L87.7 4zm4.4 0H94l-3.5 4.1L92.1 4zm30.8 25.6-8.6-20.5c-.1-.1-.1-.2-.2-.3-.1-.1-.2-.1-.4-.1h-.4c-.2 0-.3 0-.4.1-.1.1-.1.2-.2.3l-.6 1.5c-.2.5-.5 1.1-.7 1.7-.3.7-.6 1.4-1 2.3-.4.9-.8 1.9-1.3 3.1-.5 1.2-1.1 2.6-1.8 4.2s-1.5 3.5-2.4 5.6c-.1.3-.3.7-.4 1-.1.4-.3.7-.4 1.1v.1c0 .2.1.3.4.4h.7c.2 0 .4-.1.5-.4.3-.8.7-1.7 1-2.5.3-.8.7-1.7 1-2.5h11.2l2.1 5c.1.3.3.4.5.4h.8c.3 0 .4-.2.4-.4v-.2l.2.1zm-14.3-6.4c.8-2 1.6-4 2.5-6 .8-2 1.6-3.9 2.5-6l4.9 11.9h-9.9zm24.3-14.4h-.6c-.4 0-.5.2-.5.5v20.4c0 .3.2.5.5.5h.6c.4 0 .5-.2.5-.5V9.3c0-.2 0-.3-.1-.4-.1-.1-.3-.1-.4-.1zm25.6 20.9v-.6c0-.4-.2-.5-.6-.5h-13.1v-8.7h10.4c.2 0 .3 0 .4-.1.1-.1.1-.2.1-.4v-.6c0-.2-.1-.3-.2-.4-.1-.1-.2-.1-.4-.1h-10.4v-7.7h12.9c.2 0 .3-.1.4-.2.1-.1.1-.2.1-.4v-.7c0-.4-.2-.5-.6-.5h-14c-.3 0-.5.1-.5.4V29.8c0 .2 0 .3.1.4.1.1.2.1.3.1H158c.4-.1.5-.3.5-.6zm25-20.9h-.8c-.3 0-.4.1-.5.4-.4.9-.7 1.8-1.2 2.8-.4 1-.8 2.1-1.3 3.1-.4 1.1-.9 2.2-1.4 3.3-.5 1.1-.9 2.2-1.4 3.3-.4 1.1-.9 2.1-1.3 3.1s-.8 1.9-1.1 2.7c-.3-.8-.7-1.7-1.1-2.7-.4-1-.8-2-1.3-3.1s-.9-2.2-1.4-3.3c-.5-1.1-.9-2.2-1.4-3.3-.5-1.1-.9-2.1-1.3-3.1s-.8-2-1.2-2.8c-.1-.2-.2-.3-.3-.3-.1 0-.2-.1-.4-.1h-.6c-.3 0-.4.2-.4.4v.3c0 .1.1.2.1.2l8.5 20.2c.1.1.1.2.2.3.1.1.2.1.4.1h.4c.2 0 .3 0 .4-.1.1-.1.1-.2.2-.3L184 9.4v-.2c0-.3-.2-.4-.5-.4zM2.9 42.8H2.6v5.5c0 .1 0 .3-.1.4-.1.1-.1.2-.2.3-.1.1-.2.2-.3.2-.1.1-.3.1-.4.1h-.3c-.1 0-.2-.1-.3-.1-.1 0-.1-.1-.2-.1L.7 49H.6l-.2.2v.2s0 .1.1.1c.2.2.3.3.6.4-.1 0 .1.1.3.1.2 0 .4 0 .6-.1.2-.1.4-.2.5-.3.2-.1.3-.3.4-.5.1-.2.1-.4.1-.6V43c.1-.1 0-.2-.1-.2zm11.6 6.5h-2.7v-1.5h2.1c.1 0 .2 0 .2-.1v-.4h-2.2v-1.5h2.7V45.5c0-.1-.1-.2-.2-.2h-3.1v4.6H14.6c.1 0 .2-.1.2-.2V49.4c-.2-.1-.3-.1-.3-.1zM28 45.2c-.1 0-.1 0-.1.1L26.3 49l-1-2.4.5-1.2v-.2h-.4c-.1 0-.1 0-.1.1L23.7 49l-1.5-3.7-.1-.1h-.4v.2l1.8 4.3s0 .1.1.1H23.9l.1-.1 1-2.4 1 2.4s0 .1.1.1H26.4l.1-.1 1.8-4.3v-.2H28zm11.3 4.1h-2.7v-1.5h2.1c.1 0 .2 0 .2-.1v-.4h-2.2v-1.5h2.7V45.5c0-.1-.1-.2-.2-.2h-3.1v4.6H39.4c.1 0 .2-.1.2-.2V49.4c-.2-.1-.3-.1-.3-.1zm11.1 0h-2.7v-4c0-.1-.1-.1-.2-.1h-.2c-.1 0-.2 0-.2.1v4.4c0 .1.1.2.2.2h3.1c.1 0 .2-.1.2-.2V49.4c-.1 0-.2-.1-.2-.1zm11 0h-2.7v-4c0-.1-.1-.1-.2-.1h-.2c-.1 0-.2 0-.2.1v4.4c0 .1.1.2.2.2h3.1c.1 0 .2-.1.2-.2V49.4c-.1 0-.2-.1-.2-.1zm10.9 0h-2.7v-1.5h2.1c.1 0 .2 0 .2-.1v-.4h-2.2v-1.5h2.7V45.5c0-.1-.1-.2-.2-.2h-3.1v4.6H72.4c.1 0 .2-.1.2-.2V49.4c-.2-.1-.2-.1-.3-.1zm10.8-3.6c-.1-.1-.3-.3-.5-.3-.2-.1-.4-.1-.6-.1h-1.7c-.1 0-.2.1-.2.2V49.9h.4v-1.5H81.9l.7 1.5c0 .1.1.1.2.1h.4v-.2l-.7-1.5c.1-.1.2-.1.4-.2l.3-.3c.1-.1.1-.3.2-.4 0-.1.1-.3.1-.4 0-.2 0-.4-.1-.6-.1-.4-.2-.6-.3-.7zm-.2 1.5c-.1.1-.1.2-.2.3-.1.1-.2.2-.3.2-.1.1-.3.1-.4.1h-1.3v-2.1H82c.1 0 .3 0 .4.1.1.1.2.1.3.2.1.1.2.2.2.3.1.1.1.3.1.4 0 .2 0 .4-.1.5zm11.2-2c-.1 0-.2.1-.2.2l-1.3 1.8-1.2-1.7c0-.1-.1-.1-.1-.1s0-.1-.1-.1h-.4c-.1 0-.1 0-.2.1v.2l1.5 2.3v1.9c0 .1.1.2.2.2h.1c.1 0 .2-.1.2-.2v-1.9l1.5-2.3c.1-.1.1-.2-.1-.2h.1zm22.2-2.4H111.6v6.8c0 .1.1.2.2.2h.2c.1 0 .2-.1.2-.2v-2.9h3.5v-.4h-3.5v-2.9h4.3l.1-.1V43c-.1-.1-.2-.2-.3-.2zm9.6 2.6s0-.1-.1-.1H125.5l-.1.1-1.8 4.3v.2h.4c.1 0 .1 0 .1-.1l.4-1h2.3l.4 1 .1.1h.4v-.2l-1.8-4.3zm-1.1 2.9.9-2.2.9 2.2h-1.8zm14.2.6c-.1 0-.1-.1 0 0l-.1-.1s-.1 0-.1.1c-.1.1-.2.2-.3.2-.1.1-.2.1-.3.2-.1.1-.2.1-.4.1h-.4c-.3 0-.5 0-.7-.1-.2-.1-.4-.2-.6-.4-.2-.2-.3-.4-.4-.6-.1-.2-.1-.5-.1-.7 0-.3 0-.5.1-.7.1-.2.2-.4.4-.6.2-.2.4-.3.6-.4.2-.1.5-.1.7-.1.3 0 .5 0 .7.1.2.1.4.2.6.4l.1.1h.1l.1-.1v-.5l-.1-.1c-.2-.2-.5-.3-.7-.4-.3-.1-.6-.2-.9-.2-.3 0-.7.1-.9.2-.3.1-.5.3-.7.5-.2.2-.4.5-.5.8-.1.3-.2.6-.2.9 0 .3.1.7.2 1 .1.3.3.6.5.8.2.2.5.4.7.5.3.1.6.2.9.2.3 0 .6-.1.9-.2.3-.1.5-.3.7-.5l.1-.1V48.9zm11.1-3.7h-3.5c-.1 0-.1 0-.1.1v.3c0 .1 0 .1.1.1h1.5v4c0 .1.1.2.2.2h.3c.1 0 .2-.1.2-.2v-4h1.6v-.4c-.2 0-.2-.1-.3-.1zm11.2.6c-.2-.2-.5-.4-.8-.5-.3-.1-.6-.2-.9-.2-.3 0-.7.1-.9.2-.3.1-.5.3-.7.5-.2.2-.4.5-.5.8-.1.3-.2.6-.2.9s.1.7.2.9c.1.3.3.6.5.8.2.2.5.4.7.5.3.1.6.2.9.2.3 0 .7-.1.9-.2.3-.1.5-.3.8-.5.2-.2.4-.5.5-.8.1-.3.2-.6.2-.9s-.1-.7-.2-.9c-.1-.3-.3-.5-.5-.8zm0 2.5c-.1.2-.2.4-.4.6-.2.2-.4.3-.6.4-.2.1-.5.1-.7.1-.3 0-.5-.1-.7-.1-.2-.1-.4-.2-.6-.4-.2-.2-.3-.4-.4-.6-.1-.2-.1-.5-.1-.7 0-.3 0-.5.1-.7.1-.2.2-.4.4-.6.2-.2.4-.3.6-.4.2-.1.5-.1.7-.1.3 0 .5 0 .7.1.2.1.4.2.6.4.2.2.3.4.4.6.1.2.1.5.1.7 0 .2 0 .5-.1.7zm11.3-2.6c-.1-.1-.3-.3-.5-.3-.2-.1-.4-.1-.6-.1h-1.7c-.1 0-.2.1-.2.2V49.9h.4v-1.5H171.4l.7 1.5c0 .1.1.1.2.1h.4v-.2l-.7-1.5c.1-.1.2-.1.4-.2l.3-.3c.1-.1.1-.3.2-.4 0-.1.1-.3.1-.4 0-.2 0-.4-.1-.6-.1-.4-.2-.6-.3-.7zm-.2 1.5c-.1.1-.1.2-.2.3-.1.1-.2.2-.3.2-.1.1-.3.1-.4.1h-1.3v-2.1h1.3c.1 0 .3 0 .4.1.1.1.2.1.3.2.1.1.2.2.2.3.1.1.1.3.1.4 0 .2 0 .4-.1.5zm11.2-2c-.1 0-.2.1-.2.2l-1.3 1.8-1.2-1.7c0-.1-.1-.1-.1-.1s0-.1-.1-.1h-.4c-.1 0-.1 0-.2.1v.2l1.5 2.3v1.9c0 .1.1.2.2.2h.1c.1 0 .2-.1.2-.2v-1.9l1.5-2.3c.1-.1.1-.2-.1-.2h.1z"/></svg>