<svg width="120" height="48" viewBox="0 0 120 48" fill="none" xmlns="http://www.w3.org/2000/svg">
<path d="M9.06427 45.9542V19.7724H1.35287C0.811725 19.7724 0.541156 19.636 0.270581 19.2269C6.18894e-06 18.8178 0 18.2724 0 17.3178V15.8178C0 14.9996 0.135294 14.3178 0.270581 13.9087C0.541156 13.4996 0.811725 13.3633 1.35287 13.3633H24.2165C24.7576 13.3633 25.0282 13.4996 25.2988 13.9087C25.5693 14.3178 25.7046 14.8633 25.7046 15.8178V17.3178C25.7046 18.136 25.5693 18.8178 25.2988 19.2269C25.0282 19.636 24.7576 19.7724 24.2165 19.7724H16.5051V45.9542C16.5051 46.9087 15.5581 47.4542 13.664 47.4542H11.9053C10.0113 47.4542 9.06427 46.9087 9.06427 45.9542Z" fill="#2A2E2C"/>
<path d="M28.2744 45.8176C27.1921 44.454 26.5156 42.8177 26.5156 40.6358C26.5156 38.9995 26.7862 37.4995 27.4626 36.2722C28.1391 34.9086 29.4919 33.8176 31.5213 32.9995C33.5506 32.0449 36.5269 31.6358 40.3149 31.6358V29.9995C40.3149 29.0449 40.0444 28.3631 39.3679 27.954C38.8268 27.5449 37.8798 27.2722 36.5269 27.2722C35.4446 27.2722 34.4976 27.4086 33.6859 27.5449C32.8741 27.8176 32.0624 28.0904 31.1154 28.4995C30.7095 28.7722 30.3037 28.7722 30.3037 28.7722C30.0331 28.7722 29.6272 28.4995 29.2214 28.0904C28.8155 27.5449 28.5449 26.9995 28.1391 26.454C27.8685 25.7722 27.7332 25.3631 27.7332 24.954C27.7332 24.4086 28.1391 23.8631 28.9508 23.3176C29.7625 22.7722 30.8448 22.3631 32.333 22.0904C33.6859 21.8176 35.3093 21.5449 37.068 21.5449C40.7208 21.5449 43.2913 22.2267 44.9147 23.7267C46.5382 25.2267 47.3499 27.1358 47.3499 29.7267V38.8631C47.3499 40.3631 47.3499 41.5904 47.4852 42.4086C47.6205 43.2267 47.6205 44.0449 47.891 44.8631C48.0263 45.4086 48.0263 45.6813 48.0263 45.954C48.0263 46.3631 47.6205 46.6358 46.944 46.9086C46.2676 47.1813 45.4559 47.3177 44.6441 47.454C43.8324 47.5904 43.0207 47.5904 42.6148 47.5904C42.0737 47.5904 41.6678 47.3176 41.3972 46.9086C41.1267 46.3631 40.9914 45.8176 40.8561 44.8631C40.8561 44.7267 40.8561 44.5904 40.8561 44.5904C40.8561 44.454 40.8561 44.3176 40.7208 44.3176C40.5855 44.7267 40.1797 45.1358 39.5032 45.6813C38.9621 46.2267 38.1503 46.7722 37.068 47.3176C35.9857 47.8631 34.9034 47.9995 33.5506 47.9995C31.2507 47.7267 29.4919 47.1813 28.2744 45.8176ZM38.6915 41.1813C39.5032 40.6358 40.0444 39.8176 40.4502 38.9995V36.2722C35.9857 36.2722 33.6859 37.4995 33.6859 39.8176C33.6859 40.4995 33.9564 40.9086 34.3623 41.3177C34.7682 41.7267 35.4446 41.8631 36.121 41.8631C36.9328 42.1358 37.8798 41.7267 38.6915 41.1813Z" fill="#2A2E2C"/>
<path d="M53.9805 45.9542V4.49964C53.9805 3.95419 54.251 3.5451 54.6569 3.27237C55.0628 2.99964 55.8745 2.86328 56.8215 2.86328H58.1744C60.0684 2.86328 61.0154 3.40873 61.0154 4.49964V31.4996H61.1507L66.9681 22.7724C67.2386 22.3633 67.5092 22.0906 68.0504 22.0906C68.4562 21.9542 69.1327 21.9542 69.9444 21.9542H71.7031C73.4619 21.9542 74.4089 22.2269 74.4089 22.636C74.4089 22.9087 74.2736 23.1815 74.003 23.5906L67.3739 33.2724L75.2206 45.8178C75.4912 46.2269 75.6265 46.636 75.6265 46.7724C75.6265 47.3178 74.6795 47.4542 72.9207 47.4542H70.8914C70.0797 47.4542 69.5385 47.4542 68.9974 47.3178C68.4562 47.1815 68.1857 46.9087 68.0504 46.636L61.286 35.4542L61.1507 35.5906V46.0906C61.1507 47.0451 60.2037 47.5906 58.3097 47.5906H56.9568C55.0628 47.4542 53.9805 46.9087 53.9805 45.9542Z" fill="#2A2E2C"/>
<path d="M81.712 47.3186C80.4944 47.0459 79.4121 46.6368 78.6004 46.0914C77.7887 45.5459 77.3828 45.0004 77.3828 44.3186C77.3828 43.9095 77.5181 43.3641 77.7887 42.8186C78.0593 42.2732 78.4651 41.7277 78.871 41.1823C79.2768 40.7732 79.6827 40.5004 79.9533 40.5004C80.0886 40.5004 80.4944 40.6368 81.0356 40.9095C81.712 41.1823 82.2532 41.455 82.7943 41.5914C83.3355 41.7277 84.0119 41.8641 84.8236 41.8641C85.7706 41.8641 86.4471 41.7277 86.8529 41.3186C87.2588 40.9095 87.5294 40.5004 87.5294 39.8186C87.5294 39.2732 87.3941 38.8641 87.1235 38.5914C86.853 38.3186 86.4471 37.9095 86.0412 37.7732C85.6354 37.5004 84.9589 37.2277 84.1472 36.955L83.3355 36.6823C82.2532 36.2732 81.4414 35.8641 80.6297 35.3186C79.818 34.7732 79.1416 34.0914 78.6004 33.1368C78.0593 32.1823 77.7887 30.955 77.7887 29.455C77.7887 27.8186 78.1945 26.3186 78.871 25.2277C79.5474 24.0004 80.6297 23.1823 81.9826 22.5004C83.3355 21.8186 84.8236 21.5459 86.5824 21.5459C87.6647 21.5459 88.747 21.6823 89.8293 21.8186C90.9116 21.955 91.8586 22.3641 92.6703 22.7732C93.482 23.1823 93.8879 23.7277 93.8879 24.4095C93.8879 24.8186 93.7526 25.2277 93.482 25.9095C93.2115 26.5913 92.9409 27.1368 92.6703 27.5459C92.3997 27.955 91.9939 28.2277 91.7233 28.2277C91.588 28.2277 91.3174 28.0913 90.9116 27.955C90.3704 27.6823 89.8293 27.5459 89.2881 27.4095C88.747 27.2732 88.2058 27.1368 87.5294 27.1368C85.7706 27.1368 84.9589 27.6823 84.9589 28.7732C84.9589 29.3186 85.0942 29.7277 85.5001 30.1368C85.7706 30.5459 86.1765 30.8186 86.7177 31.0914C87.1235 31.3641 87.8 31.6368 88.747 31.9095C89.694 32.3186 90.3704 32.5913 90.5057 32.7277C91.7233 33.4095 92.8056 34.2277 93.6173 35.3186C94.429 36.4095 94.8349 37.7732 94.8349 39.5459C94.8349 41.1823 94.429 42.6823 93.7526 43.9095C93.0762 45.1368 91.9939 46.0914 90.5057 46.7732C89.0176 47.455 87.3941 47.8641 85.3648 47.8641C84.1472 47.7277 82.9296 47.5914 81.712 47.3186Z" fill="#2A2E2C"/>
<path d="M99.4342 17.4549C99.0284 17.1822 98.7578 16.7731 98.7578 16.2276V12.2731C98.7578 11.7276 99.0284 11.3185 99.4342 11.0458C99.8401 10.7731 100.652 10.6367 101.599 10.6367H102.952C103.899 10.6367 104.71 10.7731 105.116 11.0458C105.522 11.3185 105.793 11.7276 105.793 12.2731V16.2276C105.793 16.7731 105.522 17.1822 105.116 17.4549C104.71 17.7276 103.899 17.864 102.952 17.864H101.599C100.652 17.7276 99.8401 17.5913 99.4342 17.4549Z" fill="#2A2E2C"/>
<path d="M85.0944 17.4549C84.6885 17.1822 84.418 16.7731 84.418 16.2276V12.2731C84.418 11.7276 84.6885 11.3185 85.0944 11.0458C85.5003 10.7731 86.312 10.6367 87.259 10.6367H88.6119C89.5589 10.6367 90.3706 10.7731 90.7765 11.0458C91.1823 11.3185 91.4529 11.7276 91.4529 12.2731V16.2276C91.4529 16.7731 91.1823 17.1822 90.7765 17.4549C90.3706 17.7276 89.5589 17.864 88.6119 17.864H87.259C86.312 17.7276 85.6356 17.5913 85.0944 17.4549Z" fill="#F6C341"/>
<path d="M113.641 17.4549C113.235 17.1822 112.965 16.7731 112.965 16.2276V12.2731C112.965 11.7276 113.235 11.3185 113.641 11.0458C114.047 10.7731 114.859 10.6367 115.806 10.6367H117.159C118.106 10.6367 118.917 10.7731 119.323 11.0458C119.729 11.3185 120 11.7276 120 12.2731V16.2276C120 16.7731 119.729 17.1822 119.323 17.4549C118.917 17.7276 118.106 17.864 117.159 17.864H115.806C114.859 17.7276 114.182 17.5913 113.641 17.4549Z" fill="#F6C341"/>
<path d="M92.2663 10.3631C91.8604 10.0904 91.5898 9.68128 91.5898 9.13583V5.18128C91.5898 4.63583 91.8604 4.22674 92.2663 3.95401C92.6721 3.68128 93.4839 3.54492 94.4309 3.54492H95.7838C96.7308 3.54492 97.5425 3.68128 97.9484 3.95401C98.3542 4.22674 98.6248 4.63583 98.6248 5.18128V9.13583C98.6248 9.68128 98.3542 10.0904 97.9484 10.3631C97.5425 10.6358 96.7308 10.7722 95.7838 10.7722H94.4309C93.4839 10.7722 92.6721 10.6358 92.2663 10.3631Z" fill="#F6C341"/>
<path d="M78.0592 10.3631C77.6534 10.0904 77.3828 9.68128 77.3828 9.13583V5.18128C77.3828 4.63583 77.6534 4.22674 78.0592 3.95401C78.4651 3.68128 79.2768 3.54492 80.2239 3.54492H81.5767C82.5237 3.54492 83.3355 3.68128 83.7413 3.95401C84.1472 4.22674 84.4178 4.63583 84.4178 5.18128V9.13583C84.4178 9.68128 84.1472 10.0904 83.7413 10.3631C83.3355 10.6358 82.5237 10.7722 81.5767 10.7722H80.2239C79.1416 10.7722 78.4651 10.6358 78.0592 10.3631Z" fill="#F6C341"/>
<path d="M70.8913 17.4549C70.4854 17.1822 70.2148 16.7731 70.2148 16.2276V12.2731C70.2148 11.7276 70.4854 11.3185 70.8913 11.0458C71.2971 10.7731 72.1089 10.6367 73.0559 10.6367H74.4087C75.3558 10.6367 76.1675 10.7731 76.5734 11.0458C76.9792 11.3185 77.2498 11.7276 77.2498 12.2731V16.2276C77.2498 16.7731 76.9792 17.1822 76.5734 17.4549C76.1675 17.7276 75.3558 17.864 74.4087 17.864H73.0559C72.1089 17.7276 71.2971 17.5913 70.8913 17.4549Z" fill="#F6C341"/>
<path d="M63.7194 10.3631C63.3135 10.0904 63.043 9.68128 63.043 9.13583V5.18128C63.043 4.63583 63.3135 4.22674 63.7194 3.95401C64.1253 3.68128 64.937 3.54492 65.884 3.54492H67.2369C68.1839 3.54492 68.9956 3.68128 69.4015 3.95401C69.8073 4.22674 70.0779 4.63583 70.0779 5.18128V9.13583C70.0779 9.68128 69.8073 10.0904 69.4015 10.3631C68.9956 10.6358 68.1839 10.7722 67.2369 10.7722H65.884C64.937 10.7722 64.1253 10.6358 63.7194 10.3631Z" fill="#F6C341"/>
<path d="M106.469 10.3631C106.064 10.0904 105.793 9.68128 105.793 9.13583V5.18128C105.793 4.63583 106.064 4.22674 106.469 3.95401C106.875 3.68128 107.687 3.54492 108.634 3.54492H109.987C110.934 3.54492 111.746 3.68128 112.151 3.95401C112.557 4.22674 112.828 4.63583 112.828 5.18128V9.13583C112.828 9.68128 112.557 10.0904 112.151 10.3631C111.746 10.6358 110.934 10.7722 109.987 10.7722H108.634C107.687 10.7722 107.011 10.6358 106.469 10.3631Z" fill="#F6C341"/>
<path d="M98.7578 45.9551V23.4551C98.7578 22.9096 99.0284 22.5005 99.4342 22.3642C99.8401 22.0914 100.652 21.9551 101.599 21.9551H102.952C103.899 21.9551 104.71 22.0914 105.116 22.3642C105.522 22.6369 105.793 23.046 105.793 23.4551V45.9551C105.793 46.9096 104.846 47.4551 102.952 47.4551H101.599C99.7048 47.4551 98.7578 46.9096 98.7578 45.9551Z" fill="#2A2E2C"/>
<path d="M1.0806 10.6365C0.94531 10.5002 0.945313 10.3638 0.945313 10.2275V1.36381C0.945313 1.22745 0.94531 1.09108 1.0806 0.954721C1.21589 0.818357 1.35118 0.818359 1.48646 0.818359H6.62738C6.76267 0.818359 6.89796 0.818357 6.89796 0.954721C6.89796 1.09108 7.03325 1.22745 7.03325 1.50018V1.90927C7.03325 2.18199 7.03325 2.31836 6.89796 2.45472C6.89796 2.59109 6.76267 2.59109 6.62738 2.59109H3.10991V4.63654H6.35681C6.4921 4.63654 6.62738 4.63654 6.62738 4.77291C6.62738 4.90927 6.76267 5.04563 6.76267 5.31836V5.72745C6.76267 6.00018 6.76267 6.13654 6.62738 6.27291C6.62738 6.40927 6.4921 6.40927 6.35681 6.40927H3.10991V8.72745H6.62738C6.76267 8.72745 6.89796 8.72745 6.89796 8.86382C6.89796 9.00018 7.03325 9.13654 7.03325 9.40927V9.81836C7.03325 10.0911 7.03325 10.2275 6.89796 10.3638C6.89796 10.5002 6.76267 10.5002 6.62738 10.5002H1.48646C1.21589 10.7729 1.0806 10.6365 1.0806 10.6365Z" fill="#2A2E2C"/>
<path d="M8.51953 10.3636V0.545454C8.51953 0.40909 8.65481 0.272728 8.7901 0.136364C8.92539 5.18154e-07 9.19596 0 9.46654 0H9.87241C10.4136 0 10.6841 0.136363 10.6841 0.40909V6L12.4429 3.40909C12.5782 3.27273 12.5782 3.27273 12.7134 3.13636C12.8487 3.13636 12.984 3.13636 13.2546 3.13636H13.7957C14.3369 3.13636 14.6075 3.27273 14.6075 3.40909C14.6075 3.54545 14.6075 3.54545 14.4722 3.68182L12.5782 6.54545L14.878 10.2273C15.0133 10.3636 15.0133 10.5 15.0133 10.5C15.0133 10.6364 14.7428 10.7727 14.2016 10.7727H13.6605C13.3899 10.7727 13.2546 10.7727 13.1193 10.7727C12.984 10.7727 12.8487 10.6364 12.8487 10.5L10.8194 7.22727V10.3636C10.8194 10.6364 10.5488 10.7727 10.0077 10.7727H9.60184C8.9254 10.7727 8.51953 10.6364 8.51953 10.3636Z" fill="#2A2E2C"/>
<path d="M16.5017 9.81854C15.9606 9.13672 15.5547 8.18218 15.5547 6.9549C15.5547 5.72763 15.8253 4.77308 16.5017 4.09127C17.0429 3.40945 17.9899 3.13672 19.0722 3.13672C20.1545 3.13672 21.1015 3.40945 21.6426 4.09127C22.1838 4.77308 22.4544 5.72763 22.4544 6.9549C22.4544 8.18218 22.1838 9.13672 21.6426 9.81854C21.1015 10.5004 20.1545 10.7731 19.0722 10.7731C17.8546 10.7731 17.0429 10.5004 16.5017 9.81854ZM20.0192 8.59126C20.2898 8.18217 20.2897 7.63672 20.2897 6.9549C20.2897 6.27308 20.1545 5.72763 20.0192 5.31854C19.7486 4.90945 19.478 4.77308 19.0722 4.77308C18.1252 4.77308 17.7193 5.4549 17.7193 6.9549C17.7193 7.63672 17.8546 8.18217 17.9899 8.59126C18.2604 9.00036 18.531 9.13672 18.9369 9.13672C19.478 9.13672 19.7486 9.00036 20.0192 8.59126Z" fill="#2A2E2C"/>
<path d="M23.9439 10.3643V5.86435C23.9439 5.18253 23.9439 4.63707 23.8086 4.09162C23.8086 3.95526 23.8086 3.81889 23.8086 3.81889C23.8086 3.68253 23.9439 3.68253 24.0792 3.54617C24.2145 3.54617 24.485 3.4098 24.7556 3.4098C25.0262 3.4098 25.1615 3.4098 25.2968 3.4098C25.432 3.4098 25.5673 3.4098 25.7026 3.54617C25.7026 3.68253 25.8379 3.81889 25.8379 4.09162V4.36435C26.1085 4.09162 26.3791 3.81889 26.7849 3.54617C27.1908 3.27344 27.5966 3.27344 28.0025 3.27344C28.6789 3.27344 29.2201 3.4098 29.6259 3.81889C29.8965 4.22798 30.1671 4.77344 30.1671 5.59162V10.3643C30.1671 10.6371 29.8965 10.7734 29.3554 10.7734H28.9495C28.4084 10.7734 28.1378 10.6371 28.1378 10.3643V5.86435C28.1378 5.59162 28.1378 5.31889 28.0025 5.18253C27.8672 5.04616 27.5966 4.9098 27.3261 4.9098C27.0555 4.9098 26.7849 5.04616 26.6496 5.18253C26.5143 5.31889 26.2438 5.59162 26.2438 5.72798V10.3643C26.2438 10.6371 25.9732 10.7734 25.432 10.7734H25.0262C24.2144 10.7734 23.9439 10.6371 23.9439 10.3643Z" fill="#2A2E2C"/>
<path d="M32.3313 9.81854C31.7901 9.13672 31.5195 8.18218 31.5195 6.9549C31.5195 5.72763 31.7901 4.77308 32.3313 4.09127C32.8724 3.40945 33.8194 3.13672 34.9017 3.13672C35.984 3.13672 36.931 3.40945 37.4722 4.09127C38.0133 4.77308 38.2839 5.72763 38.2839 6.9549C38.2839 8.18218 38.0133 9.13672 37.4722 9.81854C36.931 10.5004 35.984 10.7731 34.9017 10.7731C33.8194 10.7731 33.0077 10.5004 32.3313 9.81854ZM35.984 8.59126C36.2546 8.18217 36.2546 7.63672 36.2546 6.9549C36.2546 6.27308 36.1193 5.72763 35.984 5.31854C35.7134 4.90945 35.4429 4.77308 35.037 4.77308C34.09 4.77308 33.6841 5.4549 33.6841 6.9549C33.6841 7.63672 33.8194 8.18217 33.9547 8.59126C34.2253 9.00036 34.4959 9.13672 34.9017 9.13672C35.4429 9.13672 35.7134 9.00036 35.984 8.59126Z" fill="#2A2E2C"/>
<path d="M49.5131 3.68217C49.7837 4.09126 50.0542 4.63672 50.0542 5.4549V10.2276C50.0542 10.5004 49.7837 10.6367 49.2425 10.6367H48.8367C48.2955 10.6367 48.0249 10.5004 48.0249 10.2276V5.72763C48.0249 5.4549 48.0249 5.18217 47.8896 5.04581C47.7543 4.90945 47.4838 4.77308 47.2132 4.77308C46.9426 4.77308 46.672 4.90945 46.5368 5.04581C46.4015 5.18217 46.2662 5.4549 46.1309 5.59127V10.2276C46.1309 10.5004 45.8603 10.6367 45.3192 10.6367H44.9133C44.3722 10.6367 44.1016 10.5004 44.1016 10.2276V5.72763C44.1016 5.4549 44.1016 5.18217 43.9663 5.04581C43.831 4.90945 43.5604 4.77308 43.2899 4.77308C43.0193 4.77308 42.7487 4.90945 42.6134 5.04581C42.4781 5.18217 42.2076 5.4549 42.2076 5.59127V10.2276C42.2076 10.5004 41.937 10.6367 41.3958 10.6367H40.99C40.4488 10.6367 40.1783 10.5004 40.1783 10.2276V5.72763C40.1783 5.04581 40.1783 4.50036 40.043 3.9549C40.043 3.81854 40.043 3.68217 40.043 3.68217C40.043 3.54581 40.1783 3.54581 40.3135 3.40945C40.4488 3.40945 40.7194 3.27308 40.99 3.27308C41.2606 3.27308 41.3958 3.27308 41.5311 3.27308C41.6664 3.27308 41.8017 3.27308 41.937 3.40945C41.937 3.54581 42.0723 3.68217 42.0723 3.9549V4.22763C42.3429 3.9549 42.6134 3.68217 43.0193 3.40945C43.4252 3.13672 43.831 3.13672 44.2369 3.13672C44.778 3.13672 45.1839 3.27308 45.4545 3.40945C45.725 3.54581 45.9956 3.81854 46.1309 4.22763C46.4015 3.9549 46.6721 3.68217 47.0779 3.40945C47.4838 3.13672 47.8896 3.13672 48.2955 3.13672C48.7014 3.13672 49.1072 3.40945 49.5131 3.68217Z" fill="#2A2E2C"/>
</svg>
