<svg width="140" height="48" fill="none" xmlns="http://www.w3.org/2000/svg"><path d="M24.312 22.55c-1.596 0-2.953-.012-4.309 0-.822.01-.558-.787-.399-1.489.63-2.794 1.277-5.578 1.995-8.723-.447.563-4.508 6.577-6.343 9.202-.351.499-1.03.828-1.532.967-.599.17-.806.063-1.748.063-2.513.011-3.064-.924-3.303-3.538-.207-2.317-.965-6.206-1.045-6.44-.152.436-.327.872-.455 1.318-.71 2.37-1.412 4.729-2.106 7.098-.343 1.159-.854 1.562-1.756 1.573-3.861.053-3.917.096-2.338-5.069C2.617 12.125 4.35 6.738 6.096 1.362 6.359.436 6.998.213 7.644.191c4.404-.138 4.364-.127 4.867 5.133.32 3.379.806 10.402.806 10.402s7.747-10.891 9.207-13.154C23.554.979 24.671.139 26.011.118 30.36.054 29.697-.7 28.572 4.453c-1.292 5.93-2.784 11.87-4.26 18.096zm109.597-7.312c-.104 1.753.447 5.727.543 7.65.016.362-.208.67-.487.67-1.532.01-2.944.032-4.317-.043-.255-.01-.407-.573-.462-.966-.344-2.242-.583-4.548-.998-6.748-.104-.563-.622-1.105-1.117-1.126a78.749 78.749 0 00-4.197-.064c-.798.01-1.213.361-1.484 1.434-.518 2.04-1.133 4.07-1.659 6.11-.272 1.052-.695 1.435-1.492 1.456a82.31 82.31 0 01-3.224 0c-.925-.01-.997-.51-.694-1.583.75-2.646 1.428-5.281 2.178-7.927.822-2.9 2.298-4.346 4.492-4.367 3.647-.043 7.285-.043 10.923-.043.671 0 1.229-.042 1.588-1.264.359-1.212.303-1.807-.742-1.796-3.407.064-11.354-.074-12.144-.01-.989.01-2.114.87-1.771-1.074.335-1.902 1.683-3.772 2.992-4.165.431-.128.862-.149 1.269-.149 4.883-.042 9.774-.085 14.649-.095 2.01-.011 2.665 1.21 1.987 3.889-.567 2.242-1.165 4.494-1.915 6.726-.471 1.392-1.484 2.337-2.633 2.71-.32.106-.631.159-.894.201-.2.043-.375.277-.391.574z" fill="#000"/><path d="M123.943 25.598c2.394 0 4.796-.022 7.189.01 2.107.021 2.649 1.052 1.963 3.857a152.404 152.404 0 01-1.707 6.28c-.814 2.742-2.115 4.038-4.197 4.07-3.615.064-7.213.074-10.788 0-1.156-.021-1.787.436-2.146 2.061-.335 1.53-.862 3.082-1.237 4.623-.287 1.158-.75 1.508-1.587 1.498-.806-.01-1.899.01-3.224 0-.702-.01-.862-.383-.614-1.275.846-3.029 1.612-6.057 2.521-9.085.654-2.179 2.21-3.539 3.95-3.56 3.726-.032 7.444-.021 11.162 0 .782.01 1.277-.223 1.62-1.456.343-1.232.135-1.625-.782-1.615-4.021.053-8.043.075-12.016-.032-.718-.02-2.226.967-1.835-1.105.399-2.104 1.835-4.006 3.279-4.165 1.564-.18 3.072-.085 4.604-.106 1.284-.011 2.561 0 3.845 0z" fill="#8C9091"/><path d="M47.602 22.58c.311 0 .543-.372.495-.786-.718-5.78-1.46-11.986-2.155-17.745-.502-4.144-.47-4.155-3.997-4.006-1.197.053-2.242.733-3.176 2.104A24349.46 24349.46 0 0024.942 22.57h3.87c2.106-.011 2.425-.893 3.79-3.05 1.81-2.869 7.308-10.998 8.346-12.507.279 2.498.518 4.612.773 6.94-2.473.318-4.1 2.06-5.401 5.015.024-.032 2.665-.011 4.78 0 .933 0 1.276.403 1.46 1.413.143.807.31 2.189.861 2.2 1.548.031 3.295.01 4.18 0zM96.408.808c1.181-.043 1.277.637.758 1.998-.83 2.188-2.41 3.708-4.268 3.793-.703.032-1.317.074-2.602 0-1.18-.064-1.739.319-2.178 2.05-1.077 4.283-2.353 8.576-3.462 12.869-.4 1.54-.918 2.082-2.107 2.072-.798 0-1.14.053-2.098 0-1.213-.064-1.492-.34-1.014-1.987 1.285-4.4 2.402-8.799 3.655-13.198.39-1.36.2-1.817-.846-1.806-2.146.021-3.216-.021-4.843.042-.958.043-1.237-.36-.846-1.7.734-2.486 2.266-4.059 4.237-4.09 2.609-.043 12.99.053 15.614-.043z" fill="#000"/><path d="M56.841 32.611c2.69 0 5.378-.01 8.059 0 1.93.01 2.609 1.392 1.93 3.92a373.38 373.38 0 01-1.898 6.94c-.583 2.018-2.107 3.58-3.63 3.591-5.554.043-11.075.01-16.62.032-.71 0-.806-.393-.59-1.286.661-2.73 2.201-4.356 4.292-4.378 3.439-.032 6.861-.02 10.292 0 .87 0 1.564.096 2.027-1.636.447-1.668-.28-1.551-1.101-1.54-3.678.01-7.364.02-11.035 0-1.867-.011-2.553-1.53-1.947-3.985.296-1.19.734-1.68 1.66-1.669 2.848.053 5.705.011 8.561.011z" fill="#8C9091"/><path d="M62.913 15.206c-2.689 0-5.377.01-8.058 0-1.931-.01-2.61-1.392-1.931-3.921a373.304 373.304 0 011.899-6.939c.582-2.019 2.106-3.58 3.622-3.591C63.998.702 69.528.745 75.073.723c.71 0 .798.393.59 1.286-.662 2.73-2.202 4.356-4.292 4.377-3.44.032-6.862.022-10.293 0-.87 0-1.564-.095-2.027 1.637-.454 1.668.272 1.54 1.094 1.54 3.678-.01 7.364-.02 11.034 0 1.867.011 2.553 1.53 1.947 3.985-.295 1.19-.734 1.69-1.66 1.668-2.84-.053-5.696-.01-8.553-.01zm32.482 8.384c-1.93-.032-2.593-1.37-1.947-3.974a129.579 129.579 0 011.58-5.78c.798-2.668 2.194-3.985 4.229-3.996 3.973-.021 7.939-.01 11.904 0 1.253 0 1.373.52.543 2.125-.822 1.584-2.106 2.604-3.423 2.614-2.41.032-4.819.064-7.189-.01-1.021-.032-1.404.563-1.74 1.774-.35 1.254-.063 1.594.831 1.583a574.69 574.69 0 0110.42-.01c1.907.01 2.689 1.477 2.21 3.814-.271 1.308-.726 1.913-1.795 1.881-2.625-.064-13.07.01-15.623-.021zm2.809-16.938c-1.053.032-1.117-.573-.726-1.785.766-2.38 2.25-3.846 4.061-3.857 5.25-.021 10.476.021 15.734-.042 1.037-.011 1.125.563.734 1.774-.742 2.338-2.282 3.857-4.077 3.878-2.649.032-13.109-.053-15.726.032z" fill="#000"/><path d="M90.073 25.194c1.181-.042 1.277.638.758 1.998-.83 2.189-2.41 3.708-4.268 3.793-.702.032-1.317.075-2.601 0-1.181-.063-1.74.319-2.179 2.051-1.077 4.282-2.353 8.575-3.462 12.868-.4 1.551-.918 2.082-2.107 2.072-.798 0-1.14.053-2.098 0-1.213-.064-1.492-.34-1.014-1.987 1.285-4.4 2.402-8.798 3.655-13.197.39-1.36.2-1.817-.846-1.807-2.154.021-3.216-.021-4.843.043-.958.042-1.237-.362-.846-1.7.734-2.487 2.266-4.06 4.237-4.091 2.609-.053 12.99.042 15.614-.043zm-1.013 22.76c-1.93-.032-2.593-1.37-1.947-3.963a129.546 129.546 0 011.58-5.78c.798-2.668 2.194-3.985 4.229-3.996 3.973-.021 7.939-.01 11.912 0 1.253 0 1.373.52.543 2.125-.822 1.583-2.107 2.604-3.423 2.614-2.41.032-4.82.064-7.19-.01-1.02-.032-1.403.563-1.739 1.774-.35 1.254-.063 1.594.83 1.583a568.47 568.47 0 0110.421-.01c1.907.01 2.689 1.477 2.21 3.814-.271 1.307-.726 1.902-1.795 1.881-2.633-.074-13.078 0-15.631-.032zm2.809-16.937c-1.054.032-1.118-.574-.727-1.785.767-2.38 2.25-3.847 4.062-3.857 5.25-.022 10.476.02 15.734-.043 1.037-.01 1.125.563.734 1.775-.742 2.337-2.274 3.857-4.077 3.878-2.649.032-13.11-.043-15.726.032z" fill="#8C9091"/><path d="M71.754 17.363H53.203c-1.045 0-2.162.999-2.498 2.22l-1.412 5.165c.36-1.19 1.452-2.147 2.474-2.147h18.55a.62.62 0 00.024-.074l1.413-5.164z" fill="#000"/><path d="M67.844 24.748h-18.55a.452.452 0 00-.025.074l-1.412 5.164h18.551c1.045 0 2.162-.998 2.497-2.22l1.413-5.164c-.351 1.19-1.453 2.146-2.474 2.146z" fill="#8C9091"/></svg>