<?xml version="1.0" encoding="UTF-8"?><svg id="Livello_1" xmlns="http://www.w3.org/2000/svg" viewBox="0 0 417.97 358.99"><defs><style>.cls-1{fill:#e83f4b;}.cls-2{fill:#1d1d1b;}</style></defs><g><g><g><path class="cls-1" d="m61.21,50.09c-9.72,0-17.7-7.48-17.7-17.77s8.25-17.91,18.05-17.91c7.97,0,14.76,4.97,16.72,13.15h-9.51c-1.47-2.87-4.06-4.69-7.41-4.69-4.9,0-8.81,3.92-8.81,9.37s3.92,9.37,8.81,9.37c3.15,0,5.6-1.61,7.13-4.2h9.58c-2.24,8.32-9.44,12.66-16.86,12.66"/><path class="cls-1" d="m107.2,32.26c0-5.81-3.15-9.23-7.69-9.23-4.27,0-8.53,3.08-8.53,9.23s4.27,9.23,8.53,9.23c4.55,0,7.69-3.43,7.69-9.23m8.74-17.49v34.97h-6.85l-.98-3.36h-1.05c-2.17,2.38-5.11,3.71-8.88,3.71-8.88,0-16.3-7.27-16.3-17.84s7.41-17.84,16.3-17.84c3.64,0,6.78,1.26,9.02,3.78v-3.43h8.74Z"/></g><rect class="cls-1" x="123.4" width="9.09" height="49.66"/><rect class="cls-1" x="139.62" width="9.09" height="49.66"/><rect class="cls-1" x="156" y="14.69" width="8.95" height="34.97"/><g><path class="cls-1" d="m195.69,32.17c0-5.81-3.15-9.23-7.69-9.23-4.27,0-8.53,3.08-8.53,9.23s4.27,9.23,8.53,9.23c4.55,0,7.69-3.43,7.69-9.23m8.74-17.49v31.47c0,9.44-4.83,17.84-16.79,17.84-11.19,0-17.28-7.34-17.28-12.87h8.74s1.33,4.55,8.25,4.55c5.88,0,8.32-3.22,8.32-8.11v-1.33c-2.24,2.52-5.39,3.78-9.02,3.78-8.88,0-16.3-7.27-16.3-17.84s7.41-17.84,16.3-17.84c3.78,0,6.71,1.33,8.88,3.71h1.05l.98-3.36h6.85Z"/><path class="cls-1" d="m234.78,32.17c0-5.81-3.15-9.23-7.69-9.23-4.27,0-8.53,3.08-8.53,9.23s4.27,9.23,8.53,9.23c4.55,0,7.69-3.43,7.69-9.23m8.74-17.49v34.97h-6.85l-.98-3.36h-1.05c-2.17,2.38-5.11,3.71-8.88,3.71-8.88,0-16.3-7.27-16.3-17.84s7.41-17.84,16.3-17.84c3.64,0,6.78,1.26,9.02,3.78v-3.43h8.74Z"/><path class="cls-1" d="m271.95,14.34v8.95c-.7-.14-1.89-.28-3.08-.28-4.9,0-10,2.52-10,8.95v17.7h-9.3V14.69h7.13l1.26,3.85h1.12c1.54-1.54,4.97-4.2,10.7-4.2h2.17Z"/></g><rect class="cls-1" x="277.02" y="14.69" width="8.95" height="34.97"/><g><path class="cls-1" d="m304.35,21.75c-2.94,0-4.2,1.47-4.2,2.94,0,2.38,3.15,3.08,5.25,3.5,6.22,1.33,12.52,3.22,12.52,10.63s-5.95,11.19-13.15,11.19c-8.04,0-14.27-4.9-14.69-12.31h8.6c.21,2.1,1.61,4.83,5.88,4.83,3.57,0,4.41-1.89,4.41-3.36,0-2.59-2.45-3.36-4.83-3.92-4.13-.91-13.01-2.59-13.01-10.56,0-6.85,6.57-10.35,13.36-10.35,7.83,0,13.01,4.76,13.43,10.63h-8.6c-.28-1.19-1.4-3.22-4.97-3.22"/><path class="cls-1" d="m275.48,6.03c0-3.36,2.73-5.95,6.01-5.95s5.88,2.59,5.88,5.95c0,3.15-2.66,5.88-5.88,5.88s-6.01-2.73-6.01-5.88"/><path class="cls-1" d="m154.46,6.03c0-3.36,2.73-5.95,6.01-5.95s5.88,2.59,5.88,5.95c0,3.15-2.66,5.88-5.88,5.88s-6.01-2.73-6.01-5.88"/></g></g><g><path class="cls-1" d="m356.62,7.24c-13.69,0-24.79,11.15-24.79,24.93,0,11.27,7.44,20.8,17.67,23.88l2-2.98s-2-5.69-3.03-11.01c-.57-2.84-1.74-11.8,6.31-21.64,0,0,.16-3.03-3.89-3.14l-5.98-.02-.15-.18s7.24-2.56,7.6-2.86c2.82-2.43,6.75-4.66,13.85-1.02,0,0-4.13-.76-3.98,2.82h0c0,.12-.13,4.25-.13,4.25,0,0-.28,1.26,1.42,6.98.53,1.79.75,3.66.62,5.53-.09,1.26-.28,2.85-.65,4.79-.76,3.9-2.59,9.24-5.94,16.4l-.06.02c-2.84-6.87-3.9-11.21-3.87-16.49.01-4.22.95-7.8,2.76-10.6l-1.6-.52c-1.9,2.92-2.87,6.61-2.88,10.98-.04,4.9.81,8.72,3.2,14.95l-2.62,4.43c1.34.23,2.73.36,4.12.36,13.71,0,24.81-11.17,24.81-24.93s-11.1-24.93-24.81-24.93"/><circle class="cls-1" cx="356.51" cy="14.72" r="1.11"/></g></g><path class="cls-2" d="m400.35,109.34c-.12.33-3.28,4.89-4.5,7.07-2.54,4.53-9.85,17.73-9.74,18,.11.22,1.8.16,2.45.12.42-.07,5.75-11.77,8.61-16.44,2.7-4.48,6.43-9.29,6.84-9.47,1.64-.68,4.43-.85,5.84-.87,2.59-.04,4.38.01,6.24.39,1.28.28,1.97-1.92,1.86-2.28-.04-.24-1-.43-1.53-.54-1.94-.39-9.72.53-10.72.78-.19.03,1-1.35,2.86-2.67.38-.27-.31-1.72-.43-1.88-.71-1.12-1.2-1.16-2.16-.21-1.04.99-3.42,4.43-3.94,5.03-.12.14-.28.33-.42.38-.41.12-.97.29-1.32.39-3.89,1.13-14.75,4.26-16.04,4.97-.87.46-1,.99-.5,1.79.25.37.42.46.87.33.71-.21,1.41-.46,2.12-.71,3.98-1.33,13.14-4.09,13.61-4.18Z"/><path class="cls-2" d="m404.09,134.43c.2-.63,1.83-4.79,2.37-5.79.83-1.58,1.85-3.47,2.6-5.09.42-.95.57-1.98.05-2.77-.53-.83-2.38-1.95-3.73-1.43-.47.19-1.14.47-1.82.94,1.21-1.97,1.2-2.04,2.66-4.18.61-.87,1.21-1.7,1.78-2.57.3-.42.45-.83.3-1.33-.15-.5-.38-.95-.72-1.33-.46-.5-.76-.46-1.25,0-.68.75-.63.66-1.24,1.53-1.85,2.7-2.25,3.67-3.83,6.62-1.62,2.98-3.17,6.02-4.61,9.12-.57,1.2-2.15,4.9-2.45,6.05-.11.42.87.31,1.9.31.53,0,.76.08.9-.48.66-2.67,1.53-4.13,2.11-5.55,1.17-2.48,2.29-4.57,3.47-6.57,1.41-.56,3.48-1.08,3.91-.39.53.79-.32,2.47-.73,3.42-.38.83-3.73,8.01-3.69,9.5.01.15.62.06,1.11.07.42,0,.9.04.92-.09Z"/><path class="cls-2" d="m64.22,103.22c-2.3-4.67-8.71-4.04-10.58.45-7.02,13.5-16.48,26.08-25.92,38.11-6.21,7.54-12.64,15.04-20.26,21.18-.91.65.07,2.05.99,1.49,8.71-5.15,16.23-11.92,23.44-18.86,6.81-6.78,13.49-13.65,19.66-20.98-3.86,26.63-9.23,54.59-8.05,80.74,1.13,20.19,1.42,40.94,10.97,59.13,1.12,2.07,6.05.76,6.04-.83-.15-30.02,1.5-57.78,1.78-87.4-.16-19.74,1.11-39.32,2.43-59.09.19-3.6.46-7.45.21-11.18-.07-.8-.29-1.91-.72-2.76Z"/><g><path class="cls-2" d="m203.22,188.89c.17,34.15,32.15,46.92,59.56,54.96,9.67,2.78,19.55,5.25,29.29,6.91,4.72.75,9.08,1.35,13.8.88,30.94-3.84,49.37-36.65,56.3-64.5,4.67-19.03,12.8-52.69-10.96-61.41-8.52-3.13-18.26-3.2-27.59-2.76-30.13,1.85-59.93,9.76-87.59,21.89-18,8.04-32.51,22.41-32.8,44.03h0Zm-6.88,0c.29-31.94,35.02-59.3,62.13-70.8,51.2-21.87,145.82-27.02,116.53,56.24-10.67,29.71-24.55,62.68-50.75,82.12-7.17,4.98-16.07,8.51-25.05,9.05-14.13.63-28.07-2.23-41.22-6.67-30.1-10.48-61.28-35.64-61.63-69.95h0Z"/><path class="cls-2" d="m258.38,186.62c-.14,34.59-31.1,60.03-61.44,70.74-13.2,4.54-27.18,7.65-41.4,7.07-8.93-.53-17.79-4.13-24.83-9.23-27.02-19.39-46.81-67.72-53.67-99.7-12.48-70.65,78.02-58.68,119.31-40.37,27.74,12.02,61.58,38.72,62.03,71.5h0Zm-6.6,0c-1.32-33.56-33.56-48.35-60.67-57.93-19.36-6.6-39.74-10.82-60.11-11.9-18.21-1-35.13,1.71-38.61,22.94-2.6,15.13.82,30.58,4.58,45.37,7.15,29.45,28.65,68.56,63.04,67.63,12.5-1.03,20.57-4.4,32.73-8,9.8-3.07,19.48-6.53,28.74-11.04,19.18-9.18,30.33-24.41,30.3-47.08h0Z"/></g><g><path class="cls-2" d="m192.14,297.94l5.43-6.21c.29-.48,0-1.45-.78-2.33-.88-.78-1.75-1.17-2.13-.68l-5.43,6.21c-.39.48,0,1.45.78,2.33.78.78,1.75,1.16,2.13.68Z"/><path class="cls-2" d="m118.49,304.25c-.58-.97-1.55-1.65-2.23-1.55,0,0-5.68.66-9.85,1.05,1.45-3.11,12.24-34.27,14.08-40.76,2.43-8.92.37-13.52-3.43-10.5-3.15,2.5-8.91,6.94-23.94,22.46-17.84-11.73-49.75-3.39-71.18,7.76-5.53,2.81-10.38,5.92-14.16,8.93-3.69,3.01-6.3,5.81-7.27,8.34-1.07,2.52-.49,4.95,1.94,7.08,5.82,5.14,30.45,5.34,55.28,4.17-17.07,17.36-33.55,30.47-43.45,38.71.1-.48-.2-1.26-.78-1.94-.78-.87-1.75-1.26-2.13-.87-.1,0-7.27,6.4-6.59,9.02.58,2.33,1.94,3.2,3.78,2.72,5.63-1.45,30.36-22.52,55.38-48.03,13.48-.78,26.57-1.94,36.17-2.81-5.82,12.22-10.86,20.24-15.3,27.7-4.71,7.92-6.88,11.46-7,13.05-.16,1.97,1.65,2.91,3.2,2.52.97-.19,3.83-2.84,6.79-7.47,4.35-6.79,9.47-15.79,12.47-22.26,2.1-4.54,3.41-8.82,5.37-14.14,5.92-.58,12.76-1.34,12.86-1.34.58-.1.68-.97,0-1.84Zm-57.37,3.47c-25.7,1.56-52.46,2.04-57.89-2.71-.29-.29-.2-1.07.29-2.33.97-2.33,3.49-5.04,7.08-7.95,3.69-2.91,8.44-6.01,13.97-8.83,20.36-10.57,50.04-18.81,66.92-9.31l-3.88,3.98c-8.24,8.53-17.36,17.94-26.48,27.15Zm41.7-5.53l-.97,2.04c-8.53.87-21.04,2.13-34.43,3.01,7.95-8.05,15.81-16.2,22.99-23.57l4.56-4.75c3.78,3.11,6.01,6.89,7.17,11.25.97,3.78,1.07,7.85.68,12.02Zm2.33-10.67c-1.36-5.24-4.07-10.08-8.73-14.06,1.91-1.96,3.75-3.85,5.52-5.66,3.84-3.93,15.21-16.82,16.71-16.23,1.89.66-7.98,28.19-11.08,35.66-.48,1.35-1.07,2.71-1.65,3.97-.2-1.26-.39-2.52-.78-3.69Z"/><path class="cls-2" d="m286.69,298.41c.39-.39,0-1.45-.78-2.23-.67-.87-1.65-1.26-2.03-.87,0,0-13.67,12.34-14.3,12.89-3.39,2.68-9.13,7.4-10.67,7.4-2.39,0-2.75-1.46-2.75-2.34,0-.95.46-2.27,1.41-4.04.92-1.71,3.29-5.99,3.74-6.58.38-.5.57-.96.57-1.35,0-.75-.13-1.52-.38-2.28-.22-.65-.49-1.09-.76-1.24,0,0-.18-.08-.81-.08-1.31,0-4.54.4-9.61,1.19,0,0-3.89.45-4.83,1.71-.87,1.16-.33,2.33-.07,2.61.29.32.76.62,1.49.85.41.13.9.18,1.26.21l-.09.03s-1.08,1.97-6.09,7.63c-6.02,6.78-24.68,12.31-19.48.28.11-.26,5.43-.58,9.99-2.9,2.33-1.17,4.26-3.3,5.33-5.34.48-.97.88-1.84.97-2.71.19-1.16-.2-2.43-1.16-3.49-.68-.78-1.45-1.26-2.33-1.45-1.06-.19-3.69.97-6.49,2.91-2.13,1.55-4.36,3.59-6.3,5.72-1.33,1.53-2.43,3.2-3.15,4.87-2.47,1.49-6.73,1.8-6.73,1.72,0-2.04,3.88-6.98,3.88-7.08.39-.39-.58-2.13-1.45-2.91-.78-.87-1.26-.87-1.65-.39l-.58.88c-5.53,7.37-11.93,14.25-16.39,17.45-.97.97-2.33,1.36-1.75,0,1.94-4.75,8.44-13.77,8.53-13.86.29-.39,0-1.26-.68-2.04-.78-.87-2.52-1.75-2.91-1.36l-5.14,5.04c-.38.29-10.17,11.94-13.58,11.44-.97-.48-1.07-2.03.29-4.75,2.13-4.07,5.62-8.24,7.76-10.08.49-.39.2-1.36-.58-2.23-.78-.88-1.75-1.26-2.23-.88-1.95,1.61-5.09,5.09-7.1,8.83-1.89,3.51-11.37,9.23-12.36,6.82-.51-1.24.74-2.94,2-5.46.68-1.45,1.36-2.71,1.65-3.78.68-2.43.19-4.27-2.72-5.14h-.19c-2.13-.58-7.86,3.69-13.09,8.05l2.43-4.36c.29-.49-.1-1.55-.97-2.33-.78-.78-1.75-.97-2.03-.48l-3.78,6.75c-1.59,2.8-12.13,12.32-13.2,9.24-.84-2.42,1.66-5.41,2.91-7.94.68-1.45,1.36-2.71,1.65-3.78.68-2.43.19-4.27-2.71-5.14h-.2c-2.13-.58-7.85,3.69-13.09,8.05l2.43-4.36c.29-.49-.1-1.55-.97-2.33-.78-.78-1.74-.97-2.03-.48l-8.73,15.62c-.29.48.2,1.45.97,2.33.78.68,1.65.97,1.94.58.39-.39,13.29-12.7,18.81-15.61-.29.78-.68,1.55-1.07,2.33-1.84,3.79-5.23,10.21-.87,13.02,2.46,1.61,7.49-2.7,10.71-5.33l-1.5,2.69c-.29.48.19,1.45.97,2.33.78.68,1.65.97,1.94.58.39-.39,13.29-12.7,18.81-15.61-.29.78-.68,1.55-1.07,2.33-1.84,3.79-3.98,8.05.39,10.86,2.8,1.83,7.3-1.21,10.75-4.28-.5,2.02-.46,3.91.4,5.44,2.56,4.46,13.76-6.12,19.22-11.1-1.57,1.43-5.98,9.92-5.73,11.01.1.68.39,1.26.87,1.84,1.17,1.35,2.62,1.65,4.17,1.16.97-.39,2.23-1.16,3.69-2.23,2.81-1.94,6.3-5.14,9.89-9.02l.1.2c1.4,2.9,6.42,2.51,9.04,1.32-.17,3.37,1.77,6.64,4.71,8.28,3.79,2.15,7.57,3.17,15.71-3.67,6.78-5.69,11.58-12.15,13-14.16.16-.12.36-.22.62-.3.95-.26,1.14-.27,2.01-.43.87-.16,1.64-.32,2.34-.46l1.64-.35s-2.46,4.86-3.51,6.44c-1.03,1.57-1.82,3.03-2.35,4.36-.52,1.29-.78,2.45-.78,3.44,0,1.68.31,2.97.93,3.82,1.12,1.54,2.7,1.59,4.89.19,1.11-.71,2.34-1.69,3.65-2.9,1.29-1.19,8.7-7.19,11.61-9.32l7.88-7.11c-2.94,4.6-2.1,6.59-1.93,8.63.19,2.27.18,4.48-.5,5.83-.29.68-.87,1.36-1.45,1.75-.58.48-1.26.78-1.94.87-.78.2-1.55.2-1.94,0-.19-.1,1.16-2.52,1.16-2.62.2-.48-.19-1.55-1.07-2.33-.87-.78-1.75-.97-2.03-.48,0,.1-3.01,5.53,2.52,8.34,1.07.58,2.43.78,3.79.49.78-.2,1.55-.58,2.23-1.07.68-.58,1.36-1.26,1.84-2.13.78-1.65,1.07-3.88.48-6.69-1.07-4.46.36-8.76,2.4-11.08l2.33-2.23Zm-55.19,3.99c1.45-1.07,2.72-1.84,3.78-2.33-.19.39-.29.67-.48,1.06-1.07,1.84-2.81,3.88-4.85,4.95-1.55.68-3.01,1.26-4.36,1.65,1.75-2.03,3.98-3.88,5.92-5.33Z"/><path class="cls-2" d="m396.67,330.13c-.48-.97-1.45-1.75-2.23-1.84-17.94-1.55-31.9-1.45-42.47-.29,5.92-10.38,13.09-23.86,13.09-23.86.29-.48-.19-1.45-.97-2.23-.88-.78-1.65-1.07-2.04-.58,0,0-10.67,16.97-17.36,15.52-.58-.39-.39-2.52-.19-2.91,1.26-3.01,3.69-6.69,6.79-10.28.39-.48,0-1.45-.78-2.33-.78-.78-1.75-1.17-2.13-.68-2.42,2.88-4.49,5.81-5.88,8.44l-.36.76c-3.39,2.7-7.93,6.28-9.26,6.28-2.39,0-2.75-1.46-2.75-2.34,0-.95.46-2.27,1.41-4.04.92-1.71,2.91-5.12,3.35-5.72.38-.5.57-.96.57-1.35,0-.75-.13-1.52-.38-2.28-.22-.65-.49-1.09-.77-1.24,0,0-.18-.08-.81-.08-1.31,0-13.95,1.39-14.45,2.9-.37,1.46.75,3.09,1.42,3.46.69.38,1.75.24,1.75.24,0,0-1.29,1.48-3.36,3.12-3.07,2.48-13.92,9.43-14.25,7.49-.58-2.71,2.78-6.42,2.97-6.9.29-.49-.1-1.36-.78-2.13-.87-.88-1.75-1.16-2.13-.78,0,0-10.91,12.2-16.56,12.07,1.07-4.46,4.24-9.24,7.83-12.15,1.75-1.45,8.71-5.05,10.65-3.21.94.91.75,2.01,2.02,2.07.8.04,1.44-.49,1.05-1.46-1.65-5.62-12.07-4.09-16.44-.5-2.52,2.04-5.84,5.15-7.15,9.06-.44,1.32-.97,2.52-1.07,3.68-.2,1.46.19,2.81,1.16,4.08.58.58,1.16,1.16,1.94,1.45,2.13.97,9.99-1.67,13.47-4.97-.1,4.75,3.3,6.11,7.76,3.78,1.13-.58,2.48-1.55,4.16-2.92,2.4-2.23,11.95-12.41,12.97-12.7.95-.26,5.57-1.12,5.57-1.12,0,0-2.08,3.99-3.12,5.58-1.03,1.57-1.82,3.03-2.35,4.36-.52,1.29-.78,2.45-.78,3.44,0,1.68.31,2.97.93,3.82,1.12,1.54,2.7,1.59,4.89.19,1.11-.71,2.34-1.69,3.65-2.9.66-.61,2.95-2.5,5.41-4.47-.14.63-.2,1.22-.16,1.75,0,2.03,1.07,3.69,3.01,4.75.68.39,1.36.58,2.23.68,2.03.19,5.14-1.85,8.15-4.47-2.03,3.69-4.46,7.95-6.98,12.22-10.08,1.55-16.63,3.83-20.66,6.88-13.05,9.91-9.39,17.53-3.49,19.74,3.32,1.24,7.73.25,9.83-1.13,4.86-3.21,10.54-11.24,17.03-22.2,10.96-1.56,26.09-1.94,46.65-.2.78,0,.88-.68.39-1.55Zm-65.42,20.27c-9.52,6.38-14.85-5.85-2.18-12.58,3.5-1.86,8.16-3.52,15.43-5.07,0,2.54-10.62,15.89-13.25,17.65Z"/></g></svg>